<svg width="80" height="68" viewBox="0 0 80 68" fill="none" xmlns="http://www.w3.org/2000/svg">
<path d="M30.86 1.80067C34.9691 3.64349 38.0988 7.00333 39.9997 11.0317C42.1669 6.39585 46.0167 2.70681 50.9312 1.09138C56.1769 -0.676781 62.1699 -0.228802 67.1971 2.02806C71.7806 4.0745 75.5655 7.73639 77.7395 12.2433C81.6336 20.2492 80.4289 30.4068 74.6474 37.2147C72.2209 40.0451 68.552 42.397 64.7501 42.6312C65.7637 41.8099 66.7841 41.0836 67.6442 40.0858C69.8387 37.5948 71.1322 34.2791 71.4837 31.0041C71.8045 27.9938 71.3472 24.8003 69.7363 22.1905C67.9309 19.2684 64.634 17.3917 61.245 16.981C59.4259 16.7197 57.6785 17.0319 55.9209 17.4833C57.3031 18.291 58.6137 19.1191 59.6205 20.3918C61.8662 23.1068 62.46 26.9757 61.1597 30.2405C60.3884 32.2564 58.9515 33.8277 57.1939 35.0563C58.4055 37.6695 59.6683 40.2589 60.8457 42.8891C57.8116 43.259 55.2656 42.6583 52.6377 41.1718C52.4807 42.4241 52.1633 43.2862 51.5046 44.3552C52.1121 46.2557 52.9619 47.2942 54.5762 48.4481C53.3237 48.6687 52.1428 48.7264 50.8732 48.6925C51.5558 50.1755 52.409 51.2751 53.5967 52.3883C52.5455 52.5138 51.5183 52.5749 50.4637 52.5681C50.4739 52.8329 50.4807 53.0976 50.491 53.3623C51.9346 54.041 53.3851 54.713 54.8322 55.3884C55.7707 53.3759 56.7059 51.3633 57.6478 49.3508C59.9549 50.4063 62.2621 51.4584 64.5692 52.5172C63.6545 54.4856 62.7467 56.454 61.8389 58.4258C61.5215 59.0367 61.2553 59.6679 60.5522 59.9191C59.5795 60.2652 58.7468 59.8817 57.8594 59.5016C55.3646 58.3443 52.8698 57.1735 50.3613 56.04C50.5865 57.9133 51.0712 59.3862 51.9858 61.0424C51.0848 60.9609 50.0507 60.9575 49.2043 60.6148C48.4262 60.2992 47.8323 59.6815 47.2248 59.1283C47.2146 61.358 47.4399 63.4655 48.1395 65.5934C45.6105 65.0606 43.7539 64.2767 41.6584 62.7766C42.3546 63.995 42.9553 65.1489 44.0645 66.0618C44.7027 66.6048 45.4194 66.9408 46.1566 67.3209C42.7198 67.4668 39.4981 67.3073 36.5391 65.3695C34.0238 63.7574 32.6245 61.2189 31.9419 58.3783C31.4402 59.5966 31.1126 60.7403 30.8737 62.0402C28.4198 59.505 28.041 55.816 29.215 52.5919C28.273 52.5546 27.3345 52.4969 26.396 52.3815C27.6041 51.2615 28.4266 50.1925 29.1194 48.6992C27.8601 48.723 26.6758 48.6653 25.4301 48.4515C27.0717 47.2603 27.8567 46.2795 28.5017 44.345C27.826 43.2692 27.512 42.4275 27.3584 41.1549C24.7032 42.6855 22.2186 43.2488 19.1436 42.8891C20.3347 40.2657 21.5872 37.6729 22.8022 35.0597C21.5974 34.1671 20.4882 33.2067 19.693 31.9204C17.8262 29.0221 17.6555 25.1973 19.2357 22.1396C20.2869 20.0252 22.0411 18.6032 24.0786 17.4833C22.2595 17.0116 20.4507 16.7061 18.5668 17.0048C14.3655 17.5783 10.5874 20.3171 9.21203 24.3828C7.02437 30.8208 9.468 38.8369 15.2631 42.6244C11.6488 42.4275 8.13015 40.2589 5.73771 37.6491C-1.38159 29.7484 -1.98226 17.0048 4.53296 8.56107C10.4509 0.707879 21.8636 -2.22774 30.86 1.80067Z" fill="white"/>
<path d="M48.2658 17.3271C46.986 17.9923 45.7642 18.6541 44.7608 19.7095C43.5867 20.8736 42.8393 22.3092 42.2932 23.8533C40.6721 23.5377 39.3343 23.5275 37.7166 23.8466C37.1841 22.4212 36.5323 21.0806 35.4777 19.9607C34.4299 18.783 33.116 18.033 31.7235 17.3271C32.9453 16.0646 34.29 14.982 35.9692 14.3745C40.2626 12.7455 45.2317 13.8621 48.2658 17.3271Z" fill="#D4D4D4"/>
<path d="M25.9046 20.3475C28.1332 19.5669 30.6929 20.0421 32.471 21.5862C34.5426 23.334 35.3412 26.2561 34.4368 28.8082C33.4914 31.5639 30.7065 33.4509 27.7782 33.2744C24.6486 33.1488 21.9354 30.7019 21.4951 27.6204C20.9934 24.4981 22.9115 21.3724 25.9046 20.3475Z" fill="#D4D4D4"/>
<path d="M49.7811 20.3134C52.4261 19.4242 55.426 20.3303 57.1393 22.5125C58.8082 24.5827 59.0437 27.5794 57.7195 29.8838C56.4089 32.2323 53.6923 33.5966 51.0132 33.2267C47.9757 32.8567 45.4945 30.308 45.2249 27.2774C44.8938 24.223 46.8528 21.2602 49.7811 20.3134Z" fill="#D4D4D4"/>
<path d="M31.8771 22.8588C33.1911 24.2129 33.3242 25.8555 33.2696 27.6576C32.6723 26.6089 32.215 25.6111 31.2218 24.8645C29.4335 23.4832 26.8226 23.4765 25.0274 24.8509C24.0172 25.5874 23.5599 26.5953 22.9899 27.661C22.8773 25.8589 23.0445 24.1925 24.3653 22.8418C26.3516 20.7037 29.901 20.7105 31.8771 22.8588Z" fill="white"/>
<path d="M55.7094 22.923C56.9755 24.2738 57.1052 25.879 57.0097 27.6472C56.4022 26.5476 55.9448 25.5159 54.8698 24.7727C53.1087 23.4966 50.6105 23.5068 48.8631 24.8032C47.8085 25.5363 47.3512 26.5578 46.8017 27.6641C46.6072 25.8383 46.8392 24.1312 48.1907 22.7839C50.2044 20.673 53.7742 20.7408 55.7094 22.923Z" fill="white"/>
<path d="M38.1705 26.6563C39.4162 26.2559 40.6141 26.4154 41.8666 26.6496C42.0339 28.8928 42.6345 31.014 44.0816 32.7787C45.3034 34.3772 46.9553 35.2935 48.7368 36.1487C46.7129 35.7958 45.0201 35.2256 43.184 34.3229C45.0816 36.6612 47.0781 37.9339 50.0166 38.6635C50.0166 39.3966 50.0337 40.1296 50.0132 40.8627C50.1497 42.7496 47.7539 44.046 47.9109 45.9126C47.9177 47.9896 47.9348 50.0666 47.9245 52.1436C45.7198 51.1255 43.5185 50.1005 41.3137 49.0824C41.3137 47.3278 41.3103 45.5732 41.3137 43.8187C42.4195 42.753 43.5628 41.7179 44.655 40.6387C45.1669 40.0923 45.7061 39.6341 45.6447 38.8128C45.2556 37.978 44.2761 38.0696 43.498 38.0187C41.1021 38.0187 38.7063 38.0153 36.3104 38.0187C35.6381 38.0594 34.8429 38.0187 34.3617 38.5753C34.017 39.3559 34.5357 39.8751 35.0169 40.4215C36.2046 41.6229 37.4708 42.753 38.6892 43.9273C38.6858 45.6479 38.6926 47.3652 38.6824 49.0858C36.4777 50.1005 34.2798 51.1221 32.0784 52.1436C32.0375 49.7544 32.1501 47.3448 32.0375 44.9658C31.6006 43.8153 30.4334 42.9023 30.0683 41.7145C29.9147 40.7201 29.9966 39.6817 29.9795 38.6771C32.8361 37.9203 34.6825 36.6612 36.4674 34.3365C34.7985 35.1204 33.1945 35.7008 31.389 36.0944C33.6347 35.0559 35.5903 33.6815 36.7985 31.4721C37.7131 29.9687 37.8974 28.3498 38.1705 26.6563Z" fill="#D4D4D4"/>
<path d="M36.2148 39.0267C37.1534 38.8197 38.0953 38.8129 39.051 38.8197C40.6584 38.8401 42.1772 38.7145 43.771 39.0301C42.7505 40.0958 41.4673 40.1399 40.0714 40.1908C38.6482 40.1772 37.3001 40.0381 36.2148 39.0267Z" fill="#D4D4D4"/>
<path d="M39.9964 51.2681C42.556 52.3812 45.0713 53.6098 47.6105 54.7704C45.4433 56.7422 42.6857 57.8282 39.737 57.74C36.9657 57.7061 34.4265 56.6031 32.3822 54.7772C34.918 53.6098 37.4367 52.3846 39.9964 51.2681Z" fill="#D4D4D4"/>
</svg>
