<svg width="40" height="40" viewBox="0 0 40 40" fill="none" xmlns="http://www.w3.org/2000/svg">
<rect x="0.5" y="0.5" width="39" height="39" rx="19.5" fill="#18152C"/>
<path d="M28.873 14.7027C28.4973 14.531 28.0804 14.47 27.6713 14.5268C27.2622 14.5836 26.8777 14.7559 26.563 15.0235L23.4005 17.5627C23.243 17.3329 23.0304 17.1463 22.7822 17.0198C22.534 16.8933 22.2581 16.831 21.9797 16.8385H18.313C18.0407 16.8371 17.7722 16.9023 17.5309 17.0285C17.2896 17.1548 17.0829 17.3381 16.9288 17.5627L13.7297 15.0327C13.4119 14.7574 13.0214 14.5798 12.605 14.5213C12.1887 14.4627 11.7644 14.5257 11.383 14.7027C10.9982 14.8752 10.672 15.1561 10.4441 15.5109C10.2162 15.8658 10.0965 16.2793 10.0997 16.701V24.1443C10.0965 24.566 10.2162 24.9795 10.4441 25.3344C10.672 25.6892 10.9982 25.9701 11.383 26.1426C11.6704 26.2753 11.9831 26.3441 12.2997 26.3443C12.8258 26.3509 13.3356 26.1614 13.7297 25.8126L16.8647 23.2826C17.0188 23.5072 17.2255 23.6905 17.4668 23.8168C17.708 23.943 17.9765 24.0082 18.2488 24.0068H21.9797C22.252 24.0082 22.5205 23.943 22.7617 23.8168C23.003 23.6905 23.2097 23.5072 23.3638 23.2826L26.563 25.8126C26.9523 26.1572 27.4548 26.3464 27.9747 26.3443C28.2643 26.3455 28.5514 26.2895 28.8194 26.1795C29.0874 26.0695 29.331 25.9076 29.5362 25.7032C29.7415 25.4988 29.9044 25.2559 30.0155 24.9883C30.1266 24.7208 30.1838 24.434 30.1838 24.1443V16.701C30.1846 16.2762 30.0609 15.8605 29.8279 15.5054C29.5949 15.1502 29.2629 14.8711 28.873 14.7027ZM12.8863 24.786C12.7679 24.8909 12.6215 24.9591 12.465 24.9823C12.3085 25.0055 12.1486 24.9827 12.0048 24.9166C11.861 24.8505 11.7396 24.7441 11.6552 24.6102C11.5708 24.4764 11.5272 24.3209 11.5297 24.1626V16.701C11.526 16.5438 11.5695 16.3891 11.6544 16.2568C11.7393 16.1245 11.8619 16.0206 12.0063 15.9585C12.1063 15.895 12.2189 15.8543 12.3363 15.8393C12.5406 15.842 12.7366 15.9204 12.8863 16.0593L16.553 19.0385V19.6985H14.5638C14.3815 19.6985 14.2066 19.7709 14.0777 19.8998C13.9488 20.0288 13.8763 20.2036 13.8763 20.386C13.8763 20.5683 13.9488 20.7432 14.0777 20.8721C14.2066 21.0011 14.3815 21.0735 14.5638 21.0735H16.5805V21.7335L12.8863 24.786ZM22.053 22.6593H18.313C18.2279 22.6593 18.1463 22.6255 18.0861 22.5653C18.026 22.5052 17.9922 22.4236 17.9922 22.3385V18.5343C17.9922 18.4492 18.026 18.3676 18.0861 18.3075C18.1463 18.2473 18.2279 18.2135 18.313 18.2135H21.9797C22.0648 18.2135 22.1464 18.2473 22.2065 18.3075C22.2667 18.3676 22.3005 18.4492 22.3005 18.5343V22.311C22.3005 22.3961 22.2667 22.4777 22.2065 22.5378C22.1464 22.598 22.0648 22.6318 21.9797 22.6318L22.053 22.6593ZM28.818 24.1718C28.8181 24.3301 28.7726 24.485 28.6871 24.6181C28.6015 24.7513 28.4795 24.857 28.3355 24.9227C28.1916 24.9884 28.0317 25.0113 27.8751 24.9887C27.7185 24.9661 27.5717 24.8989 27.4522 24.7952L23.7855 21.7977V21.1377H25.8022C25.9845 21.1377 26.1594 21.0652 26.2883 20.9363C26.4172 20.8074 26.4897 20.6325 26.4897 20.4502C26.4897 20.2678 26.4172 20.0929 26.2883 19.964C26.1594 19.8351 25.9845 19.7627 25.8022 19.7627H23.7855V19.1027L27.4522 16.1052C27.575 15.9949 27.7283 15.9245 27.892 15.9032C28.0557 15.8819 28.2219 15.9108 28.3688 15.986C28.5133 16.0481 28.6358 16.152 28.7208 16.2843C28.8057 16.4166 28.8492 16.5713 28.8455 16.7285L28.818 24.1718Z" fill="#FACD0D"/>
<rect x="0.5" y="0.5" width="39" height="39" rx="19.5" stroke="#FACD0D"/>
</svg>
