<svg width="30" height="30" viewBox="0 0 30 30" fill="none" xmlns="http://www.w3.org/2000/svg">
<rect x="0.5" y="0.5" width="29" height="29" rx="14.5" fill="#18152C"/>
<g clip-path="url(#clip0_784_8372)">
<path d="M11.7279 15.695C11.5788 15.6949 11.4358 15.6356 11.3304 15.53C11.2263 15.4238 11.1671 15.2814 11.1654 15.1325C11.1674 15.0437 11.1905 14.9565 11.2327 14.8782C11.2749 14.8 11.3351 14.7328 11.4083 14.6823C11.4815 14.6318 11.5656 14.5994 11.6538 14.5877C11.7419 14.576 11.8316 14.5854 11.9154 14.6151C11.9839 14.6406 12.0455 14.6817 12.0954 14.735C12.2008 14.8405 12.2599 14.9835 12.2599 15.1325C12.2599 15.2816 12.2008 15.4246 12.0954 15.53C12.0434 15.5809 11.9824 15.6216 11.9154 15.6501C11.8561 15.6762 11.7926 15.6914 11.7279 15.695Z" fill="#FACD0D"/>
<path d="M15.1179 12.3051C14.9687 12.3051 14.8257 12.2458 14.7202 12.1403C14.6147 12.0348 14.5554 11.8917 14.5554 11.7425C14.5571 11.5937 14.6163 11.4513 14.7204 11.3451C14.7993 11.2686 14.8987 11.2166 15.0064 11.1954C15.1142 11.1741 15.2259 11.1844 15.3279 11.2251C15.3981 11.2516 15.4619 11.2925 15.5154 11.3451C15.6196 11.4513 15.6787 11.5937 15.6804 11.7425C15.6803 11.8917 15.6209 12.0347 15.5154 12.1401C15.4624 12.195 15.3985 12.2384 15.3279 12.2676C15.2604 12.2915 15.1895 12.3042 15.1179 12.3051Z" fill="#FACD0D"/>
<path d="M14.9079 18.875C14.7591 18.8733 14.6167 18.8142 14.5104 18.71C14.4051 18.6046 14.3459 18.4616 14.3459 18.3126C14.3459 18.1635 14.4051 18.0205 14.5104 17.9151C14.6177 17.8132 14.76 17.7565 14.9079 17.7565C15.0558 17.7565 15.1981 17.8132 15.3054 17.9151C15.3585 17.9668 15.4018 18.0278 15.4329 18.095C15.4561 18.1653 15.4687 18.2386 15.4704 18.3126C15.4704 18.4617 15.4112 18.6048 15.3057 18.7103C15.2002 18.8158 15.0571 18.875 14.9079 18.875Z" fill="#FACD0D"/>
<path d="M18.2979 15.4925C18.2231 15.4928 18.149 15.4775 18.0804 15.4475C18.0135 15.4191 17.9524 15.3784 17.9004 15.3275C17.8469 15.2748 17.8059 15.2107 17.7804 15.14C17.7513 15.0738 17.736 15.0024 17.7354 14.93C17.7352 14.7786 17.7945 14.6332 17.9004 14.525C17.9543 14.4766 18.0149 14.4361 18.0804 14.405C18.2207 14.3527 18.3751 14.3527 18.5154 14.405C18.5809 14.4361 18.6415 14.4766 18.6954 14.525C18.8014 14.6332 18.8606 14.7786 18.8604 14.93C18.8598 15.0024 18.8445 15.0738 18.8154 15.14C18.7872 15.2093 18.7465 15.2729 18.6954 15.3275C18.59 15.4331 18.4471 15.4924 18.2979 15.4925Z" fill="#FACD0D"/>
<path d="M15.0354 23.1726C14.6661 23.1726 14.3005 23.0998 13.9594 22.9582C13.6183 22.8167 13.3086 22.6091 13.0479 22.3476L7.72292 17.0226C7.19623 16.4952 6.90039 15.7804 6.90039 15.035C6.90039 14.2897 7.19623 13.5749 7.72292 13.0475L13.0479 7.72255C13.5753 7.19586 14.2901 6.90002 15.0354 6.90002C15.7807 6.90002 16.4956 7.19586 17.0229 7.72255L22.3479 13.0475C22.6096 13.3082 22.8173 13.6179 22.9589 13.959C23.1006 14.3 23.1736 14.6657 23.1736 15.035C23.1736 15.4044 23.1006 15.7701 22.9589 16.1111C22.8173 16.4522 22.6096 16.7619 22.3479 17.0226L17.0229 22.3476C16.7622 22.6091 16.4525 22.8167 16.1114 22.9582C15.7704 23.0998 15.4047 23.1726 15.0354 23.1726ZM15.0354 8.02255C14.8138 8.02192 14.5942 8.06536 14.3895 8.15034C14.1848 8.23531 13.999 8.36014 13.8429 8.51755L8.51792 13.8425C8.2019 14.159 8.0244 14.5879 8.0244 15.035C8.0244 15.4822 8.2019 15.9111 8.51792 16.2276L13.8429 21.5526C14.1593 21.8686 14.5882 22.0461 15.0354 22.0461C15.4826 22.0461 15.9115 21.8686 16.2279 21.5526L21.5529 16.2276C21.8689 15.9111 22.0464 15.4822 22.0464 15.035C22.0464 14.5879 21.8689 14.159 21.5529 13.8425L16.2279 8.51755C16.0719 8.36014 15.8861 8.23531 15.6814 8.15034C15.4766 8.06536 15.2571 8.02192 15.0354 8.02255Z" fill="#FACD0D"/>
</g>
<rect x="0.5" y="0.5" width="29" height="29" rx="14.5" stroke="#FACD0D"/>
<defs>
<clipPath id="clip0_784_8372">
<rect width="18" height="18" fill="white" transform="translate(6 6)"/>
</clipPath>
</defs>
</svg>
