<svg width="16" height="16" viewBox="0 0 16 16" fill="none" xmlns="http://www.w3.org/2000/svg">
<mask id="path-1-inside-1_2024_10605" fill="white">
<path d="M15.3809 7.88123H13.9534C13.728 5.14888 11.5505 2.97341 8.81836 2.74748V1.31873C8.81836 1.05998 8.60836 0.849976 8.34961 0.849976C8.09086 0.849976 7.88086 1.05998 7.88086 1.31873V2.74748C5.14898 2.97341 2.97117 5.14888 2.74546 7.88123H1.31836C1.05961 7.88123 0.849609 8.09123 0.849609 8.34998C0.849609 8.60873 1.05961 8.81873 1.31836 8.81873H2.74546C2.97117 11.5508 5.14898 13.7265 7.88086 13.9525V15.3812C7.88086 15.64 8.09086 15.85 8.34961 15.85C8.60836 15.85 8.81836 15.64 8.81836 15.3812V13.9525C11.5505 13.7265 13.728 11.5508 13.9534 8.81873H15.3809C15.6396 8.81873 15.8496 8.60873 15.8496 8.34998C15.8496 8.09123 15.6396 7.88123 15.3809 7.88123ZM7.88086 3.68567V7.88123H3.68485C3.9047 5.66638 5.66602 3.90553 7.88086 3.68567ZM3.68485 8.81873H7.88086V13.0142C5.66602 12.7945 3.9047 11.0336 3.68485 8.81873ZM8.81836 13.0142V8.81873H13.0144C12.7945 11.0336 11.0332 12.7945 8.81836 13.0142ZM8.81836 7.88123V3.68567C11.0332 3.90553 12.7945 5.66638 13.0144 7.88123H8.81836Z"/>
</mask>
<path d="M15.3809 7.88123H13.9534C13.728 5.14888 11.5505 2.97341 8.81836 2.74748V1.31873C8.81836 1.05998 8.60836 0.849976 8.34961 0.849976C8.09086 0.849976 7.88086 1.05998 7.88086 1.31873V2.74748C5.14898 2.97341 2.97117 5.14888 2.74546 7.88123H1.31836C1.05961 7.88123 0.849609 8.09123 0.849609 8.34998C0.849609 8.60873 1.05961 8.81873 1.31836 8.81873H2.74546C2.97117 11.5508 5.14898 13.7265 7.88086 13.9525V15.3812C7.88086 15.64 8.09086 15.85 8.34961 15.85C8.60836 15.85 8.81836 15.64 8.81836 15.3812V13.9525C11.5505 13.7265 13.728 11.5508 13.9534 8.81873H15.3809C15.6396 8.81873 15.8496 8.60873 15.8496 8.34998C15.8496 8.09123 15.6396 7.88123 15.3809 7.88123ZM7.88086 3.68567V7.88123H3.68485C3.9047 5.66638 5.66602 3.90553 7.88086 3.68567ZM3.68485 8.81873H7.88086V13.0142C5.66602 12.7945 3.9047 11.0336 3.68485 8.81873ZM8.81836 13.0142V8.81873H13.0144C12.7945 11.0336 11.0332 12.7945 8.81836 13.0142ZM8.81836 7.88123V3.68567C11.0332 3.90553 12.7945 5.66638 13.0144 7.88123H8.81836Z" fill="#04C000"/>
<path d="M13.9534 7.88123L11.9602 8.04564L12.1116 9.88123H13.9534V7.88123ZM8.81836 2.74748H6.81836V4.58891L8.65353 4.74067L8.81836 2.74748ZM7.88086 2.74748L8.0457 4.74067L9.88086 4.5889V2.74748H7.88086ZM2.74546 7.88123V9.88123H4.58706L4.73867 8.04588L2.74546 7.88123ZM2.74546 8.81873L4.73867 8.65406L4.58704 6.81873H2.74546V8.81873ZM7.88086 13.9525H9.88086V12.1111L8.0457 11.9593L7.88086 13.9525ZM8.81836 13.9525L8.65353 11.9593L6.81836 12.111V13.9525H8.81836ZM13.9534 8.81873V6.81873H12.1116L11.9602 8.6543L13.9534 8.81873ZM7.88086 3.68567H9.88086V1.4773L7.68329 1.69545L7.88086 3.68567ZM7.88086 7.88123V9.88123H9.88086V7.88123H7.88086ZM3.68485 7.88123L1.69463 7.68368L1.47651 9.88123H3.68485V7.88123ZM3.68485 8.81873V6.81873H1.47651L1.69463 9.01627L3.68485 8.81873ZM7.88086 8.81873H9.88086V6.81873H7.88086V8.81873ZM7.88086 13.0142L7.6834 15.0045L9.88086 15.2225V13.0142H7.88086ZM8.81836 13.0142H6.81836V15.2225L9.01582 15.0045L8.81836 13.0142ZM8.81836 8.81873V6.81873H6.81836V8.81873H8.81836ZM13.0144 8.81873L15.0046 9.01636L15.2229 6.81873H13.0144V8.81873ZM8.81836 7.88123H6.81836V9.88123H8.81836V7.88123ZM8.81836 3.68567L9.01592 1.69545L6.81836 1.4773V3.68567H8.81836ZM13.0144 7.88123V9.88123H15.2229L15.0046 7.68359L13.0144 7.88123ZM15.3809 5.88123H13.9534V9.88123H15.3809V5.88123ZM15.9467 7.71682C15.6408 4.00866 12.6887 1.06072 8.98319 0.75428L8.65353 4.74067C10.4122 4.88611 11.8153 6.2891 11.9602 8.04564L15.9467 7.71682ZM10.8184 2.74748V1.31873H6.81836V2.74748H10.8184ZM10.8184 1.31873C10.8184 -0.0445939 9.71293 -1.15002 8.34961 -1.15002V2.84998C7.50379 2.84998 6.81836 2.16455 6.81836 1.31873H10.8184ZM8.34961 -1.15002C6.98629 -1.15002 5.88086 -0.0445939 5.88086 1.31873H9.88086C9.88086 2.16455 9.19543 2.84998 8.34961 2.84998V-1.15002ZM5.88086 1.31873V2.74748H9.88086V1.31873H5.88086ZM7.71601 0.754281C4.01075 1.06072 1.05856 4.00859 0.752248 7.71657L4.73867 8.04588C4.88379 6.28917 6.28722 4.8861 8.0457 4.74067L7.71601 0.754281ZM2.74546 5.88123H1.31836V9.88123H2.74546V5.88123ZM1.31836 5.88123C-0.0449601 5.88123 -1.15039 6.98666 -1.15039 8.34998H2.84961C2.84961 9.1958 2.16418 9.88123 1.31836 9.88123V5.88123ZM-1.15039 8.34998C-1.15039 9.7133 -0.0449601 10.8187 1.31836 10.8187V6.81873C2.16418 6.81873 2.84961 7.50416 2.84961 8.34998H-1.15039ZM1.31836 10.8187H2.74546V6.81873H1.31836V10.8187ZM0.75225 8.98339C1.05856 12.6911 4.01068 15.6392 7.71601 15.9457L8.0457 11.9593C6.28729 11.8139 4.88379 10.4106 4.73867 8.65406L0.75225 8.98339ZM5.88086 13.9525V15.3812H9.88086V13.9525H5.88086ZM5.88086 15.3812C5.88086 16.7445 6.98629 17.85 8.34961 17.85V13.85C9.19543 13.85 9.88086 14.5354 9.88086 15.3812H5.88086ZM8.34961 17.85C9.71293 17.85 10.8184 16.7445 10.8184 15.3812H6.81836C6.81836 14.5354 7.50379 13.85 8.34961 13.85V17.85ZM10.8184 15.3812V13.9525H6.81836V15.3812H10.8184ZM8.98319 15.9457C12.6888 15.6392 15.6408 12.691 15.9467 8.98315L11.9602 8.6543C11.8153 10.4107 10.4121 11.8138 8.65353 11.9593L8.98319 15.9457ZM13.9534 10.8187H15.3809V6.81873H13.9534V10.8187ZM15.3809 10.8187C16.7442 10.8187 17.8496 9.7133 17.8496 8.34998H13.8496C13.8496 7.50416 14.535 6.81873 15.3809 6.81873V10.8187ZM17.8496 8.34998C17.8496 6.98666 16.7442 5.88123 15.3809 5.88123V9.88123C14.535 9.88123 13.8496 9.1958 13.8496 8.34998H17.8496ZM5.88086 3.68567V7.88123H9.88086V3.68567H5.88086ZM7.88086 5.88123H3.68485V9.88123H7.88086V5.88123ZM5.67507 8.07877C5.80076 6.81255 6.81164 5.80164 8.07842 5.67589L7.68329 1.69545C4.52039 2.00943 2.00864 4.52022 1.69463 7.68368L5.67507 8.07877ZM3.68485 10.8187H7.88086V6.81873H3.68485V10.8187ZM5.88086 8.81873V13.0142H9.88086V8.81873H5.88086ZM8.07832 11.024C6.81167 10.8983 5.80076 9.88745 5.67507 8.62118L1.69463 9.01627C2.00863 12.1797 4.52036 14.6906 7.6834 15.0045L8.07832 11.024ZM10.8184 13.0142V8.81873H6.81836V13.0142H10.8184ZM8.81836 10.8187H13.0144V6.81873H8.81836V10.8187ZM11.0242 8.62109C10.8985 9.88747 9.88752 10.8983 8.6209 11.024L9.01582 15.0045C12.1789 14.6906 14.6905 12.1797 15.0046 9.01636L11.0242 8.62109ZM10.8184 7.88123V3.68567H6.81836V7.88123H10.8184ZM8.62079 5.67589C9.88754 5.80164 10.8985 6.81253 11.0242 8.07886L15.0046 7.68359C14.6905 4.52024 12.1789 2.00943 9.01592 1.69545L8.62079 5.67589ZM13.0144 5.88123H8.81836V9.88123H13.0144V5.88123Z" fill="#F2994A" mask="url(#path-1-inside-1_2024_10605)"/>
</svg>
