<?xml version="1.0" encoding="UTF-8"?>
<svg width="120px" height="120px" viewBox="0 0 120 120" version="1.1" xmlns="http://www.w3.org/2000/svg" xmlns:xlink="http://www.w3.org/1999/xlink">
    <!-- Generator: Sketch 52.4 (67378) - http://www.bohemiancoding.com/sketch -->
    <title>lucky color</title>
    <desc>Created with Sketch.</desc>
    <g id="lucky-color" stroke="none" stroke-width="1" fill="none" fill-rule="evenodd">
        <g id="lucky" transform="translate(25.000000, 25.000000)">
            <path d="M33.4808676,33.9017201 C33.4808676,33.9017201 35.0873217,28.3068284 36.3891034,22.6842392 C38.3417761,14.2226579 39.366583,3.62837037 32.7884306,1.08020187 C21.8617732,-3.15751315 19.2859072,8.29539639 19.2859072,8.29539639 C19.2859072,8.29539639 7.45908165,4.04383263 7.19595555,17.435566 C7.08516562,22.7950291 11.2951831,25.592475 16.5023101,27.8636687 C24.3268493,31.2843079 33.4808676,33.9017201 33.4808676,33.9017201 Z" id="Path" fill="#FD5827"></path>
            <path d="M53.2291736,6.88282472 C39.6712553,5.76107662 36.0013387,33.3062242 36.0013387,33.3062242 C36.0013387,33.3062242 63.7126712,44.9668649 68.7397645,34.178695 C73.7668578,23.390525 62.0369734,20.1499194 62.0369734,20.1499194 C62.0369734,20.1499194 66.8009406,8.00457281 53.2291736,6.88282472 Z" id="Path" fill="#0D3B55"></path>
            <path d="M35.2535066,35.1758044 C35.2535066,35.1758044 24.9084964,64.5766834 35.6966664,68.7867009 C47.1080297,73.2459958 50.1270554,61.4053215 50.1270554,61.4053215 C50.1270554,61.4053215 64.9452092,65.5876416 62.9786879,51.8496896 C61.2060489,39.5243093 35.2535066,35.1758044 35.2535066,35.1758044 Z" id="Path" fill="#FD5827"></path>
            <path d="M32.926918,35.0234682 C32.926918,35.0234682 8.04072881,23.6398024 1.86418993,35.5358717 C-4.31234896,47.431941 8.3038549,49.841622 8.3038549,49.841622 C8.3038549,49.841622 5.42331659,61.5853552 17.0701085,63.0533218 C28.7169004,64.5212884 32.926918,35.0234682 32.926918,35.0234682 Z" id="Path" fill="#FD5827"></path>
        </g>
    </g>
</svg>