<svg width="25" height="25" viewBox="0 0 25 25" fill="none" xmlns="http://www.w3.org/2000/svg">
<g clip-path="url(#clip0_2225_13014)">
<path d="M12.5 25C19.4036 25 25 19.4036 25 12.5C25 5.59644 19.4036 0 12.5 0C5.59644 0 0 5.59644 0 12.5C0 19.4036 5.59644 25 12.5 25Z" fill="#CC0505"/>
<path d="M4.16602 17V8.33337H5.99935V11.8334H7.33268V8.33337H9.33268V17H7.33268V13.3334H5.99935V17.1667H4.16602V17Z" fill="white"/>
<path d="M13.166 17.1667C12.4993 17.1667 11.9993 17 11.666 16.8334C11.3327 16.6667 10.9993 16.3334 10.8327 15.8334C10.666 15.3334 10.666 14.8334 10.666 14.3334V11.1667C10.666 10.5 10.666 10 10.8327 9.66671C10.9993 9.16671 11.3327 9.00004 11.666 8.66671C11.9993 8.33337 12.4993 8.33337 13.166 8.33337C13.8327 8.33337 14.3327 8.50004 14.666 8.66671C14.9993 8.83337 15.3327 9.16671 15.4993 9.66671C15.666 10.1667 15.666 10.6667 15.666 11.1667V14.3334C15.666 15 15.666 15.5 15.4993 15.8334C15.3327 16.1667 14.9993 16.6667 14.666 16.8334C14.3327 17 13.8327 17.1667 13.166 17.1667ZM13.166 15.8334C13.3327 15.8334 13.4993 15.8334 13.666 15.6667C13.7771 15.5556 13.8327 15.4445 13.8327 15.3334V10.1667C13.8327 10 13.666 9.83337 13.666 9.83337C13.5549 9.72226 13.3882 9.66671 13.166 9.66671C12.9993 9.66671 12.8327 9.66671 12.666 9.83337C12.5549 9.94449 12.4993 10.0556 12.4993 10.1667V15.3334C12.4993 15.5 12.4993 15.6667 12.666 15.6667C12.8327 15.8334 12.9993 15.8334 13.166 15.8334Z" fill="white"/>
<path d="M17.6654 17V9.83337H16.332V8.33337H20.832V9.83337H19.4987V17H17.6654Z" fill="white"/>
</g>
<defs>
<clipPath id="clip0_2225_13014">
<rect width="25" height="25" fill="white"/>
</clipPath>
</defs>
</svg>
