<?xml version="1.0" encoding="UTF-8"?>
<svg width="80px" height="80px" viewBox="0 0 80 80" version="1.1" xmlns="http://www.w3.org/2000/svg" xmlns:xlink="http://www.w3.org/1999/xlink">
    <!-- Generator: Sketch 52.4 (67378) - http://www.bohemiancoding.com/sketch -->
    <title>igrosoft color</title>
    <desc>Created with Sketch.</desc>
    <g id="igrosoft-color" stroke="none" stroke-width="1" fill="none" fill-rule="evenodd">
        <g id="Group-7" transform="translate(10.435000, 11.245000)" fill="#334C90">
            <g id="Group-3" transform="translate(0.000000, 0.413991)">
                <path d="M8.828919,0.395766 L33.452919,0.395766 C30.455919,1.286766 27.134919,1.691766 26.648919,4.931766 C23.813919,16.595766 21.059919,28.259766 19.034919,40.085766 C20.411919,40.490766 24.623919,41.787576 24.623919,41.787576 L-8.1e-05,41.867766 C-8.1e-05,41.867766 4.859919,40.490766 6.479919,40.004766 C9.719919,28.097766 11.501919,20.159766 13.769919,8.009766 C13.850919,7.685766 14.660919,4.445766 14.255919,3.149766 C14.093919,2.663766 13.769919,2.015766 13.283919,1.691766 C11.744919,0.719766 10.772919,0.638766 8.828919,0.395766" id="Fill-1"></path>
            </g>
            <g id="Group-6" transform="translate(29.160000, 13.373991)">
                <path d="M10.385415,1.701081 C1.313415,6.237081 -2.494395,19.521081 3.013605,27.945081 C3.905415,29.565081 7.225605,30.699081 9.493605,30.213081 C12.166605,29.322081 13.138605,28.431081 14.596605,26.730081 C14.110605,29.565081 13.543605,31.104081 12.248415,35.154081 C10.303605,39.528081 8.603415,43.254081 4.148415,42.363081 C6.091605,39.852081 8.683605,37.422081 7.063605,34.020081 C5.525415,30.699081 0.503415,31.590081 0.259605,35.559081 C0.098415,39.285081 1.94990483,43.0971838 5.363415,43.497081 C7.063605,43.6962605 7.793415,43.740081 9.413415,43.740081 C14.758605,43.659081 19.618605,39.609081 20.995605,34.344081 C24.316605,23.571081 26.423415,12.393081 29.176605,1.458081 C25.288605,1.377081 22.291605,0.972081 19.456605,2.997081 C16.703415,0.567081 13.463415,-0.080919 10.385415,1.701081 Z M9.493605,28.350081 L9.413415,26.649081 C9.898605,18.468081 13.138605,4.050081 14.435415,3.159081 C15.811605,1.782081 17.593605,2.673081 18.485415,4.050081 C18.160605,9.963081 14.435415,22.518081 14.435415,22.518081 C13.058415,25.191081 11.761605,28.350081 9.493605,28.350081 Z" id="Fill-4"></path>
            </g>
        </g>
    </g>
</svg>