<svg width="18" height="20" viewBox="0 0 18 20" fill="none" xmlns="http://www.w3.org/2000/svg">
<g clip-path="url(#clip0_788_8441)">
<path d="M1.00001 18.846C0.99722 16.7811 1.79597 14.7956 3.22801 13.308M14.772 13.308C16.204 14.7956 17.0028 16.7811 17 18.846M17 18.846C17.0028 16.7811 16.204 14.7956 14.772 13.308M3.22801 13.308C1.79597 14.7956 0.99722 16.7811 1.00001 18.846M13.308 6.12797C12.2801 6.61437 11.1016 6.675 10.0292 6.29667C8.95676 5.91835 8.07721 5.13169 7.58201 4.10797C7.37417 4.78783 7.00161 5.40582 6.49743 5.90703C5.99326 6.40824 5.37308 6.77715 4.69201 6.98097M6.03801 12.761C5.96511 12.7172 5.88193 12.6935 5.79692 12.6923C5.71191 12.6911 5.62809 12.7124 5.55396 12.754C5.47984 12.7956 5.41804 12.8561 5.37484 12.9294C5.33165 13.0026 5.30859 13.086 5.30801 13.171V15.901C5.30859 15.986 5.33165 16.0693 5.37484 16.1426C5.41804 16.2158 5.47984 16.2763 5.55396 16.3179C5.62809 16.3596 5.71191 16.3808 5.79692 16.3796C5.88193 16.3784 5.96511 16.3547 6.03801 16.311L11.963 12.756C12.0359 12.7122 12.1191 12.6885 12.2041 12.6873C12.2891 12.6861 12.3729 12.7074 12.4471 12.749C12.5212 12.7906 12.583 12.8511 12.6262 12.9244C12.6694 12.9976 12.6924 13.081 12.693 13.166V15.896C12.6924 15.981 12.6694 16.0643 12.6262 16.1376C12.583 16.2108 12.5212 16.2713 12.4471 16.3129C12.3729 16.3546 12.2891 16.3758 12.2041 16.3746C12.1191 16.3734 12.0359 16.3497 11.963 16.306L6.03801 12.76V12.761Z" stroke="#CB49D6" stroke-linecap="round" stroke-linejoin="round"/>
<path d="M12.0144 10.846C12.4244 10.4454 12.7501 9.96677 12.9722 9.4383C13.1943 8.90983 13.3082 8.34223 13.3074 7.769V5.308C13.3074 4.16545 12.8535 3.06969 12.0456 2.26178C11.2377 1.45388 10.142 1 8.99941 1C7.85686 1 6.7611 1.45388 5.95319 2.26178C5.14529 3.06969 4.69141 4.16545 4.69141 5.308V7.769C4.69058 8.34223 4.80457 8.90983 5.02664 9.4383C5.24871 9.96677 5.57437 10.4454 5.98441 10.846" stroke="#CB49D6" stroke-linecap="round" stroke-linejoin="round"/>
</g>
<defs>
<clipPath id="clip0_788_8441">
<rect width="18" height="20" fill="white"/>
</clipPath>
</defs>
</svg>
