<svg width="35" height="35" viewBox="0 0 35 35" fill="none" xmlns="http://www.w3.org/2000/svg">
<path fill-rule="evenodd" clip-rule="evenodd" d="M17.5 35C27.165 35 35 27.165 35 17.5C35 7.83496 27.165 0 17.5 0C7.83502 0 0 7.83496 0 17.5C0 27.165 7.83502 35 17.5 35ZM26.4801 12.1642C26.9067 12.0624 27.3199 11.9199 27.7195 11.7435C27.9023 11.6621 28.0784 11.8724 27.9633 12.0421C27.5366 12.6798 27.0151 13.2565 26.4191 13.7382C26.2634 13.8671 26.1753 14.057 26.1753 14.2538V14.3148C26.1753 15.5563 25.9315 16.8589 25.4778 18.0801C24.9969 19.3623 24.3061 20.5156 23.4257 21.5197C22.4775 22.5916 21.3533 23.4396 20.08 24.0299C18.6917 24.6743 17.1543 25 15.5086 25C13.6326 25 11.7837 24.4979 10.1583 23.5549C10.0364 23.4871 9.9754 23.3446 10.0093 23.2157C10.0431 23.0801 10.165 22.9918 10.3005 22.9918H10.7475C12.1833 22.9918 13.5716 22.5713 14.7568 21.7708C13.321 21.5332 12.1291 20.5088 11.6821 19.118C11.6347 18.9688 11.7634 18.8263 11.9124 18.8535C12.1291 18.8942 12.3526 18.9146 12.5693 18.9146H12.6506C11.2757 18.2836 10.3615 16.8928 10.3818 15.3257C10.3885 15.1696 10.5511 15.0746 10.6865 15.1493C10.9642 15.3053 11.2622 15.4207 11.5737 15.4952C10.8355 14.7761 10.4156 13.7788 10.4156 12.7273C10.4156 12.0421 10.5985 11.3636 10.9439 10.7734C11.0116 10.6512 11.1877 10.6377 11.2757 10.7462C13.0366 12.9037 15.5154 14.2334 18.2718 14.4912H18.2853C18.326 14.4912 18.3666 14.4777 18.3937 14.4437L18.3973 14.4385C18.4115 14.4176 18.4337 14.3849 18.4276 14.3351C18.3801 13.8671 18.4072 13.3854 18.5223 12.9037C18.8271 11.6215 19.7956 10.5835 21.0553 10.1899C21.4616 10.061 21.8815 10 22.2879 10C23.2361 10 24.1436 10.3459 24.8547 10.9701C24.9152 11.0221 24.984 11.0602 25.0576 11.0809C25.0993 11.0928 25.1425 11.099 25.1865 11.099C25.2272 11.099 25.2678 11.0923 25.3084 11.0854C25.9721 10.9159 26.6088 10.6512 27.2047 10.2985C27.3673 10.2035 27.5569 10.3596 27.5027 10.536C27.2996 11.1602 26.9474 11.7164 26.4801 12.1642Z" fill="#9795A6"/>
</svg>
