<svg width="21" height="20" viewBox="0 0 21 20" fill="none" xmlns="http://www.w3.org/2000/svg">
<path d="M15.3482 11.0073C15.3127 10.9005 15.2485 10.8056 15.1627 10.7331C15.077 10.6607 14.973 10.6135 14.8623 10.5968L12.1119 10.1949L10.8798 7.68788C10.8252 7.59166 10.7462 7.5117 10.651 7.45608C10.5558 7.40047 10.4476 7.37118 10.3376 7.37118C10.2275 7.37118 10.1193 7.40047 10.0241 7.45608C9.92887 7.5117 9.84993 7.59166 9.79527 7.68788L8.59792 10.1949L5.84747 10.5968C5.73677 10.6135 5.63281 10.6607 5.54706 10.7331C5.46132 10.8056 5.39713 10.9005 5.36159 11.0073C5.3254 11.1163 5.32087 11.2333 5.34854 11.3447C5.37621 11.4562 5.43492 11.5573 5.51777 11.6363L7.46998 13.593L7.00145 16.3447C6.98151 16.458 6.99373 16.5746 7.03671 16.6813C7.07968 16.7879 7.15167 16.8801 7.24439 16.9474C7.33608 17.0119 7.44348 17.05 7.55506 17.0577C7.66664 17.0654 7.7782 17.0424 7.87777 16.9911L10.3332 15.6895L12.7973 16.9911C12.8833 17.0357 12.9783 17.0596 13.075 17.061C13.2021 17.0594 13.3259 17.0199 13.4307 16.9474C13.5234 16.8801 13.5954 16.7879 13.6384 16.6813C13.6814 16.5746 13.6936 16.458 13.6737 16.3447L13.2051 13.593L15.192 11.6363C15.2732 11.5561 15.3307 11.455 15.3583 11.344C15.3858 11.233 15.3823 11.1165 15.3482 11.0073ZM12.1292 12.9379C12.0595 13.0076 12.0073 13.0932 11.9771 13.1874C11.947 13.2817 11.9396 13.3818 11.9557 13.4794L12.2681 15.3314L10.6195 14.4578C10.5324 14.4061 10.4342 14.3761 10.3332 14.3705C10.2365 14.3718 10.1415 14.3957 10.0556 14.4403L8.40704 15.3139L8.71939 13.4969C8.7355 13.3993 8.72815 13.2991 8.69797 13.2049C8.66778 13.1107 8.61562 13.0251 8.54586 12.9553L7.20968 11.6275L9.05777 11.3567C9.15388 11.3418 9.24502 11.3039 9.32353 11.2461C9.40204 11.1884 9.46563 11.1125 9.50895 11.0248L10.3332 9.33887L11.2009 11.0248C11.2436 11.1129 11.307 11.1892 11.3856 11.247C11.4642 11.3049 11.5557 11.3425 11.652 11.3567L13.5001 11.6275L12.1292 12.9379ZM15.3482 11.0073C15.3127 10.9005 15.2485 10.8056 15.1627 10.7331C15.077 10.6607 14.973 10.6135 14.8623 10.5968L12.1119 10.1949L10.8798 7.68788C10.8252 7.59166 10.7462 7.5117 10.651 7.45608C10.5558 7.40047 10.4476 7.37118 10.3376 7.37118C10.2275 7.37118 10.1193 7.40047 10.0241 7.45608C9.92887 7.5117 9.84993 7.59166 9.79527 7.68788L8.59792 10.1949L5.84747 10.5968C5.73677 10.6135 5.63281 10.6607 5.54706 10.7331C5.46132 10.8056 5.39713 10.9005 5.36159 11.0073C5.3254 11.1163 5.32087 11.2333 5.34854 11.3447C5.37621 11.4562 5.43492 11.5573 5.51777 11.6363L7.46998 13.593L7.00145 16.3447C6.98151 16.458 6.99373 16.5746 7.03671 16.6813C7.07968 16.7879 7.15167 16.8801 7.24439 16.9474C7.33608 17.0119 7.44348 17.05 7.55506 17.0577C7.66664 17.0654 7.7782 17.0424 7.87777 16.9911L10.3332 15.6895L12.7973 16.9911C12.8833 17.0357 12.9783 17.0596 13.075 17.061C13.2021 17.0594 13.3259 17.0199 13.4307 16.9474C13.5234 16.8801 13.5954 16.7879 13.6384 16.6813C13.6814 16.5746 13.6936 16.458 13.6737 16.3447L13.2051 13.593L15.192 11.6363C15.2732 11.5561 15.3307 11.455 15.3583 11.344C15.3858 11.233 15.3823 11.1165 15.3482 11.0073ZM12.1292 12.9379C12.0595 13.0076 12.0073 13.0932 11.9771 13.1874C11.947 13.2817 11.9396 13.3818 11.9557 13.4794L12.2681 15.3314L10.6195 14.4578C10.5324 14.4061 10.4342 14.3761 10.3332 14.3705C10.2365 14.3718 10.1415 14.3957 10.0556 14.4403L8.40704 15.3139L8.71939 13.4969C8.7355 13.3993 8.72815 13.2991 8.69797 13.2049C8.66778 13.1107 8.61562 13.0251 8.54586 12.9553L7.20968 11.6275L9.05777 11.3567C9.15388 11.3418 9.24502 11.3039 9.32353 11.2461C9.40204 11.1884 9.46563 11.1125 9.50895 11.0248L10.3332 9.33887L11.2009 11.0248C11.2436 11.1129 11.307 11.1892 11.3856 11.247C11.4642 11.3049 11.5557 11.3425 11.652 11.3567L13.5001 11.6275L12.1292 12.9379ZM15.3482 11.0073C15.3127 10.9005 15.2485 10.8056 15.1627 10.7331C15.077 10.6607 14.973 10.6135 14.8623 10.5968L12.1119 10.1949L10.8798 7.68788C10.8252 7.59166 10.7462 7.5117 10.651 7.45608C10.5558 7.40047 10.4476 7.37118 10.3376 7.37118C10.2275 7.37118 10.1193 7.40047 10.0241 7.45608C9.92887 7.5117 9.84993 7.59166 9.79527 7.68788L8.59792 10.1949L5.84747 10.5968C5.73677 10.6135 5.63281 10.6607 5.54706 10.7331C5.46132 10.8056 5.39713 10.9005 5.36159 11.0073C5.3254 11.1163 5.32087 11.2333 5.34854 11.3447C5.37621 11.4562 5.43492 11.5573 5.51777 11.6363L7.46998 13.593L7.00145 16.3447C6.98151 16.458 6.99373 16.5746 7.03671 16.6813C7.07968 16.7879 7.15167 16.8801 7.24439 16.9474C7.33608 17.0119 7.44348 17.05 7.55506 17.0577C7.66664 17.0654 7.7782 17.0424 7.87777 16.9911L10.3332 15.6895L12.7973 16.9911C12.8833 17.0357 12.9783 17.0596 13.075 17.061C13.2021 17.0594 13.3259 17.0199 13.4307 16.9474C13.5234 16.8801 13.5954 16.7879 13.6384 16.6813C13.6814 16.5746 13.6936 16.458 13.6737 16.3447L13.2051 13.593L15.192 11.6363C15.2732 11.5561 15.3307 11.455 15.3583 11.344C15.3858 11.233 15.3823 11.1165 15.3482 11.0073ZM12.1292 12.9379C12.0595 13.0076 12.0073 13.0932 11.9771 13.1874C11.947 13.2817 11.9396 13.3818 11.9557 13.4794L12.2681 15.3314L10.6195 14.4578C10.5324 14.4061 10.4342 14.3761 10.3332 14.3705C10.2365 14.3718 10.1415 14.3957 10.0556 14.4403L8.40704 15.3139L8.71939 13.4969C8.7355 13.3993 8.72815 13.2991 8.69797 13.2049C8.66778 13.1107 8.61562 13.0251 8.54586 12.9553L7.20968 11.6275L9.05777 11.3567C9.15388 11.3418 9.24502 11.3039 9.32353 11.2461C9.40204 11.1884 9.46563 11.1125 9.50895 11.0248L10.3332 9.33887L11.2009 11.0248C11.2436 11.1129 11.307 11.1892 11.3856 11.247C11.4642 11.3049 11.5557 11.3425 11.652 11.3567L13.5001 11.6275L12.1292 12.9379Z" fill="#FACD0D"/>
<path d="M18.9576 10.326L14.4719 4.88381L15.5912 1.53815C15.6544 1.36206 15.6701 1.17222 15.6365 0.988033C15.603 0.803851 15.5215 0.631944 15.4003 0.489902C15.2774 0.344715 15.1194 0.233871 14.9416 0.168074C14.7638 0.102277 14.5721 0.0837496 14.3851 0.11428C11.7049 0.559764 8.97022 0.559764 6.28998 0.11428C6.10297 0.0837496 5.9113 0.102277 5.73348 0.168074C5.55566 0.233871 5.39769 0.344715 5.27483 0.489902C5.1545 0.632412 5.07288 0.803864 5.03791 0.987563C5.00293 1.17126 5.01581 1.36095 5.07527 1.53815L6.22924 4.9799L1.76953 10.2998C0.909484 11.3162 0.43595 12.6072 0.43335 13.9424V14.2569C0.433349 14.9987 0.578614 15.7332 0.860834 16.4184C1.14305 17.1036 1.55669 17.7261 2.07808 18.2502C2.59948 18.7744 3.21839 19.1898 3.89943 19.4729C4.58046 19.756 5.31024 19.9011 6.04703 19.9H14.2723C15.4617 19.9003 16.6222 19.5312 17.5954 18.843L17.769 18.7207C18.5377 18.1788 19.1638 17.4566 19.5932 16.6164C20.0225 15.7763 20.2421 14.8435 20.2331 13.8987C20.2327 12.5949 19.7818 11.3318 18.9576 10.326ZM14.3765 1.35471L13.3179 4.49945H12.6845L12.8147 3.51235C12.8255 3.43263 12.8206 3.35153 12.8003 3.2737C12.78 3.19588 12.7447 3.12284 12.6964 3.05875C12.648 2.99467 12.5876 2.9408 12.5186 2.90023C12.4496 2.85965 12.3733 2.83315 12.2941 2.82226C12.1342 2.80025 11.9721 2.8431 11.8436 2.94139C11.715 3.03969 11.6305 3.18536 11.6087 3.34638L11.4525 4.49945H9.22263L9.06645 3.34638C9.05562 3.26665 9.02931 3.18985 8.989 3.12037C8.9487 3.05088 8.8952 2.99006 8.83155 2.94139C8.7679 2.89272 8.69535 2.85715 8.61805 2.83671C8.54074 2.81627 8.4602 2.81136 8.38101 2.82226C8.30182 2.83315 8.22554 2.85965 8.15652 2.90023C8.0875 2.9408 8.02709 2.99467 7.97875 3.05875C7.93041 3.12284 7.89508 3.19588 7.87478 3.2737C7.85447 3.35153 7.84959 3.43263 7.86042 3.51235L7.99057 4.49945H7.35718L6.29865 1.35471C8.97448 1.78268 11.7006 1.78268 14.3765 1.35471ZM17.0748 17.7161L16.9013 17.8384C16.1419 18.389 15.234 18.6937 14.2984 18.712H6.04703C5.46756 18.712 4.89381 18.5965 4.35888 18.3722C3.82395 18.1479 3.33842 17.8192 2.93029 17.405C2.52215 16.9908 2.19949 16.4994 1.98091 15.9591C1.76233 15.4188 1.65215 14.8403 1.65673 14.2569V13.9424C1.65933 12.8966 2.02799 11.8852 2.69791 11.0859L7.20101 5.72241H13.5782L18.0206 11.1034C18.6717 11.9133 19.0216 12.9267 19.0097 13.9686C19.012 14.7042 18.8372 15.4294 18.5002 16.082C18.1632 16.7347 17.6741 17.2954 17.0748 17.7161Z" fill="#FACD0D"/>
</svg>
