<?xml version="1.0" encoding="UTF-8"?>
<svg width="80px" height="80px" viewBox="0 0 80 80" version="1.1" xmlns="http://www.w3.org/2000/svg" xmlns:xlink="http://www.w3.org/1999/xlink">
    <!-- Generator: Sketch 48.2 (47327) - http://www.bohemiancoding.com/sketch -->
    <title>playngo color</title>
    <desc>Created with Sketch.</desc>
    <defs></defs>
    <g id="Page-1" stroke="none" stroke-width="1" fill="none" fill-rule="evenodd">
        <g id="playngo-color" fill-rule="nonzero">
            <g id="Group" transform="translate(6.500000, 19.000000)">
                <path d="M36.8535268,4.05511015 C36.5625507,3.74764158 36.3119226,3.76707923 36.0686571,3.76707923 C30.8667246,3.76707923 25.6647919,3.76914081 20.4628593,3.76766828 C18.6451427,3.76707923 17.0020706,4.35904464 15.4735629,5.28233394 C12.4203763,7.12743999 10.3602778,9.68437704 9.33862214,13.1866917 C7.78184151,18.5229209 6.0539505,23.8114396 4.30779988,29.0896504 C2.64381756,34.1192945 5.75325565,38.1411253 10.6621507,37.7938976 C13.2989,37.6071783 15.9600937,37.7753437 18.6098015,37.7520772 C19.4347244,37.7447146 20.2522845,37.7344067 21.0772074,37.4905521 C25.3314064,36.2335829 27.9663887,33.3353085 29.3826879,29.2687125 C30.4246649,26.275606 31.3308727,23.2339052 32.2438541,20.1978001 C32.5910815,19.0436149 33.0840914,17.9230038 33.2510786,16.7261146 C32.7471719,16.4012699 32.245032,16.5488195 31.7714599,16.5458744 C29.1706406,16.5293818 26.5695271,16.5187794 23.968708,16.548525 C23.0471858,16.5591273 21.9633885,16.1856885 21.2441947,16.7328883 C20.5376649,17.2703693 20.5523904,18.3965761 20.2699551,19.2700932 C19.6738666,21.1146102 19.0989828,22.9661955 18.4981821,24.8684365 C19.9409873,25.1685424 21.3128156,24.782734 22.6740414,25.1423309 C22.269679,26.4137312 21.8806311,27.567033 21.5437115,28.7356492 C21.4220788,29.1567988 21.2954394,29.4430626 20.7874094,29.4404119 C18.1960147,29.428337 15.6043254,29.4351108 12.8412313,29.4351108 C13.398739,27.6441946 13.8991117,26.0220327 14.4089088,24.4031105 C15.5810591,20.6810913 16.7549766,16.9599556 17.9336061,13.239998 C18.2964426,12.0946481 18.304689,12.0943535 19.5498778,12.0899359 C20.6787352,12.0858128 21.8072981,12.0890524 22.9361555,12.0887579 C26.4202104,12.0887579 29.9045599,12.0964151 33.3889094,12.0781555 C33.7747176,12.0760939 34.2606595,12.2893193 34.4615155,11.6319726 C35.2422617,9.07444654 36.0677738,6.53105693 36.8535268,4.05511015 M41.678781,37.7196811 C43.5904463,37.7438309 45.5618973,38.0521832 47.4008186,37.5986375 C52.1783621,36.4205969 55.5961523,33.5558967 57.1499878,28.770696 C58.8063129,23.6697802 60.395784,18.5467763 61.9958578,13.427601 C62.4022818,12.1276332 62.7468586,10.8288435 62.8107674,9.43168733 C62.988357,5.55269424 59.7263627,3.13093734 56.6655187,3.21045506 C53.8226124,3.2840826 50.9764663,3.22164646 48.1317927,3.23018726 C47.5957842,3.23165982 47.06331,3.23195431 46.5284794,3.37390821 C41.6731854,4.66268458 38.3481659,7.59453307 36.781961,12.4165476 C36.1196074,14.4557359 35.4840547,16.5040539 34.8490908,18.5520775 C33.7084529,22.2308037 32.4947768,25.8897977 31.4625185,29.5988585 C30.112484,34.450913 33.4433937,37.8430809 37.2670192,37.7270438 C38.7363303,37.6825727 40.2079972,37.7196811 41.678781,37.7196811 M6.68449674,9.38486023 C8.93219814,4.99224144 12.3552895,1.988827 17.0845334,0.476517413 C17.5672355,0.322194097 18.1860014,0.530412768 18.5435367,0 L58.302406,0 C58.3901701,0.217348485 58.5892589,0.214697893 58.7777454,0.257696375 C62.602843,1.12561777 65.0384419,3.4519534 66.1154655,7.22374479 C66.3174997,7.93027464 66.1864425,8.69688454 66.5451559,9.36748413 C66.3657993,11.2573557 66.0639263,13.1107081 65.4351472,14.924007 C64.6402642,17.2179465 64.0424087,19.5793288 63.2796276,21.8853433 C62.1213192,25.3870689 61.2501581,28.9836267 59.8259069,32.3975883 C57.6076566,36.3366614 54.4717125,39.2110804 50.168036,40.735465 C48.6804652,41.2623436 47.1610872,41.536827 45.5724995,41.5347657 C33.6575026,41.5185676 21.7422113,41.4793976 9.82750897,41.5509634 C5.64664297,41.5762915 0.888537103,38.6641752 0.228245361,33.4118811 C0.185835901,33.0740783 0.0774561678,32.7448157 0,32.4114302 C0.0541898664,30.0971695 0.71742671,27.9216232 1.42955224,25.7413646 C3.20721547,20.2976391 4.76370157,14.7826421 6.68449674,9.38486023" id="Fill-1" fill="#000000"></path>
                <path d="M53.6242006,12.1383226 C51.3146519,12.1383226 49.2139112,12.1336105 47.1134648,12.1400897 C45.7598962,12.1442128 45.7654919,12.1530481 45.3785054,13.3944084 C44.5088172,16.1840085 43.6273483,18.9697799 42.7608992,21.760558 C41.9825092,24.2686064 41.2179608,26.780778 40.402462,29.4372594 C42.143017,29.4372594 43.7528096,29.4569915 45.3620131,29.4296022 C46.2858911,29.4139932 47.3702776,29.7750625 48.0912384,29.267327 C48.8139664,28.758119 48.7833373,27.6068789 49.0601769,26.7333618 C50.5733699,21.9564073 52.0544613,17.1697339 53.6242006,12.1383226 M41.6785746,37.7197681 C40.2080856,37.7197681 38.7361238,37.6823654 37.2668127,37.7268365 C33.4434819,37.8428733 30.1125721,34.4510002 31.4626066,29.5989454 C32.4948649,25.8895903 33.7082465,22.2308907 34.8491789,18.55187 C35.4841428,16.5038465 36.119401,14.455823 36.7817545,12.4166347 C38.348254,7.59462014 41.6732735,4.66277167 46.5285675,3.37399528 C47.0633981,3.23174688 47.5958723,3.23174688 48.1318808,3.22997983 C50.9765544,3.22173352 53.8227005,3.28416967 56.6656068,3.21054216 C59.7264508,3.1310244 62.9881506,5.55278131 62.8108555,9.43177443 C62.7469467,10.8289305 62.4020754,12.1277203 61.9956514,13.4273935 C60.3958721,18.5468634 58.8064011,23.6695728 57.1497813,28.770783 C55.5959459,33.5559837 52.1781557,36.4206839 47.4009067,37.5987245 C45.5619855,38.0522702 43.5905344,37.7436236 41.6785746,37.7197681" id="Fill-8" fill="#E62727"></path>
                <path d="M36.8535265,4.05510888 C36.0677735,6.53105566 35.2422617,9.07444525 34.4615152,11.6319713 C34.2606592,12.289318 33.7747176,12.0760926 33.3889091,12.0781542 C29.9045596,12.0964138 26.4202101,12.0887566 22.9361552,12.0887566 C21.807298,12.0890511 20.678735,12.0858115 19.5498775,12.0899346 C18.3046888,12.0943523 18.2964425,12.0946468 17.9336059,13.2399967 C16.7549763,16.9599543 15.5810589,20.68109 14.4089085,24.4031092 C13.8991114,26.0220315 13.3987388,27.6441933 12.8412311,29.4351094 C15.6043253,29.4351094 18.1960144,29.4283358 20.7874092,29.4404108 C21.2954393,29.4430612 21.4220785,29.1567974 21.5437113,28.7356478 C21.8806308,27.5670317 22.2696788,26.41373 22.6740413,25.1423297 C21.3128152,24.7827328 19.9409871,25.1685411 18.4981819,24.8684352 C19.0989827,22.9661942 19.6738663,21.114609 20.2699548,19.2700919 C20.55239,18.3965748 20.5376647,17.270368 21.2441944,16.732887 C21.9633881,16.1856872 23.0471855,16.559126 23.9687077,16.5485237 C26.5695267,16.5187782 29.1706406,16.5293805 31.7714596,16.5458731 C32.2450317,16.5488182 32.7471716,16.4012686 33.2510786,16.7261133 C33.0840912,17.9230025 32.5910812,19.0436136 32.2438538,20.1977989 C31.3308724,23.2339039 30.4246646,26.2756047 29.3826879,29.2687114 C27.9663884,33.3353074 25.3314062,36.2335817 21.0772073,37.490551 C20.2522843,37.7344053 19.434724,37.7447132 18.6098013,37.7520758 C15.9600936,37.7753423 13.2988997,37.6071769 10.6621506,37.7938965 C5.75325528,38.1411239 2.64381735,34.1192934 4.30779974,29.089649 C6.05395036,23.8114383 7.78184134,18.5229197 9.33862202,13.1866904 C10.3602776,9.68437577 12.4203761,7.12743869 15.4735626,5.28233264 C17.0020703,4.35904334 18.6451424,3.76707796 20.4628591,3.76766698 C25.6647917,3.76913954 30.8667243,3.76707796 36.0686571,3.76707796 C36.3119223,3.76707796 36.5625505,3.74764029 36.8535265,4.05510888" id="Fill-10" fill="#E62727"></path>
                <path d="M53.6242006,12.1383226 C52.0544613,17.1697339 50.5733699,21.9564073 49.0601769,26.7333618 C48.7833373,27.6068789 48.8139664,28.758119 48.0912384,29.267327 C47.3702776,29.7750625 46.2858911,29.4139932 45.3620131,29.4296022 C43.7528096,29.4569915 42.143017,29.4372594 40.402462,29.4372594 C41.2179608,26.780778 41.9825092,24.2686064 42.7608992,21.760558 C43.6273483,18.9697799 44.5088172,16.1840085 45.3785054,13.3944084 C45.7654919,12.1530481 45.7598962,12.1442128 47.1134648,12.1400897 C49.2139112,12.1336105 51.3146519,12.1383226 53.6242006,12.1383226" id="Fill-12" fill="#000000"></path>
            </g>
        </g>
    </g>
</svg>