<svg width="80" height="80" viewBox="0 0 80 80" fill="none" xmlns="http://www.w3.org/2000/svg">
<path d="M79.336 39.452H41.0229V53.0677H63.0791C60.9711 57.5558 58.1978 60.8519 54.7592 62.956C51.3206 65.0601 47.0969 66.1128 42.088 66.1141C34.3815 66.1141 27.9034 63.5604 22.6535 58.453C17.4036 53.3456 14.7774 47.1156 14.7748 39.7629C14.7748 32.6512 17.3051 26.6103 22.3659 21.6403C27.4266 16.6702 33.7059 14.1852 41.2037 14.1852C49.8054 14.1852 57.3362 17.6024 63.7963 24.4369L74.0052 14.331C69.3435 9.30392 64.5795 5.7539 59.7131 3.68089C53.9488 1.22696 47.7544 0 41.1298 0C30.2258 0 21.0871 3.28766 13.7136 9.86299C13.7537 10.0871 13.7138 10.3183 13.6009 10.516C13.5579 11.0224 13.1374 11.4135 12.6292 11.4197C12.6053 11.4216 12.5812 11.4216 12.5573 11.4197C11.4979 12.3378 10.5548 13.382 9.74901 14.5292C9.56633 16.2919 7.82889 17.559 6.70946 18.8922C6.49763 19.3081 6.28191 19.7221 6.05452 20.1244C5.44234 21.2069 5.0828 22.3593 4.7252 23.5429C4.38899 24.6448 3.94783 25.6962 3.55914 26.7729C2.72734 29.0079 2.39307 31.3478 1.6876 33.6158C1.30863 34.8246 0.824708 36.0295 0.745027 37.3083C0.665345 38.5871 0.708101 39.8018 0.492379 41.0475C0.47893 41.1219 0.454706 41.1939 0.420471 41.2613C1.62152 49.348 4.24129 57.285 9.10573 63.9355C13.4474 69.8727 19.9268 73.9578 26.6512 76.7059C33.6612 79.5686 41.7012 80.0389 49.1291 78.8242C56.3354 77.6465 63.2774 74.6594 68.1748 69.0973C73.1481 63.4477 76.4753 56.6728 78.3157 49.3985C78.3823 49.0716 78.6325 48.8131 78.9571 48.7358C79.2904 46.7227 79.4568 44.6855 79.4546 42.645L79.336 39.452Z" fill="black"/>
<path d="M79.1164 47.6032C78.4397 52.5512 76.7883 57.3158 74.2578 61.6213C70.8063 67.5941 66.3363 72.1502 60.848 75.2895C55.3598 78.4289 48.9224 79.9992 41.536 80.0005C33.6327 80.0005 26.5831 78.2831 20.3874 74.8484C16.8754 72.9139 13.6991 70.4247 10.9812 67.4769C10.3981 66.8511 16.2421 68.8528 25.3277 69.5797C32.5845 70.1627 42.2007 69.7993 50.1669 67.5643C58.273 65.2886 65.8621 60.6243 70.9987 56.2166C76.4248 51.5542 79.1689 47.1912 79.1164 47.6032Z" fill="url(#paint0_linear)"/>
<path d="M30.4117 78.6975C26.4037 77.9006 22.5654 76.4103 19.0698 74.2937C14.4249 71.4679 11.603 68.2398 9.6907 66.0165C5.00253 60.7902 1.88077 54.3493 0.682822 47.4314C-0.628122 40.4225 -0.044431 33.1908 2.37362 26.4829C4.09163 21.6412 6.52936 17.4213 9.68681 13.8233C10.981 12.3561 12.3815 10.9862 13.8769 9.72461C13.8769 9.72461 12.3221 16.6355 11.1211 25.381C9.41473 37.7724 12.328 48.9531 12.328 48.9531C13.7339 54.6449 15.9806 60.0953 18.994 65.1245C22.0744 70.2126 25.9262 74.7915 30.4117 78.6975Z" fill="url(#paint1_linear)"/>
<defs>
<linearGradient id="paint0_linear" x1="14.5124" y1="66.2918" x2="78.7763" y2="51.5927" gradientUnits="userSpaceOnUse">
<stop offset="0.01" stop-color="#352711"/>
<stop offset="1" stop-color="#F2A50A"/>
</linearGradient>
<linearGradient id="paint1_linear" x1="13.4815" y1="16.9309" x2="24.3075" y2="71.1609" gradientUnits="userSpaceOnUse">
<stop offset="0.01" stop-color="#352711"/>
<stop offset="1" stop-color="#F2A50A"/>
</linearGradient>
</defs>
</svg>
