<svg width="60" height="60" viewBox="0 0 60 60" fill="none" xmlns="http://www.w3.org/2000/svg">
<path d="M46 4.6C41.4 1.7 35.9 0 30 0C24.1 0 18.6 1.7 14 4.6V55.3C18.6 58.2 24.1 59.9 30 59.9C35.9 59.9 41.4 58.2 46 55.3V4.6Z" fill="#F9F9F9"/>
<path d="M46 4.59961V55.2996C54.4 50.0996 60 40.4996 60 29.8996C60 19.2996 54.4 9.89961 46 4.59961V4.59961ZM14 4.59961C5.6 9.89961 0 19.4996 0 29.9996C0 40.4996 5.6 50.0996 14 55.3996V4.59961V4.59961ZM40.9 29.5996C40.5 29.3996 40.4 28.9996 40.5 28.7996L41.5 25.1996L38 25.8996C37.9 25.8996 37.5 25.8996 37.4 25.1996L37.1 23.9996L34.7 26.7996C34.7 26.7996 33.1 28.4996 33.6 25.8996L34.6 20.3996L32.7 21.3996C32.6 21.3996 32.2 21.4996 31.7 20.4996L30 16.9996L28.2 20.2996C27.7 21.2996 27.3 21.1996 27.2 21.1996L25.3 20.1996L26.3 25.6996C26.8 28.2996 25.2 26.5996 25.2 26.5996L22.8 23.7996L22.5 24.9996C22.3 25.6996 22 25.6996 21.9 25.6996L18.4 24.9996L19.4 28.5996C19.4 28.8996 19.4 29.1996 19 29.3996L18 29.9996C18 29.9996 22 33.1996 23.3 34.2996C23.6 34.4996 24.2 35.0996 24 35.7996L23.5 37.1996L29 36.3996C29.3 36.3996 29.9 36.3996 29.8 37.2996L29.5 42.9996H30.5L30.2 37.2996C30.2 36.3996 30.8 36.3996 31 36.3996L36.5 37.1996L36 35.7996C35.8 35.0996 36.4 34.4996 36.7 34.2996C38 33.1996 42 29.9996 42 29.9996L40.9 29.5996" fill="#ED4C5C"/>
</svg>
