<svg width="20" height="20" viewBox="0 0 20 20" fill="none" xmlns="http://www.w3.org/2000/svg">
<path d="M2.5 5.625H4.30469C5.09951 5.62597 5.88265 5.81642 6.58916 6.18055C7.29567 6.54467 7.9052 7.07198 8.36719 7.71875L11.6328 12.2812C12.0948 12.928 12.7043 13.4553 13.4108 13.8195C14.1173 14.1836 14.9005 14.374 15.6953 14.375H18.125" stroke="#FACD0D" stroke-linecap="round" stroke-linejoin="round"/>
<path d="M16.25 3.75L18.125 5.625L16.25 7.5" stroke="#FACD0D" stroke-linecap="round" stroke-linejoin="round"/>
<path d="M16.25 12.5L18.125 14.375L16.25 16.25" stroke="#FACD0D" stroke-linecap="round" stroke-linejoin="round"/>
<path d="M11.5391 7.85156L11.6328 7.71875C12.0948 7.07198 12.7043 6.54467 13.4108 6.18055C14.1174 5.81642 14.9005 5.62597 15.6953 5.625H18.125" stroke="#FACD0D" stroke-linecap="round" stroke-linejoin="round"/>
<path d="M2.5 14.375H4.30469C5.09951 14.374 5.88265 14.1836 6.58916 13.8195C7.29567 13.4553 7.9052 12.928 8.36719 12.2812L8.46094 12.1484" stroke="#FACD0D" stroke-linecap="round" stroke-linejoin="round"/>
</svg>
