<svg width="80" height="80" viewBox="0 0 80 80" fill="none" xmlns="http://www.w3.org/2000/svg">
<g clip-path="url(#clip0)">
<path d="M19.0102 25.0332V27.3347C19.0102 31.8685 16.5749 36.2556 10.452 36.2556C4.32915 36.2556 1 32.0412 1 26.13C1 20.2187 4.33779 16 10.452 16C14.9341 16 17.7537 18.3533 18.4921 21.9372H14.2475C13.8157 20.4864 12.5506 19.6357 10.4434 19.6357C6.9372 19.6357 5.18843 22.3992 5.18843 26.1127C5.18843 29.8261 6.9372 32.6414 10.452 32.6414C13.4746 32.6414 14.8304 30.8624 14.9125 28.371H10.3052V25.0332H19.0102Z" fill="black"/>
<path d="M33.3373 30.6162H25.9104L24.3257 35.9014H20.3013L26.5149 16.354H32.8364L39.0802 35.9014H34.9479L33.3373 30.6162ZM26.951 27.0582H32.2621L30.2111 20.2704H29.0193L26.951 27.0582Z" fill="black"/>
<path d="M41.1614 16.354H47.4311L50.6351 24.2386H51.3475L54.5212 16.354H60.8168V35.9014H57.0127V21.3369H56.3002L53.0143 29.2215H48.9338L45.678 21.3369H44.9656V35.9014H41.1614V16.354Z" fill="black"/>
<path d="M79.41 32.2614V35.9014H64.6512V16.354H79.1077V19.994H68.7446V24.0961H76.8192V27.6541H68.7446V32.2614H79.41Z" fill="black"/>
<path d="M17.5206 53.2918C18.2967 53.7387 18.9407 54.3829 19.3874 55.1591C19.8341 55.9352 20.0675 56.8157 20.0639 57.7112C20.0639 62.4517 16.2164 64.7091 11.8571 64.7091H2L5.97797 42H14.9773C18.1878 42 21.1174 43.7808 21.1174 47.1819C21.144 48.3299 20.8287 49.4598 20.2115 50.4281C19.5943 51.3964 18.703 52.1592 17.651 52.6196L17.5206 53.2918ZM11.501 62.8229C14.9673 62.8229 17.957 61.3581 17.957 57.641C17.957 54.8419 15.4739 53.7935 13.026 53.7935H6.00306L4.41287 62.8229H11.501ZM6.35922 51.8622H13.3821C16.4672 51.8622 19.0105 50.7184 19.0105 47.3474C19.0105 44.9296 16.8785 43.9112 14.7466 43.9112H7.75878L6.35922 51.8622Z" fill="black"/>
<path d="M39.0559 62.7978L38.7399 64.7041H23.0236L27.0016 42H42.2012L41.8851 43.9062H28.7824L27.3527 51.9324H38.0075L37.6915 53.8386H27.0317L25.4415 62.8079L39.0559 62.7978Z" fill="black"/>
<path d="M60.0493 64.7091H57.8522L56.578 57.3601H46.3396L42.5222 64.7091H40.2347L52.1285 42H55.976L60.0493 64.7091ZM47.3278 55.4539H56.2469L54.3407 44.2273H53.1318L47.3278 55.4539Z" fill="black"/>
<path d="M79.8238 43.9111H72.2993L68.6424 64.7089H66.5455L70.2025 43.9111H62.6779L62.994 42.0049H80.17L79.8238 43.9111Z" fill="black"/>
</g>
<defs>
<clipPath id="clip0">
<rect width="80" height="80" fill="white"/>
</clipPath>
</defs>
</svg>
