<?xml version="1.0" encoding="UTF-8"?>
<svg width="80px" height="80px" viewBox="0 0 80 80" version="1.1" xmlns="http://www.w3.org/2000/svg" xmlns:xlink="http://www.w3.org/1999/xlink">
    <!-- Generator: Sketch 61.2 (89653) - https://sketch.com -->
    <title>truelab white</title>
    <desc>Created with Sketch.</desc>
    <g id="truelab-white" stroke="none" stroke-width="1" fill="none" fill-rule="evenodd">
        <path d="M64.28795,37.30822 L17.08375,37.30822 L17.08375,39.1347 L18.69635,39.1347 L18.69635,60.76032 L29.39795,60.76032 L29.39795,56.37672 L23.38745,56.37672 L23.38745,39.1347 L64.28795,39.1347 L64.28795,37.30822 Z M9.28795,10.69178 L9.28795,15.14841 L12.73298,15.14841 L12.73298,33.26712 L17.42408,33.26712 L17.42408,15.14841 L20.86915,15.14841 L20.86915,10.69178 L9.28795,10.69178 Z M60.01045,10.69178 L60.01045,33.26712 L70.71205,33.26712 L70.71205,28.88352 L64.70165,28.88352 L64.70165,24.20772 L69.46605,24.20772 L69.46605,19.82422 L64.70165,19.82422 L64.70165,15.14841 L70.71205,15.14841 L70.71205,10.69178 L60.01045,10.69178 Z M60.98995,52.35842 C61.94195,51.26252 62.45595,49.80142 62.45595,48.26712 C62.45595,44.68721 59.52395,41.76484 55.93195,41.76484 L50.87425,41.76484 L50.87425,64.34022 L56.00495,64.34022 C59.88995,64.34022 63.04195,61.19862 63.04195,57.32652 C63.04195,55.35392 62.30895,53.60042 60.98995,52.35842 Z M55.71195,46.1484 C56.88495,46.1484 57.83795,47.09817 57.83795,48.26712 C57.83795,49.43612 56.88495,50.38582 55.71195,50.38582 L55.63895,50.38582 L55.63895,46.22146 L55.71195,46.22146 L55.71195,46.1484 Z M58.42395,57.32652 C58.42395,58.78772 57.25095,59.88352 55.85895,59.88352 L55.63895,59.88352 L55.63895,54.69632 L55.85895,54.69632 C57.25095,54.69632 58.42395,55.86532 58.42395,57.32652 Z M30.10465,10.69178 C34.72245,10.69178 38.38745,14.41781 38.38745,18.94752 C38.38745,21.57762 37.21465,23.84252 35.30885,25.37672 L39.26695,33.26712 L34.06285,33.26712 L31.05755,27.13012 C30.69105,27.20322 30.39785,27.20322 30.10465,27.20322 L29.73815,27.20322 L29.73815,33.26712 L25.04705,33.26712 L25.04705,10.69178 L26.80625,10.69178 L30.10465,10.69178 Z M29.73815,15.14841 L29.73815,22.81962 L29.73815,22.89272 L29.81145,22.89272 C31.93715,22.89272 33.69635,21.13932 33.69635,19.02052 C33.69635,16.90182 31.93715,15.14841 29.81145,15.14841 L29.73815,15.14841 Z M50.99475,27.42242 C50.99475,28.59132 50.04185,29.54112 48.86905,29.54112 C47.69635,29.54112 46.67015,28.59132 46.67015,27.42242 L46.67015,10.69178 L41.97905,10.69178 L41.97905,27.05712 C41.97905,30.78312 45.05755,33.85162 48.79585,33.85162 C52.53405,33.85162 55.61255,30.78312 55.61255,27.05712 L55.61255,10.69178 L50.92145,10.69178 L50.92145,27.42242 L50.99475,27.42242 Z M46.92595,67.48172 L64.28795,67.48172 L64.28795,69.30822 L17.08375,69.30822 L17.08375,67.48172 L31.51385,67.48172 L36.36125,45.19863 L42.07855,45.19863 L46.92595,67.48172 Z M42.15815,67.48172 L41.63875,65.21692 L36.80105,65.21692 L36.28175,67.48172 L42.15815,67.48172 Z M39.29325,53.81962 L37.82725,60.76032 L40.75915,60.76032 L39.29325,53.81962 Z" id="Shape" fill="#FFFFFF" fill-rule="nonzero"></path>
    </g>
</svg>