<svg width="100" height="26" viewBox="0 0 100 26" fill="none" xmlns="http://www.w3.org/2000/svg">
<path d="M27.6621 0.324951H29.8996V2.56245H27.6621V0.324951Z" fill="#F02B4C"/>
<path d="M26.8633 8.94995H28.1383V12.7875H26.8633V8.94995Z" fill="#F9F9F8"/>
<path d="M28.1367 3.83752H29.4117V8.95002H28.1367V3.83752Z" fill="#F9F9F8"/>
<path d="M12.8383 14.075H11.5758C11.5758 11.175 12.4008 9.02502 14.0508 7.66252H10.0508V6.40002H15.5383V8.13752L15.2508 8.32502C13.6508 9.40002 12.8383 11.325 12.8383 14.075Z" fill="#F9F9F8"/>
<path d="M4.43828 13.4125H3.17578C3.17578 11.4875 3.70078 9.96255 4.70078 8.93755H2.23828V7.67505H6.40078V9.20005L6.12578 9.38755C5.00078 10.125 4.43828 11.4875 4.43828 13.4125Z" fill="#F9F9F8"/>
<path d="M21.3758 13.4125H20.1133C20.1133 11.4875 20.6383 9.96255 21.6383 8.93755H19.1758V7.67505H23.3258V9.20005L23.0508 9.38755C21.9383 10.125 21.3633 11.4875 21.3633 13.4125H21.3758Z" fill="#F9F9F8"/>
<path d="M29.4121 10.225H30.6871V11.5H29.4121V10.225Z" fill="#F9F9F8"/>
<path d="M19.1875 3.83752V5.11252H24.3V15.3375H19.1875V16.6125H25.5875V3.83752H19.1875Z" fill="#F9F9F8"/>
<path d="M6.4 5.11252V3.83752H0V16.625H6.4V15.35H1.275V5.11252H6.3875H6.4Z" fill="#F9F9F8"/>
<path d="M12.7883 1.27502V2.55002H5.11328V1.27502H12.7883Z" fill="#F9F9F8"/>
<path d="M7.67578 3.83752V16.625H17.9133V3.83752H7.67578ZM16.6258 15.35H8.95078V5.11252H16.6258V15.35Z" fill="#F9F9F8"/>
<path d="M6.4 18.625V17.9H5.125V19.3625L12.7875 23.7875V22.3125L6.4 18.6125V18.625Z" fill="#F9F9F8"/>
<path d="M12.7871 20.85V22.325L19.1746 18.6375V17.9125H17.8746L12.7871 20.85Z" fill="#F9F9F8"/>
<path d="M20.4621 19.3625L12.7871 23.7875V25.2625L21.7371 20.1V17.9H20.4621V19.3625Z" fill="#F9F9F8"/>
<path d="M12.7871 19.3625L15.3246 17.9H12.7871V19.3625Z" fill="#F9F9F8"/>
<path d="M12.7867 19.375L10.2367 17.9H7.69922L12.7867 20.8375V19.375Z" fill="#F9F9F8"/>
<path d="M12.7871 0V1.275H20.4621V2.55H21.7371V0H12.7871Z" fill="#F9F9F8"/>
<path d="M41.025 11.0125H40.2125V14.0625H38.375V6.38745H41.0125C42.625 6.38745 43.425 7.22495 43.425 8.67495C43.425 10.1 42.4875 11.0125 41.0125 11.0125H41.025ZM40.2125 7.98745V9.41245H40.85C41.275 9.41245 41.5125 9.12495 41.5125 8.68745C41.5125 8.24995 41.2625 7.98745 40.85 7.98745H40.2125Z" fill="#F02B4C"/>
<path d="M44.375 14.075V6.40002H46.225V12.35H47.9875V14.0875H44.375V14.075Z" fill="#F02B4C"/>
<path d="M53.4875 12.25H51.075L50.4375 14.075H48.625L51.3125 6.40002H53.2625L56.1 14.075H54.1375L53.5 12.25H53.4875ZM51.6 10.7H52.95L52.275 8.76252L51.6 10.7Z" fill="#F02B4C"/>
<path d="M55.2383 6.40002H57.2883L58.3508 8.50002L59.4258 6.40002H61.3758L59.2008 10.275V14.075H57.3633V10.3125L55.2383 6.40002Z" fill="#F02B4C"/>
<path d="M68.0242 13.225C67.3367 13.8875 66.4117 14.25 65.4617 14.225C62.9117 14.225 61.3867 12.5 61.3867 10.25C61.3867 8 62.9867 6.25 65.4367 6.25C66.5992 6.25 67.4242 6.625 68.0367 7.1625L66.9367 8.5625C66.5367 8.2 66.0117 8 65.4742 8C64.1117 8 63.3492 9 63.3492 10.25C63.3492 11.5 64.1992 12.5 65.4867 12.5C66.0242 12.5 66.5492 12.2875 66.9492 11.925L68.0367 13.225H68.0242Z" fill="#F9F9F8"/>
<path d="M72.8996 12.25H70.4871L69.8496 14.075H68.0371L70.7246 6.40002H72.6746L75.5121 14.075H73.5496L72.9121 12.25H72.8996ZM71.0121 10.7H72.3621L71.6871 8.76252L71.0121 10.7Z" fill="#F9F9F8"/>
<path d="M78.1384 9.16245L79.1009 9.53745C80.1009 9.94995 80.6884 10.6125 80.6884 11.7625C80.6884 13.3125 79.5884 14.225 78.0509 14.225C75.8509 14.225 75.4509 12.8 75.5259 11.675H77.2884C77.2634 12.15 77.4509 12.6375 78.0634 12.6375C78.4884 12.6375 78.8009 12.4 78.8009 11.9625C78.8009 11.525 78.4884 11.325 77.9884 11.125C77.6009 10.9625 77.2134 10.825 76.7884 10.6125C76.0134 10.2125 75.6009 9.46245 75.6009 8.53745C75.6009 7.19995 76.5759 6.26245 78.0759 6.26245C79.8884 6.26245 80.5384 7.29995 80.4634 8.66245H78.7384C78.7384 8.18745 78.5009 7.84995 78.0759 7.84995C77.6509 7.84995 77.4384 8.09995 77.4384 8.42495C77.4384 8.74995 77.6134 8.96245 78.1509 9.16245H78.1384Z" fill="#F9F9F8"/>
<path d="M83.475 14.075H81.625V6.40002H83.475V14.075Z" fill="#F9F9F8"/>
<path d="M86.5375 9.53752V14.075H84.75V6.40002H86.6625L89.5375 11.0375V6.40002H91.325V14.075H89.5L86.5375 9.53752Z" fill="#F9F9F8"/>
<path d="M95.9242 6.26245C98.4242 6.26245 99.9992 7.98745 99.9992 10.225C99.9992 12.4625 98.4492 14.225 95.9867 14.225C93.5242 14.225 91.9492 12.5 91.9492 10.25C91.9492 7.99995 93.5617 6.26245 95.9367 6.26245H95.9242ZM95.9617 12.5C97.3117 12.5 98.0367 11.5 98.0367 10.25C98.0367 8.99995 97.2617 7.99995 95.9492 7.99995C94.6367 7.99995 93.8742 8.99995 93.8742 10.25C93.8742 11.5 94.6867 12.4875 95.9617 12.4875V12.5Z" fill="#F9F9F8"/>
</svg>
