<?xml version="1.0" encoding="UTF-8"?>
<svg width="80px" height="80px" viewBox="0 0 80 80" version="1.1" xmlns="http://www.w3.org/2000/svg" xmlns:xlink="http://www.w3.org/1999/xlink">
    <!-- Generator: Sketch 48.2 (47327) - http://www.bohemiancoding.com/sketch -->
    <title>amatic color</title>
    <desc>Created with Sketch.</desc>
    <defs></defs>
    <g id="Page-1" stroke="none" stroke-width="1" fill="none" fill-rule="evenodd">
        <g id="amatic-color" fill="#0000A3" fill-rule="nonzero">
            <path d="M47.2745228,49.8558051 L28.5015607,49.8558051 L25.6856164,58.7729621 C24.7469683,60.6502584 24.2776442,62.5275546 24.2776442,63.4662027 C24.2776442,64.4048508 24.7469683,65.3434989 25.2162923,65.8128229 C26.1549404,66.282147 27.5629126,66.7514711 29.9095328,67.2207951 L29.9095328,68.6287673 L14.8911631,68.6287673 L14.8911631,67.2207951 C16.7684593,66.7514711 18.1764315,66.282147 18.6457556,65.3434989 C20.0537277,63.9355267 21.4616999,61.5889065 22.869672,57.36499 L39.2960139,11.3712327 L40.7039861,11.3712327 L57.130328,57.834314 C58.0689761,61.5889065 59.4769482,63.9355267 60.4155963,65.3434989 C61.8235685,66.282147 63.2315407,66.7514711 65.1088369,67.2207951 L65.1088369,68.6287673 L46.3358747,68.6287673 L46.3358747,67.2207951 C48.2131709,66.7514711 49.6211431,66.7514711 50.0904672,65.8128229 C51.0291153,65.3434989 51.0291153,64.4048508 51.0291153,63.4662027 C51.0291153,62.5275546 50.5597912,60.6502584 49.6211431,57.834314 L47.2745228,49.8558051 Z M45.8665507,47.0398608 L37.8880418,24.5123062 L29.9095328,47.0398608 L45.8665507,47.0398608 Z" id="Shape"></path>
        </g>
    </g>
</svg>