<svg width="32" height="32" viewBox="0 0 32 32" fill="none" xmlns="http://www.w3.org/2000/svg">
<g clip-path="url(#clip0_921_670)">
<path fill-rule="evenodd" clip-rule="evenodd" d="M15.1364 0.0173968C11.9544 0.20895 8.98915 1.28083 6.47984 3.14661C5.20708 4.09295 3.91795 5.40102 3.01021 6.66723C0.633083 9.98313 -0.384564 14.0027 0.130759 18.0406C0.514295 21.046 1.72715 23.8247 3.70418 26.2275C4.16101 26.7827 5.21077 27.832 5.77367 28.2962C9.27905 31.1864 13.6836 32.4538 18.1412 31.8548C21.5269 31.3999 24.6697 29.8729 27.1234 27.4907C28.4601 26.1929 29.4667 24.8187 30.3014 23.152C30.9987 21.7596 31.4398 20.4679 31.7234 18.9878C32.1612 16.7028 32.0761 14.1406 31.4909 11.9822L31.4333 11.7699L29.9683 11.7614C28.5828 11.7533 28.5042 11.7559 28.5203 11.8103C28.9414 13.2349 29.0807 13.9505 29.1672 15.1338C29.208 15.6924 29.1906 16.7618 29.1314 17.3221C28.8095 20.3736 27.4916 23.146 25.3336 25.3121C21.595 29.0645 15.9993 30.2141 11.0865 28.239C7.15559 26.6588 4.1894 23.2404 3.18654 19.1348C2.91506 18.0233 2.8257 17.2468 2.8257 15.9994C2.8257 15 2.86 14.5661 3.00635 13.7135C3.15652 12.8386 3.50243 11.6682 3.85119 10.8554C6.20349 5.37215 11.8552 2.14607 17.7494 2.92211C18.5034 3.0214 19.0885 3.15536 20.191 3.48125C20.2455 3.49732 20.2481 3.41878 20.2401 2.03476L20.2315 0.57125L20.0356 0.512592C19.5892 0.379044 18.5303 0.182854 17.782 0.0950954C17.0746 0.0121059 15.8312 -0.0244084 15.1364 0.0173968ZM25.5063 2.73895V4.27365L23.9794 4.28214L22.4525 4.29064L22.4439 5.39293L22.4353 6.49521H23.9708H25.5063V8.03024V9.56532H26.6004H27.6945V8.03024V6.49521H29.2297H30.7647V5.38476V4.27431H29.2297H27.6945V2.73928V1.20424H26.6004H25.5063V2.73895ZM18.7619 10.4489C16.983 10.6329 15.8359 11.4518 15.5711 12.7263C15.3525 13.7789 15.8144 14.8112 16.794 15.4597C16.8973 15.528 16.9818 15.5949 16.9818 15.6082C16.9818 15.6216 16.9021 15.6649 16.8045 15.7045C16.1657 15.9638 15.4634 16.6642 15.1715 17.3332C15.0519 17.6075 14.9578 18.0766 14.9575 18.3999C14.9569 19.3112 15.3416 20.0809 16.0765 20.6388C16.8901 21.2566 17.9853 21.5585 19.415 21.5594C20.8863 21.5603 21.9905 21.2445 22.8258 20.584C23.2618 20.2393 23.5624 19.8087 23.7463 19.2654C23.8406 18.9866 23.8527 18.9071 23.8658 18.4816C23.8781 18.0795 23.8699 17.9646 23.8116 17.7206C23.6048 16.8537 22.9839 16.1008 22.1503 15.7059C22.056 15.6612 21.979 15.6171 21.979 15.6079C21.979 15.5986 22.0486 15.5471 22.1337 15.4934C22.3567 15.3526 22.7174 15.0021 22.8686 14.7794C23.1815 14.3187 23.2973 13.9287 23.297 13.3375C23.2968 12.824 23.2426 12.5738 23.0422 12.1618C22.521 11.0892 21.297 10.4778 19.5807 10.4323C19.292 10.4247 18.9235 10.4322 18.7619 10.4489ZM8.10579 11.6474L8.11438 12.7497L9.1187 12.7583L10.123 12.767V17.1102V21.4537H11.5111H12.8992V15.9994V10.5451H10.4982H8.09717L8.10579 11.6474ZM19.8956 12.2906C20.5192 12.4018 20.8695 12.7202 20.9703 13.2671C21.0179 13.5255 20.9764 13.8612 20.8714 14.0659C20.6786 14.4421 20.236 14.6695 19.6111 14.7134C18.8325 14.7682 18.2339 14.5315 17.9768 14.0676C17.8845 13.9011 17.88 13.8742 17.88 13.5009C17.88 13.0861 17.9077 12.9899 18.104 12.7244C18.3822 12.3482 19.1609 12.1597 19.8956 12.2906ZM20.1662 16.7975C20.4579 16.8755 20.7479 17.0284 20.9179 17.1936C21.3071 17.5718 21.3976 18.2526 21.1308 18.7946C20.9708 19.1197 20.6499 19.3517 20.18 19.4823C19.8789 19.5659 18.9803 19.5672 18.6801 19.4845C18.3356 19.3894 18.1346 19.2803 17.9328 19.0785C17.6618 18.8074 17.5893 18.609 17.5893 18.1386C17.5893 17.8436 17.6023 17.7463 17.6622 17.5949C17.834 17.1606 18.266 16.8626 18.8839 16.752C19.1364 16.7069 19.933 16.735 20.1662 16.7975Z" fill="#EB5757"/>
</g>
<defs>
<clipPath id="clip0_921_670">
<rect width="32" height="32" fill="white"/>
</clipPath>
</defs>
</svg>
