<svg width="21" height="18" viewBox="0 0 21 18" fill="none" xmlns="http://www.w3.org/2000/svg">
<path d="M10.7309 17.1429C10.6299 17.1427 10.5301 17.1202 10.4389 17.0769C10.3476 17.0337 10.267 16.9708 10.2028 16.8928L0.938841 5.77602C0.822963 5.64959 0.758682 5.48432 0.758682 5.31282C0.758682 5.14132 0.822963 4.97605 0.938841 4.84962L4.55179 1.06992C4.62325 0.995963 4.71005 0.938561 4.80608 0.901749C4.90211 0.864938 5.00504 0.849612 5.10763 0.856847H16.2244C16.4086 0.85701 16.5852 0.930318 16.7154 1.06065L20.3654 4.71066C20.4859 4.83225 20.5572 4.99404 20.5658 5.165C20.5743 5.33595 20.5195 5.50405 20.4117 5.63706L11.2774 16.8835C11.2128 16.9639 11.131 17.029 11.038 17.0738C10.9451 17.1187 10.8433 17.1423 10.7401 17.1429H10.7309ZM2.39328 5.35914L10.7309 15.355L18.9295 5.29429L15.9279 2.24644H5.35776L2.39328 5.35914Z" fill="#FACD0D"/>
<path d="M19.8651 6.02614H1.46689C1.28262 6.02614 1.10589 5.95294 0.975591 5.82264C0.845291 5.69234 0.77209 5.51562 0.77209 5.33134C0.77209 5.14707 0.845291 4.97035 0.975591 4.84005C1.10589 4.70975 1.28262 4.63655 1.46689 4.63655H19.8651C20.0494 4.63655 20.2261 4.70975 20.3564 4.84005C20.4867 4.97035 20.5599 5.14707 20.5599 5.33134C20.5599 5.51562 20.4867 5.69234 20.3564 5.82264C20.2261 5.95294 20.0494 6.02614 19.8651 6.02614Z" fill="#FACD0D"/>
<path d="M10.7309 17.1429C10.5466 17.1429 10.3699 17.0697 10.2396 16.9394C10.1093 16.8091 10.0361 16.6324 10.0361 16.4481V1.5887C10.0361 1.40443 10.1093 1.2277 10.2396 1.0974C10.3699 0.967105 10.5466 0.893903 10.7309 0.893903C10.9151 0.893903 11.0919 0.967105 11.2222 1.0974C11.3525 1.2277 11.4257 1.40443 11.4257 1.5887V16.4111C11.4321 16.5057 11.4188 16.6006 11.3866 16.6898C11.3545 16.7791 11.3042 16.8607 11.2389 16.9295C11.1736 16.9982 11.0947 17.0527 11.0073 17.0895C10.9198 17.1262 10.8257 17.1444 10.7309 17.1429Z" fill="#FACD0D"/>
</svg>
