<?xml version="1.0" encoding="UTF-8"?>
<svg width="80px" height="80px" viewBox="0 0 80 80" version="1.1" xmlns="http://www.w3.org/2000/svg" xmlns:xlink="http://www.w3.org/1999/xlink">
    <!-- Generator: Sketch 53.2 (72643) - https://sketchapp.com -->
    <title>Kalamba Logo color</title>
    <desc>Created with Sketch.</desc>
    <g id="Kalamba-Logo-color" stroke="none" stroke-width="1" fill="none" fill-rule="evenodd">
        <g transform="translate(3.000000, 18.000000)" fill="#651153" id="Shape">
            <path d="M2,12.3344262 C3.07142857,12.3344262 3.92857143,11.4688525 3.92857143,10.3868852 C3.92857143,9.30491803 3.07142857,8.43934426 2,8.43934426 C0.928571429,8.43934426 0.0714285714,9.30491803 0.0714285714,10.3868852 C0.0714285714,11.4688525 0.928571429,12.3344262 2,12.3344262 L2,12.3344262 Z M3.28571429,17.9606557 C3.28571429,16.9508197 4.14285714,16.0852459 5.14285714,16.0852459 L11.6428571,16.0852459 C12.6428571,16.0852459 13.5,16.9508197 13.5,17.9606557 C13.5,18.9704918 12.6428571,19.8360656 11.6428571,19.8360656 L5.14285714,19.8360656 C4.14285714,19.8360656 3.28571429,18.9704918 3.28571429,17.9606557 L3.28571429,17.9606557 Z M9.14285714,2.30819672 C9.14285714,1.29836066 10,0.432786885 11,0.432786885 L17.5,0.432786885 C18.5,0.432786885 19.3571429,1.29836066 19.3571429,2.30819672 C19.3571429,3.31803279 18.5,4.18360656 17.5,4.18360656 L11,4.18360656 C9.92857143,4.18360656 9.14285714,3.31803279 9.14285714,2.30819672 L9.14285714,2.30819672 Z M43.9285714,43.3508197 C43.4285714,43.3508197 43.0714286,42.9901639 43.2142857,42.557377 L55.4285714,1.44262295 C55.5714286,1.00983607 56.0714286,0.649180328 56.6428571,0.649180328 L74.7142857,0.649180328 L51.3571429,15.147541 L70.4285714,15.5081967 C71.5,15.5803279 72.3571429,16.4459016 72.2857143,17.3836066 C72.2857143,17.6 72.2142857,17.8163934 72.1428571,18.0327869 L65.7142857,41.547541 C65.6428571,42.557377 64.5714286,43.4229508 63.3571429,43.4229508 L43.9285714,43.3508197 L43.9285714,43.3508197 Z M36.2857143,16.0852459 C37.0714286,15.7967213 37.7142857,15.0754098 37.7857143,14.2819672 C37.8571429,13.2 36.9285714,12.3344262 35.7142857,12.3344262 L30.7142857,12.3344262 L11.7857143,12.3344262 C10.7142857,12.3344262 9.85714286,11.4688525 9.92857143,10.3868852 C10,9.30491803 10.9285714,8.43934426 12.0714286,8.43934426 L36,8.43934426 C37.2142857,8.43934426 38.2857143,7.57377049 38.3571429,6.49180328 C38.4285714,5.40983607 37.5,4.5442623 36.2857143,4.5442623 L26.7857143,4.5442623 C25.5714286,4.5442623 24.6428571,3.67868852 24.7142857,2.59672131 C24.7857143,1.5147541 25.8571429,0.649180328 27.0714286,0.649180328 L51.8571429,0.649180328 C52.3571429,0.649180328 52.7142857,1.00983607 52.5714286,1.44262295 L40.6428571,42.557377 C40.5,42.9901639 40,43.3508197 39.5,43.3508197 L22.6428571,43.3508197 C22.1428571,43.3508197 21.7857143,42.9901639 21.9285714,42.557377 L25.0714286,31.5934426 L25.8571429,31.5934426 C27.0714286,31.5934426 28.1428571,30.7278689 28.2142857,29.6459016 C28.2857143,28.5639344 27.3571429,27.6983607 26.2142857,27.6983607 L26.2142857,27.6983607 L22,27.6983607 C20.9285714,27.6983607 20.0714286,26.8327869 20.1428571,25.7508197 C20.2142857,24.6688525 21.1428571,23.8032787 22.2857143,23.8032787 L31.2857143,23.8032787 C32.0714286,23.5147541 32.7142857,22.7934426 32.7857143,22 C32.8571429,20.9180328 31.9285714,20.052459 30.7142857,20.052459 L28.5,20.052459 L19.0714286,20.052459 C18,20.052459 17.1428571,19.1868852 17.2142857,18.104918 C17.2857143,17.0229508 18.2142857,16.157377 19.3571429,16.157377 L36.2857143,16.157377 L36.2857143,16.0852459 Z"></path>
        </g>
    </g>
</svg>