<svg width="18" height="20" viewBox="0 0 18 20" fill="none" xmlns="http://www.w3.org/2000/svg">
<g clip-path="url(#clip0_788_8433)">
<path d="M8.997 13V15.4M12.692 1H15.769C16.45 1 17 1.537 17 2.2V5.2C17 9.508 13.418 13 9 13C4.582 13 1 9.508 1 5.2V2.2C1 1.537 1.551 1 2.23 1H5.308M14.22 19C13.437 16.842 11.344 15.4 8.997 15.4C6.649 15.4 4.557 16.842 3.774 19H14.22Z" stroke="#356EFF" stroke-linecap="round" stroke-linejoin="round"/>
<path opacity="0.5" fill-rule="evenodd" clip-rule="evenodd" d="M9.43498 2.45801L10.46 4.42501H12.205C12.3001 4.4221 12.394 4.44767 12.4745 4.49845C12.555 4.54923 12.6186 4.62289 12.657 4.71001C12.6942 4.79651 12.7039 4.89242 12.6845 4.98461C12.6652 5.0768 12.6179 5.16076 12.549 5.22501L10.946 6.75901L11.834 8.74701C11.914 8.93401 11.864 9.15001 11.707 9.28301C11.6302 9.34826 11.5353 9.38842 11.435 9.39808C11.3347 9.40773 11.2338 9.38642 11.146 9.33701L8.99998 8.16001L6.85398 9.33701C6.76616 9.38642 6.6653 9.40773 6.565 9.39808C6.4647 9.38842 6.36976 9.34826 6.29298 9.28301C6.2172 9.21904 6.16396 9.13244 6.1411 9.03595C6.11823 8.93946 6.12695 8.83817 6.16598 8.74701L7.05398 6.75901L5.44998 5.22201C5.3811 5.15776 5.33375 5.0738 5.31442 4.98161C5.29508 4.88942 5.30471 4.79351 5.34198 4.70701C5.38037 4.61989 5.4439 4.54623 5.52443 4.49545C5.60496 4.44467 5.69882 4.4191 5.79398 4.42201H7.53998L8.56498 2.45801C8.60681 2.37907 8.66948 2.3131 8.74617 2.26726C8.82286 2.22142 8.91064 2.19747 8.99998 2.19801C9.18398 2.19801 9.35198 2.29801 9.43498 2.45801Z" stroke="#FACD0D" stroke-linecap="round" stroke-linejoin="round"/>
</g>
<defs>
<clipPath id="clip0_788_8433">
<rect width="18" height="20" fill="white"/>
</clipPath>
</defs>
</svg>
