<svg width="22" height="22" viewBox="0 0 22 22" fill="none" xmlns="http://www.w3.org/2000/svg">
<path fill-rule="evenodd" clip-rule="evenodd" d="M2.54281 5.70681C1.86664 5.70681 1.31849 6.25009 1.31849 6.92026V16.1798C1.31849 16.85 1.86664 17.3932 2.54281 17.3932H19.4572C20.1334 17.3932 20.6815 16.85 20.6815 16.1798V6.92026C20.6815 6.25009 20.1334 5.70681 19.4572 5.70681H2.54281ZM0 6.92026C0 5.52837 1.13845 4.40002 2.54281 4.40002H19.4572C20.8615 4.40002 22 5.52837 22 6.92026V16.1798C22 17.5717 20.8615 18.7 19.4572 18.7H2.54281C1.13845 18.7 0 17.5717 0 16.1798V6.92026Z" fill="#FACD0D"/>
<path fill-rule="evenodd" clip-rule="evenodd" d="M7.4024 4.40002C7.76649 4.40002 8.06164 4.69256 8.06164 5.05342V18.0466C8.06164 18.4075 7.76649 18.7 7.4024 18.7C7.0383 18.7 6.74315 18.4075 6.74315 18.0466V5.05342C6.74315 4.69256 7.0383 4.40002 7.4024 4.40002Z" fill="#FACD0D"/>
<path fill-rule="evenodd" clip-rule="evenodd" d="M13.9478 18.0466V5.05342H15.2663V18.0466H13.9478Z" fill="#FACD0D"/>
<path d="M5.52825 10.4673L4.06849 14.0049H2.84418L4.32277 10.6166H2.5899V9.59918H5.52825V10.4673Z" fill="#FACD0D"/>
<path d="M12.4503 10.4673L10.9906 14.0049H9.76627L11.2449 10.6166H9.51199V9.59918H12.4503V10.4673Z" fill="#FACD0D"/>
<path d="M19.4666 10.4673L18.0068 14.0049H16.7825L18.2517 10.6166H16.5188V9.59918H19.4666V10.4673Z" fill="#FACD0D"/>
</svg>
