<svg width="40" height="40" viewBox="0 0 40 40" fill="none" xmlns="http://www.w3.org/2000/svg">
<rect x="0.5" y="0.5" width="39" height="39" rx="19.5" fill="#18152C"/>
<path d="M11.1113 29.8289C11.1082 27.5345 11.9957 25.3285 13.5869 23.6755M26.4136 23.6755C28.0047 25.3285 28.8922 27.5345 28.8891 29.8289M24.7869 15.6978C23.6447 16.2382 22.3353 16.3056 21.1438 15.8852C19.9522 15.4648 18.9749 14.5908 18.4247 13.4533C18.1937 14.2087 17.7798 14.8954 17.2196 15.4523C16.6594 16.0092 15.9703 16.4191 15.2136 16.6455M16.7091 23.0678C16.6281 23.0191 16.5357 22.9928 16.4412 22.9915C16.3468 22.9901 16.2537 23.0138 16.1713 23.06C16.0889 23.1063 16.0203 23.1735 15.9723 23.2549C15.9243 23.3362 15.8986 23.4288 15.898 23.5233V26.5566C15.8986 26.6511 15.9243 26.7437 15.9723 26.8251C16.0203 26.9064 16.0889 26.9737 16.1713 27.0199C16.2537 27.0662 16.3468 27.0898 16.4412 27.0885C16.5357 27.0871 16.6281 27.0608 16.7091 27.0122L23.2924 23.0622C23.3734 23.0136 23.4659 22.9873 23.5603 22.9859C23.6548 22.9846 23.7479 23.0082 23.8303 23.0545C23.9126 23.1007 23.9813 23.1679 24.0293 23.2493C24.0773 23.3307 24.1029 23.4233 24.1036 23.5178V26.5511C24.1029 26.6455 24.0773 26.7382 24.0293 26.8195C23.9813 26.9009 23.9126 26.9681 23.8303 27.0144C23.7479 27.0606 23.6548 27.0843 23.5603 27.0829C23.4659 27.0816 23.3734 27.0552 23.2924 27.0066L16.7091 23.0678Z" stroke="#CB49D6" stroke-linecap="round" stroke-linejoin="round"/>
<path d="M23.3496 20.94C23.8052 20.4949 24.167 19.9631 24.4138 19.3759C24.6605 18.7887 24.7871 18.158 24.7862 17.5211V14.7867C24.7862 13.5172 24.2819 12.2997 23.3842 11.402C22.4866 10.5043 21.2691 10 19.9996 10C18.7301 10 17.5126 10.5043 16.6149 11.402C15.7172 12.2997 15.2129 13.5172 15.2129 14.7867V17.5211C15.212 18.158 15.3386 18.7887 15.5854 19.3759C15.8321 19.9631 16.194 20.4949 16.6496 20.94" stroke="#CB49D6" stroke-linecap="round" stroke-linejoin="round"/>
<rect x="0.5" y="0.5" width="39" height="39" rx="19.5" stroke="#9B51E0"/>
</svg>
