<svg width="25" height="25" viewBox="0 0 25 25" fill="none" xmlns="http://www.w3.org/2000/svg">
<g clip-path="url(#clip0_2225_13054)">
<path d="M12.5 25C19.4036 25 25 19.4036 25 12.5C25 5.59644 19.4036 0 12.5 0C5.59644 0 0 5.59644 0 12.5C0 19.4036 5.59644 25 12.5 25Z" fill="#FACD0D"/>
<path d="M3.75 16.6667V8H5.08333L6.91667 12.1667V8H8.41667V16.6667H7.25L5.41667 12.1667V16.6667H3.75Z" fill="#111110"/>
<path d="M9.75 16.6667V8H13.75V9.33333H11.75V11.5H13.25V12.8333H11.75V15.5H13.75V16.8333H9.75V16.6667Z" fill="#111110"/>
<path d="M15.25 16.6667L14.25 8H15.9167L16.4167 13L17.0833 8H18.4167L19.0833 13L19.5833 8H21.25L20.25 16.6667H18.5833L17.75 11.5L17.0833 16.6667H15.25Z" fill="#111110"/>
</g>
<defs>
<clipPath id="clip0_2225_13054">
<rect width="25" height="25" fill="white"/>
</clipPath>
</defs>
</svg>
