<?xml version="1.0" encoding="UTF-8"?>
<svg width="80px" height="80px" viewBox="0 0 80 80" version="1.1" xmlns="http://www.w3.org/2000/svg" xmlns:xlink="http://www.w3.org/1999/xlink">
    <!-- Generator: Sketch 53.2 (72643) - https://sketchapp.com -->
    <title>RelaxGaming white</title>
    <desc>Created with Sketch.</desc>
    <g id="RelaxGaming-white" stroke="none" stroke-width="1" fill="none" fill-rule="evenodd">
        <g id="Group-2" transform="translate(5.000000, 23.000000)" fill="#FFFFFF" fill-rule="nonzero">
            <g id="Group" transform="translate(34.000000, 0.000000)">
                <ellipse id="Oval" cx="5.12307692" cy="5.10810811" rx="5.12307692" ry="5.10810811"></ellipse>
                <path d="M36.7153846,5.10810811 C36.7153846,7.94594595 34.4384615,10.2162162 31.6871795,10.2162162 C28.8410256,10.2162162 26.5641026,7.94594595 26.5641026,5.2027027 C26.5641026,2.36486486 28.8410256,0.0945945946 31.5923077,0.0945945946 C31.5923077,0.0945945946 31.5923077,0.0945945946 31.5923077,0.0945945946 C34.4384615,0.0945945946 36.7153846,2.36486486 36.7153846,5.10810811 Z" id="Path"></path>
                <ellipse id="Oval" cx="5.12307692" cy="29.8918919" rx="5.12307692" ry="5.10810811"></ellipse>
                <path d="M36.7153846,29.8918919 C36.7153846,32.7297297 34.4384615,35 31.5923077,35 C28.7461538,35 26.4692308,32.7297297 26.4692308,29.8918919 C26.4692308,27.0540541 28.7461538,24.7837838 31.5923077,24.7837838 C34.4384615,24.7837838 36.7153846,27.0540541 36.7153846,29.8918919 L36.7153846,29.8918919 Z" id="Path"></path>
                <path d="M23.4333333,17.5 C23.4333333,20.3378378 21.1564103,22.6081081 18.3102564,22.6081081 C15.4641026,22.6081081 13.1871795,20.3378378 13.1871795,17.5 C13.1871795,14.6621622 15.4641026,12.3918919 18.3102564,12.3918919 C18.3102564,12.3918919 18.3102564,12.3918919 18.3102564,12.3918919 C21.2512821,12.3918919 23.4333333,14.6621622 23.4333333,17.5 Z" id="Path"></path>
            </g>
            <path d="M30.9057751,34.0437158 L30.9057751,34.0437158 L22.8966565,20.3688525 L22.8966565,20.3688525 C26.9483283,19.5081967 29.8693009,16.6393443 29.8693009,10.3278689 C29.8693009,1.91256831 24.4042553,0 17.4316109,0 L0.659574468,0 C0.282674772,0 0,0.286885246 0,0.669398907 L0,0.669398907 L0,0.669398907 L0,34.2349727 L0,34.2349727 C0,34.6174863 0.282674772,34.9043716 0.659574468,34.9043716 L6.59574468,34.9043716 C6.97264438,34.9043716 7.25531915,34.6174863 7.25531915,34.2349727 L7.25531915,21.1338798 L15.6413374,21.1338798 L23.0851064,34.4262295 L23.0851064,34.4262295 C23.2735562,34.8087432 23.6504559,35 24.0273556,35 L30.4346505,35 C30.7173252,35 31,34.7131148 31,34.4262295 C31,34.2349727 30.9057751,34.1393443 30.9057751,34.0437158 Z M17.5258359,15.0136612 L7.25531915,15.0136612 L7.25531915,6.21584699 L17.5258359,6.21584699 C21.3890578,6.21584699 22.5197568,8.1284153 22.5197568,10.5191257 C22.5197568,12.9098361 21.3890578,15.0136612 17.5258359,15.0136612 Z" id="Shape"></path>
        </g>
    </g>
</svg>