<svg width="30" height="30" viewBox="0 0 30 30" fill="none" xmlns="http://www.w3.org/2000/svg">
<rect x="0.5" y="0.5" width="29" height="29" rx="14.5" fill="#18152C"/>
<g clip-path="url(#clip0_2018_10622)">
<path d="M24.375 14.375H22.4719C22.1712 10.7319 19.2678 7.83125 15.625 7.53V5.625C15.625 5.28 15.345 5 15 5C14.655 5 14.375 5.28 14.375 5.625V7.53C10.7325 7.83125 7.82875 10.7319 7.52781 14.375H5.625C5.28 14.375 5 14.655 5 15C5 15.345 5.28 15.625 5.625 15.625H7.52781C7.82875 19.2678 10.7325 22.1687 14.375 22.47V24.375C14.375 24.72 14.655 25 15 25C15.345 25 15.625 24.72 15.625 24.375V22.47C19.2678 22.1687 22.1712 19.2678 22.4719 15.625H24.375C24.72 15.625 25 15.345 25 15C25 14.655 24.72 14.375 24.375 14.375ZM14.375 8.78094V14.375H8.78031C9.07344 11.4219 11.4219 9.07406 14.375 8.78094ZM8.78031 15.625H14.375V21.2191C11.4219 20.9259 9.07344 18.5781 8.78031 15.625ZM15.625 21.2191V15.625H21.2197C20.9266 18.5781 18.5781 20.9259 15.625 21.2191ZM15.625 14.375V8.78094C18.5781 9.07406 20.9266 11.4219 21.2197 14.375H15.625Z" fill="#F2994A"/>
</g>
<rect x="0.5" y="0.5" width="29" height="29" rx="14.5" stroke="#9B51E0"/>
<defs>
<clipPath id="clip0_2018_10622">
<rect width="20" height="20" fill="white" transform="translate(5 5)"/>
</clipPath>
</defs>
</svg>
