<?xml version="1.0" encoding="UTF-8"?>
<svg width="120px" height="120px" viewBox="0 0 120 120" version="1.1" xmlns="http://www.w3.org/2000/svg" xmlns:xlink="http://www.w3.org/1999/xlink">
    <!-- Generator: Sketch 52.4 (67378) - http://www.bohemiancoding.com/sketch -->
    <title>1х2 gaming color</title>
    <desc>Created with Sketch.</desc>
    <g id="1х2-gaming-color" stroke="none" stroke-width="1" fill="none" fill-rule="evenodd">
        <g id="1x2gaming" transform="translate(30.000000, 30.000000)">
            <path d="M17.9391464,42.1318247 C18.397714,42.1871493 18.6952828,42.2229935 19.0751783,42.2689675 C18.9141795,42.5266949 18.8045388,42.7177986 18.6808563,42.8989675 C16.4228344,46.2071493 14.1526943,49.5067596 11.9148694,52.8289675 C11.5565173,53.3609805 11.3495464,53.5176038 10.7940334,53.0163702 C4.95691498,47.7502014 1.16469228,41.3062404 0.229860822,33.4002661 C-0.789605584,24.7809156 1.59229112,17.0919546 7.18185231,10.4859156 C11.4497619,5.44182469 16.8594738,2.26143507 23.2449882,0.837603897 C28.3954094,-0.310772726 33.4940879,0.10124026 38.5152485,1.68033117 C40.9394626,2.4426039 43.2576907,3.42656493 45.3947231,4.84007144 C45.9406188,5.20104545 45.9454276,5.43052596 45.5738032,5.9339026 C42.8320157,9.64981168 40.1140797,13.3842273 37.4046072,17.1246818 C37.1174255,17.5213052 36.8414001,17.8129286 36.3168558,17.7100714 C35.6332363,17.5758507 35.2227568,17.895526 34.826319,18.4610454 C33.0493698,20.9970195 31.2222166,23.4969546 29.3546698,26.0909805 C27.5504064,23.5105909 25.7834596,21.0209805 24.0653701,18.4968896 C23.6810505,17.9321493 23.2967309,17.6730584 22.5952226,17.6985779 C20.9644611,17.7577987 19.3300449,17.717474 17.6808175,17.717474 C17.6606205,18.153448 17.9756934,18.378448 18.1657373,18.6539026 C20.7140186,22.350526 23.260184,26.0490974 25.8463587,29.718448 C26.233756,30.2677986 26.2099043,30.5976038 25.8246229,31.1282531 C23.2074795,34.732539 20.6301531,38.366435 17.9391464,42.1318247" id="Fill-1" fill="#009344"></path>
            <path d="M30.1069203,34.0650973 C31.942537,36.6883442 33.7185244,39.185552 35.441615,41.7195781 C35.8172786,42.2720455 36.2148708,42.471526 36.8588656,42.455552 C38.4875114,42.4146428 40.1178882,42.4421103 41.9486961,42.4421103 C41.0129028,41.0813962 40.1678999,39.8432144 39.3136638,38.6120455 C37.4176486,35.8789284 35.5270195,33.1419157 33.6090761,30.4247726 C33.2591876,29.9289935 33.2372594,29.5915908 33.6167703,29.0712662 C36.0329056,25.7586039 38.4055693,22.4137987 40.790736,19.0781493 C41.0132874,18.7668507 41.2227588,18.4460065 41.4533893,18.1074351 C41.1567821,17.8125 40.7959297,18.0421753 40.5306759,17.874448 C40.4244976,17.6928896 40.5739552,17.5783441 40.6551278,17.4591234 C42.9662389,14.0702922 45.2927382,10.6919805 47.5832675,7.28892856 C47.9581619,6.73198051 48.2099508,6.71717531 48.6883307,7.15042209 C53.7198783,11.7071104 57.3005135,17.199448 58.7560424,23.9067857 C60.4195037,31.572565 59.2669296,38.870552 55.2081068,45.6008767 C50.8092055,52.8947726 44.4265763,57.5377596 36.197559,59.2958767 C28.6587011,60.9061363 21.4385707,59.7669157 14.7370217,55.7504219 C14.0514786,55.3395781 13.9797313,55.0347079 14.4502246,54.3509415 C17.0129324,50.6262661 19.527552,46.8671103 22.0392864,43.1063962 C22.334547,42.6643832 22.630577,42.3421753 23.1908988,42.4510716 C23.9002935,42.5886038 24.2869213,42.197435 24.6687404,41.6568507 C26.4368414,39.151461 28.2366805,36.6692531 30.1069203,34.0650973" id="Fill-4" fill="#929497"></path>
            <path d="M15.8454317,30.803435 C15.8454317,33.7866818 15.8271583,36.7701233 15.8606275,39.7529805 C15.8673599,40.3646688 15.6800089,40.537461 15.1048759,40.527526 C13.568367,40.5006428 12.0297421,40.4827209 10.4949642,40.5401883 C9.76941192,40.567461 9.57417449,40.341487 9.57802154,39.6148637 C9.6059126,34.1347986 9.59321736,28.6543441 9.59321736,23.1738896 C9.59302502,20.781487 9.1710044,20.3207727 6.83584926,20.2816169 C6.31842198,20.2730454 6.0943317,20.1660974 6.10510343,19.5885 C6.14415092,17.5058377 5.93198649,17.9067467 7.68354521,17.9073312 C9.24890702,17.9077208 10.8190776,17.7748636 12.3805924,18.0427208 C14.4508786,18.3976559 15.7282893,19.7435649 15.7682985,21.8546688 C15.82485,24.8367467 15.7827249,27.8203831 15.7827249,30.803435 L15.8454317,30.803435 Z" id="Fill-22" fill="#FEFEFE"></path>
            <path d="M42.6845777,27.5350325 C42.6845777,25.8057467 42.6482231,24.3131493 42.6936181,22.8232792 C42.7542091,20.836461 43.8875478,19.3029546 45.7398991,18.6577597 C48.2148944,17.7959416 50.7160493,17.8939286 53.1760411,18.6680844 C55.1247608,19.2813312 55.8339632,20.3572403 55.9170591,22.5075 C55.9509131,23.3821753 55.9412956,24.2595779 55.9193673,25.1350325 C55.8735875,26.968539 54.7523669,28.1459416 53.4576445,29.2150325 C51.99673,30.4212661 50.3775095,31.425487 49.0370075,32.7865908 C47.9338679,33.9067209 47.4570268,35.2462014 47.497036,36.823539 C47.5120395,37.4219805 47.6934276,37.5978897 48.274716,37.5908767 C50.4846499,37.5636038 52.6959302,37.6193182 54.9050945,37.5667209 C55.7277849,37.5470455 55.9341786,37.8378897 55.9259074,38.6233442 C55.9066723,40.4926949 55.9412956,40.4930843 54.1433799,40.4930843 C50.6196808,40.4930843 47.0955971,40.472435 43.5722827,40.5100325 C42.8503853,40.5178247 42.6262949,40.3179545 42.6639959,39.586461 C42.7238174,38.421526 42.7851777,37.239448 42.6584176,36.0858117 C42.3770065,33.5252921 43.67673,31.846461 45.5059991,30.4043182 C46.7930273,29.3899675 48.0454322,28.3282792 49.3616979,27.3550325 C51.326575,25.9023701 51.3640837,23.8612013 51.0524732,21.7543831 C50.8991686,20.7168507 50.0049236,20.585552 49.113179,20.5859416 C48.2452861,20.5861364 47.7288203,20.9858766 47.5624358,21.8475 C47.5380071,21.9743182 47.4866492,22.1122403 47.512809,22.2302922 C47.8571195,23.7825 46.9155556,24.5603572 45.7976047,25.2906818 C44.7864097,25.9510714 43.8327277,26.701461 42.6845777,27.5350325" id="Fill-24" fill="#FEFEFE"></path>
        </g>
    </g>
</svg>