<svg xmlns="http://www.w3.org/2000/svg" fill="none" width="512" height="512" viewBox="0 0 512 512"><mask id="a" width="438" height="438" x="74" y="74" maskUnits="userSpaceOnUse" style="mask-type:alpha"><path d="M74.98 437.019a255.998 255.998 0 0 0 362.039 0 255.997 255.997 0 0 0 0-362.038L256 256 74.98 437.019Z" fill="#C4C4C4"/></mask><g mask="url(#a)"><path d="M271.5 612C436.909 612 571 477.909 571 312.5S436.909 13 271.5 13-28 147.091-28 312.5 106.091 612 271.5 612Z" fill="#F0F0F0"/><path d="M571 312.5c0-118.74-69.102-221.337-169.283-269.781V582.28C501.898 533.838 571 431.24 571 312.5Zm-599 0c0 118.74 69.101 221.338 169.283 269.782V42.719C41.101 91.163-28 193.76-28 312.5Zm351.587 39.067 52.086-26.044-26.042-13.021v-26.044l-52.087 26.044 26.043-52.088h-26.043L271.5 221.35l-26.044 39.064h-26.043l26.043 52.088-52.087-26.044v26.044l-26.042 13.021 52.086 26.044-13.021 26.043h52.087v39.065h26.042V377.61h52.088l-13.022-26.043Z" fill="#D80027"/></g><mask id="b" width="438" height="438" x="0" y="0" maskUnits="userSpaceOnUse" style="mask-type:alpha"><path d="M437.019 74.98A256 256 0 1 0 74.981 437.02L256 256 437.019 74.98Z" fill="#C4C4C4"/></mask><g mask="url(#b)"><path d="M256 512c141.385 0 256-114.615 256-256S397.385 0 256 0 0 114.615 0 256s114.615 256 256 256Z" fill="#F0F0F0"/><path d="M512 256.001c0-110.071-69.472-203.906-166.957-240.077v480.155C442.528 459.907 512 366.072 512 256.001Z" fill="#D80027"/><path d="M0 256.001c0 110.071 69.473 203.906 166.957 240.077V15.924C69.473 52.094 0 145.93 0 256Z" fill="#0052B4"/></g></svg>