<svg width="80" height="80" viewBox="0 0 80 80" fill="none" xmlns="http://www.w3.org/2000/svg">
<path d="M48.4646 79.1592C41.7527 80.5209 34.81 80.2251 28.2383 78.2974C27.8519 78.2227 27.8188 77.9915 27.9208 77.6597C28.4192 76.0481 28.8961 74.4294 29.3916 72.8178C29.913 71.1201 30.4172 69.4166 30.95 67.7217C31.0822 67.3009 30.9773 67.1242 30.5536 66.9906C26.7739 65.8055 23.2735 63.8667 20.2637 61.2912C19.7467 60.8503 19.2267 60.405 18.7527 59.9152C18.487 59.6409 18.2931 59.5906 18.0058 59.8937C16.8209 61.1447 15.5239 62.2838 14.3116 63.5046C13.1352 64.6896 11.8698 65.7841 10.7078 66.9777C10.5269 67.1644 10.3401 67.4086 10.017 67.2204C7.37225 64.4297 5.12436 61.2882 3.33659 57.8843C1.87598 55.1041 0.755706 52.158 0 49.1097C0.153687 48.8095 0.459625 48.7894 0.731092 48.7205C3.84506 47.942 6.95758 47.152 10.0672 46.3807C10.2238 46.3419 10.3789 46.2945 10.5369 46.2629C10.9219 46.1854 11.0152 45.957 10.9333 45.5922C10.6848 44.5081 10.5243 43.4057 10.4536 42.2958C10.3581 40.7392 10.361 39.1782 10.4622 37.622C10.6058 35.8157 10.9351 34.0291 11.4447 32.2903C11.6156 31.6813 11.5524 31.6181 10.8701 31.4127C7.65851 30.4489 4.45262 29.4636 1.24673 28.4812C0.416535 28.2269 0.420843 28.2183 0.696619 27.3737C0.74689 27.2215 0.802907 27.0721 0.856052 26.9199C1.81551 24.1601 3.06441 21.5097 4.58189 19.0129C6.42669 16.0177 8.66427 13.283 11.235 10.8818C11.3786 10.7482 11.5222 10.606 11.6544 10.4667C11.9718 10.2627 12.114 10.5601 12.2548 10.7181C13.2631 11.8413 14.2685 12.9444 15.2739 14.0719C16.5422 15.4881 17.8062 16.9072 19.1032 18.2976C19.8415 19.089 19.8587 19.0804 20.7018 18.4053C24.0605 15.681 27.9931 13.7535 32.204 12.7677C32.6449 12.6657 32.6866 12.4532 32.6004 12.0768C32.0072 9.46989 31.4757 6.85003 30.8883 4.24165C30.7159 3.47178 30.591 2.69042 30.3956 1.92485C30.1414 0.933784 30.1687 0.895003 31.131 0.742752C37.7155 -0.510449 44.5039 -0.174128 50.9323 1.72377C51.2425 1.85591 51.152 2.09865 51.0759 2.31841C50.4209 4.40252 49.8249 6.50818 49.1713 8.59661C48.7404 9.96686 48.3555 11.3486 47.9188 12.7146C47.745 13.2604 47.7752 13.3092 48.3181 13.4902C51.7311 14.6259 54.9032 16.3861 57.673 18.6811C58.3775 19.2397 59.0405 19.8488 59.6565 20.5038C59.9337 20.8097 60.175 20.8241 60.4623 20.5138C61.3773 19.5271 62.4229 18.6739 63.3608 17.7101C64.9738 16.0512 66.7132 14.5229 68.3305 12.8683C68.4742 12.716 68.6178 12.4129 68.9352 12.6169C72.337 16.1547 75.0803 20.2711 77.0361 24.7726C77.8577 26.6589 78.5301 28.6068 79.047 30.5983C79.2366 30.8612 78.9766 30.8985 78.843 30.9617C78.4935 31.1034 78.1307 31.2098 77.76 31.2791C74.6188 32.026 71.5005 32.8591 68.365 33.6376C66.9919 33.9751 67.2964 33.9593 67.4774 35.0136C67.7115 36.3709 67.8695 37.6 67.8695 39.1215C67.8695 40 67.8695 39.8688 67.8695 41.6178C67.8695 43.2 67.6899 44.6183 67.384 46.0934C67.2863 46.5674 67.1685 47.04 67.0278 47.5039C66.9086 47.8946 67.0077 48.0942 67.4156 48.2106C69.0889 48.6875 70.7493 49.216 72.4169 49.713C74.3272 50.2875 76.2375 50.8463 78.1378 51.4438C78.3705 51.517 78.6391 51.5673 78.6391 51.902C77.749 54.7406 76.5542 57.4746 75.0755 60.056C73.0531 63.5506 70.506 66.7139 67.5233 69.4352C67.2705 69.6694 67.1039 69.4525 66.9359 69.3117C66.4532 68.9038 66.0812 68.391 65.6618 67.9257C64.1379 66.2337 62.5981 64.5575 61.0828 62.8583C60.5226 62.2292 59.9639 61.5986 59.3836 60.9911C59.1323 60.7253 58.9613 60.7656 58.7129 60.9839C57.036 62.4764 55.192 63.7695 53.2175 64.8375C51.3097 65.8764 49.2883 66.6914 47.1935 67.2664C46.3848 67.4833 46.3719 67.479 46.55 68.3221C47.2466 71.6041 47.9677 74.8804 48.6657 78.1624C48.7031 78.3376 48.7261 78.5157 48.7648 78.6909C48.8237 78.9495 48.7246 79.1017 48.4646 79.1592Z" fill="#243171"/>
<path d="M33.3628 27.5822C31.8949 27.8924 30.5375 28.4555 29.5393 29.606C28.2049 31.1414 27.9378 32.9411 28.7637 34.7681C29.5895 36.5952 31.2672 37.1453 33.1516 37.1912C34.2318 37.1639 35.3061 37.1912 36.3891 37.1797C36.5543 37.0131 36.4724 36.8049 36.4739 36.6181C36.4854 32.0951 36.4997 27.5693 36.4897 23.0477C36.4897 22.5622 36.6046 22.4157 37.1087 22.42C40.5559 22.4487 44.0031 22.4013 47.4503 22.4674C49.1581 22.5004 50.6763 23.2617 52.1241 24.1091C55.0212 25.804 56.5365 28.3722 56.864 31.6858C57.203 35.0726 56.0898 37.8519 53.457 40.0165C53.2674 40.1731 53.0563 40.288 53.414 40.5163C56.5739 42.5272 57.6597 46.4843 56.515 50.1397C55.0916 54.6757 51.8685 57.0471 47.2851 57.7523C46.7896 57.8284 46.2797 57.8414 45.787 57.9146C45.4825 57.9606 45.4165 57.8442 45.4193 57.5684C45.4308 56.0067 45.4337 54.4449 45.428 52.8831C45.428 52.5959 45.5084 52.4925 45.8086 52.4522C47.6083 52.1765 49.1222 51.398 50.1176 49.8166C51.0483 48.3386 51.4189 46.7917 50.3115 45.2419C49.263 43.7754 47.8123 42.9437 45.991 42.8848C44.898 42.8461 43.8006 42.915 42.7075 42.8848C42.2221 42.8719 42.0684 43.0026 42.0655 43.5053C42.0454 47.3461 41.9966 51.1868 41.9535 55.0261C41.9434 55.852 41.9104 56.6765 41.9089 57.5009C41.9089 57.8141 41.8328 57.9448 41.4852 57.9318C38.8309 57.8543 36.1708 57.7882 33.5208 57.7279C32.3545 57.6977 31.1896 57.6704 30.0233 57.636C29.8627 57.6391 29.703 57.6123 29.5522 57.557C26.704 56.2959 24.2234 54.5809 22.6334 51.8116C21.6983 50.1828 21.4355 48.4205 21.694 46.5604C21.8908 45.1471 22.1465 43.7668 22.9752 42.5545C23.5316 41.7141 24.2493 40.9925 25.0866 40.4316C25.4558 40.1889 25.4184 40.051 25.1053 39.7709C23.4334 38.2771 22.1853 36.5018 21.7529 34.2626C21.312 31.9831 21.9526 29.8717 23.0054 27.891C24.8123 24.5056 27.7352 22.8121 31.5157 22.5148C32.0902 22.4358 32.6647 22.4846 33.2393 22.4875C33.3032 22.5364 33.3528 22.6014 33.3831 22.6759C33.4134 22.7504 33.4233 22.8317 33.4116 22.9112C33.4231 24.2614 33.4231 25.6115 33.4116 26.9617C33.4147 27.0857 33.3817 27.2079 33.3168 27.3136C33.3412 27.3596 33.3642 27.4055 33.3915 27.4486C33.4032 27.4707 33.4067 27.4962 33.4014 27.5206C33.3962 27.545 33.3825 27.5668 33.3628 27.5822V27.5822Z" fill="#EE412C"/>
<path d="M33.2651 22.5245L31.5156 22.5102C32.1591 22.3436 32.8083 22.4111 33.4662 22.4297C33.6098 22.5734 33.5854 22.7587 33.5868 22.9339C33.5868 24.2898 33.5868 25.6457 33.5868 27.0001C33.5868 27.1711 33.6845 27.4152 33.3915 27.4813H33.3599C33.2852 26.0234 33.3484 24.5641 33.324 23.1063C33.3154 22.9123 33.3699 22.7127 33.2651 22.5245Z" fill="#EE412C"/>
<path d="M33.3858 27.4865C33.4849 27.4104 33.4777 27.2998 33.4777 27.1992C33.4777 25.6135 33.4739 24.0273 33.4662 22.4407L33.584 22.4277C33.7089 22.8658 33.6299 23.3125 33.6357 23.7549C33.65 24.8623 33.6429 25.9712 33.6357 27.0786C33.6357 27.2509 33.6946 27.4362 33.5739 27.5971L33.3613 27.5899C33.3643 27.5544 33.3725 27.5196 33.3858 27.4865V27.4865Z" fill="#EE412C"/>
<path d="M33.5754 27.5907L33.584 22.4199C33.7276 22.5219 33.6946 22.6727 33.6946 22.812C33.6946 24.2752 33.6946 25.7388 33.6946 27.2029C33.6946 27.3437 33.7233 27.4959 33.5754 27.5907Z" fill="#EE412C"/>
<path d="M36.4451 47.7014C36.4451 49.1003 36.4351 50.4979 36.4523 51.8969C36.4523 52.2603 36.3618 52.3996 35.974 52.3924C34.5937 52.3694 33.212 52.3924 31.8317 52.3723C30.2402 52.3436 28.4362 50.6315 28.1317 48.9467C27.9708 48.0619 28.0627 47.1828 28.1992 46.3268C28.4003 45.0714 29.3195 44.3245 30.3824 43.7601C31.3261 43.2588 32.3114 42.9356 33.4159 43.0189C34.2769 43.0691 35.14 43.0725 36.0013 43.029C36.4222 43.016 36.5227 43.1726 36.5083 43.5604C36.4825 44.2599 36.5012 44.9594 36.5012 45.6589V47.7014H36.4451Z" fill="#243171"/>
<path d="M42.1832 32.3324C42.1832 30.9334 42.1933 29.5344 42.1832 28.1354C42.1832 27.7749 42.268 27.6269 42.6601 27.6356C43.825 27.66 44.997 27.5681 46.1547 27.6715C47.6528 27.8036 50.1506 29.0345 50.4292 30.9161C50.6676 32.5306 50.7869 34.1579 49.5473 35.4908C48.6137 36.4963 47.4905 37.1225 46.0068 36.9933C45.0035 36.8993 43.9937 36.8993 42.9905 36.9933C42.2508 37.0679 42.1129 36.8855 42.1287 36.3067C42.1631 34.9824 42.1402 33.6552 42.1402 32.3295L42.1832 32.3324Z" fill="#243171"/>
</svg>
