<?xml version="1.0" encoding="UTF-8"?>
<svg width="120px" height="120px" viewBox="0 0 120 120" version="1.1" xmlns="http://www.w3.org/2000/svg" xmlns:xlink="http://www.w3.org/1999/xlink">
    <!-- Generator: Sketch 52.4 (67378) - http://www.bohemiancoding.com/sketch -->
    <title>evoplay color</title>
    <desc>Created with Sketch.</desc>
    <g id="evoplay-color" stroke="none" stroke-width="1" fill="none" fill-rule="evenodd">
        <g id="evoplay" transform="translate(16.000000, 33.000000)" fill-rule="nonzero">
            <g id="Group" transform="translate(46.588235, 1.718750)" fill="#1C1C1C">
                <path d="M38.6509804,12.890625 C37.6156863,10.140625 36.2352941,7.90625 34.3372549,6.015625 C32.4392157,4.125 30.1960784,2.578125 27.4352941,1.546875 C24.6745098,0.515625 21.5686275,0 18.1176471,0 C16.7372549,0 15.1843137,0 13.6313725,0.171875 C12.0784314,0.34375 10.5254902,0.515625 8.97254902,0.6875 C7.41960784,0.859375 6.03921569,1.203125 4.65882353,1.375 C3.27843137,1.71875 2.07058824,1.890625 1.03529412,2.234375 L1.03529412,53.28125 L12.9411765,53.28125 L12.9411765,41.9375 C14.3215686,42.453125 15.7019608,42.96875 17.0823529,43.3125 C18.4627451,43.65625 20.0156863,43.828125 21.7411765,43.828125 C24.6745098,43.828125 27.4352941,43.3125 29.6784314,42.28125 C31.9215686,41.25 33.8196078,39.703125 35.372549,37.8125 C36.9254902,35.921875 38.1333333,33.6875 38.8235294,30.9375 C39.6862745,28.359375 40.0313725,25.265625 40.0313725,22 C40.2039216,18.734375 39.6862745,15.640625 38.6509804,12.890625 Z M19.4980392,33.6875 C18.2901961,33.6875 17.0823529,33.515625 15.8745098,33.171875 C14.6666667,32.828125 13.6313725,32.484375 12.9411765,31.96875 L12.9411765,10.65625 C13.4588235,10.484375 14.3215686,10.484375 15.1843137,10.3125 C16.0470588,10.3125 17.0823529,10.140625 18.1176471,10.140625 C21.3960784,10.140625 23.8117647,11.171875 25.5372549,13.40625 C27.2627451,15.640625 27.9529412,18.5625 27.9529412,22.171875 C27.9529412,29.90625 25.1921569,33.6875 19.4980392,33.6875 Z" id="Shape"></path>
            </g>
            <g id="Group" fill="#01A3FB">
                <path d="M0.862745098,24.0625 C0.862745098,20.28125 1.38039216,17.015625 2.58823529,14.265625 C3.79607843,11.515625 5.17647059,9.109375 7.0745098,7.21875 C8.97254902,5.328125 11.0431373,3.953125 13.4588235,2.921875 C15.8745098,1.890625 18.4627451,1.546875 20.8784314,1.546875 C26.9176471,1.546875 31.5764706,3.4375 35.027451,7.046875 C38.4784314,10.65625 40.2039216,15.984375 40.2039216,23.203125 C40.2039216,23.890625 40.2039216,24.578125 40.2039216,25.4375 C40.2039216,26.296875 40.0313725,26.984375 40.0313725,27.671875 L13.1137255,27.671875 C13.4588235,30.078125 14.4941176,32.140625 16.5647059,33.515625 C18.6352941,34.890625 21.3960784,35.75 24.6745098,35.75 C26.9176471,35.75 28.9882353,35.578125 31.0588235,35.234375 C33.1294118,34.890625 34.854902,34.375 36.2352941,33.6875 L37.7882353,43.3125 C37.0980392,43.65625 36.2352941,44 35.2,44.34375 C34.1647059,44.6875 32.9568627,44.859375 31.5764706,45.203125 C30.1960784,45.375 28.8156863,45.71875 27.4352941,45.71875 C25.8823529,45.890625 24.5019608,45.890625 22.9490196,45.890625 C19.1529412,45.890625 15.8745098,45.375 13.1137255,44.171875 C10.3529412,42.96875 7.9372549,41.59375 6.21176471,39.53125 C4.31372549,37.640625 2.93333333,35.234375 2.07058824,32.65625 C1.20784314,30.078125 0.862745098,27.15625 0.862745098,24.0625 Z M28.8156863,19.421875 C28.8156863,18.390625 28.6431373,17.359375 28.2980392,16.5 C27.9529412,15.46875 27.6078431,14.609375 26.9176471,13.921875 C26.227451,13.234375 25.5372549,12.546875 24.6745098,12.03125 C23.8117647,11.515625 22.6039216,11.34375 21.2235294,11.34375 C19.8431373,11.34375 18.8078431,11.515625 17.772549,12.03125 C16.7372549,12.546875 16.0470588,13.0625 15.3568627,13.75 C14.6666667,14.4375 14.1490196,15.296875 13.8039216,16.328125 C13.4588235,17.359375 13.2862745,18.390625 13.1137255,19.25 L28.8156863,19.25 L28.8156863,19.421875 Z" id="Shape"></path>
            </g>
        </g>
    </g>
</svg>