<svg width="18" height="18" viewBox="0 0 18 18" fill="none" xmlns="http://www.w3.org/2000/svg">
<path fill-rule="evenodd" clip-rule="evenodd" d="M2.40001 3.19995C2.40001 3.87531 2.62318 4.49855 2.99979 4.99995H1.60001C0.826814 4.99995 0.200012 5.62675 0.200012 6.39995V8.39995C0.200012 8.95843 0.527023 9.44053 1.00001 9.66522V16.4C1.00001 17.1731 1.62681 17.8 2.40001 17.8H15.6C16.3732 17.8 17 17.1731 17 16.4V9.66522C17.473 9.44053 17.8 8.95843 17.8 8.39995V6.39995C17.8 5.62675 17.1732 4.99995 16.4 4.99995H15.0002C15.3768 4.49855 15.6 3.87531 15.6 3.19995C15.6 1.5431 14.2569 0.199951 12.6 0.199951C11.4356 0.199951 9.85134 0.920823 9.00001 2.68803C8.14869 0.920823 6.56439 0.199951 5.40001 0.199951C3.74316 0.199951 2.40001 1.5431 2.40001 3.19995ZM8.37609 4.99995C8.14649 2.20563 6.31951 1.39995 5.40001 1.39995C4.4059 1.39995 3.60001 2.20584 3.60001 3.19995C3.60001 4.19406 4.4059 4.99995 5.40001 4.99995H8.37609ZM15.8 9.79995V16.4C15.8 16.5104 15.7105 16.6 15.6 16.6H9.60001V9.79995H15.8ZM8.40001 16.6V9.79995H2.20001V16.4C2.20001 16.5104 2.28956 16.6 2.40001 16.6H8.40001ZM16.4 8.59995C16.5105 8.59995 16.6 8.51041 16.6 8.39995V6.39995C16.6 6.28949 16.5105 6.19995 16.4 6.19995H9.60001V8.59995H16.4ZM1.60001 8.59995H8.40001V6.19995H1.60001C1.48956 6.19995 1.40001 6.28949 1.40001 6.39995V8.39995C1.40001 8.51041 1.48956 8.59995 1.60001 8.59995ZM14.4 3.19995C14.4 4.19406 13.5941 4.99995 12.6 4.99995H9.62393C9.85353 2.20563 11.6805 1.39995 12.6 1.39995C13.5941 1.39995 14.4 2.20584 14.4 3.19995Z" fill="#FACD0D"/>
</svg>
