<svg width="80" height="80" fill="none" xmlns="http://www.w3.org/2000/svg"><path d="M0 15.086.226 15c6.581.002 13.166-.001 19.748.001v9.203c-3.845.003-7.689 0-11.534.001-.006 2.383.013 4.764-.01 7.146.448-.428.988-.542 1.565-.666.68-.14 1.326-.108 2.017-.098 2.024.108 4.062.727 5.628 2.1 1.046.988 1.984 2.03 2.687 3.313a9.635 9.635 0 0 1 1.21 4.5c0 4.646-.002 9.29 0 13.934a11.568 11.568 0 0 1-.673 4.075c-.654 1.815-1.884 3.413-3.3 4.66-1.798 1.499-3.96 1.96-6.218 2.087H9.672c-1.254-.082-2.472-.26-3.633-.775-1.665-.718-2.995-2.035-4.046-3.524a10.633 10.633 0 0 1-1.785-4.345c-.128-.719-.13-1.435-.208-2.16V47.9c.443-.096.874-.053 1.322-.058H8.77c0 2.405.002 4.81 0 7.214.01.44.007.843.27 1.21.319.449.898.604 1.41.621.518.003 1.127-.126 1.497-.533.292-.337.328-.739.338-1.172l.001-12.441c.001-.827-.047-1.729-.636-2.358-.576-.659-1.71-.696-2.267.005-.459.586-.524 1.444-.53 2.167-2.92-.006-5.846.016-8.764-.01L0 41.716v-26.63Z" fill="#E70000"/><path fill-rule="evenodd" clip-rule="evenodd" d="M54.815 21.299c-1.256.204-2.489-.184-3.504-.92-.418-.308-.942-.341-1.298.076-1.282 1.53-1.832 3.662-2 5.613-1.2-.282-2.365-.678-3.44-1.293-.054-.026-.111-.058-.17-.09-.255-.141-.547-.303-.813-.2-.5.167-.71.691-.784 1.174-.12.976.067 2 .446 2.903.6 1.41 1.748 2.49 3.074 3.217 1.962 1.08 4.36 1.488 6.575 1.594 2.603.095 5.234-.053 7.704-.956 1.573-.588 3.036-1.507 3.976-2.929a5.762 5.762 0 0 0 .899-4.075c-.088-.393-.33-.83-.738-.951-.277-.073-.525.061-.765.191a4.116 4.116 0 0 1-.19.1 13.426 13.426 0 0 1-3.442 1.308c-.277-1.984-.727-3.966-1.997-5.57-.317-.404-.798-.479-1.223-.183-.702.486-1.456.862-2.31.99Zm.241 5.712c-2.358.125-4.765-.287-7.025-.942l-.01.275c-.014.338-.027.685.03 1.015.072.37.386.544.688.712l.047.025c1.182.623 2.61.88 3.934.978a17.3 17.3 0 0 0 3.692-.096c1.136-.159 2.316-.456 3.33-1.004l.023-.013c.238-.136.462-.265.518-.561a5.44 5.44 0 0 0 .035-.869 9.598 9.598 0 0 1 .002-.477c-1.71.526-3.477.847-5.264.958Z" fill="#000"/><path d="M25.641 26.282h8.318c.614 8.164 1.246 16.325 1.865 24.49.017.273.024.548.038.823.043-.36.089-.715.113-1.074.626-8.08 1.27-16.159 1.889-24.239 1.163 0 2.327 0 3.49.002a9.69 9.69 0 0 0 .536 2.433c.554 1.15 1.227 2.243 2.175 3.09.661.512 1.327 1.08 2.086 1.398.007 8.972 0 17.949.002 26.921-1.867.002-3.736 0-5.602 0-.01-6.338.017-12.684-.014-19.023-.715 6.34-1.457 12.678-2.184 19.018-1.625.014-3.25 0-4.874.007-.682-5.822-1.338-11.651-2.014-17.475a26.452 26.452 0 0 1-.138-1.593 19.57 19.57 0 0 0-.054 1.716c.002 5.784.002 11.568 0 17.351h-5.631c-.002-11.282 0-22.563 0-33.845h-.001Zm41.55 0h2.812c1.33 6.268 2.648 12.54 3.98 18.806-.004-6.267 0-12.537 0-18.806H80c0 11.282 0 22.563-.002 33.845-2.066 0-4.13-.003-6.198.001-1.394-6.055-2.774-12.118-4.185-18.169-.003 6.056 0 12.113-.002 18.168h-6.017v-26.74c.008-.348-.035-.72.032-1.062.4-.376.882-.658 1.258-1.067 1.379-1.287 2.116-3.144 2.305-4.976Zm-17.96 8.205c1.137.283 2.278.487 3.448.523 1.011-.011 2.023-.03 3.034-.025a3037.72 3037.72 0 0 0 0 6.186h4.309v4.88c-1.436.002-2.872 0-4.311.001 0 2.74 0 5.48.002 8.219 1.941.002 3.883 0 5.825 0 .002 1.952.002 3.905 0 5.857H49.231c-.002-8.547 0-17.093 0-25.64Z" fill="#000"/></svg>