<svg width="130" height="32" viewBox="0 0 130 32" fill="none" xmlns="http://www.w3.org/2000/svg">
<g clip-path="url(#clip0_1172_10856)">
<path d="M46.8401 17.615C46.5479 17.615 46.2822 17.7213 46.0696 17.9072C45.8305 18.1464 45.6446 18.4652 45.5383 18.7574L45.5117 18.8106H45.2726L45.1397 17.7478H43.8379V24.1509H45.3789V21.0689C45.3789 20.4313 45.5117 19.953 45.7774 19.6342C46.0431 19.3154 46.4947 19.156 47.0527 19.156H47.4246V17.7213C47.2387 17.6681 47.0527 17.6416 46.8667 17.6416C46.8667 17.615 46.8667 17.615 46.8401 17.615Z" fill="white"/>
<path d="M47.8758 7.89081C47.6898 7.6517 47.4507 7.46572 47.1053 7.35944C46.7599 7.25317 46.4145 7.17346 45.9628 7.17346H44.5547V11.8761H45.6971V10.5211H45.9894C46.4145 10.5211 46.7864 10.468 47.1053 10.3351C47.4241 10.2023 47.6898 10.0429 47.8758 9.77718C48.0617 9.53806 48.1414 9.21924 48.1414 8.82071C48.168 8.44875 48.0617 8.12993 47.8758 7.89081ZM46.7333 9.43179C46.5739 9.53806 46.3348 9.5912 46.0425 9.5912H45.6971V8.28934H46.0691C46.3613 8.28934 46.5739 8.34248 46.7333 8.44875C46.8927 8.55503 46.9724 8.71444 46.9724 8.92699C46.999 9.1661 46.9193 9.32552 46.7333 9.43179Z" fill="white"/>
<path d="M40.3052 22.4504C39.9332 22.7693 39.4284 22.9552 38.7908 22.9552C37.1967 22.9552 36.373 22.0253 36.373 20.1655V19.7936C36.373 18.8902 36.559 18.1995 36.9575 17.7212C37.3561 17.243 37.9672 16.9773 38.7908 16.9773C39.3753 16.9773 39.8801 17.1367 40.252 17.4821C40.5974 17.8009 40.7834 18.226 40.81 18.784H42.5104C42.5104 18.1729 42.351 17.5884 42.0056 17.0836C41.6868 16.6054 41.2351 16.2334 40.6771 15.9943C40.0926 15.7552 39.4816 15.6223 38.8439 15.6223C38.8173 15.6223 38.7908 15.6223 38.7642 15.6223C37.4889 15.6223 36.4793 15.9943 35.762 16.7116C35.0446 17.429 34.6992 18.5183 34.6992 19.9796C34.6992 22.9021 36.0542 24.3368 38.7908 24.3368H38.8705C39.5081 24.3368 40.1192 24.204 40.7303 23.9648C41.2882 23.7523 41.7399 23.3538 42.0587 22.8755C42.3775 22.3973 42.5369 21.8394 42.5369 21.1751H40.9163C40.8631 21.7065 40.6771 22.1316 40.3052 22.4504Z" fill="white"/>
<path d="M90.7843 10.8931H88.6854V10.0429H90.6249V9.05983H88.6854V8.28934H90.7843V7.17346H87.543V11.8761H90.7843V10.8931Z" fill="white"/>
<path d="M112.492 11.7698C112.731 11.6901 112.944 11.6104 113.077 11.4776C113.236 11.3447 113.342 11.2119 113.395 11.0259C113.448 10.8399 113.502 10.6805 113.502 10.4945C113.502 10.2023 113.422 9.96316 113.289 9.75061C113.156 9.56463 112.917 9.40522 112.625 9.32552C112.837 9.24581 112.997 9.11297 113.103 8.95356C113.209 8.79414 113.262 8.5816 113.262 8.36905C113.262 7.99709 113.13 7.70483 112.837 7.49228C112.545 7.27974 112.093 7.17346 111.482 7.17346H109.941V11.8761H111.589C111.961 11.8761 112.253 11.8495 112.492 11.7698ZM111.084 8.28934H111.482C111.642 8.28934 111.748 8.31591 111.854 8.34248C111.934 8.36905 112.014 8.42218 112.067 8.47532C112.12 8.52846 112.12 8.63473 112.12 8.71444C112.12 8.82071 112.093 8.90042 112.067 8.98012C112.04 9.05983 111.961 9.11297 111.854 9.13954C111.748 9.16611 111.642 9.19267 111.456 9.19267H111.057V8.28934H111.084ZM111.084 9.98973H111.615C111.854 9.98973 112.04 10.0429 112.173 10.1226C112.306 10.2023 112.359 10.3351 112.359 10.4945C112.359 10.6008 112.333 10.6805 112.279 10.7602C112.226 10.8399 112.147 10.8931 112.04 10.9462C111.934 10.9993 111.801 10.9993 111.615 10.9993H111.057V9.98973H111.084Z" fill="white"/>
<path d="M119.294 11.8761H120.436V10.3086L122.216 7.17346H120.968L119.905 9.29895L118.816 7.17346H117.514L119.294 10.3351V11.8761Z" fill="white"/>
<path d="M81.3 11.8761L83.0801 7.17346H81.8313L80.6623 10.8931L79.4136 7.17346H78.0586L79.9184 11.8761H81.3Z" fill="white"/>
<path d="M24.6829 8.50194L14.8259 2.81627C14.268 2.49744 13.5506 2.49744 12.9927 2.81627L3.13575 8.50194C2.57781 8.82076 2.23242 9.43184 2.23242 10.0961V21.4674C2.23242 22.1316 2.57781 22.7161 3.13575 23.0615L12.9927 28.7472C13.5506 29.066 14.268 29.066 14.8259 28.7472L24.6829 23.0615C25.2408 22.7427 25.5862 22.1316 25.5862 21.4674V10.0961C25.5862 9.43184 25.2408 8.82076 24.6829 8.50194ZM19.6083 19.0497V19.0762C19.4223 19.767 19.0503 20.4047 18.519 20.8829C18.4392 20.9626 18.3595 21.0423 18.2798 21.0954C17.9876 21.3611 17.6156 21.5737 17.1108 21.7862C17.0311 21.8128 17.0045 21.8925 17.0045 21.9722V24.204C17.0045 24.2305 16.978 24.2571 16.9514 24.2571H14.9322C14.9056 24.2571 14.8791 24.2305 14.8791 24.204V22.5301C14.8791 22.477 14.8525 22.4239 14.8259 22.3707C14.7994 22.3442 14.7462 22.3176 14.6931 22.3176C14.6931 22.3176 14.6931 22.3176 14.6665 22.3176C14.5337 22.3442 14.3743 22.3442 14.2148 22.3442H14.1883C13.8695 22.3442 13.5506 22.3176 13.2318 22.291H13.2052C13.1521 22.291 13.1255 22.3176 13.0724 22.3442C13.0193 22.3707 13.0193 22.4239 13.0193 22.477V24.204C13.0193 24.2305 12.9927 24.2571 12.9661 24.2571H10.9469C10.9203 24.2571 10.8938 24.2305 10.8938 24.204V21.7862C10.8938 21.7065 10.8406 21.6268 10.7875 21.6002C10.3358 21.3611 9.93731 21.0689 9.61848 20.7235C9.4325 20.5375 9.27309 20.325 9.11368 20.0858L8.98084 19.8467L8.848 19.581C8.848 19.581 8.74172 19.3685 8.71515 19.2888C8.29006 18.3323 8.10408 17.1367 8.10408 15.7286C8.10408 14.533 8.26349 13.4968 8.55574 12.6466V12.6201C8.79486 11.9293 9.19339 11.2916 9.67162 10.7603C9.99044 10.4414 10.3624 10.1492 10.8141 9.88351C10.8672 9.85694 10.9203 9.77723 10.9203 9.72409V7.22665C10.9203 7.20008 10.9469 7.17351 10.9735 7.17351H12.9927C13.0193 7.17351 13.0458 7.20008 13.0458 7.22665V9.00674C13.0458 9.05988 13.0724 9.11302 13.099 9.13959C13.1255 9.16615 13.1787 9.19272 13.2318 9.19272H13.2584C13.5772 9.16615 13.896 9.13959 14.2148 9.13959C14.2148 9.13959 14.2148 9.13959 14.2414 9.13959C14.4008 9.13959 14.5337 9.13959 14.6931 9.16615H14.7196C14.7728 9.16615 14.7994 9.13959 14.8525 9.11302C14.9056 9.08645 14.9056 9.03331 14.9056 8.98017V7.25322C14.9056 7.22665 14.9322 7.20008 14.9588 7.20008H16.9514C16.978 7.20008 17.0045 7.22665 17.0045 7.25322V9.53811C17.0045 9.61782 17.0577 9.69753 17.1374 9.75066C17.4828 9.91007 17.8016 10.0961 18.0939 10.3352C18.2267 10.4414 18.2533 10.654 18.1204 10.7868L17.2437 11.637L17.2171 11.6636C17.1374 11.7433 16.9514 11.823 16.6592 11.6105C16.6326 11.5839 16.6326 11.5839 16.606 11.5839C15.9949 11.1057 15.1979 10.84 14.2414 10.84C12.8598 10.84 11.8237 11.2385 11.1595 12.0356C10.9735 12.2481 10.8141 12.5138 10.6812 12.7795C10.5218 13.0983 10.389 13.4703 10.3358 13.8157V13.8422C10.2296 14.347 10.1764 14.9315 10.1764 15.5426V15.9411C10.1764 16.5788 10.2296 17.1633 10.3624 17.6947C10.3624 17.7212 10.3624 17.7478 10.3624 17.7478C10.4952 18.3589 10.7609 18.97 11.1595 19.4748C11.8237 20.2718 12.8598 20.6703 14.2414 20.6703C14.3477 20.6703 14.454 20.6703 14.5337 20.6703H14.6134L14.9853 20.6438C15.7293 20.5375 16.3138 20.2718 16.792 19.8999C17.0311 19.6873 17.2171 19.4482 17.3499 19.1825L17.4031 19.1028C17.4296 19.0231 17.4562 18.97 17.4828 18.9168C17.5093 18.8902 17.5093 18.8371 17.5359 18.784C17.5625 18.7308 17.5891 18.6777 17.5891 18.598V18.5714C17.6156 18.4917 17.6422 18.3589 17.6688 18.2792L17.6953 18.1995L17.7219 18.0666C17.7219 17.9869 17.7485 17.9072 17.7485 17.8275V17.7478L19.8474 17.7212C19.7677 18.1729 19.7145 18.6246 19.6083 19.0497ZM20.8836 12.4872L16.6857 16.5788C16.6592 16.6319 16.6326 16.6319 16.6326 16.6585L15.6761 17.615C15.623 17.6681 15.5433 17.6947 15.4636 17.6947C15.3839 17.6947 15.3042 17.6681 15.251 17.615L15.2245 17.5884C15.1979 17.5618 15.1713 17.5618 15.1447 17.5353L14.3743 16.7382C14.3477 16.7116 14.3477 16.6851 14.3211 16.6585L12.6473 14.9581C12.541 14.8518 12.541 14.6658 12.6473 14.5596L13.6038 13.6031C13.6569 13.55 13.7366 13.5234 13.7897 13.5234C13.8695 13.5234 13.9492 13.55 14.0023 13.6031L15.4104 15.0378C15.437 15.0644 15.437 15.0644 15.4636 15.0644C15.4901 15.0644 15.5167 15.0644 15.5167 15.0378L19.502 11.1322C19.5817 11.0525 19.688 11.026 19.7942 11.026C19.9005 11.026 20.0068 11.0791 20.0865 11.1588L20.857 11.9559C20.9367 12.0356 20.9633 12.1418 20.9633 12.2481C20.9898 12.3012 20.9367 12.4075 20.8836 12.4872Z" fill="white"/>
<path d="M26.6483 7.09379L15.0644 0.398506C14.347 -2.27652e-05 13.4703 -2.27652e-05 12.7529 0.398506L1.16902 7.09379C0.451666 7.51888 0 8.2628 0 9.113V22.477C0 23.3006 0.451666 24.0711 1.16902 24.4962L12.7529 31.1383C13.0983 31.3509 13.5234 31.4572 13.9219 31.4572C14.3205 31.4572 14.719 31.3509 15.0909 31.1383L26.6748 24.4431C27.3922 24.018 27.8439 23.274 27.8439 22.4239V9.08643C27.7907 8.2628 27.3656 7.49231 26.6483 7.09379ZM27.4719 22.4504C27.4719 23.1412 27.0999 23.8054 26.4889 24.1508L14.905 30.8461C14.2939 31.1915 13.55 31.1915 12.9389 30.8461L1.355 24.1774C0.74392 23.832 0.37196 23.1678 0.37196 22.477V9.08643C0.37196 8.39565 0.74392 7.73143 1.355 7.38604L12.9123 0.69076C13.2046 0.50478 13.55 0.425074 13.8954 0.425074C14.2408 0.425074 14.5861 0.50478 14.8784 0.69076L26.4623 7.38604C27.0734 7.73143 27.4453 8.39565 27.4453 9.08643V22.4504H27.4719Z" fill="white"/>
<path d="M36.5847 10.9993H38.4977L38.843 11.8761H40.0918L38.2585 7.17346H36.9035L35.0703 11.8761H36.2393L36.5847 10.9993ZM37.5412 8.42218L38.1788 10.0694H36.9301L37.5412 8.42218Z" fill="white"/>
<path d="M52.0751 20.8031C51.9423 21.2016 51.8094 21.7596 51.6235 22.5035L51.5969 22.5832H51.3843L51.3578 22.5035C51.2515 21.919 51.0921 21.361 50.9061 20.8031L49.684 17.7743H48.0898L50.6404 24.257V24.2836C50.5607 24.5493 50.4013 24.815 50.1622 25.0275C49.9496 25.1869 49.7105 25.2666 49.4448 25.2666C49.4183 25.2666 49.4183 25.2666 49.3917 25.2666H48.6744V26.3028C48.9932 26.4091 49.312 26.4356 49.6574 26.4356C49.684 26.4356 49.7371 26.4356 49.7637 26.4356C49.7902 26.4356 49.8168 26.4356 49.8168 26.4356C50.2153 26.4356 50.6139 26.3294 50.9593 26.1168C51.3046 25.9043 51.5703 25.5855 51.7829 25.2666C52.022 24.8415 52.2345 24.3899 52.394 23.8851L54.5726 17.7743H53.0316L52.0751 20.8031Z" fill="white"/>
<path d="M90.3341 22.9818C90.2278 22.8755 90.1747 22.7161 90.1747 22.5833V19.6607C90.1747 18.9965 89.9621 18.4917 89.5371 18.1198C89.112 17.7744 88.4477 17.5884 87.571 17.5884C86.7739 17.5884 86.1363 17.7478 85.658 18.0932C85.1798 18.412 84.9673 18.8105 84.9673 19.3419C84.9673 19.395 84.9673 19.4747 84.9673 19.5279H86.4551V19.4216C86.4817 19.2091 86.5879 19.0231 86.7474 18.9434C86.9333 18.8105 87.2256 18.7574 87.6241 18.7574C88.0226 18.7574 88.2883 18.8637 88.4212 19.0497C88.5806 19.2888 88.6603 19.5279 88.6337 19.7936V20.3515H88.554C87.2787 20.3515 86.3223 20.5109 85.6315 20.8829C84.9673 21.2283 84.6484 21.7862 84.6484 22.6098C84.6484 23.3006 84.8344 23.7523 85.2595 23.9914C85.6846 24.2305 86.1628 24.3634 86.6411 24.3634C86.6676 24.3634 86.6942 24.3634 86.7208 24.3634C87.0927 24.3634 87.4647 24.2837 87.8367 24.1508C88.1555 23.9914 88.4477 23.7789 88.6337 23.5397L88.6603 23.5132H88.8463L88.8728 23.5663C88.9525 23.8054 89.0854 24.018 89.2979 24.1508C89.5371 24.2837 89.8027 24.3634 90.0684 24.3634C90.095 24.3634 90.095 24.3634 90.1216 24.3634C90.1481 24.3634 90.1747 24.3634 90.2013 24.3634C90.467 24.3634 90.7592 24.3102 91.0249 24.1774V23.1146H90.7592C90.5732 23.0881 90.4404 23.0615 90.3341 22.9818ZM88.6337 21.5471C88.6603 21.9456 88.5275 22.3442 88.2618 22.7161C87.9961 23.0084 87.6241 23.1412 87.1193 23.1412C87.0927 23.1412 87.0662 23.1412 87.0662 23.1412C86.8271 23.1412 86.6145 23.0615 86.4285 22.9287C86.2691 22.7958 86.1894 22.5567 86.1894 22.3442C86.1894 21.6002 86.9599 21.2548 88.5275 21.2548H88.6072L88.6337 21.5471Z" fill="white"/>
<path d="M100.35 17.7212H98.8086V24.1508H100.35V17.7212Z" fill="white"/>
<path d="M99.6318 10.468C99.7646 10.1757 99.8178 9.88346 99.8178 9.53807C99.8178 9.21924 99.7646 8.90042 99.6584 8.60817C99.5521 8.31591 99.3927 8.07679 99.1536 7.86424C98.941 7.6517 98.6488 7.49228 98.3034 7.35944C97.958 7.2266 97.5329 7.17346 97.0546 7.17346H95.5137V11.8761H97.0015C97.4532 11.8761 97.8517 11.823 98.1971 11.6901C98.5425 11.5838 98.8347 11.3979 99.0739 11.1853C99.3395 10.9993 99.5255 10.7602 99.6318 10.468ZM98.4894 10.2554C98.3565 10.4414 98.1971 10.6008 97.958 10.7071C97.7189 10.8134 97.4266 10.8665 97.0546 10.8665H96.6827V8.26277H97.0812C97.4266 8.26277 97.7189 8.31591 97.9314 8.42218C98.1705 8.52846 98.3565 8.68787 98.4628 8.87385C98.5956 9.05983 98.6488 9.29895 98.6488 9.56463C98.6488 9.83032 98.5956 10.0694 98.4894 10.2554Z" fill="white"/>
<path d="M56.0855 9.80375C56.2715 9.56463 56.3512 9.24581 56.3512 8.84728C56.3512 8.47532 56.2715 8.1565 56.0855 7.91738C55.8995 7.67826 55.6604 7.49228 55.315 7.38601C54.9696 7.27974 54.6242 7.17346 54.1992 7.17346H52.791V11.8761H53.9335V10.5211H54.2257C54.6508 10.5211 55.0228 10.468 55.3416 10.3351C55.6604 10.2023 55.8995 10.0429 56.0855 9.80375ZM54.9431 9.43179C54.7837 9.53806 54.5445 9.5912 54.2523 9.5912H53.9069V8.28934H54.2789C54.5711 8.28934 54.7837 8.34248 54.9431 8.44875C55.1025 8.55503 55.1822 8.71444 55.1822 8.92699C55.1822 9.1661 55.1025 9.32552 54.9431 9.43179Z" fill="white"/>
<path d="M100.35 15.2504H98.8086V16.7116H100.35V15.2504Z" fill="white"/>
<path d="M121.843 21.1751C121.604 20.9094 121.285 20.6969 120.966 20.5641C120.541 20.4312 120.09 20.2984 119.611 20.1921C119.239 20.139 118.867 20.0327 118.469 19.8733C118.203 19.767 118.07 19.581 118.07 19.3153C118.07 19.1028 118.177 18.9699 118.442 18.8371C118.708 18.7308 118.947 18.6777 119.213 18.6777C119.239 18.6777 119.266 18.6777 119.292 18.6777C119.319 18.6777 119.346 18.6777 119.372 18.6777C119.638 18.6777 119.93 18.7308 120.169 18.8637C120.382 18.9699 120.541 19.2091 120.515 19.4482H122.029V19.2356C122.029 18.7043 121.79 18.3057 121.285 17.9869C120.78 17.6681 120.143 17.5087 119.346 17.5087C118.522 17.5087 117.831 17.6681 117.3 18.0135C116.795 18.3057 116.503 18.8637 116.529 19.4216C116.503 19.7936 116.636 20.1655 116.875 20.4578C117.114 20.7235 117.406 20.936 117.751 21.0423C118.15 21.1751 118.602 21.308 119.08 21.4142C119.505 21.494 119.904 21.6268 120.249 21.7862C120.515 21.8659 120.674 22.105 120.674 22.3973C120.674 22.6364 120.541 22.8224 120.249 22.9287C119.983 23.0349 119.691 23.0615 119.346 23.0615C119.319 23.0615 119.292 23.0615 119.266 23.0615C118.947 23.0615 118.655 22.9818 118.363 22.8489C118.07 22.7161 117.911 22.4239 117.911 22.1316H116.396V22.1847C116.396 22.7692 116.662 23.3006 117.14 23.646C117.645 24.018 118.363 24.2039 119.266 24.2039C121.259 24.2039 122.215 23.5397 122.215 22.1582C122.215 21.8128 122.082 21.4408 121.843 21.1751Z" fill="white"/>
<path d="M105.584 17.5353H105.558C104.787 17.5353 104.043 17.9072 103.592 18.5183L103.565 18.5449H103.353L103.22 17.6681H101.918V24.1243H103.459V20.4313C103.459 20.0327 103.592 19.6608 103.857 19.3419C104.097 19.0763 104.469 18.9168 104.841 18.9168C104.867 18.9168 104.867 18.9168 104.894 18.9168C105.292 18.9168 105.611 19.0231 105.797 19.2091C106.01 19.3951 106.116 19.7405 106.116 20.1656V24.1509H107.657V19.7936C107.657 18.9965 107.471 18.412 107.099 18.0666C106.753 17.7213 106.222 17.5353 105.584 17.5353Z" fill="white"/>
<path d="M112.173 17.5884C111.058 17.5884 110.234 17.8541 109.703 18.412C109.171 18.9434 108.879 19.8201 108.879 20.9626C108.879 22.105 109.145 22.9818 109.703 23.5132C110.26 24.0445 111.084 24.3368 112.173 24.3368C113.289 24.3368 114.113 24.0711 114.644 23.5132C115.176 22.9818 115.468 22.105 115.468 20.9626C115.468 19.7936 115.202 18.9434 114.644 18.412C114.113 17.8541 113.289 17.5884 112.173 17.5884ZM113.874 21.0423C113.874 21.7331 113.741 22.2113 113.475 22.5567C113.21 22.9021 112.784 23.0615 112.173 23.0615C111.589 23.0615 111.164 22.8755 110.872 22.5567C110.606 22.2379 110.473 21.7331 110.473 21.0423V20.8297C110.473 20.1655 110.606 19.6607 110.872 19.3153C111.137 18.9699 111.562 18.8105 112.173 18.8105C112.758 18.8105 113.183 18.9965 113.475 19.3153C113.741 19.6607 113.874 20.1655 113.874 20.8297V21.0423Z" fill="white"/>
<path d="M96.3386 20.5641C95.9135 20.4312 95.4618 20.2984 94.9836 20.1921C94.6116 20.139 94.2396 20.0327 93.8411 19.8733C93.5754 19.767 93.4426 19.581 93.4426 19.3153C93.4426 19.1028 93.5489 18.9699 93.8145 18.8371C94.0802 18.7308 94.3193 18.6777 94.585 18.6777C94.6116 18.6777 94.6382 18.6777 94.6647 18.6777C94.6913 18.6777 94.7179 18.6777 94.7444 18.6777C95.0101 18.6777 95.3024 18.7308 95.5415 18.8637C95.754 18.9699 95.9135 19.2091 95.8869 19.4482H97.4013V19.2356C97.4013 18.7043 97.1622 18.3057 96.6574 17.9869C96.1526 17.6681 95.4884 17.5087 94.7179 17.5087C93.8942 17.5087 93.2035 17.6681 92.6721 18.0135C92.1673 18.3057 91.875 18.8637 91.9016 19.4216C91.875 19.7936 92.0079 20.1655 92.247 20.4578C92.4861 20.7235 92.7784 20.936 93.0972 21.0423C93.4957 21.1751 93.9474 21.308 94.4256 21.4142C94.8507 21.494 95.2492 21.6268 95.5946 21.7862C95.8603 21.8659 96.0197 22.105 96.0197 22.3973C96.0197 22.6364 95.8869 22.8224 95.5946 22.9287C95.3289 23.0349 95.0367 23.0615 94.6913 23.0615C94.6647 23.0615 94.6382 23.0615 94.6116 23.0615C94.2928 23.0615 94.0005 22.9818 93.7083 22.8489C93.416 22.7161 93.2566 22.4239 93.2566 22.1316H91.7422V22.1847C91.7422 22.7692 92.0079 23.3006 92.4861 23.646C92.9909 24.018 93.7083 24.2039 94.6116 24.2039C96.5777 24.2039 97.5607 23.5132 97.5607 22.1582C97.5607 21.6799 97.4279 21.308 97.1887 21.0689C96.9762 20.9094 96.6574 20.6969 96.3386 20.5641Z" fill="white"/>
<path d="M64.8802 11.8762L63.2861 10.1758C63.4986 10.1227 63.658 10.0429 63.8174 9.96324C63.9769 9.88354 64.0831 9.77726 64.216 9.64442C64.3222 9.51158 64.402 9.35216 64.4551 9.16618C64.5082 9.00677 64.5348 8.82079 64.5348 8.66138C64.5348 8.31599 64.4551 8.0503 64.2691 7.81119C64.0831 7.59864 63.844 7.41266 63.5252 7.30638C63.2064 7.20011 62.861 7.14697 62.4359 7.14697H60.9746V11.8496H62.1171V10.2821L63.5252 11.8496H64.8802V11.8762ZM63.1267 9.29903C62.9938 9.4053 62.7813 9.45844 62.5156 9.45844H62.1171V8.26285H62.489C62.7547 8.26285 62.9407 8.31599 63.1001 8.3957C63.2595 8.50197 63.3392 8.63481 63.3392 8.79422C63.3392 9.03334 63.2595 9.19275 63.1267 9.29903Z" fill="white"/>
<path d="M59.1414 17.615C58.7163 17.615 58.3444 17.6947 57.999 17.8541C57.6802 18.0135 57.3879 18.2526 57.2019 18.5715L57.1754 18.6246H56.9628L56.8565 17.7478H55.5547V26.3029H57.0957V23.3804H57.3082L57.3348 23.4335C57.5208 23.7258 57.7864 23.9383 58.1053 24.0712C58.4507 24.2306 58.8226 24.3103 59.2477 24.3103C59.2743 24.3103 59.3009 24.3103 59.3274 24.3103C59.9916 24.3103 60.6027 24.018 61.0278 23.4866C61.4795 22.9287 61.7186 22.0785 61.7186 20.9626C61.7186 19.8202 61.506 18.97 61.0544 18.4386C60.5761 17.8807 59.9651 17.615 59.1414 17.615ZM60.0979 21.0955C60.0979 21.7331 59.9916 22.2114 59.7525 22.5302C59.5134 22.849 59.1414 23.0084 58.5835 23.0084C57.6005 23.0084 57.0957 22.3442 57.0957 21.0689V20.8564C57.0957 19.5811 57.6005 18.9434 58.5835 18.9434C59.1149 18.9434 59.5134 19.1028 59.7525 19.4482C59.9916 19.767 60.0979 20.2453 60.0979 20.8829V21.0955Z" fill="white"/>
<path d="M64.6408 15.9146H63.4186L63.1264 17.7744H62.3027V18.9965H63.0998V22.6364C63.0998 23.0881 63.2326 23.5132 63.4983 23.832C63.7374 24.1508 64.1625 24.2836 64.747 24.2836C64.933 24.2836 65.0924 24.2571 65.3315 24.2305C65.491 24.2039 65.6504 24.1774 65.7832 24.1242V23.0881H65.2784C64.8799 23.0881 64.6673 22.8755 64.6673 22.477V18.9965H65.8098V17.7744H64.6673V15.9146H64.6408Z" fill="white"/>
<path d="M69.7687 17.615C68.6794 17.615 67.8558 17.8807 67.3244 18.4386C66.793 18.97 66.5273 19.8467 66.5273 20.9626C66.5273 22.1051 66.793 22.9553 67.3244 23.4866C67.8558 24.0446 68.6528 24.3103 69.7687 24.3103C70.858 24.3103 71.6816 24.0446 72.213 23.4866C72.7444 22.9553 73.0101 22.1051 73.0366 20.9626C73.0366 19.8202 72.771 18.97 72.213 18.4386C71.6816 17.9072 70.858 17.615 69.7687 17.615ZM71.4691 21.0689C71.4691 21.7331 71.3363 22.2379 71.0706 22.5833C70.7783 22.9287 70.3532 23.0881 69.7953 23.0881C69.2108 23.0881 68.7857 22.9021 68.52 22.5833C68.2543 22.2379 68.1215 21.7331 68.1215 21.0689V20.8564C68.1215 20.1921 68.2543 19.6873 68.52 19.3419C68.7857 18.9966 69.2108 18.8371 69.7953 18.8371C70.3798 18.8371 70.8049 19.0231 71.0971 19.3419C71.3628 19.6873 71.4957 20.1921 71.4957 20.8564V21.0689H71.4691Z" fill="white"/>
<path d="M72.8235 7.41262C72.4516 7.20007 72.0265 7.12036 71.5217 7.12036C71.0434 7.12036 70.6183 7.22664 70.2464 7.41262C69.8744 7.5986 69.5822 7.89085 69.3696 8.26281C69.1571 8.63477 69.0508 9.05987 69.0508 9.5381C69.0508 10.0163 69.1571 10.4414 69.3696 10.8134C69.5822 11.1854 69.8744 11.4776 70.2464 11.6636C70.6183 11.8761 71.07 11.9824 71.5482 11.9824C72.053 11.9824 72.4781 11.8761 72.8501 11.6636C73.2221 11.451 73.5143 11.1854 73.7269 10.8134C73.9394 10.4414 74.0457 10.0163 74.0457 9.5381C74.0457 9.05987 73.9394 8.63477 73.7269 8.26281C73.5143 7.89085 73.1955 7.5986 72.8235 7.41262ZM72.7172 10.3086C72.611 10.5211 72.4516 10.6805 72.239 10.7868C72.0265 10.8931 71.8139 10.9462 71.5482 10.9462C71.2825 10.9462 71.0434 10.8931 70.8574 10.7868C70.6449 10.6805 70.5121 10.5211 70.3792 10.3086C70.2729 10.096 70.2198 9.85692 70.2198 9.59124C70.2198 9.32555 70.2729 9.08644 70.3792 8.87389C70.4855 8.66134 70.6449 8.50193 70.8574 8.39565C71.07 8.28938 71.2825 8.23624 71.5482 8.23624C71.8139 8.23624 72.0265 8.28938 72.239 8.39565C72.4516 8.50193 72.611 8.66134 72.7172 8.87389C72.8235 9.08644 72.9032 9.32555 72.9032 9.59124C72.8767 9.88349 72.8235 10.1226 72.7172 10.3086Z" fill="white"/>
<path d="M81.5396 22.4504C81.1676 22.7693 80.6628 22.9552 80.0252 22.9552C78.431 22.9552 77.6074 22.0253 77.6074 20.1655V19.7936C77.6074 18.8902 77.7934 18.1995 78.1919 17.7212C78.5905 17.243 79.2015 16.9773 80.0252 16.9773C80.6097 16.9773 81.1145 17.1367 81.4864 17.4821C81.8318 17.8009 82.0178 18.226 82.0444 18.784H83.7448C83.7448 18.1729 83.5853 17.5884 83.2399 17.0836C82.9211 16.6054 82.4695 16.2334 81.9115 15.9943C81.327 15.7552 80.7159 15.6223 80.0783 15.6223C80.0517 15.6223 80.0252 15.6223 79.9986 15.6223C78.7233 15.6223 77.7137 15.9943 76.9963 16.7116C76.279 17.429 75.9336 18.5183 75.9336 19.9796C75.9336 22.9021 77.2886 24.3368 80.0252 24.3368H80.1049C80.7425 24.3368 81.3536 24.204 81.9647 23.9648C82.5226 23.7523 82.9743 23.3538 83.2931 22.8755C83.6119 22.3973 83.7713 21.8394 83.7713 21.1751H82.1506C82.0975 21.7065 81.9115 22.1316 81.5396 22.4504Z" fill="white"/>
</g>
<defs>
<clipPath id="clip0_1172_10856">
<rect width="130" height="31.5103" fill="white"/>
</clipPath>
</defs>
</svg>
