<svg width="216" height="80" viewBox="0 0 216 80" fill="none" xmlns="http://www.w3.org/2000/svg">
<path d="M0 24.3V48.6L59.7888 48.6432L119.556 48.708L119.621 64.0008L119.664 79.272H167.832H216V39.636V-2.94e-05H108H0V24.3ZM212.976 24.3V45.576H108H3.024V24.3V3.02397H108H212.976V24.3ZM139.968 62.424V68.256H145.476H150.984V69.876V71.496H143.208H135.432V64.044V56.592H137.7H139.968V62.424ZM158.328 64.044V71.496H156.06H153.792V64.044V56.592H156.06H158.328V64.044ZM168.372 62.2512L171.18 67.932L173.988 62.2512L176.774 56.592H179.345H181.894L180.468 59.2272C179.69 60.696 177.919 64.044 176.515 66.6792L173.988 71.496H171.18H168.372L165.996 67.0248C164.7 64.5624 162.907 61.1928 162.043 59.5728L160.466 56.592H163.015H165.586L168.372 62.2512ZM200.448 57.996V59.4H194.508H188.568V60.912V62.424H194.292H200.016V63.828V65.232H194.292H188.568V66.852V68.472H194.508H200.448V69.984V71.496H192.24H184.032V64.044V56.592H192.24H200.448V57.996Z" fill="#29CCCC"/>
<rect width="216" height="49" fill="#FF4100"/>
<path d="M15.552 24.2999V33.0479H18.576H21.6L21.6432 29.5271L21.708 26.0279H32.5296C42.8976 26.0279 43.3944 26.0495 43.8264 26.4383C44.496 27.0431 44.4312 28.1447 43.7184 28.7063C43.1568 29.1599 42.9192 29.1599 33.3936 29.1599H23.652L25.596 31.1039L27.54 33.0479H36.5256C44.8848 33.0479 45.6408 33.0263 46.8936 32.6159C48.4704 32.1407 49.68 31.2335 50.1984 30.1535C50.6304 29.2463 50.652 27.3887 50.2416 26.5895C49.6152 25.3799 48.1464 24.4079 46.548 24.1487C46.2456 24.1055 46.4616 23.9111 47.3472 23.4791C49.1184 22.6151 49.8528 21.2975 49.572 19.5047C49.3776 18.1871 48.1248 16.8263 46.4832 16.1567L45.252 15.6599L30.4128 15.5951L15.552 15.5303V24.2999ZM42.5304 19.6775C43.848 20.1527 43.848 21.7511 42.5304 22.2263C42.0552 22.3775 38.6424 22.4639 31.7304 22.4639H21.6V20.9519V19.4399H31.7304C38.6424 19.4399 42.0552 19.5263 42.5304 19.6775Z" fill="black"/>
<path d="M54.6912 17.5392L54.756 19.548L71.1288 19.6128L87.48 19.656V17.604V15.552H71.064H54.6264L54.6912 17.5392Z" fill="black"/>
<path d="M90.72 17.8199V20.0879H96.4872H102.276L100.008 17.8199L97.74 15.5519H94.2408H90.72V17.8199Z" fill="black"/>
<path d="M104.544 24.2999V33.0479H107.568H110.592L110.635 26.6111L110.7 20.1959L117.569 20.1311L124.416 20.0879V17.8199V15.5519H114.48H104.544V24.2999Z" fill="black"/>
<path d="M128.088 17.604V19.656H144.504H160.92V17.604V15.552H144.504H128.088V17.604Z" fill="black"/>
<path d="M165.456 24.2999V33.0479H168.588H171.72V26.4599V19.8719H181.721C187.92 19.8719 192.002 19.9583 192.499 20.0879C193.428 20.3471 193.968 20.9951 193.968 21.8375C193.968 23.7167 193.774 23.7599 185.177 23.7599H177.876L175.824 25.8119L173.772 27.8639H180.9H188.028L190.62 30.4559L193.212 33.0479H196.992H200.772L198.007 30.2831L195.264 27.5399L196.366 27.1295C198.806 26.2655 200.448 23.6519 200.146 21.0815C199.886 18.7919 198.526 17.1935 195.977 16.1567L194.724 15.6599L180.101 15.5951L165.456 15.5303V24.2999Z" fill="black"/>
<path d="M54.648 24.3001V26.3521H71.064H87.48V24.3001V22.2481H71.064H54.648V24.3001Z" fill="black"/>
<path d="M128.088 24.3001V26.3521H144.504H160.92V24.3001V22.2481H144.504H128.088V24.3001Z" fill="black"/>
<path d="M54.7992 29.0951C54.7128 29.1599 54.648 30.0887 54.648 31.1471V33.0479H71.064H87.48V30.9959V28.9439H71.2152C62.2512 28.9439 54.864 29.0087 54.7992 29.0951Z" fill="black"/>
<path d="M128.239 29.0951C128.153 29.1599 128.088 30.0887 128.088 31.1471V33.0479H144.504H160.92V30.9959V28.9439H144.655C135.691 28.9439 128.304 29.0087 128.239 29.0951Z" fill="black"/>
</svg>
