<?xml version="1.0" encoding="utf-8"?>
<!-- Generator: Adobe Illustrator 23.0.2, SVG Export Plug-In . SVG Version: 6.00 Build 0)  -->
<svg version="1.1" id="Layer_1" xmlns="http://www.w3.org/2000/svg" xmlns:xlink="http://www.w3.org/1999/xlink" x="0px" y="0px"
	 viewBox="0 0 80 80" style="enable-background:new 0 0 80 80;" xml:space="preserve">
<style type="text/css">
	.st0{fill:#FFFC00;}
</style>
<title>habanero color</title>
<desc>Created with Sketch.</desc>
<g>
	<path class="st0" d="M14.8,9.9c7.2,0,14.5,0,21.7,0c8.8-0.4,17.9,3.4,23.3,10.5c3.4,4.4,4.6,10.1,4.8,15.6c-4.1,0.1-8.2,0-12.4,0
		c-0.1-4.9-2.3-10.2-6.9-12.4c-5.7-2.6-12.1-1.3-18.1-1.5c-0.1,4.6,0,9.3-0.1,13.9c-4.1,0-8.2,0-12.3,0
		C14.8,27.3,14.8,18.6,14.8,9.9z"/>
	<path class="st0" d="M14.8,39.1C18.9,39,23,39,27,39c0,10.8,0,21.6,0,32.4c-4.1,0-8.2,0-12.3,0C14.8,60.6,14.8,49.9,14.8,39.1z"/>
	<path class="st0" d="M52.1,39.5c4.1,0,8.2,0,12.4,0c0.1,10.8,0,21.5,0,32.3c-4.1,0.4-8.3,0.2-12.5,0C52,61,51.9,50.2,52.1,39.5z"/>
</g>
</svg>
