<svg width="30" height="30" viewBox="0 0 30 30" fill="none" xmlns="http://www.w3.org/2000/svg">
<rect x="0.5" y="0.5" width="29" height="29" rx="14.5" fill="#18152C"/>
<path d="M17.8108 16.5556C17.8108 16.3787 17.8792 16.2092 18.0008 16.0842C18.1224 15.9591 18.2874 15.8889 18.4595 15.8889H20.1892C20.3612 15.8889 20.5262 15.9591 20.6479 16.0842C20.7695 16.2092 20.8378 16.3787 20.8378 16.5556C20.8378 16.7324 20.7695 16.9019 20.6479 17.027C20.5262 17.152 20.3612 17.2222 20.1892 17.2222H18.4595C18.2874 17.2222 18.1224 17.152 18.0008 17.027C17.8792 16.9019 17.8108 16.7324 17.8108 16.5556ZM7 8.77778H7.01211C7.06529 8.28888 7.29193 7.83728 7.64869 7.50931C8.00544 7.18134 8.4673 7.00001 8.94595 7H18.8919C19.1474 7 19.4005 7.05173 19.6366 7.15224C19.8727 7.25275 20.0872 7.40007 20.2679 7.58579C20.4486 7.7715 20.5919 7.99198 20.6897 8.23463C20.7875 8.47728 20.8378 8.73736 20.8378 9V9.744C21.4535 9.89423 22.0018 10.2535 22.3942 10.7637C22.7865 11.2739 23 11.9052 23 12.5556V20.1111C23 20.8773 22.7039 21.6121 22.1767 22.1539C21.6496 22.6956 20.9347 23 20.1892 23H9.81081C9.06534 23 8.3504 22.6956 7.82327 22.1539C7.29614 21.6121 7 20.8773 7 20.1111V8.77778ZM20.1892 11H8.2973V20.1111C8.2973 20.9698 8.97535 21.6667 9.81081 21.6667H20.1892C20.5906 21.6667 20.9756 21.5028 21.2594 21.2111C21.5432 20.9193 21.7027 20.5237 21.7027 20.1111V12.5556C21.7027 12.143 21.5432 11.7473 21.2594 11.4556C20.9756 11.1639 20.5906 11 20.1892 11V11ZM19.5405 9.66667V9C19.5405 8.82319 19.4722 8.65362 19.3506 8.5286C19.2289 8.40357 19.0639 8.33333 18.8919 8.33333H8.94595C8.77391 8.33333 8.60893 8.40357 8.48728 8.5286C8.36564 8.65362 8.2973 8.82319 8.2973 9C8.2973 9.17681 8.36564 9.34638 8.48728 9.4714C8.60893 9.59643 8.77391 9.66667 8.94595 9.66667H19.5405Z" fill="#219653"/>
<rect x="0.5" y="0.5" width="29" height="29" rx="14.5" stroke="#039400"/>
</svg>
