<svg width="80" height="61" viewBox="0 0 80 61" fill="none" xmlns="http://www.w3.org/2000/svg">
<path fill-rule="evenodd" clip-rule="evenodd" d="M0.213623 38.6523V35.5777H8.32805V39.1559C8.32805 42.4308 9.59343 44.0692 12.1224 44.0692H12.1545C14.6603 44.0692 15.9149 42.4361 15.9149 39.1718C15.9149 37.3065 15.3749 35.5582 14.2913 33.9252C13.2095 32.2921 11.9157 30.7991 10.4097 29.4463L6.34266 25.2493C4.66203 23.7811 3.25587 21.9619 2.12416 19.7934C0.990669 17.6231 0.423925 15.2205 0.423925 12.5856C0.423925 8.53049 1.49325 5.42044 3.63191 3.25191C5.76879 1.08338 8.6738 0 12.3434 0C16.013 0 18.8307 1.08338 20.7982 3.25013C22.7658 5.41689 23.7496 8.52695 23.7496 12.5803V14.1885H16.266V12.0927C16.266 8.8071 14.9436 7.16342 12.297 7.16342C9.65046 7.16342 8.32805 8.80888 8.32805 12.0962C8.32805 13.4722 8.61677 14.7843 9.19243 16.0326C9.76808 17.2809 10.5148 18.405 11.4327 19.4086C12.3505 20.4104 13.3628 21.4016 14.4678 22.3804C15.5728 23.3609 16.6653 24.3875 17.7417 25.4603C18.8182 26.533 19.8144 27.6802 20.7287 28.9055C21.6412 30.1289 22.3844 31.5758 22.9583 33.2425C23.5321 34.911 23.8191 36.7231 23.8191 38.6824C23.8191 42.7269 22.8121 45.8299 20.7982 47.9913C18.7843 50.1528 15.9417 51.2344 12.2703 51.2344C8.59895 51.2344 5.67077 50.151 3.48755 47.9842C1.30434 45.8175 0.213623 42.7057 0.213623 38.6523Z" fill="white"/>
<path fill-rule="evenodd" clip-rule="evenodd" d="M36.2188 24.7087H39.9775C41.2643 24.7087 42.2302 24.347 42.8754 23.6253C43.5188 22.9037 43.8414 21.6802 43.8414 19.955V12.4422C43.8414 10.717 43.5188 9.50063 42.8754 8.78961C42.2302 8.07859 41.2643 7.72397 39.9775 7.72397H36.2188V24.7087ZM28.3147 50.6743V0.560547H39.9597C47.8157 0.560547 51.7455 4.70079 51.7455 12.9795V19.4886C51.7455 27.7443 47.8193 31.8739 39.9686 31.8739H36.2188V50.6743H28.3147Z" fill="white"/>
<path fill-rule="evenodd" clip-rule="evenodd" d="M63.3372 23.1361H66.4276C68.0209 23.1361 69.2096 22.7283 69.9938 21.9127C70.778 21.097 71.1701 19.7353 71.1701 17.8239V12.8964C71.1932 9.4494 69.8584 7.72415 67.1654 7.72415H63.3372V23.1361ZM55.4331 50.6745V0.55896H67.3597C71.4267 0.55896 74.3977 1.50403 76.2672 3.39241C78.1385 5.28079 79.0742 8.18339 79.0742 12.1002V16.0507C79.0742 21.2034 77.349 24.5954 73.8986 26.2267C77.3954 27.6966 79.1437 31.2517 79.1437 36.8938V44.6051V44.919C79.1437 47.4776 79.4253 49.3961 79.9867 50.6745H71.9739C71.5087 49.256 71.2645 47.2098 71.2414 44.5342V36.6846C71.2414 34.4061 70.8368 32.7713 70.0295 31.7837C69.2203 30.7943 67.9033 30.3013 66.0765 30.3013H63.3372V50.6745H55.4331Z" fill="white"/>
<path fill-rule="evenodd" clip-rule="evenodd" d="M0 60.8519H80V53.9553H0V60.8519Z" fill="white"/>
</svg>
