<?xml version="1.0" encoding="UTF-8"?>
<svg width="80px" height="80px" viewBox="0 0 80 80" version="1.1" xmlns="http://www.w3.org/2000/svg" xmlns:xlink="http://www.w3.org/1999/xlink">
    <!-- Generator: Sketch 48.2 (47327) - http://www.bohemiancoding.com/sketch -->
    <title>betsoft color</title>
    <desc>Created with Sketch.</desc>
    <defs></defs>
    <g id="Page-1" stroke="none" stroke-width="1" fill="none" fill-rule="evenodd">
        <g id="betsoft-color">
            <g id="betsoft" transform="translate(4.000000, 9.000000)">
                <polygon id="Shape" fill="#000000" points="17.913826 0 71.6553041 0 55.6414293 61.206051 1.89995125 61.206051 10.0425994 29.7905558 4.88558892 33.8529043 0 37.6444296 1.35710803 32.4987881 5.15701052 18.4159799 6.51411856 12.9995152 9.22833462 16.7910405 12.4853939 21.1242123"></polygon>
                <path d="M46.4135962,16.5202173 C43.6993802,26.2698537 51.0277636,27.6239699 49.1278123,34.665374 C48.5849691,37.1027831 47.4992827,37.9152528 46.1421746,37.9152528 C45.0564882,37.9152528 44.513645,37.1027831 45.0564882,34.665374 L45.870753,31.9571417 L42.3422722,31.9571417 L41.5280073,34.3945508 C40.1708993,39.8110154 41.2565857,43.0608943 45.0564882,43.0608943 C48.8563907,43.0608943 51.5706068,39.8110154 52.9277148,34.3945508 C55.6419309,24.6449143 48.5849691,23.2907982 50.2134987,16.2493941 C51.0277636,13.5411617 51.8420284,12.728692 53.1991364,12.728692 C54.2848228,12.728692 54.827666,13.5411617 54.0134012,16.2493941 L53.7419796,17.8743335 L57.2704605,17.8743335 L57.5418821,16.5202173 C59.1704118,11.1037526 58.0847253,7.8538738 54.2848228,7.8538738 C50.4849203,7.8538738 47.7707043,11.1037526 46.4135962,16.5202173 Z" id="Path" fill="#FFFF00"></path>
                <path d="M19.8137773,2.70823234 L43.1560354,2.70823234 L37.7276033,24.3740911 L14.1139235,24.3740911 L19.8137773,2.70823234 Z M36.9133385,26.540677 L31.4849064,48.2065357 L7.87122659,48.2065357 L13.5710803,26.540677 L36.9133385,26.540677 Z" id="Shape" fill="#FFFFFF"></path>
                <path d="M45.3274083,2.70823234 L68.6696664,2.70823234 L63.2412343,24.3740911 L39.6275545,24.3740911 L45.3274083,2.70823234 Z M62.4269695,26.540677 L56.9985374,48.2065357 L33.3848576,48.2065357 L39.0847113,26.540677 L62.4269695,26.540677 Z" id="Shape" fill="#FFFFFF" opacity="0.200000003"></path>
                <g id="Group" transform="translate(14.113924, 6.499758)">
                    <path d="M15.19961,5.95811116 C16.556718,5.95811116 16.8281396,7.04140409 16.2852964,9.4788132 L15.7424532,11.6453991 C14.9281884,14.3536314 13.8425019,15.4369244 12.2139723,15.4369244 L10.5854427,15.4369244 L13.0282371,5.95811116 L15.19961,5.95811116 Z M11.1282859,20.5825658 C13.0282371,20.5825658 13.2996587,21.6658587 12.4853939,24.9157376 L11.6711291,28.1656164 C11.1282859,30.8738487 10.0425994,31.6863184 8.68549141,31.6863184 L6.51411856,31.6863184 L9.22833462,20.5825658 L11.1282859,20.5825658 Z M16.556718,0.812469703 L10.5854427,0.812469703 L1.08568643,36.8319599 L7.32838337,36.8319599 C11.3997075,36.8319599 14.1139235,33.8529043 15.7424532,28.1656164 L16.556718,25.1865608 C17.3709828,21.3950355 17.3709828,18.6868032 15.4710316,17.6035102 C17.6424044,16.2493941 18.9995125,14.0828082 20.0851989,10.2912829 L20.3566205,8.93716673 C21.7137285,3.52070205 20.6280421,0.812469703 16.556718,0.812469703 Z M15.7424532,7.04140409 C15.7424532,6.77058086 15.4710316,6.49975762 15.19961,6.49975762 L13.5710803,6.49975762 L11.6711291,14.6244547 L12.2139723,14.6244547 C12.7568155,14.6244547 13.2996587,14.6244547 13.5710803,14.0828082 C14.1139235,13.5411617 14.6567667,12.728692 14.9281884,11.3745758 L15.4710316,9.4788132 C15.7424532,8.12469703 15.7424532,7.31222733 15.7424532,7.04140409 Z M12.2139723,21.6658587 C11.9425507,21.3950355 11.6711291,21.1242123 11.1282859,21.1242123 L9.77117783,21.1242123 L7.32838337,30.8738487 L8.68549141,30.8738487 C9.22833462,30.8738487 9.49975623,30.8738487 10.0425994,30.3322022 C10.314021,30.061379 10.5854427,29.2489093 11.1282859,27.8947931 L11.9425507,24.6449143 C12.2139723,23.2907982 12.4853939,22.2075052 12.2139723,21.6658587 Z M10.5854427,0 L16.556718,0 C18.9995125,0 20.3566205,0.812469703 21.1708853,2.43740911 C21.9851501,4.06234851 21.7137285,6.22893439 20.8994637,9.20798997 L20.6280421,10.5621061 C20.0851989,12.4578688 19.5423557,14.0828082 18.7280908,15.1661011 C18.1852476,16.2493941 17.3709828,17.0618638 16.556718,17.6035102 C17.3709828,18.4159799 17.6424044,19.2284496 17.6424044,20.3117426 C17.913826,21.6658587 17.6424044,23.5616214 17.0995612,25.457384 L16.2852964,28.4364396 C15.4710316,31.4154952 14.3853451,33.5820811 13.0282371,35.2070205 C11.3997075,36.8319599 9.49975623,37.6444296 7.32838337,37.6444296 L1.08568643,37.6444296 L0,37.6444296 L0.271421606,36.5611366 L9.77117783,0.541646469 L10.0425994,0 L10.5854427,0 Z" id="Shape" fill="#FFFFFF"></path>
                    <path d="M15.19961,5.95811116 C16.556718,5.95811116 16.8281396,7.04140409 16.2852964,9.4788132 L15.7424532,11.6453991 C14.9281884,14.3536314 13.8425019,15.4369244 12.2139723,15.4369244 L10.5854427,15.4369244 L13.0282371,5.95811116 L15.19961,5.95811116 Z M11.1282859,20.5825658 C13.0282371,20.5825658 13.2996587,21.6658587 12.4853939,24.9157376 L11.6711291,28.1656164 C11.1282859,30.8738487 10.0425994,31.6863184 8.68549141,31.6863184 L6.51411856,31.6863184 L9.22833462,20.5825658 L11.1282859,20.5825658 Z M16.556718,0.812469703 L10.5854427,0.812469703 L1.08568643,36.8319599 L7.32838337,36.8319599 C11.3997075,36.8319599 14.1139235,33.8529043 15.7424532,28.1656164 L16.556718,25.1865608 C17.3709828,21.3950355 17.3709828,18.6868032 15.4710316,17.6035102 C17.6424044,16.2493941 18.9995125,14.0828082 20.0851989,10.2912829 L20.3566205,8.93716673 C21.7137285,3.52070205 20.6280421,0.812469703 16.556718,0.812469703 Z" id="1" fill="#2B2A29" fill-rule="nonzero"></path>
                </g>
                <polygon id="Shape" fill="#FFFF00" points="7.32838337 18.4159799 12.4853939 25.457384 3.52848088 32.4987881"></polygon>
                <g id="Group-2" transform="translate(8.956913, 52.025177)" fill="#FFFF00">
                    <path d="M15.6527952,0 C16.4453418,0 17.0397517,0.790799355 16.8416151,1.58159871 C16.8416151,1.77929855 16.8416151,1.77929855 16.8416151,1.77929855 C17.6341617,1.97699839 18.030435,2.5700979 17.8322983,3.36089726 C17.6341617,4.34939645 16.6434784,4.94249597 15.8509318,4.94249597 C15.2565219,4.94249597 14.6621119,4.54709629 14.6621119,3.95399677 C14.2658386,4.54709629 13.4732921,4.94249597 12.8788821,4.94249597 C12.0863355,4.94249597 11.4919256,4.34939645 11.6900622,3.36089726 C11.8881989,2.5700979 12.6807455,1.97699839 13.6714287,1.77929855 C13.6714287,1.77929855 13.6714287,1.77929855 13.6714287,1.58159871 C13.8695653,0.790799355 14.8602486,0 15.6527952,0 Z" id="Shape"></path>
                    <polygon id="Shape" points="14.8602486 5.93099516 14.4639753 4.34939645 13.4732921 5.93099516"></polygon>
                    <path d="M41.0142861,0 C41.4105594,0 43.3919259,1.97699839 42.9956526,3.36089726 C42.7975159,4.34939645 42.0049693,4.94249597 41.0142861,4.94249597 C40.4198762,4.94249597 40.0236029,4.54709629 39.8254662,3.95399677 C39.4291929,4.54709629 38.834783,4.94249597 38.240373,4.94249597 C37.2496898,4.94249597 36.6552798,4.34939645 37.0515531,3.36089726 C37.4478264,1.77929855 40.4198762,0 41.0142861,0 Z" id="Shape"></path>
                    <polygon id="Shape" points="40.0236029 5.93099516 39.8254662 4.34939645 38.6366463 5.93099516"></polygon>
                    <path d="M26.9465841,5.53559548 C26.1540375,5.53559548 24.172671,3.5585971 24.5689443,1.77929855 C24.767081,0.988499193 25.7577642,0.197699839 26.7484475,0.197699839 C27.540994,0.197699839 27.9372673,0.593099516 27.9372673,1.18619903 C28.5316773,0.593099516 29.1260872,0.197699839 29.9186338,0.197699839 C30.7111804,0.197699839 31.3055904,0.988499193 31.1074537,1.77929855 C30.7111804,3.75629693 27.540994,5.53559548 26.9465841,5.53559548 Z" id="Shape"></path>
                    <path d="M3.56645966,0 C4.1608696,1.18619903 4.75527955,1.97699839 5.74596279,2.96549758 C4.35900625,3.75629693 3.36832301,4.54709629 2.17950313,5.73329532 C1.58509318,4.54709629 0.990683239,3.75629693 0,2.96549758 C1.38695653,1.97699839 2.37763977,1.18619903 3.56645966,0 Z" id="Shape"></path>
                </g>
            </g>
        </g>
    </g>
</svg>