<svg width="75" height="80" viewBox="0 0 75 80" fill="none" xmlns="http://www.w3.org/2000/svg">
<path fill-rule="evenodd" clip-rule="evenodd" d="M14.0967 7.00474L64.7329 18.9352C64.7329 18.9352 70.5203 20.7865 72.7052 26.3112C72.7052 26.3112 76.4684 33.5717 68.6231 42.0938L35.5531 76.9969C35.5531 76.9969 30.6703 81.321 23.5901 79.5918C23.5901 79.5918 16.7071 78.2991 14.2084 69.6358L0.218562 22.5948C0.218562 22.5948 -1.14374 17.1404 2.9339 11.9322C2.9339 11.9322 6.55253 6.74539 14.0967 7.00474Z" fill="#FE346E"/>
<path fill-rule="evenodd" clip-rule="evenodd" d="M23.8762 0.774928L69.0104 26.6483C69.0104 26.6483 74.0298 30.0729 74.5493 35.9915C74.5493 35.9915 76.0869 44.0235 66.1382 49.9551L24.4917 73.9805C24.4917 73.9805 18.5793 76.7325 12.2849 73.0563C12.2849 73.0563 6.05608 69.8547 6.1303 60.8383V11.7615C6.1303 11.7615 6.37922 6.14491 11.772 2.3158C11.772 2.31503 16.7189 -1.62481 23.8762 0.774928Z" fill="#2C003E"/>
<path fill-rule="evenodd" clip-rule="evenodd" d="M60.8831 28.6198C58.6493 26.231 55.6308 25.0367 51.8277 25.0367C47.3164 25.0367 43.6676 26.6071 40.8813 29.7478C38.6692 26.6076 35.4186 25.0372 31.1293 25.0367C27.2369 25.0367 24.1409 26.2532 21.8415 28.6862V25.7666H13.6151V58.6113H22.5711V39.5016C22.5711 37.5561 23.1239 36.0079 24.2297 34.8569C25.3354 33.706 26.7949 33.1309 28.6082 33.1318C30.3765 33.1318 31.7918 33.7069 32.854 34.8569C33.9161 36.0069 34.4468 37.5552 34.4461 39.5016V58.6113H43.402V39.3025C43.402 37.4893 43.966 36.0077 45.0938 34.8575C46.2217 33.7073 47.6701 33.1323 49.4391 33.1324C51.2075 33.1324 52.6227 33.7075 53.6849 34.8575C54.7471 36.0075 55.2778 37.5558 55.2772 39.5022V58.6119H64.2332V38.2421C64.2333 34.2167 63.1166 31.0093 60.8831 28.6198Z" fill="white"/>
</svg>
