<svg width="22" height="22" viewBox="0 0 22 22" fill="none" xmlns="http://www.w3.org/2000/svg">
<path d="M7.00031 11.8494C6.81803 11.8493 6.64328 11.7768 6.51447 11.6478C6.38716 11.5179 6.31492 11.3438 6.31281 11.1619C6.31528 11.0533 6.34347 10.9468 6.39507 10.8511C6.44668 10.7555 6.52023 10.6734 6.60968 10.6117C6.69913 10.55 6.80195 10.5103 6.90969 10.496C7.01742 10.4817 7.12702 10.4932 7.22947 10.5295C7.31316 10.5607 7.38847 10.6109 7.44947 10.6761C7.57822 10.805 7.65054 10.9798 7.65054 11.1619C7.65054 11.3441 7.57822 11.5189 7.44947 11.6478C7.3859 11.7099 7.31129 11.7597 7.22947 11.7945C7.157 11.8264 7.07938 11.845 7.00031 11.8494Z" fill="#FACD0D"/>
<path d="M11.1436 7.70612C10.9613 7.70612 10.7864 7.63368 10.6575 7.50475C10.5286 7.37582 10.4561 7.20095 10.4561 7.01862C10.4583 6.83674 10.5305 6.6627 10.6578 6.53278C10.7543 6.43938 10.8757 6.37585 11.0074 6.34983C11.1391 6.32381 11.2756 6.33641 11.4003 6.38612C11.4861 6.41856 11.5641 6.46851 11.6295 6.53278C11.7568 6.6627 11.829 6.83674 11.8311 7.01862C11.831 7.20089 11.7584 7.37564 11.6295 7.50445C11.5646 7.57161 11.4866 7.62466 11.4003 7.66028C11.3178 7.68954 11.2311 7.70502 11.1436 7.70612Z" fill="#FACD0D"/>
<path d="M10.887 15.7361C10.7051 15.734 10.5311 15.6618 10.4011 15.5344C10.2724 15.4055 10.2001 15.2308 10.2001 15.0486C10.2001 14.8664 10.2724 14.6917 10.4011 14.5628C10.5323 14.4383 10.7062 14.369 10.887 14.369C11.0678 14.369 11.2417 14.4383 11.3728 14.5628C11.4377 14.626 11.4906 14.7006 11.5286 14.7828C11.5569 14.8686 11.5724 14.9582 11.5745 15.0486C11.5745 15.231 11.502 15.4058 11.3731 15.5348C11.2442 15.6637 11.0693 15.7361 10.887 15.7361Z" fill="#FACD0D"/>
<path d="M15.0303 11.6019C14.9388 11.6022 14.8483 11.5835 14.7645 11.5469C14.6827 11.5122 14.608 11.4624 14.5445 11.4003C14.4791 11.3358 14.4289 11.2575 14.3978 11.1711C14.3622 11.0902 14.3435 11.0029 14.3428 10.9144C14.3425 10.7294 14.415 10.5516 14.5445 10.4194C14.6103 10.3602 14.6844 10.3108 14.7645 10.2728C14.9359 10.2088 15.1247 10.2088 15.2961 10.2728C15.3762 10.3108 15.4503 10.3602 15.5161 10.4194C15.6457 10.5516 15.7181 10.7294 15.7178 10.9144C15.7171 11.0029 15.6984 11.0902 15.6628 11.1711C15.6283 11.2558 15.5786 11.3335 15.5161 11.4003C15.3873 11.5293 15.2126 11.6018 15.0303 11.6019Z" fill="#FACD0D"/>
<path d="M11.0428 20.9886C10.5915 20.9887 10.1445 20.8997 9.72768 20.7267C9.31082 20.5536 8.93224 20.3 8.61364 19.9803L2.10531 13.472C1.46158 12.8274 1.1 11.9537 1.1 11.0428C1.1 10.1318 1.46158 9.25815 2.10531 8.61362L8.61364 2.10528C9.25817 1.46155 10.1319 1.09998 11.0428 1.09998C11.9537 1.09998 12.8274 1.46155 13.472 2.10528L19.9803 8.61362C20.3001 8.93215 20.5539 9.31071 20.7271 9.72757C20.9003 10.1444 20.9894 10.5914 20.9894 11.0428C20.9894 11.4942 20.9003 11.9411 20.7271 12.358C20.5539 12.7749 20.3001 13.1534 19.9803 13.472L13.472 19.9803C13.1534 20.3 12.7748 20.5536 12.3579 20.7267C11.9411 20.8997 11.4942 20.9887 11.0428 20.9886ZM11.0428 2.47195C10.7719 2.47118 10.5035 2.52427 10.2533 2.62813C10.0031 2.732 9.77604 2.88456 9.58531 3.07695L3.07697 9.58528C2.69073 9.972 2.47379 10.4962 2.47379 11.0428C2.47379 11.5893 2.69073 12.1136 3.07697 12.5003L9.58531 19.0086C9.97203 19.3949 10.4962 19.6118 11.0428 19.6118C11.5894 19.6118 12.1136 19.3949 12.5003 19.0086L19.0086 12.5003C19.3949 12.1136 19.6118 11.5893 19.6118 11.0428C19.6118 10.4962 19.3949 9.972 19.0086 9.58528L12.5003 3.07695C12.3096 2.88456 12.0825 2.732 11.8323 2.62813C11.5821 2.52427 11.3137 2.47118 11.0428 2.47195Z" fill="#FACD0D"/>
</svg>
