<?xml version="1.0" encoding="UTF-8"?>
<svg width="26px" height="26px" viewBox="0 0 26 26" version="1.1" xmlns="http://www.w3.org/2000/svg" xmlns:xlink="http://www.w3.org/1999/xlink">
    <title>Reflexgaming</title>
    <g id="All-logos" stroke="none" stroke-width="1" fill="none" fill-rule="evenodd">
        <g id="Logo-providers" transform="translate(-35.000000, -77.000000)">
            <g id="Reflexgaming" transform="translate(35.000000, 77.000000)">
                <rect id="Rectangle" stroke="#979797" fill="#D8D8D8" fill-rule="nonzero" opacity="0" x="0" y="0" width="26" height="26"></rect>
                <g id="Group" transform="translate(0.000000, 2.993599)">
                    <path d="M1,1.41862574 L0.5,19.0476032 L5.10202112,19.0476032 L5.10202112,12.5878401 L7.99943602,18.6903058 L12.0075828,18.6903058 L10.3526465,9.6361301 C11.4085924,6.10119147 11.9236387,3.85595377 11.5,3.51231394 C11.0763613,3.16867411 10.242464,2.34710386 8.99830807,1.04760321 L1,1.41862574 Z" id="Path-2" fill="#FE0000" fill-rule="nonzero"></path>
                    <path d="M1.07230809,0.917308664 C6.43281678,-0.677315832 10.0900662,-0.237653242 11.6875516,2.70575852 C13.1741771,5.44490777 12.3642329,9.16360581 10.9129678,11.038584 L10.764,11.221 L10.8530883,11.4762694 L11.0388562,11.9669224 L11.9066324,14.1173269 L12.1310381,14.6882495 L12.3312873,15.214582 L12.5070457,15.6995346 L12.6579794,16.1463174 C12.6810477,16.2177788 12.7030677,16.2877835 12.7240325,16.3563984 L12.8371024,16.751946 C13.1045574,17.7651204 13.0983046,18.4567577 12.7898329,19.1007971 L12.7284459,19.2210636 L12.3028717,20.0064014 L7.00050646,20.0064014 L6.26210023,17.2369173 L5.97104814,16.1716774 L5.738,15.338 L5.73899215,20.0064014 L0,20.0064014 L0,1.23629495 L1.07230809,0.917308664 Z M10.3692026,3.42126946 C9.24397461,1.34800523 6.40541533,0.958313076 1.85352478,2.25219299 L1.5,2.35504287 L1.5,18.5064014 L4.23899215,18.5064014 L4.23899215,12.4357712 L6.35189232,12.4357712 C6.36706251,12.4357712 6.38876526,12.4637788 6.41700057,12.5197938 L6.46425296,12.624822 L6.52130419,12.7718615 L6.62525386,13.0711919 L6.79814938,13.6173385 L7.06938726,14.5363353 L7.55200813,16.2640492 L8.06122188,18.1545569 L8.15466483,18.5064014 L11.4096366,18.5064014 L11.4518374,18.4073595 C11.5930724,17.9788058 11.4088568,17.1685677 11.092442,16.2269428 L10.9241127,15.7463402 L10.7391183,15.2507926 L10.4421223,14.4946582 L9.75205302,12.792223 L9.57979798,12.3530118 L9.4284545,11.9475245 C9.17344089,11.2392934 9.05092051,10.7361402 9.20974617,10.6308577 C9.2366984,10.6129916 9.26696466,10.5887729 9.30004515,10.5585217 L9.40722951,10.44999 C9.44543866,10.4079934 9.48596224,10.3602842 9.52830047,10.3071823 L9.66025924,10.1320182 L9.80010706,9.92641743 C9.82390585,9.88972088 9.8479084,9.85183612 9.87205224,9.81280313 L10.0181109,9.56514654 L10.1645616,9.29185228 C10.8927976,7.86448626 11.5232826,5.5476943 10.3692026,3.42126946 Z" id="Combined-Shape" fill="#000000" fill-rule="nonzero"></path>
                    <path d="M0.5,1.60921092 L1.21487206,1.3965534 C6.3747851,-0.138398639 9.79841834,0.273179376 11.248102,2.94426217 C12.6887442,5.5986859 11.7843794,9.29669279 10.3620796,10.9255066 L10.2352849,11.0637764 L10.2,11.097 L10.2416421,11.2333571 L10.3314053,11.5020449 L10.5025662,11.9664948 L11.442033,14.3021171 L11.7664806,15.1356772 L11.9514085,15.6362267 C11.9801148,15.7161748 12.0077589,15.7944247 12.0343336,15.8710364 L12.1808933,16.3115291 C12.5594665,17.5066186 12.6249,18.2630195 12.3423281,18.876083 L12.2888428,18.9828428 L12.0051267,19.5064014 L7.38522591,19.5064014 L6.69328258,16.9164552 L6.27740731,15.408019 L6.00167649,14.4449712 L5.82350128,13.8498563 L5.692,13.435 L5.238,13.435 L5.23899215,19.5064014 L0.5,19.5064014 L0.5,1.60921092 Z M10.3692026,3.42126946 C9.24397461,1.34800523 6.40541533,0.958313076 1.85352478,2.25219299 L1.5,2.35504287 L1.5,18.5064014 L4.23899215,18.5064014 L4.23899215,12.4357712 L6.35189232,12.4357712 C6.36706251,12.4357712 6.38876526,12.4637788 6.41700057,12.5197938 L6.46425296,12.624822 L6.52130419,12.7718615 L6.62525386,13.0711919 L6.79814938,13.6173385 L7.06938726,14.5363353 L7.55200813,16.2640492 L8.06122188,18.1545569 L8.15466483,18.5064014 L11.4096366,18.5064014 L11.4518374,18.4073595 C11.5930724,17.9788058 11.4088568,17.1685677 11.092442,16.2269428 L10.9241127,15.7463402 L10.7391183,15.2507926 L10.4421223,14.4946582 L9.75205302,12.792223 L9.57979798,12.3530118 L9.4284545,11.9475245 C9.17344089,11.2392934 9.05092051,10.7361402 9.20974617,10.6308577 C9.2366984,10.6129916 9.26696466,10.5887729 9.30004515,10.5585217 L9.40722951,10.44999 C9.44543866,10.4079934 9.48596224,10.3602842 9.52830047,10.3071823 L9.66025924,10.1320182 L9.80010706,9.92641743 C9.82390585,9.88972088 9.8479084,9.85183612 9.87205224,9.81280313 L10.0181109,9.56514654 L10.1645616,9.29185228 C10.8927976,7.86448626 11.5232826,5.5476943 10.3692026,3.42126946 Z" id="Combined-Shape" fill="#FFFFFF" fill-rule="nonzero"></path>
                    <path d="M1,1.98212689 L1.35743603,1.87579813 C6.31675342,0.400518554 9.50677047,0.784011994 10.8086523,3.18276581 C12.198177,5.74300422 11.1977351,9.41795781 9.83138581,10.7635033 L9.71342127,10.8730508 L9.648,10.926 L9.65040386,10.9432139 C9.65954916,10.9975032 9.67341217,11.0606031 9.69197185,11.1324264 L9.76171996,11.3739797 L9.85952209,11.6673514 L10.0347921,12.1431174 L10.9774337,14.4869074 L11.1895433,15.0281853 L11.3779331,15.52763 C11.4073382,15.6074948 11.4357427,15.6856991 11.4631402,15.7622842 L11.6153934,16.2026946 C11.6620839,16.3432414 11.7046974,16.4776418 11.7431844,16.6062258 L11.8462162,16.9748596 C12.0424149,17.7371915 12.062177,18.2677407 11.8919113,18.6572081 L11.8492397,18.7446221 L11.7073816,19.0064014 L7.76994537,19.0064014 L7.175414,16.7839709 L6.75824813,15.270924 L6.48131878,14.3037498 L6.24643271,13.5258982 L6.14913105,13.2239308 L6.048,12.935 L4.738,12.935 L4.73899215,19.0064014 L1,19.0064014 L1,1.98212689 Z M10.3692026,3.42126946 C9.24397461,1.34800523 6.40541533,0.958313076 1.85352478,2.25219299 L1.5,2.35504287 L1.5,18.5064014 L4.23899215,18.5064014 L4.23899215,12.4357712 L6.35189232,12.4357712 C6.36706251,12.4357712 6.38876526,12.4637788 6.41700057,12.5197938 L6.46425296,12.624822 L6.52130419,12.7718615 L6.62525386,13.0711919 L6.79814938,13.6173385 L7.06938726,14.5363353 L7.55200813,16.2640492 L8.06122188,18.1545569 L8.15466483,18.5064014 L11.4096366,18.5064014 L11.4518374,18.4073595 C11.5930724,17.9788058 11.4088568,17.1685677 11.092442,16.2269428 L10.9241127,15.7463402 L10.7391183,15.2507926 L10.4421223,14.4946582 L9.75205302,12.792223 L9.57979798,12.3530118 L9.4284545,11.9475245 C9.17344089,11.2392934 9.05092051,10.7361402 9.20974617,10.6308577 C9.2366984,10.6129916 9.26696466,10.5887729 9.30004515,10.5585217 L9.40722951,10.44999 C9.44543866,10.4079934 9.48596224,10.3602842 9.52830047,10.3071823 L9.66025924,10.1320182 L9.80010706,9.92641743 C9.82390585,9.88972088 9.8479084,9.85183612 9.87205224,9.81280313 L10.0181109,9.56514654 L10.1645616,9.29185228 C10.8927976,7.86448626 11.5232826,5.5476943 10.3692026,3.42126946 Z" id="Combined-Shape" fill="#000000" fill-rule="nonzero"></path>
                    <path d="M13.9920439,11.8468608 L14.766765,15.6184611 L16.0766651,17.6731622 L18.2760219,18.7017267 L20.7892768,18.5064014 L21.835521,17.9367736 C22.2115366,17.0067229 22.5075305,16.5236085 22.7235026,16.4874305 C23.7430737,16.3166393 24.3104388,17.7658506 24.5,17.279072 C25.4453872,14.8513908 24.6808659,10.6610477 24.6014438,10.3746204 C24.5328059,10.1270848 21.0543323,10.0064014 19.7150966,10.3746204 C19.2262547,10.5090261 19.6545085,11.104774 19.7150966,11.5417722 C19.835905,12.4131148 20.3657328,11.9783207 20.7892768,12.8426635 C21.0861012,13.4484046 20.7427275,14.3747584 20.6481722,14.441259 C19.8450042,15.0061254 19.0783336,15.0535839 18.3481604,14.5836342 C17.2075893,9.42341349 17.0168004,6.9317517 17.7757936,7.10864884 C20.7958868,7.81253632 23.3476068,9.08164511 24.5,8.22823697 C25.8528102,7.22640941 25.1821026,4.03815954 25,3.77838323 C24.9875968,3.76068962 22.2919051,1.5142199 22.2657455,1.50640138 C22.0863018,1.45276969 19.3065302,1.11333058 19.246645,1.00100417 C18.5299929,-0.343217834 16.7784592,1.46074115 13.9920439,6.41288113 L13.9920439,11.8468608 Z" id="Path-8" fill="#FFFF01" fill-rule="nonzero"></path>
                    <path d="M18.8378996,0.103904584 C15.0064288,0.793479715 12.280723,4.65350114 12.5063294,9.77524935 L12.5234222,10.084053 C12.5387361,10.4293174 12.5595734,10.7663176 12.5858947,11.0949428 L12.6458376,11.740994 C13.3741806,18.6182001 16.6646601,21.529217 22.1175037,19.3484653 L23.0605026,18.9713325 L23.06,18.5714014 L26,18.5722078 L26,8.97457463 L25.637,8.97440138 L25.7201031,7.74478787 C26.0655845,2.58320116 22.9131882,-0.629552031 18.8378996,0.103904584 Z M24.2234519,7.64461225 L23.202181,7.65781739 C23.1273174,7.65839887 23.0550146,7.65870035 22.985273,7.65860912 L22.4380408,7.65533778 L21.6813479,7.66849153 C21.6036279,7.66725836 21.5635321,7.66096778 21.5605026,7.64461225 C21.5605026,7.09126802 21.3852956,6.58721562 21.1020842,6.18511282 L20.9742913,6.01917839 C19.7011627,4.50501534 16.7968378,4.80552046 16.7968378,10.4745746 C16.7661819,17.0113089 21.5605026,15.1166333 21.5605026,13.1816563 L21.5605026,11.882504 L19.811044,11.882504 L19.811044,10.4745746 L24.5,10.4745746 L24.5,17.0722078 L24.0898267,17.0722078 L24.0898267,15.6350193 L21.5605026,15.6350193 L21.5605026,17.9557163 C17.004963,19.7776099 14.5040885,17.3479302 14.057879,10.6666773 L14.0201069,9.9843801 C13.3519338,-0.0488797623 24.843135,-1.61362278 24.2234519,7.64461225 Z" id="Path-4" fill="#000000" fill-rule="nonzero"></path>
                    <path d="M18.926465,0.595998253 C15.356835,1.23844815 12.7935277,4.86569303 13.0054428,9.74430196 L13.0223171,10.0508287 C13.3670475,17.8205575 16.4478443,21.0774247 21.9318367,18.8842157 L22.5605026,18.6327937 L22.56,16.6344014 L23.089,16.6344014 L23.0898267,18.0722078 L25.5,18.0722078 L25.5,9.47457463 L18.811044,9.47457463 L18.811044,12.882504 L20.56,12.8824014 L20.5605026,13.1816563 C20.5605026,13.5360365 19.8810177,14.0620764 19.2518665,14.0086 C18.424773,13.9382991 17.7853964,12.9165635 17.7968268,10.4792644 C17.7968378,7.67714001 18.5075893,6.3545243 19.31232,6.24599862 C19.9016419,6.16652289 20.5605026,6.81145956 20.5605026,7.64461225 L20.5772281,7.82674197 L20.6835591,8.06836986 C20.7881562,8.29868777 20.8374338,8.3658954 20.9655365,8.4529468 L21.0977717,8.53668915 L21.2877056,8.61548777 L21.3626381,8.63586709 C21.3765096,8.63879893 21.3920381,8.64183416 21.4106724,8.64547644 C21.4693598,8.65637264 21.5227153,8.66230297 21.5792106,8.66546156 L21.720983,8.66872821 L22.0576449,8.66159527 C22.2284865,8.65730489 22.3778339,8.65498231 22.5314876,8.65502937 L22.8999762,8.65849581 L25.1594215,8.6346731 L25.2212194,7.711396 C25.5459802,2.85937983 22.664925,-0.0768371022 18.926465,0.595998253 Z M24.2234519,7.64461225 L23.202181,7.65781739 C23.1273174,7.65839887 23.0550146,7.65870035 22.985273,7.65860912 L22.4380408,7.65533778 L21.6813479,7.66849153 C21.6036279,7.66725836 21.5635321,7.66096778 21.5605026,7.64461225 C21.5605026,7.09126802 21.3852956,6.58721562 21.1020842,6.18511282 L20.9742913,6.01917839 C19.7011627,4.50501534 16.7968378,4.80552046 16.7968378,10.4745746 C16.7661819,17.0113089 21.5605026,15.1166333 21.5605026,13.1816563 L21.5605026,11.882504 L19.811044,11.882504 L19.811044,10.4745746 L24.5,10.4745746 L24.5,17.0722078 L24.0898267,17.0722078 L24.0898267,15.6350193 L21.5605026,15.6350193 L21.5605026,17.9557163 C17.004963,19.7776099 14.5040885,17.3479302 14.057879,10.6666773 L14.0201069,9.9843801 C13.3519338,-0.0488797623 24.843135,-1.61362278 24.2234519,7.64461225 Z" id="Path-4" fill="#FFFFFF" fill-rule="nonzero"></path>
                    <path d="M19.0150303,1.08809192 C15.7070487,1.68345123 13.3061415,5.07815834 13.5045685,9.71355307 L13.521212,10.0176044 C13.853347,17.5008926 16.650478,20.4578822 21.7461697,18.419966 L22.0605026,18.294255 L22.06,16.1344014 L23.589,16.1344014 L23.5898267,17.5722078 L25,17.5722078 L25,9.97457463 L19.311044,9.97457463 L19.311044,12.382504 L21.06,12.3824014 L21.0605026,13.1816563 C21.0605026,13.8499664 20.1128854,14.5835875 19.2095204,14.5068036 C18.0758994,14.4104485 17.2843173,13.1454858 17.2968323,10.4769195 C17.2968378,7.45759675 18.1336333,5.90042957 19.2454951,5.75048431 C20.1486664,5.62868297 21.0605026,6.52124882 21.0605026,7.64461225 C21.1223488,8.02442093 21.2909623,8.11470561 21.501945,8.15387772 L21.5836256,8.16453455 L21.7569729,8.16892508 L22.0450922,8.16175287 C22.2200575,8.15735893 22.3735979,8.1549746 22.5318643,8.15502685 L23.3875161,8.1559107 L24.6914367,8.13964268 L24.7223356,7.67800412 C25.026376,3.13555849 22.4166618,0.475877826 19.0150303,1.08809192 Z M24.2234519,7.64461225 L23.202181,7.65781739 C23.1273174,7.65839887 23.0550146,7.65870035 22.985273,7.65860912 L22.4380408,7.65533778 L21.6813479,7.66849153 C21.6036279,7.66725836 21.5635321,7.66096778 21.5605026,7.64461225 C21.5605026,7.09126802 21.3852956,6.58721562 21.1020842,6.18511282 L20.9742913,6.01917839 C19.7011627,4.50501534 16.7968378,4.80552046 16.7968378,10.4745746 C16.7661819,17.0113089 21.5605026,15.1166333 21.5605026,13.1816563 L21.5605026,11.882504 L19.811044,11.882504 L19.811044,10.4745746 L24.5,10.4745746 L24.5,17.0722078 L24.0898267,17.0722078 L24.0898267,15.6350193 L21.5605026,15.6350193 L21.5605026,17.9557163 C17.004963,19.7776099 14.5040885,17.3479302 14.057879,10.6666773 L14.0201069,9.9843801 C13.3519338,-0.0488797623 24.843135,-1.61362278 24.2234519,7.64461225 Z" id="Path-4" fill="#000000" fill-rule="nonzero"></path>
                    <g id="Path-3" transform="translate(4.720372, 4.442582)">
                        <g id="path-1-link" fill="#000000" stroke="#000000" stroke-width="1.5">
                            <path d="M0,0.49508194 L0,3.88172989 C1.3233483,3.38911889 1.98502245,2.9092199 1.98502245,2.44203293 C1.98502245,1.74125248 1.75598321,0 1,0 C0.49601119,0 0.16267786,0.16502731 0,0.49508194 Z" id="path-1"></path>
                        </g>
                        <g id="path-1-link" stroke="#FFFFFF" stroke-width="0.5">
                            <path d="M0,0.49508194 L0,3.88172989 C1.3233483,3.38911889 1.98502245,2.9092199 1.98502245,2.44203293 C1.98502245,1.74125248 1.75598321,0 1,0 C0.49601119,0 0.16267786,0.16502731 0,0.49508194 Z" id="path-1"></path>
                        </g>
                    </g>
                </g>
            </g>
        </g>
    </g>
</svg>