<svg width="20" height="20" viewBox="0 0 20 20" fill="none" xmlns="http://www.w3.org/2000/svg">
<g clip-path="url(#clip0_785_8403)">
<g clip-path="url(#clip1_785_8403)">
<path d="M5.67251 18.1587C5.53376 18.1673 5.39459 18.1673 5.25584 18.1587L4.16417 18.317C4.04512 18.3367 3.92306 18.3095 3.82362 18.2411C3.72417 18.1728 3.65508 18.0685 3.63084 17.9503L1.22251 4.38365C1.21046 4.32286 1.21064 4.26029 1.22303 4.19957C1.23543 4.13886 1.25979 4.08122 1.2947 4.03003C1.3296 3.97883 1.37436 3.93509 1.42635 3.90138C1.47834 3.86766 1.53652 3.84464 1.59751 3.83365L3.42251 3.50865V2.42531L1.40584 2.78365C1.00522 2.85705 0.649264 3.08439 0.414174 3.41698C0.297384 3.58215 0.214432 3.7688 0.170095 3.96617C0.125758 4.16354 0.120914 4.36773 0.155841 4.56698L2.54751 18.1336C2.58269 18.3336 2.65701 18.5245 2.76618 18.6957C2.87536 18.8668 3.01726 19.0146 3.18372 19.1308C3.35019 19.2469 3.53795 19.329 3.73623 19.3724C3.93451 19.4158 4.13941 19.4196 4.33917 19.3836L10.0058 18.3836L11.2975 18.1587H5.67251Z" fill="#FACD0D"/>
<path d="M19.5892 3.41698C19.3541 3.08439 18.9981 2.85705 18.5975 2.78365L16.3392 2.38365V3.48365L18.4058 3.83365C18.4656 3.84371 18.5229 3.86554 18.5742 3.89787C18.6255 3.9302 18.6698 3.9724 18.7047 4.022C18.7396 4.07161 18.7643 4.12765 18.7774 4.18686C18.7904 4.24608 18.7916 4.3073 18.7808 4.36698L16.3892 17.9503C16.3631 18.0675 16.2936 18.1705 16.1946 18.2385C16.0957 18.3066 15.9746 18.3346 15.8558 18.317L14.6142 18.1003C14.4415 18.1371 14.2657 18.1566 14.0892 18.1586H8.70584L10.0058 18.3836L15.6642 19.3836H15.9308C16.2981 19.3962 16.6578 19.2772 16.945 19.048C17.2323 18.8188 17.4282 18.4945 17.4975 18.1336L19.8475 4.56698C19.9135 4.16466 19.8209 3.75243 19.5892 3.41698Z" fill="#FACD0D"/>
<path d="M14.0892 17.4503H5.67251C5.26944 17.4416 4.88582 17.2753 4.60387 16.9872C4.32192 16.699 4.16408 16.3118 4.16417 15.9086V2.16698C4.15975 1.96451 4.19526 1.76316 4.26867 1.57442C4.34209 1.38568 4.45197 1.21325 4.59204 1.06699C4.73211 0.920729 4.89963 0.803497 5.08502 0.721993C5.27041 0.640489 5.47004 0.59631 5.67251 0.59198H14.0892C14.2945 0.591932 14.4977 0.632886 14.6869 0.712438C14.8762 0.79199 15.0477 0.908538 15.1913 1.05524C15.3349 1.20195 15.4477 1.37586 15.5232 1.56677C15.5987 1.75768 15.6353 1.96174 15.6308 2.16698V15.9086C15.6308 16.3175 15.4684 16.7097 15.1793 16.9988C14.8902 17.2879 14.4981 17.4503 14.0892 17.4503ZM5.67251 1.67531C5.60941 1.67515 5.54695 1.68801 5.48906 1.7131C5.43116 1.73819 5.37906 1.77496 5.33604 1.82112C5.29301 1.86727 5.25998 1.92182 5.23901 1.98133C5.21804 2.04084 5.20959 2.10405 5.21418 2.16698V15.9086C5.21418 16.0302 5.26246 16.1468 5.34842 16.2327C5.43437 16.3187 5.55095 16.367 5.67251 16.367H14.0892C14.2107 16.367 14.3273 16.3187 14.4133 16.2327C14.4992 16.1468 14.5475 16.0302 14.5475 15.9086V2.16698C14.5475 2.04542 14.4992 1.92884 14.4133 1.84289C14.3273 1.75694 14.2107 1.70865 14.0892 1.70865L5.67251 1.67531Z" fill="#FACD0D"/>
<path d="M9.99751 6.54198C10.076 6.54258 10.1521 6.56893 10.2142 6.61698C10.8225 7.05031 12.4392 8.38365 11.9725 9.95031C11.916 10.1659 11.7879 10.3559 11.6092 10.4891C11.4305 10.6223 11.2119 10.6909 10.9892 10.6836C10.8078 10.6836 10.6286 10.6438 10.4642 10.567L10.7058 11.2753C10.7152 11.2896 10.7204 11.3062 10.7208 11.3233C10.7212 11.3404 10.7168 11.3573 10.7082 11.372C10.6995 11.3868 10.6869 11.3988 10.6718 11.4067C10.6566 11.4147 10.6396 11.4182 10.6225 11.417H9.37251C9.35546 11.4182 9.3384 11.4147 9.32326 11.4067C9.30812 11.3988 9.2955 11.3868 9.28684 11.372C9.27817 11.3573 9.27379 11.3404 9.27421 11.3233C9.27462 11.3062 9.2798 11.2896 9.28918 11.2753L9.50584 10.567C9.34446 10.6439 9.16794 10.6837 8.98918 10.6836C8.76853 10.6902 8.55231 10.6209 8.37645 10.4875C8.2006 10.3541 8.07569 10.1645 8.02251 9.95031C7.55584 8.40031 9.17251 7.06698 9.78084 6.61698C9.8429 6.56893 9.91902 6.54258 9.99751 6.54198ZM9.99751 5.54198C9.69897 5.53473 9.40627 5.62547 9.16418 5.80031C8.33084 6.41698 6.38084 8.08365 7.03084 10.217C7.11983 10.5297 7.28526 10.8153 7.51222 11.0481C7.73917 11.2808 8.02051 11.4534 8.33084 11.5503C8.35222 11.6563 8.39169 11.7578 8.44751 11.8503C8.54318 12.0177 8.68148 12.1568 8.84835 12.2534C9.01522 12.35 9.20469 12.4007 9.39751 12.4003H10.6475C10.8403 12.4007 11.0298 12.35 11.1967 12.2534C11.3635 12.1568 11.5018 12.0177 11.5975 11.8503C11.6533 11.7578 11.6928 11.6563 11.7142 11.5503C12.013 11.4441 12.2818 11.2675 12.4979 11.0354C12.7141 10.8033 12.8711 10.5226 12.9558 10.217C13.5808 8.08365 11.6642 6.41698 10.8308 5.80031C10.5887 5.62547 10.2961 5.53473 9.99751 5.54198Z" fill="#FACD0D"/>
<path d="M12.0392 3.97531L12.5975 2.44198C12.6258 2.36596 12.6786 2.30148 12.7475 2.25865C12.8148 2.2062 12.8958 2.17436 12.9808 2.16698C13.0626 2.16355 13.1436 2.18381 13.2142 2.22531C13.2503 2.24409 13.2822 2.27003 13.308 2.30155C13.3338 2.33307 13.3529 2.36951 13.3642 2.40865L13.9308 3.94198H13.4142L13.3308 3.65865H12.6558L12.5558 3.97531H12.0392ZM12.7558 3.27531H13.2058L13.0142 2.65031L12.7558 3.27531Z" fill="#FACD0D"/>
<path d="M5.83084 15.592L6.38918 14.0503C6.41473 13.9593 6.47444 13.8817 6.55584 13.8336C6.63232 13.8135 6.7127 13.8135 6.78917 13.8336C6.87095 13.8302 6.95197 13.8505 7.02251 13.892C7.05865 13.9108 7.09058 13.9367 7.11637 13.9682C7.14216 13.9997 7.16126 14.0362 7.17251 14.0753L7.73918 15.617H7.22251L7.12251 15.292H6.44751L6.34751 15.617L5.83084 15.592ZM6.54751 14.892H6.99751L6.80584 14.2586L6.54751 14.892Z" fill="#FACD0D"/>
</g>
</g>
<defs>
<clipPath id="clip0_785_8403">
<rect width="20" height="20" fill="white"/>
</clipPath>
<clipPath id="clip1_785_8403">
<rect width="20" height="20" fill="white"/>
</clipPath>
</defs>
</svg>
