<svg width="80" height="19" viewBox="0 0 80 19" fill="none" xmlns="http://www.w3.org/2000/svg">
<g clip-path="url(#clip0_1163_10158)">
<path d="M23.5908 4.54014C24.5835 4.48175 25.5762 4.77372 26.3353 5.29927C26.6857 5.53284 26.9193 5.88321 27.0944 6.23357C27.2696 6.58394 27.328 6.9927 27.328 7.40146C27.328 7.81022 27.2696 8.21898 27.0944 8.62774C26.9193 9.03649 26.6857 9.32846 26.3353 9.62044C25.5178 10.2044 24.5835 10.438 23.5908 10.3796H22.4813V13.7664H20.4375V4.65693C21.4302 4.59854 22.4813 4.54014 23.5908 4.54014ZM23.5908 8.86131C23.9995 8.86131 24.4667 8.74452 24.8171 8.51095C24.9339 8.39416 25.0506 8.21898 25.1674 8.04379C25.2258 7.86861 25.2842 7.69343 25.2842 7.45985C25.2842 7.28467 25.2842 7.10949 25.1674 6.9343C25.109 6.75912 24.9922 6.58394 24.8171 6.46715C24.4667 6.23357 24.0579 6.05839 23.6492 6.11679H22.5397V8.80292L23.5908 8.86131Z" fill="#E0E0E4"/>
<path d="M30.5985 12.1314H34.1605V13.7664H28.5547V4.77372C28.8467 4.59854 29.197 4.54014 29.489 4.48175C29.6058 4.48175 29.781 4.48175 29.8978 4.54014C30.0145 4.59854 30.1313 4.65693 30.2481 4.77372C30.3649 4.89051 30.4233 5.0073 30.4817 5.12409C30.5401 5.24087 30.5401 5.41606 30.5401 5.53285L30.5985 12.1314Z" fill="#E0E0E4"/>
<path d="M40.9931 13.7664L40.3507 11.8394H37.0223L36.3799 13.7664H34.3945L37.6646 4.77372C38.015 4.59854 38.3653 4.48175 38.7741 4.48175C39.1245 4.48175 39.4164 4.59854 39.7084 4.77372C39.942 4.9489 40.1756 5.24087 40.2339 5.59124L43.212 13.708L40.9931 13.7664ZM37.5478 10.2628H39.8252L38.6573 6.58394L37.5478 10.2628Z" fill="#E0E0E4"/>
<path d="M50.2777 4.83212L47.358 10.2044V13.7664H45.3142V10.2044L42.3945 4.83212C42.6865 4.59854 43.0953 4.48175 43.504 4.48175C43.796 4.48175 44.088 4.54014 44.3799 4.65693C44.6135 4.77372 44.7887 4.9489 44.9055 5.24087L46.015 7.45985L46.4821 8.62774L46.9493 7.45985L48.3507 4.54014L50.2777 4.83212Z" fill="#E0E0E4"/>
<path d="M56.9342 6.23358H53.4305V8.74453H56.2918V10.3212H53.4305V13.7664H51.3867V4.65694H56.9342V6.23358Z" fill="#E0E0E4"/>
<path d="M60.2625 13.7664H58.2188V4.77372C58.5107 4.59854 58.8611 4.54014 59.1531 4.48175C59.2698 4.48175 59.445 4.48175 59.5618 4.54014C59.6786 4.59854 59.7954 4.65693 59.9122 4.77372C60.029 4.89051 60.0874 5.0073 60.1458 5.12409C60.2042 5.24087 60.2042 5.41606 60.2042 5.53285V13.7664H60.2625Z" fill="#E0E0E4"/>
<path d="M67.9703 4.65693H69.8973V13.7664H68.3206L63.9995 8.04379L64.0579 13.708H62.1309V4.77372C62.3644 4.59854 62.6564 4.48175 62.9484 4.48175C63.182 4.48175 63.4155 4.59854 63.6491 4.71533C63.8827 4.83212 64.0579 5.0073 64.1747 5.24087L68.0287 10.3212L67.9703 4.65693Z" fill="#E0E0E4"/>
<path d="M77.4306 13.7664L76.7882 11.8394H73.4598L72.8174 13.7664H70.832L74.1605 4.77372C74.5109 4.59854 74.8612 4.48175 75.2116 4.48175C75.562 4.48175 75.8539 4.59854 76.1459 4.77372C76.3795 4.9489 76.6131 5.24087 76.6714 5.59124L79.6495 13.708L77.4306 13.7664ZM73.9853 10.2628H76.2627L75.0948 6.58394L73.9853 10.2628Z" fill="#E0E0E4"/>
<path d="M23.5908 4.54014C24.5835 4.48175 25.5762 4.77372 26.3353 5.29927C26.6857 5.53284 26.9193 5.88321 27.0944 6.23357C27.2696 6.58394 27.328 6.9927 27.328 7.40146C27.328 7.81022 27.2696 8.21898 27.0944 8.62774C26.9193 9.03649 26.6857 9.32846 26.3353 9.62044C25.5178 10.2044 24.5835 10.438 23.5908 10.3796H22.4813V13.7664H20.4375V4.65693C21.4302 4.59854 22.4813 4.54014 23.5908 4.54014ZM23.5908 8.86131C23.9995 8.86131 24.4667 8.74452 24.8171 8.51095C24.9339 8.39416 25.0506 8.21898 25.1674 8.04379C25.2258 7.86861 25.2842 7.69343 25.2842 7.45985C25.2842 7.28467 25.2842 7.10949 25.1674 6.9343C25.109 6.75912 24.9922 6.58394 24.8171 6.46715C24.4667 6.23357 24.0579 6.05839 23.6492 6.11679H22.5397V8.80292L23.5908 8.86131Z" fill="#E0E0E4"/>
<path d="M30.5985 12.1314H34.1605V13.7664H28.5547V4.77372C28.8467 4.59854 29.197 4.54014 29.489 4.48175C29.6058 4.48175 29.781 4.48175 29.8978 4.54014C30.0145 4.59854 30.1313 4.65693 30.2481 4.77372C30.3649 4.89051 30.4233 5.0073 30.4817 5.12409C30.5401 5.24087 30.5401 5.41606 30.5401 5.53285L30.5985 12.1314Z" fill="#E0E0E4"/>
<path d="M40.9931 13.7664L40.3507 11.8394H37.0223L36.3799 13.7664H34.3945L37.6646 4.77372C38.015 4.59854 38.3653 4.48175 38.7741 4.48175C39.1245 4.48175 39.4164 4.59854 39.7084 4.77372C39.942 4.9489 40.1756 5.24087 40.2339 5.59124L43.212 13.708L40.9931 13.7664ZM37.5478 10.2628H39.8252L38.6573 6.58394L37.5478 10.2628Z" fill="#E0E0E4"/>
<path d="M50.2777 4.83212L47.358 10.2044V13.7664H45.3142V10.2044L42.3945 4.83212C42.6865 4.59854 43.0953 4.48175 43.504 4.48175C43.796 4.48175 44.088 4.54014 44.3799 4.65693C44.6135 4.77372 44.7887 4.9489 44.9055 5.24087L46.015 7.45985L46.4821 8.62774L46.9493 7.45985L48.3507 4.54014L50.2777 4.83212Z" fill="#E0E0E4"/>
<path d="M56.9342 6.23358H53.4305V8.74453H56.2918V10.3212H53.4305V13.7664H51.3867V4.65694H56.9342V6.23358Z" fill="#E0E0E4"/>
<path d="M60.2625 13.7664H58.2188V4.77372C58.5107 4.59854 58.8611 4.54014 59.1531 4.48175C59.2698 4.48175 59.445 4.48175 59.5618 4.54014C59.6786 4.59854 59.7954 4.65693 59.9122 4.77372C60.029 4.89051 60.0874 5.0073 60.1458 5.12409C60.2042 5.24087 60.2042 5.41606 60.2042 5.53285V13.7664H60.2625Z" fill="#E0E0E4"/>
<path d="M67.9703 4.65693H69.8973V13.7664H68.3206L63.9995 8.04379L64.0579 13.708H62.1309V4.77372C62.3644 4.59854 62.6564 4.48175 62.9484 4.48175C63.182 4.48175 63.4155 4.59854 63.6491 4.71533C63.8827 4.83212 64.0579 5.0073 64.1747 5.24087L68.0287 10.3212L67.9703 4.65693Z" fill="#E0E0E4"/>
<path d="M77.4306 13.7664L76.7882 11.8394H73.4598L72.8174 13.7664H70.832L74.1605 4.77372C74.5109 4.59854 74.8612 4.48175 75.2116 4.48175C75.562 4.48175 75.8539 4.59854 76.1459 4.77372C76.3795 4.9489 76.6131 5.24087 76.6714 5.59124L79.6495 13.708L77.4306 13.7664ZM73.9853 10.2628H76.2627L75.0948 6.58394L73.9853 10.2628Z" fill="#E0E0E4"/>
<path d="M8.75912 18.3796C13.6058 18.3796 17.5182 14.4672 17.5182 9.62044C17.5182 4.77372 13.6058 0.861313 8.75912 0.861313C3.91241 0.861313 0 4.77372 0 9.62044C0 14.4672 3.91241 18.3796 8.75912 18.3796Z" fill="url(#paint0_linear_1163_10158)"/>
<path d="M8.75921 17.2117C12.9636 17.2117 16.3504 13.8248 16.3504 9.62043C16.3504 5.41605 12.9636 2.02919 8.75921 2.02919C4.55483 2.02919 1.16797 5.41605 1.16797 9.62043C1.16797 13.8248 4.55483 17.2117 8.75921 17.2117Z" fill="#333333"/>
<path d="M8.75817 2.0292C10.2764 2.0292 11.7363 2.49635 12.9625 3.31387C14.1888 4.13139 15.1815 5.35767 15.7655 6.70073C16.3494 8.10219 16.4662 9.62044 16.1742 11.0803C15.8823 12.5401 15.1815 13.8832 14.072 14.9343C13.0209 15.9854 11.6779 16.7445 10.218 17.0365C8.75817 17.3285 7.23992 17.2117 5.83846 16.6277C4.437 16.0438 3.26912 15.1095 2.4516 13.8248C1.63408 12.5401 1.16693 11.1387 1.16693 9.62044C1.16693 8.62774 1.34211 7.63504 1.75087 6.70073C2.15963 5.76642 2.68518 4.94891 3.38591 4.24818C4.08664 3.54745 4.90415 2.9635 5.83846 2.61314C6.77277 2.20438 7.76547 2.0292 8.75817 2.0292ZM8.75817 1.67883C6.77277 1.67883 4.90415 2.43796 3.4443 3.72263C1.98445 5.06569 1.10853 6.87591 0.933352 8.80292C0.75817 10.7299 1.28372 12.7153 2.4516 14.292C3.61948 15.8686 5.31291 16.9197 7.23992 17.3285C9.16693 17.7372 11.1523 17.3869 12.8458 16.3358C14.5392 15.3431 15.7655 13.708 16.3494 11.8394C16.9334 9.9708 16.7582 7.92701 15.9407 6.17518C15.1231 4.42336 13.6633 3.0219 11.8531 2.26277C10.8604 1.91241 9.80926 1.67883 8.75817 1.67883Z" fill="#212121"/>
<path d="M15.9993 7.34306C15.649 6.29196 15.1234 5.29926 14.3643 4.48175L9.92634 7.69342L10.4519 2.26277C9.3424 2.02919 8.23291 2.02919 7.18181 2.26277L7.70736 7.69342L3.15261 4.48175C2.39349 5.29926 1.80955 6.29196 1.51758 7.34306L6.53948 9.62043L1.51758 11.8978C1.86794 12.9489 2.39349 13.9416 3.15261 14.7591L7.59057 11.6058L7.06502 17.0365C8.17451 17.2701 9.284 17.2701 10.3351 17.0365L9.80955 11.6058L14.2475 14.8175C15.0066 14 15.5906 13.0073 15.8825 11.9562L10.9774 9.62043L15.9993 7.34306Z" fill="url(#paint1_linear_1163_10158)"/>
<path d="M16.0006 7.45985V7.34306L11.0371 9.62044L16.059 11.8978V11.781L11.2123 9.62044L16.0006 7.45985Z" fill="url(#paint2_linear_1163_10158)"/>
<path d="M16.059 7.51825V7.45985V7.34306L11.0371 9.62044L16.059 11.8978V11.781V11.7226L11.4459 9.62044L16.059 7.51825Z" fill="url(#paint3_linear_1163_10158)"/>
<path d="M14.3659 4.48175L14.3075 4.42335L10.0447 7.45985L10.5703 2.20438H10.5119L9.98633 7.63503L14.3659 4.48175Z" fill="url(#paint4_linear_1163_10158)"/>
<path d="M14.3073 4.42336L14.1905 4.36496L10.1029 7.28467L10.5701 2.26277H10.5117H10.4533L9.92773 7.69343L14.3657 4.48175L14.3073 4.42336Z" fill="url(#paint5_linear_1163_10158)"/>
<path d="M7.12315 2.20438H7.00636L7.53191 7.45985L3.21074 4.42335L3.15234 4.48175L7.5903 7.69343L7.12315 2.20438Z" fill="url(#paint6_linear_1163_10158)"/>
<path d="M7.12315 2.20438H7.00636H6.88957L7.35672 7.22627L3.26913 4.30657L3.21074 4.42335L3.15234 4.48175L7.5903 7.69343L7.12315 2.20438Z" fill="url(#paint7_linear_1163_10158)"/>
<path d="M1.51758 7.34306V7.45985L6.3059 9.62044L1.51758 11.781V11.8978L6.53948 9.62044L1.51758 7.34306Z" fill="url(#paint8_linear_1163_10158)"/>
<path d="M1.51738 7.34306V7.45985L1.45898 7.51825L6.01373 9.62044L1.45898 11.7226V11.8394V11.9562L6.53928 9.67883L1.51738 7.34306Z" fill="url(#paint9_linear_1163_10158)"/>
<path d="M3.15234 14.7591L3.21074 14.8175L7.47351 11.7226L6.94796 16.9781H7.00636L7.53191 11.5474L3.15234 14.7591Z" fill="url(#paint10_linear_1163_10158)"/>
<path d="M3.15234 14.7591L3.21074 14.8175L3.32753 14.8759L7.41512 11.9562L6.94796 16.9197H7.00636H7.06475L7.5903 11.4891L3.15234 14.7591Z" fill="url(#paint11_linear_1163_10158)"/>
<path d="M10.3947 17.0365H10.5115L9.98593 11.7226L14.2487 14.7591L14.3071 14.7007L9.86914 11.4891L10.3947 17.0365Z" fill="url(#paint12_linear_1163_10158)"/>
<path d="M9.86914 11.5474L10.3947 16.9781H10.5115H10.6283L10.1611 11.9562L14.2487 14.8759L14.3071 14.8175L14.3655 14.7591L9.86914 11.5474Z" fill="url(#paint13_linear_1163_10158)"/>
<path d="M8.75878 15.0511C11.7369 15.0511 14.1894 12.5985 14.1894 9.62043C14.1894 6.64233 11.7369 4.18977 8.75878 4.18977C5.78068 4.18977 3.32812 6.64233 3.32812 9.62043C3.32812 12.5985 5.78068 15.0511 8.75878 15.0511Z" fill="#333333"/>
<path d="M8.75869 15.1679C7.6492 15.1679 6.5981 14.8175 5.6638 14.2336C4.72949 13.6496 4.02876 12.7737 3.62 11.7226C3.21124 10.7299 3.09445 9.56205 3.32803 8.51095C3.50321 7.45986 4.02876 6.46716 4.84628 5.70803C5.6638 4.94891 6.5981 4.42336 7.70759 4.18979C8.75869 3.95621 9.92657 4.073 10.9193 4.48176C11.912 4.89052 12.7879 5.59125 13.4302 6.52555C14.0142 7.45986 14.3645 8.51095 14.3645 9.62044C14.3645 11.0803 13.7806 12.4818 12.7295 13.5329C11.62 14.5839 10.2185 15.1679 8.75869 15.1679ZM8.75869 4.30657C7.70759 4.30657 6.71489 4.59855 5.83898 5.18249C4.96307 5.76643 4.32073 6.58395 3.91197 7.57665C3.50321 8.56935 3.38643 9.62044 3.56161 10.6131C3.73679 11.6642 4.26234 12.5985 5.02146 13.2993C5.78059 14.0584 6.71489 14.5256 7.70759 14.7591C8.75869 14.9343 9.80978 14.8759 10.7441 14.4672C11.7368 14.0584 12.5543 13.4161 13.1382 12.5402C13.7222 11.6642 14.0142 10.6715 14.0142 9.62044C14.0142 8.21898 13.4302 6.87592 12.4375 5.88322C11.5032 4.89052 10.1601 4.30657 8.75869 4.30657Z" fill="url(#paint14_linear_1163_10158)"/>
<path opacity="0.5" d="M8.75901 2.43795C10.7444 2.43795 12.613 3.19707 14.0729 4.59853C15.4743 5.99999 16.2919 7.86861 16.3503 9.85401V9.62043C16.3503 7.57664 15.5327 5.64963 14.1313 4.24817C12.7298 2.84671 10.7444 2.02919 8.75901 2.02919C6.77361 2.02919 4.78821 2.78831 3.32835 4.24817C1.8685 5.70802 1.10938 7.57664 1.10938 9.62043V9.79561C1.16777 7.81021 1.98529 5.9416 3.38675 4.54014C4.8466 3.13868 6.77361 2.37956 8.75901 2.43795Z" fill="white"/>
<path opacity="0.2" d="M8.75921 16.7445C6.77381 16.7445 4.90519 15.9854 3.50374 14.5839C2.04388 13.2409 1.22636 11.3723 1.16797 9.38686V9.62044C1.16797 11.6642 1.98549 13.5912 3.38695 14.9927C4.78841 16.3942 6.77381 17.2117 8.75921 17.2117C10.7446 17.2117 12.73 16.3942 14.1315 14.9927C15.5329 13.5912 16.3504 11.6058 16.3504 9.62044V9.38686C16.2921 11.3723 15.4745 13.2409 14.0147 14.6423C12.6716 15.9854 10.7446 16.7445 8.75921 16.7445Z" fill="black"/>
<path d="M9.63528 7.69343C9.92725 7.57664 9.98564 7.40146 9.75207 7.34307C9.51849 7.28467 9.28491 7.34307 9.05134 7.40146L8.64258 7.57664L9.28491 7.86861L9.63528 7.69343Z" fill="url(#paint15_radial_1163_10158)"/>
<path d="M8.75853 7.05109C8.64174 6.9927 8.52495 6.9927 8.40816 6.9927C8.29137 6.9927 8.17458 7.05109 8.0578 7.10949L7.82422 7.22628L8.40816 7.45985L8.75853 7.28467C8.93371 7.22628 8.93371 7.10949 8.75853 7.05109Z" fill="url(#paint16_radial_1163_10158)"/>
<path d="M11.7965 8.10219C11.5045 8.27737 9.81106 8.9781 9.22712 9.21168C9.11033 9.27007 9.05194 9.32847 8.99354 9.38686C8.93515 9.44525 8.87675 9.56204 8.87675 9.67883C8.87675 9.67883 8.87675 9.67883 8.87675 9.73722C8.87675 11.1387 8.87675 12.4817 8.81836 13.0657C8.81836 13.1241 8.81836 13.1825 8.87675 13.2409C8.87675 13.2993 8.93515 13.2993 8.99354 13.3577C9.05194 13.3577 9.11033 13.4161 9.16872 13.3577C9.22712 13.3577 9.28551 13.3577 9.28551 13.2993L9.34391 13.2409C9.63588 12.9489 11.6797 11.6058 11.6797 11.6058C11.6797 11.6058 11.9132 11.5474 11.9716 11.0803L12.322 8.04379C12.322 8.10219 12.2052 7.927 11.7965 8.10219ZM11.3293 11.0803C11.2125 11.2555 11.0957 11.4307 10.9205 11.5474V11.8978L10.4534 12.1314V11.8394C10.2782 11.9562 10.0446 11.9562 9.86945 11.9562V11.3723C9.98624 11.4307 10.103 11.4307 10.2198 11.3723C10.3366 11.3723 10.5118 11.3139 10.6286 11.2555C10.8038 11.1387 10.9205 11.0219 10.9205 10.9051V10.8467H10.8622H10.7454L10.5118 10.7299H10.103C10.0446 10.7299 9.98624 10.6715 9.92785 10.6131C9.86945 10.5547 9.86945 10.438 9.86945 10.3212C9.86945 10.146 9.92785 9.9708 10.0446 9.79562C10.1614 9.62044 10.2782 9.44525 10.4534 9.32846V9.03649L10.8622 8.80292V9.09489C10.9789 9.03649 11.1541 9.03649 11.3293 9.03649V9.62044C11.2125 9.62044 11.0957 9.62044 11.0373 9.62044C10.9205 9.62044 10.8038 9.67883 10.687 9.73722C10.5118 9.85401 10.4534 9.91241 10.4534 10.0292C10.4534 10.146 10.4534 10.146 10.5118 10.0876H10.9205C11.0957 10.0292 11.2125 10.0292 11.3877 10.0876C11.5045 10.146 11.5629 10.2628 11.5629 10.438C11.5045 10.6715 11.4461 10.8467 11.3293 11.0803Z" fill="url(#paint17_radial_1163_10158)"/>
<path d="M8.40934 9.21168L5.89839 7.92701C5.78161 7.86861 5.72321 7.86861 5.60642 7.86861C5.48964 7.86861 5.43124 7.86861 5.31445 7.92701L5.54803 10.9635C5.54803 11.4307 5.78161 11.4891 5.78161 11.4891C5.78161 11.4891 7.59183 12.7737 8.05898 13.2409L8.17577 13.2993C8.23416 13.2993 8.23416 13.3577 8.29255 13.3577C8.35095 13.3577 8.35095 13.3577 8.40934 13.3577C8.46774 13.3577 8.46774 13.2993 8.52613 13.2993C8.52613 13.2409 8.58453 13.2409 8.58453 13.1825L8.70131 9.73723C8.70131 9.73723 8.70131 9.73723 8.70131 9.67883C8.70131 9.56204 8.64292 9.50365 8.58453 9.38686C8.52613 9.32847 8.46774 9.27007 8.40934 9.21168ZM7.76701 12.1314C7.59183 12.1314 7.41664 12.073 7.29985 11.9562C7.06628 11.781 6.8327 11.6058 6.65752 11.3723C6.48234 11.1387 6.36555 10.8467 6.30715 10.4964L6.07358 10.3796V10.0292L6.24876 10.146V9.9708L6.07358 9.85402V9.50365L6.30715 9.62044C6.30715 9.50365 6.36555 9.44526 6.42394 9.38686C6.48234 9.32847 6.54073 9.27007 6.65752 9.21168C6.77431 9.21168 6.89109 9.15329 6.94949 9.21168C7.06628 9.21168 7.12467 9.27007 7.24146 9.32847C7.41664 9.44526 7.53343 9.56204 7.70861 9.67883V10.2628C7.59182 10.146 7.47504 10.0292 7.35825 9.91241C7.18307 9.79562 7.00788 9.79562 6.8911 9.91241L7.35825 10.146V10.4964L6.8327 10.146V10.2044V10.2628L7.35825 10.5547V10.9051L6.8911 10.6131C6.94949 10.8467 7.12467 11.0803 7.35825 11.1971C7.41664 11.2555 7.47504 11.2555 7.53343 11.2555C7.59182 11.2555 7.70861 11.2555 7.76701 11.2555V12.1314Z" fill="url(#paint18_radial_1163_10158)"/>
<path d="M11.8543 7.69343C11.9127 7.63504 11.9711 7.57664 11.9711 7.51825C11.9711 7.45986 11.9711 7.40146 11.9127 7.34307L11.8543 7.28467L9.34336 6.17519C9.16818 6.11679 8.993 6.11679 8.75942 6.11679C8.58424 6.11679 8.40906 6.17518 8.23388 6.23358L5.72293 7.22628C5.72293 7.22628 5.43096 7.40146 5.89811 7.75183L8.52585 9.0365C8.64263 9.09489 8.75942 9.09489 8.87621 9.09489C8.993 9.09489 9.10979 9.0365 9.22658 8.9781C9.57694 8.68613 11.8543 7.69343 11.8543 7.69343ZM8.81782 8.45256L8.52585 8.33577L8.75942 8.21898C8.81782 8.21898 8.81782 8.16059 8.75942 8.10219L7.47475 7.57664C7.41636 7.57664 7.41636 7.57664 7.35796 7.57664C7.29957 7.57664 7.29957 7.57664 7.24117 7.57664L7.0076 7.63504L6.71563 7.51825L7.29957 7.22628L7.0076 7.10949L7.29957 6.9927L7.59154 7.10949L7.76672 6.9927L7.47475 6.87591L7.76672 6.75913L8.05869 6.87591C8.40906 6.70073 8.81782 6.64234 9.22658 6.75913C9.46015 6.81752 9.57694 6.93431 9.46015 7.10949C9.75212 6.9927 10.0441 6.9927 10.3361 7.10949C10.7448 7.28467 10.8032 7.51825 10.2193 7.75183H10.1609L10.4529 7.86862L10.1609 8.0438L9.86891 7.92701L9.69373 8.0438L9.9857 8.16059L9.69373 8.27737L9.34336 8.16059L8.81782 8.45256Z" fill="url(#paint19_radial_1163_10158)"/>
<path d="M9.63528 7.69343C9.92725 7.57664 9.98564 7.40146 9.75207 7.34307C9.51849 7.28467 9.28491 7.34307 9.05134 7.40146L8.64258 7.57664L9.28491 7.86861L9.63528 7.69343Z" fill="url(#paint20_linear_1163_10158)"/>
<path d="M8.75853 7.05109C8.64174 6.9927 8.52495 6.9927 8.40816 6.9927C8.29137 6.9927 8.17458 7.05109 8.0578 7.10949L7.82422 7.22628L8.40816 7.45985L8.75853 7.28467C8.93371 7.22628 8.93371 7.10949 8.75853 7.05109Z" fill="url(#paint21_linear_1163_10158)"/>
<path d="M11.7965 8.10219C11.5045 8.27737 9.81106 8.9781 9.22712 9.21168C9.11033 9.27007 9.05194 9.32847 8.99354 9.38686C8.93515 9.44525 8.87675 9.56204 8.87675 9.67883C8.87675 9.67883 8.87675 9.67883 8.87675 9.73722C8.87675 11.1387 8.87675 12.4817 8.81836 13.0657C8.81836 13.1241 8.81836 13.1825 8.87675 13.2409C8.87675 13.2993 8.93515 13.2993 8.99354 13.3577C9.05194 13.3577 9.11033 13.4161 9.16872 13.3577C9.22712 13.3577 9.28551 13.3577 9.28551 13.2993L9.34391 13.2409C9.63588 12.9489 11.6797 11.6058 11.6797 11.6058C11.6797 11.6058 11.9132 11.5474 11.9716 11.0803L12.322 8.04379C12.322 8.10219 12.2052 7.927 11.7965 8.10219ZM11.3293 11.0803C11.2125 11.2555 11.0957 11.4307 10.9205 11.5474V11.8978L10.4534 12.1314V11.8394C10.2782 11.9562 10.0446 11.9562 9.86945 11.9562V11.3723C9.98624 11.4307 10.103 11.4307 10.2198 11.3723C10.3366 11.3723 10.5118 11.3139 10.6286 11.2555C10.8038 11.1387 10.9205 11.0219 10.9205 10.9051V10.8467H10.8622H10.7454L10.5118 10.7299H10.103C10.0446 10.7299 9.98624 10.6715 9.92785 10.6131C9.86945 10.5547 9.86945 10.438 9.86945 10.3212C9.86945 10.146 9.92785 9.9708 10.0446 9.79562C10.1614 9.62044 10.2782 9.44525 10.4534 9.32846V9.03649L10.8622 8.80292V9.09489C10.9789 9.03649 11.1541 9.03649 11.3293 9.03649V9.62044C11.2125 9.62044 11.0957 9.62044 11.0373 9.62044C10.9205 9.62044 10.8038 9.67883 10.687 9.73722C10.5118 9.85401 10.4534 9.91241 10.4534 10.0292C10.4534 10.146 10.4534 10.146 10.5118 10.0876H10.9205C11.0957 10.0292 11.2125 10.0292 11.3877 10.0876C11.5045 10.146 11.5629 10.2628 11.5629 10.438C11.5045 10.6715 11.4461 10.8467 11.3293 11.0803Z" fill="url(#paint22_linear_1163_10158)"/>
<path d="M8.40934 9.21168L5.89839 7.92701C5.78161 7.86861 5.72321 7.86861 5.60642 7.86861C5.48964 7.86861 5.43124 7.86861 5.31445 7.92701L5.54803 10.9635C5.54803 11.4307 5.78161 11.4891 5.78161 11.4891C5.78161 11.4891 7.59183 12.7737 8.05898 13.2409L8.17577 13.2993C8.23416 13.2993 8.23416 13.3577 8.29255 13.3577C8.35095 13.3577 8.35095 13.3577 8.40934 13.3577C8.46774 13.3577 8.46774 13.2993 8.52613 13.2993C8.52613 13.2409 8.58453 13.2409 8.58453 13.1825L8.70131 9.73723C8.70131 9.73723 8.70131 9.73723 8.70131 9.67883C8.70131 9.56204 8.64292 9.50365 8.58453 9.38686C8.52613 9.32847 8.46774 9.27007 8.40934 9.21168ZM7.76701 12.1314C7.59183 12.1314 7.41664 12.073 7.29985 11.9562C7.06628 11.781 6.8327 11.6058 6.65752 11.3723C6.48234 11.1387 6.36555 10.8467 6.30715 10.4964L6.07358 10.3796V10.0292L6.24876 10.146V9.9708L6.07358 9.85402V9.50365L6.30715 9.62044C6.30715 9.50365 6.36555 9.44526 6.42394 9.38686C6.48234 9.32847 6.54073 9.27007 6.65752 9.21168C6.77431 9.21168 6.89109 9.15329 6.94949 9.21168C7.06628 9.21168 7.12467 9.27007 7.24146 9.32847C7.41664 9.44526 7.53343 9.56204 7.70861 9.67883V10.2628C7.59182 10.146 7.47504 10.0292 7.35825 9.91241C7.18307 9.79562 7.00788 9.79562 6.8911 9.91241L7.35825 10.146V10.4964L6.8327 10.146V10.2044V10.2628L7.35825 10.5547V10.9051L6.8911 10.6131C6.94949 10.8467 7.12467 11.0803 7.35825 11.1971C7.41664 11.2555 7.47504 11.2555 7.53343 11.2555C7.59182 11.2555 7.70861 11.2555 7.76701 11.2555V12.1314Z" fill="url(#paint23_linear_1163_10158)"/>
<path d="M11.8543 7.69343C11.9127 7.63504 11.9711 7.57664 11.9711 7.51825C11.9711 7.45986 11.9711 7.40146 11.9127 7.34307L11.8543 7.28467L9.34336 6.17519C9.16818 6.11679 8.993 6.11679 8.75942 6.11679C8.58424 6.11679 8.40906 6.17518 8.23388 6.23358L5.72293 7.22628C5.72293 7.22628 5.43096 7.40146 5.89811 7.75183L8.52585 9.0365C8.64263 9.09489 8.75942 9.09489 8.87621 9.09489C8.993 9.09489 9.10979 9.0365 9.22658 8.9781C9.57694 8.68613 11.8543 7.69343 11.8543 7.69343ZM8.81782 8.45256L8.52585 8.33577L8.75942 8.21898C8.81782 8.21898 8.81782 8.16059 8.75942 8.10219L7.47475 7.57664C7.41636 7.57664 7.41636 7.57664 7.35796 7.57664C7.29957 7.57664 7.29957 7.57664 7.24117 7.57664L7.0076 7.63504L6.71563 7.51825L7.29957 7.22628L7.0076 7.10949L7.29957 6.9927L7.59154 7.10949L7.76672 6.9927L7.47475 6.87591L7.76672 6.75913L8.05869 6.87591C8.40906 6.70073 8.81782 6.64234 9.22658 6.75913C9.46015 6.81752 9.57694 6.93431 9.46015 7.10949C9.75212 6.9927 10.0441 6.9927 10.3361 7.10949C10.7448 7.28467 10.8032 7.51825 10.2193 7.75183H10.1609L10.4529 7.86862L10.1609 8.0438L9.86891 7.92701L9.69373 8.0438L9.9857 8.16059L9.69373 8.27737L9.34336 8.16059L8.81782 8.45256Z" fill="url(#paint24_linear_1163_10158)"/>
</g>
<defs>
<linearGradient id="paint0_linear_1163_10158" x1="17.5177" y1="9.62044" x2="0" y2="9.62044" gradientUnits="userSpaceOnUse">
<stop stop-color="#BE6D00"/>
<stop offset="0.19" stop-color="#D09222"/>
<stop offset="0.44" stop-color="#E4BD4A"/>
<stop offset="0.67" stop-color="#F3DB67"/>
<stop offset="0.86" stop-color="#FCEE79"/>
<stop offset="1" stop-color="#FFF57F"/>
</linearGradient>
<linearGradient id="paint1_linear_1163_10158" x1="8.75396" y1="17.6826" x2="8.75396" y2="1.551" gradientUnits="userSpaceOnUse">
<stop offset="0.15" stop-color="#5C19B1"/>
<stop offset="1" stop-color="#731EDF"/>
</linearGradient>
<linearGradient id="paint2_linear_1163_10158" x1="13.5188" y1="17.6827" x2="13.5188" y2="1.55106" gradientUnits="userSpaceOnUse">
<stop offset="0.15" stop-color="#5C19B1"/>
<stop offset="1" stop-color="#731EDF"/>
</linearGradient>
<linearGradient id="paint3_linear_1163_10158" x1="13.547" y1="1.46412" x2="13.547" y2="17.7768" gradientUnits="userSpaceOnUse">
<stop stop-color="#BE6D00"/>
<stop offset="0.19" stop-color="#D09222"/>
<stop offset="0.44" stop-color="#E4BD4A"/>
<stop offset="0.67" stop-color="#F3DB67"/>
<stop offset="0.86" stop-color="#FCEE79"/>
<stop offset="1" stop-color="#FFF57F"/>
</linearGradient>
<linearGradient id="paint4_linear_1163_10158" x1="12.1097" y1="17.6827" x2="12.1097" y2="1.55112" gradientUnits="userSpaceOnUse">
<stop offset="0.15" stop-color="#5C19B1"/>
<stop offset="1" stop-color="#731EDF"/>
</linearGradient>
<linearGradient id="paint5_linear_1163_10158" x1="12.1109" y1="-7.88742" x2="12.1109" y2="8.42528" gradientUnits="userSpaceOnUse">
<stop stop-color="#BE6D00"/>
<stop offset="0.19" stop-color="#D09222"/>
<stop offset="0.44" stop-color="#E4BD4A"/>
<stop offset="0.67" stop-color="#F3DB67"/>
<stop offset="0.86" stop-color="#FCEE79"/>
<stop offset="1" stop-color="#FFF57F"/>
</linearGradient>
<linearGradient id="paint6_linear_1163_10158" x1="5.40379" y1="17.6826" x2="5.40379" y2="1.551" gradientUnits="userSpaceOnUse">
<stop offset="0.15" stop-color="#5C19B1"/>
<stop offset="1" stop-color="#731EDF"/>
</linearGradient>
<linearGradient id="paint7_linear_1163_10158" x1="5.40379" y1="-7.88024" x2="5.40379" y2="8.43246" gradientUnits="userSpaceOnUse">
<stop stop-color="#BE6D00"/>
<stop offset="0.19" stop-color="#D09222"/>
<stop offset="0.44" stop-color="#E4BD4A"/>
<stop offset="0.67" stop-color="#F3DB67"/>
<stop offset="0.86" stop-color="#FCEE79"/>
<stop offset="1" stop-color="#FFF57F"/>
</linearGradient>
<linearGradient id="paint8_linear_1163_10158" x1="4.02146" y1="17.6826" x2="4.02146" y2="1.55106" gradientUnits="userSpaceOnUse">
<stop offset="0.15" stop-color="#5C19B1"/>
<stop offset="1" stop-color="#731EDF"/>
</linearGradient>
<linearGradient id="paint9_linear_1163_10158" x1="3.98313" y1="1.47136" x2="3.98313" y2="17.7841" gradientUnits="userSpaceOnUse">
<stop stop-color="#BE6D00"/>
<stop offset="0.19" stop-color="#D09222"/>
<stop offset="0.44" stop-color="#E4BD4A"/>
<stop offset="0.67" stop-color="#F3DB67"/>
<stop offset="0.86" stop-color="#FCEE79"/>
<stop offset="1" stop-color="#FFF57F"/>
</linearGradient>
<linearGradient id="paint10_linear_1163_10158" x1="5.41085" y1="17.6826" x2="5.41085" y2="1.55106" gradientUnits="userSpaceOnUse">
<stop offset="0.15" stop-color="#5C19B1"/>
<stop offset="1" stop-color="#731EDF"/>
</linearGradient>
<linearGradient id="paint11_linear_1163_10158" x1="5.41085" y1="10.8084" x2="5.41085" y2="27.1211" gradientUnits="userSpaceOnUse">
<stop stop-color="#BE6D00"/>
<stop offset="0.19" stop-color="#D09222"/>
<stop offset="0.44" stop-color="#E4BD4A"/>
<stop offset="0.67" stop-color="#F3DB67"/>
<stop offset="0.86" stop-color="#FCEE79"/>
<stop offset="1" stop-color="#FFF57F"/>
</linearGradient>
<linearGradient id="paint12_linear_1163_10158" x1="12.1065" y1="17.6827" x2="12.1065" y2="1.55107" gradientUnits="userSpaceOnUse">
<stop offset="0.15" stop-color="#5C19B1"/>
<stop offset="1" stop-color="#731EDF"/>
</linearGradient>
<linearGradient id="paint13_linear_1163_10158" x1="12.1206" y1="10.8157" x2="12.1206" y2="27.1284" gradientUnits="userSpaceOnUse">
<stop stop-color="#BE6D00"/>
<stop offset="0.19" stop-color="#D09222"/>
<stop offset="0.44" stop-color="#E4BD4A"/>
<stop offset="0.67" stop-color="#F3DB67"/>
<stop offset="0.86" stop-color="#FCEE79"/>
<stop offset="1" stop-color="#FFF57F"/>
</linearGradient>
<linearGradient id="paint14_linear_1163_10158" x1="8.75723" y1="15.1763" x2="8.75723" y2="4.065" gradientUnits="userSpaceOnUse">
<stop stop-color="#BE6D00"/>
<stop offset="0.19" stop-color="#D09222"/>
<stop offset="0.44" stop-color="#E4BD4A"/>
<stop offset="0.67" stop-color="#F3DB67"/>
<stop offset="0.86" stop-color="#FCEE79"/>
<stop offset="1" stop-color="#FFF57F"/>
</linearGradient>
<radialGradient id="paint15_radial_1163_10158" cx="0" cy="0" r="1" gradientUnits="userSpaceOnUse" gradientTransform="translate(9.31681 7.59218) scale(0.470841)">
<stop stop-color="#BE6D00"/>
<stop offset="0.19" stop-color="#D09222"/>
<stop offset="0.44" stop-color="#E4BD4A"/>
<stop offset="0.67" stop-color="#F3DB67"/>
<stop offset="0.86" stop-color="#FCEE79"/>
<stop offset="1" stop-color="#FFF57F"/>
</radialGradient>
<radialGradient id="paint16_radial_1163_10158" cx="0" cy="0" r="1" gradientUnits="userSpaceOnUse" gradientTransform="translate(8.37393 7.24472) scale(0.405577)">
<stop stop-color="#BE6D00"/>
<stop offset="0.19" stop-color="#D09222"/>
<stop offset="0.44" stop-color="#E4BD4A"/>
<stop offset="0.67" stop-color="#F3DB67"/>
<stop offset="0.86" stop-color="#FCEE79"/>
<stop offset="1" stop-color="#FFF57F"/>
</radialGradient>
<radialGradient id="paint17_radial_1163_10158" cx="0" cy="0" r="1" gradientUnits="userSpaceOnUse" gradientTransform="translate(10.5875 10.6937) scale(2.26826)">
<stop stop-color="#BE6D00"/>
<stop offset="0.19" stop-color="#D09222"/>
<stop offset="0.44" stop-color="#E4BD4A"/>
<stop offset="0.67" stop-color="#F3DB67"/>
<stop offset="0.86" stop-color="#FCEE79"/>
<stop offset="1" stop-color="#FFF57F"/>
</radialGradient>
<radialGradient id="paint18_radial_1163_10158" cx="0" cy="0" r="1" gradientUnits="userSpaceOnUse" gradientTransform="translate(7.0288 10.6064) scale(2.27451)">
<stop stop-color="#BE6D00"/>
<stop offset="0.19" stop-color="#D09222"/>
<stop offset="0.44" stop-color="#E4BD4A"/>
<stop offset="0.67" stop-color="#F3DB67"/>
<stop offset="0.86" stop-color="#FCEE79"/>
<stop offset="1" stop-color="#FFF57F"/>
</radialGradient>
<radialGradient id="paint19_radial_1163_10158" cx="0" cy="0" r="1" gradientUnits="userSpaceOnUse" gradientTransform="translate(8.83982 7.59158) scale(2.45775)">
<stop stop-color="#BE6D00"/>
<stop offset="0.19" stop-color="#D09222"/>
<stop offset="0.44" stop-color="#E4BD4A"/>
<stop offset="0.67" stop-color="#F3DB67"/>
<stop offset="0.86" stop-color="#FCEE79"/>
<stop offset="1" stop-color="#FFF57F"/>
</radialGradient>
<linearGradient id="paint20_linear_1163_10158" x1="9.30074" y1="13.3726" x2="9.30074" y2="6.11445" gradientUnits="userSpaceOnUse">
<stop stop-color="#BE6D00"/>
<stop offset="0.19" stop-color="#D09222"/>
<stop offset="0.44" stop-color="#E4BD4A"/>
<stop offset="0.67" stop-color="#F3DB67"/>
<stop offset="0.86" stop-color="#FCEE79"/>
<stop offset="1" stop-color="#FFF57F"/>
</linearGradient>
<linearGradient id="paint21_linear_1163_10158" x1="8.35175" y1="13.3727" x2="8.35175" y2="6.11457" gradientUnits="userSpaceOnUse">
<stop stop-color="#BE6D00"/>
<stop offset="0.19" stop-color="#D09222"/>
<stop offset="0.44" stop-color="#E4BD4A"/>
<stop offset="0.67" stop-color="#F3DB67"/>
<stop offset="0.86" stop-color="#FCEE79"/>
<stop offset="1" stop-color="#FFF57F"/>
</linearGradient>
<linearGradient id="paint22_linear_1163_10158" x1="10.5771" y1="13.3727" x2="10.5771" y2="6.11457" gradientUnits="userSpaceOnUse">
<stop stop-color="#BE6D00"/>
<stop offset="0.19" stop-color="#D09222"/>
<stop offset="0.44" stop-color="#E4BD4A"/>
<stop offset="0.67" stop-color="#F3DB67"/>
<stop offset="0.86" stop-color="#FCEE79"/>
<stop offset="1" stop-color="#FFF57F"/>
</linearGradient>
<linearGradient id="paint23_linear_1163_10158" x1="7.02237" y1="13.3654" x2="7.02237" y2="6.10721" gradientUnits="userSpaceOnUse">
<stop stop-color="#BE6D00"/>
<stop offset="0.19" stop-color="#D09222"/>
<stop offset="0.44" stop-color="#E4BD4A"/>
<stop offset="0.67" stop-color="#F3DB67"/>
<stop offset="0.86" stop-color="#FCEE79"/>
<stop offset="1" stop-color="#FFF57F"/>
</linearGradient>
<linearGradient id="paint24_linear_1163_10158" x1="8.83861" y1="13.3727" x2="8.83861" y2="6.11463" gradientUnits="userSpaceOnUse">
<stop stop-color="#BE6D00"/>
<stop offset="0.19" stop-color="#D09222"/>
<stop offset="0.44" stop-color="#E4BD4A"/>
<stop offset="0.67" stop-color="#F3DB67"/>
<stop offset="0.86" stop-color="#FCEE79"/>
<stop offset="1" stop-color="#FFF57F"/>
</linearGradient>
<clipPath id="clip0_1163_10158">
<rect width="80" height="17.5182" fill="white" transform="translate(0 0.861313)"/>
</clipPath>
</defs>
</svg>
