<svg width="35" height="35" viewBox="0 0 35 35" fill="none" xmlns="http://www.w3.org/2000/svg">
<path fill-rule="evenodd" clip-rule="evenodd" d="M17.5 35C27.165 35 35 27.165 35 17.5C35 7.83502 27.165 0 17.5 0C7.83502 0 0 7.83502 0 17.5C0 27.165 7.83502 35 17.5 35ZM16.4596 8.55875C17.4851 7.56071 18.8759 7 20.3261 7H23.4C23.547 7 23.666 7.11592 23.666 7.2589V11.1712C23.666 11.3142 23.547 11.4301 23.4 11.4301H20.3261C20.0832 11.4301 19.85 11.5241 19.6782 11.6913C19.5064 11.8586 19.4099 12.0854 19.4099 12.3219V15.2849H23.3668C23.5399 15.2849 23.6668 15.4433 23.6249 15.6067L22.6199 19.519C22.5904 19.6342 22.484 19.7151 22.3619 19.7151H19.4099V27.7411C19.4099 27.8841 19.2908 28 19.1438 28H15.1241C14.9772 28 14.8581 27.8841 14.8581 27.7411V19.7151H11.932C11.7851 19.7151 11.666 19.5992 11.666 19.4562V15.5438C11.666 15.4008 11.7851 15.2849 11.932 15.2849H14.8581V12.3219C14.8581 10.9105 15.4343 9.55681 16.4596 8.55875Z" fill="#9795A6"/>
</svg>
