<svg width="30" height="30" viewBox="0 0 30 30" fill="none" xmlns="http://www.w3.org/2000/svg">
<rect x="0.5" y="0.5" width="29" height="29" rx="14.5" fill="#18152C"/>
<g clip-path="url(#clip0_800_8215)">
<path d="M11.174 17.348H9.609C8.91705 17.348 8.25344 17.0731 7.76416 16.5838C7.27488 16.0946 7 15.4309 7 14.739C7 14.047 7.27488 13.3834 7.76416 12.8942C8.25344 12.4049 8.91705 12.13 9.609 12.13H11.174M11.174 17.348V12.13M11.174 17.348C14.236 17.348 17.229 18.254 19.776 19.952L20.566 20.478V9L19.776 9.526C17.2284 11.2238 14.2355 12.1298 11.174 12.13M11.174 17.348C11.1737 18.031 11.3122 18.707 11.5813 19.3348C11.8503 19.9626 12.2442 20.5291 12.739 21M22.652 13.696V15.783" stroke="#04C000" stroke-width="1.069" stroke-linecap="round" stroke-linejoin="round"/>
</g>
<rect x="0.5" y="0.5" width="29" height="29" rx="14.5" stroke="#04C000"/>
<defs>
<clipPath id="clip0_800_8215">
<rect width="18" height="14" fill="white" transform="translate(6 8)"/>
</clipPath>
</defs>
</svg>
