<svg width="20" height="20" viewBox="0 0 20 20" fill="none" xmlns="http://www.w3.org/2000/svg">
<g clip-path="url(#clip0_2015_10618)">
<path d="M19.375 9.375H17.4719C17.1712 5.73188 14.2678 2.83125 10.625 2.53V0.625C10.625 0.28 10.345 0 10 0C9.655 0 9.375 0.28 9.375 0.625V2.53C5.7325 2.83125 2.82875 5.73188 2.52781 9.375H0.625C0.28 9.375 0 9.655 0 10C0 10.345 0.28 10.625 0.625 10.625H2.52781C2.82875 14.2678 5.7325 17.1687 9.375 17.47V19.375C9.375 19.72 9.655 20 10 20C10.345 20 10.625 19.72 10.625 19.375V17.47C14.2678 17.1687 17.1712 14.2678 17.4719 10.625H19.375C19.72 10.625 20 10.345 20 10C20 9.655 19.72 9.375 19.375 9.375ZM9.375 3.78094V9.375H3.78031C4.07344 6.42188 6.42188 4.07406 9.375 3.78094ZM3.78031 10.625H9.375V16.2191C6.42188 15.9259 4.07344 13.5781 3.78031 10.625ZM10.625 16.2191V10.625H16.2197C15.9266 13.5781 13.5781 15.9259 10.625 16.2191ZM10.625 9.375V3.78094C13.5781 4.07406 15.9266 6.42188 16.2197 9.375H10.625Z" fill="#F2994A"/>
</g>
<defs>
<clipPath id="clip0_2015_10618">
<rect width="20" height="20" fill="white"/>
</clipPath>
</defs>
</svg>
