<svg width="17" height="22" viewBox="0 0 17 22" fill="none" xmlns="http://www.w3.org/2000/svg">
<path fill-rule="evenodd" clip-rule="evenodd" d="M8.50249 19.7083C12.2235 19.7083 14.9791 17.1057 14.9791 13.5208C14.9791 11.3785 13.9769 10.3228 12.5244 8.79277L12.5047 8.772C11.1844 7.38131 9.62791 5.69962 9.16037 2.76137C8.5539 3.11818 7.89471 3.66598 7.4082 4.37385C6.68712 5.423 6.35738 6.78825 7.21057 8.4946C7.76298 9.5994 7.92218 11.0067 6.9566 11.9723C6.35401 12.5748 5.34137 12.9813 4.24679 12.51C3.55758 12.2131 3.00617 11.6342 2.56235 10.8689C2.0422 11.5165 1.68749 12.4645 1.68747 13.5208C1.68739 17.047 4.70128 19.7083 8.50249 19.7083ZM10.4099 1.491C10.3941 1.17498 10.1378 0.918258 9.83048 0.993774C7.68777 1.52038 3.77523 4.6986 5.98074 9.10953C6.41466 9.97736 6.33931 10.645 5.98433 11C5.39802 11.5863 4.26624 11.6271 3.34806 9.33642C3.22801 9.03693 2.89223 8.86979 2.61236 9.03034C1.19409 9.84401 0.312514 11.6525 0.312469 13.5208C0.312365 17.9474 4.09104 21.0833 8.50249 21.0833C12.9139 21.0833 16.3541 17.9323 16.3541 13.5208C16.3541 10.827 15.0101 9.41263 13.5988 7.92733C12.1229 6.37411 10.4099 4.74091 10.4099 1.491Z" fill="#FACD0D"/>
</svg>
