<svg width="80" height="80" fill="none" xmlns="http://www.w3.org/2000/svg"><g clip-path="url(#a)"><path d="M39.999 80c22.09 0 39.999-17.908 39.999-40 0-22.091-17.908-40-40-40C17.909 0 0 17.909 0 40c0 22.092 17.908 40 39.999 40Z" fill="url(#b)"/><path fill-rule="evenodd" clip-rule="evenodd" d="M37.049 55.933h5.314a.367.367 0 0 0 .37-.363V31.627h3.713c2.49-4.45 6.935-6.124 6.935-6.124H27.594s3.858 1.196 5.274 6.124h3.81V55.57c0 .2.166.363.371.363Z" fill="#F7F6F6"/><path fill-rule="evenodd" clip-rule="evenodd" d="m66.372 33.732 2.54-4.784s-3.42-3.35-9.475-3.35c-8.791 0-13.675 6.794-13.968 15.694-.283 8.708 5.763 14.928 13.48 15.024 7.716.096 11.135-3.636 11.135-3.636V39.225a.528.528 0 0 0-.528-.526l-8.703-.172a.525.525 0 0 0-.547.516l-.078 4.584a.526.526 0 0 0 .537.536h2.725c.293 0 .538.24.538.526v5.024s-11.976 5.168-12.21-9.282c-.098-6.029 4.2-9.091 7.912-9.282 3.458-.182 6.642 2.583 6.642 2.583Z" fill="#F7F6F6"/><path d="M40.009.297C18.08.297.303 18.067.303 40c0 21.933 17.777 39.704 39.706 39.704 21.928 0 39.706-17.77 39.706-39.704C79.715 18.067 61.937.297 40.009.297Zm0 2.296c20.658 0 37.4 16.747 37.4 37.407 0 7.282-2.08 14.077-5.675 19.828-1.474.823-6.407 2.976-17.63 2.823-13.382-.182-17.407-3.187-29.812-3.187-7.13 0-13.05 1.876-14.622 2.421A37.246 37.246 0 0 1 2.608 40c0-20.66 16.742-37.407 37.4-37.407ZM22.837 63.551c6.369 0 21.587 7.186 35.789 8.909a37.34 37.34 0 0 1-10.862 4.153C31.188 66.517 24.273 63.55 22.837 63.55ZM35.33 77.12a37.129 37.129 0 0 1-18.275-7.589c1.582-.172 6.3.68 9.67 2.287 2.647 1.254 5.724 2.967 8.605 5.302Zm28.522-8.287c-10.247.718-24.927-5.407-34.129-6.613 10.032-.66 27.457 4.603 40.556-.23a38.155 38.155 0 0 1-6.427 6.843Z" fill="#F7F6F6"/><path d="M28.815 38.9c1.856-1.436 2.881-2.536 2.881-5.886 0-3.636-3.614-7.512-10.305-7.512-8.107 0-10.256 5.168-10.256 5.168v22.201s4.005 3.062 9.866 3.062c3.428 0 12.649.096 12.649-9.904 0-4.115-3.174-5.79-4.835-7.13Zm-10.842-5.264s.83-2.344 3.32-2.392c1.954-.038 3.615 1.244 3.615 2.775 0 1.723-1.319 2.967-2.589 2.967-1.084 0-2.989.124-3.926.105a.42.42 0 0 1-.42-.421v-3.034Zm8.4 14.115c-.488 3.637-6.935 2.68-8.205 1.79a.397.397 0 0 1-.195-.335v-6.68c0-.21.175-.382.39-.382 0 0 5.861-.766 7.62 1.674.566.795.595 2.412.39 3.933Z" fill="#F7F6F6"/><path fill-rule="evenodd" clip-rule="evenodd" d="m49.815 10.057-5.587 4.345 1.915 6.727-5.949-3.856-5.939 3.856 1.905-6.727-5.587-4.345 7.13-.306 2.491-6.545 2.5 6.545 7.121.306Zm-21.83 4.91-2.393 2.42 1.347 3.11-3.096-1.483-2.608 2.22.489-3.34-2.96-1.74 3.39-.585.78-3.292 1.612 2.986 3.439-.296Zm-13.353 6.717-1.113 1.809 1.27 1.713-2.1-.479-1.27 1.713-.186-2.105-2.051-.65 1.982-.824v-2.114l1.417 1.588 2.051-.65Zm51.251 0 1.114 1.809-1.27 1.713 2.1-.479 1.27 1.713.186-2.105 2.05-.65-1.982-.824v-2.114l-1.416 1.588-2.052-.65Zm-13.225-6.718 2.393 2.421-1.348 3.11 3.096-1.483 2.599 2.22-.479-3.34 2.96-1.74-3.4-.585-.771-3.292-1.622 2.986-3.428-.296Z" fill="#F7F6F6"/></g><defs><linearGradient id="b" x1="-13.2" y1="39.143" x2="49.199" y2="39.143" gradientUnits="userSpaceOnUse"><stop stop-color="#B80101"/><stop offset="1" stop-color="#FD1515"/></linearGradient><clipPath id="a"><path fill="#fff" d="M0 0h80v80H0z"/></clipPath></defs></svg>