<?xml version="1.0" encoding="utf-8"?>
<!-- Generator: Adobe Illustrator 23.0.2, SVG Export Plug-In . SVG Version: 6.00 Build 0)  -->
<svg version="1.1" id="Layer_1" xmlns="http://www.w3.org/2000/svg" xmlns:xlink="http://www.w3.org/1999/xlink" x="0px" y="0px"
	 viewBox="0 0 80 80" style="enable-background:new 0 0 80 80;" xml:space="preserve">
<style type="text/css">
	.st0{fill:url(#SVGID_1_);}
	.st1{fill:url(#SVGID_2_);}
	.st2{fill:url(#SVGID_3_);}
</style>
<title>habanero color</title>
<desc>Created with Sketch.</desc>
<g>
	
		<linearGradient id="SVGID_1_" gradientUnits="userSpaceOnUse" x1="-1104.6329" y1="-995.8792" x2="-1138.8503" y2="-1058.2756" gradientTransform="matrix(-0.7071 -0.7071 0.7071 -0.7071 -23.3792 -1485.4313)">
		<stop  offset="1.143010e-02" style="stop-color:#91550F"/>
		<stop  offset="6.858070e-02" style="stop-color:#C69C3A"/>
		<stop  offset="0.148" style="stop-color:#C69C3A"/>
		<stop  offset="0.2188" style="stop-color:#E2C975"/>
		<stop  offset="0.3068" style="stop-color:#E2C975"/>
		<stop  offset="0.4075" style="stop-color:#FDEC9E"/>
		<stop  offset="0.5278" style="stop-color:#BF922F"/>
		<stop  offset="0.6764" style="stop-color:#FDEC9E"/>
		<stop  offset="0.7451" style="stop-color:#E2C975"/>
		<stop  offset="0.836" style="stop-color:#C69C3A"/>
		<stop  offset="0.9165" style="stop-color:#C69C3A"/>
		<stop  offset="1" style="stop-color:#91550F"/>
	</linearGradient>
	<path class="st0" d="M53,38.2c0,1.5,1,2.1,2.1,1.5c1.2-0.6,2.1-2.3,2.1-3.8c0-1.5-1-2.1-2.1-1.5C53.9,35.1,53,36.8,53,38.2z
		 M52.9,50.2c0,1.5,1,2.1,2.1,1.5c1.2-0.6,2.1-2.3,2.1-3.8s-1-2.1-2.1-1.5C53.9,47,52.9,48.7,52.9,50.2z M48.5,46.5
		c0,1.5,1,2.1,2.1,1.5c1.2-0.6,2.1-2.3,2.1-3.8s-1-2.1-2.1-1.5C49.4,43.3,48.5,45,48.5,46.5z M43.8,43c0,1.5,1,2.1,2.1,1.5
		c1.2-0.6,2.1-2.3,2.1-3.8c0-1.5-1-2.1-2.1-1.5C44.8,39.8,43.8,41.5,43.8,43z M43.8,55c0,1.5,1,2.1,2.1,1.5c1.2-0.6,2.1-2.3,2.1-3.8
		s-1-2.1-2.1-1.5C44.7,51.8,43.7,53.5,43.8,55z M43.8,55c0,1.5,1,2.1,2.1,1.5c1.2-0.6,2.1-2.3,2.1-3.8s-1-2.1-2.1-1.5
		C44.7,51.8,43.7,53.5,43.8,55z M43.8,43c0,1.5,1,2.1,2.1,1.5c1.2-0.6,2.1-2.3,2.1-3.8c0-1.5-1-2.1-2.1-1.5
		C44.8,39.8,43.8,41.5,43.8,43z M48.5,46.5c0,1.5,1,2.1,2.1,1.5c1.2-0.6,2.1-2.3,2.1-3.8s-1-2.1-2.1-1.5
		C49.4,43.3,48.5,45,48.5,46.5z M52.9,50.2c0,1.5,1,2.1,2.1,1.5c1.2-0.6,2.1-2.3,2.1-3.8s-1-2.1-2.1-1.5
		C53.9,47,52.9,48.7,52.9,50.2z M53,38.2c0,1.5,1,2.1,2.1,1.5c1.2-0.6,2.1-2.3,2.1-3.8c0-1.5-1-2.1-2.1-1.5
		C53.9,35.1,53,36.8,53,38.2z M53,38.2c0,1.5,1,2.1,2.1,1.5c1.2-0.6,2.1-2.3,2.1-3.8c0-1.5-1-2.1-2.1-1.5C53.9,35.1,53,36.8,53,38.2
		z M52.9,50.2c0,1.5,1,2.1,2.1,1.5c1.2-0.6,2.1-2.3,2.1-3.8s-1-2.1-2.1-1.5C53.9,47,52.9,48.7,52.9,50.2z M48.5,46.5
		c0,1.5,1,2.1,2.1,1.5c1.2-0.6,2.1-2.3,2.1-3.8s-1-2.1-2.1-1.5C49.4,43.3,48.5,45,48.5,46.5z M43.8,43c0,1.5,1,2.1,2.1,1.5
		c1.2-0.6,2.1-2.3,2.1-3.8c0-1.5-1-2.1-2.1-1.5C44.8,39.8,43.8,41.5,43.8,43z M43.8,55c0,1.5,1,2.1,2.1,1.5c1.2-0.6,2.1-2.3,2.1-3.8
		s-1-2.1-2.1-1.5C44.7,51.8,43.7,53.5,43.8,55z M31.5,41.3c0,1.5,1,3.2,2.2,4c1.2,0.8,2.1,0.2,2.1-1.3c0-1.5-1-3.2-2.2-4
		C32.4,39.3,31.5,39.9,31.5,41.3z M26.8,44.1c0,1.5,1,3.2,2.2,4c1.2,0.8,2.1,0.2,2.1-1.3c0-1.5-1-3.2-2.2-4
		C27.7,42.1,26.8,42.6,26.8,44.1z M22.1,46.9c0,1.5,1,3.2,2.2,4c1.2,0.8,2.1,0.2,2.1-1.3c0-1.5-1-3.2-2.2-4
		C23,44.9,22.1,45.4,22.1,46.9z M22.1,46.9c0,1.5,1,3.2,2.2,4c1.2,0.8,2.1,0.2,2.1-1.3c0-1.5-1-3.2-2.2-4
		C23,44.9,22.1,45.4,22.1,46.9z M26.8,44.1c0,1.5,1,3.2,2.2,4c1.2,0.8,2.1,0.2,2.1-1.3c0-1.5-1-3.2-2.2-4
		C27.7,42.1,26.8,42.6,26.8,44.1z M31.5,41.3c0,1.5,1,3.2,2.2,4c1.2,0.8,2.1,0.2,2.1-1.3c0-1.5-1-3.2-2.2-4
		C32.4,39.3,31.5,39.9,31.5,41.3z M43.8,55c0,1.5,1,2.1,2.1,1.5c1.2-0.6,2.1-2.3,2.1-3.8s-1-2.1-2.1-1.5
		C44.7,51.8,43.7,53.5,43.8,55z M48,40.7c0-1.5-1-2.1-2.1-1.5c-1.2,0.6-2.1,2.3-2.1,3.8s1,2.1,2.1,1.5C47.1,43.9,48,42.2,48,40.7z
		 M48.5,46.5c0,1.5,1,2.1,2.1,1.5c1.2-0.6,2.1-2.3,2.1-3.8s-1-2.1-2.1-1.5C49.4,43.3,48.5,45,48.5,46.5z M52.9,50.2
		c0,1.5,1,2.1,2.1,1.5c1.2-0.6,2.1-2.3,2.1-3.8s-1-2.1-2.1-1.5C53.9,47,52.9,48.7,52.9,50.2z M57.2,36c0-1.5-1-2.1-2.1-1.5
		C53.9,35,53,36.8,53,38.2c0,1.5,1,2.1,2.1,1.5C56.3,39.1,57.2,37.4,57.2,36z M22.1,46.9c0,1.5,1,3.2,2.2,4c1.2,0.8,2.1,0.2,2.1-1.3
		c0-1.5-1-3.2-2.2-4C23,44.9,22.1,45.4,22.1,46.9z M26.8,44.1c0,1.5,1,3.2,2.2,4c1.2,0.8,2.1,0.2,2.1-1.3c0-1.5-1-3.2-2.2-4
		C27.7,42.1,26.8,42.6,26.8,44.1z M31.5,41.3c0,1.5,1,3.2,2.2,4c1.2,0.8,2.1,0.2,2.1-1.3c0-1.5-1-3.2-2.2-4
		C32.4,39.3,31.5,39.9,31.5,41.3z M43.8,55c0,1.5,1,2.1,2.1,1.5c1.2-0.6,2.1-2.3,2.1-3.8s-1-2.1-2.1-1.5
		C44.7,51.8,43.7,53.5,43.8,55z M48,40.7c0-1.5-1-2.1-2.1-1.5c-1.2,0.6-2.1,2.3-2.1,3.8s1,2.1,2.1,1.5C47.1,43.9,48,42.2,48,40.7z
		 M48.5,46.5c0,1.5,1,2.1,2.1,1.5c1.2-0.6,2.1-2.3,2.1-3.8s-1-2.1-2.1-1.5C49.4,43.3,48.5,45,48.5,46.5z M52.9,50.2
		c0,1.5,1,2.1,2.1,1.5c1.2-0.6,2.1-2.3,2.1-3.8s-1-2.1-2.1-1.5C53.9,47,52.9,48.7,52.9,50.2z M57.2,36c0-1.5-1-2.1-2.1-1.5
		C53.9,35,53,36.8,53,38.2c0,1.5,1,2.1,2.1,1.5C56.3,39.1,57.2,37.4,57.2,36z M53,38.2c0,1.5,1,2.1,2.1,1.5c1.2-0.6,2.1-2.3,2.1-3.8
		c0-1.5-1-2.1-2.1-1.5C53.9,35.1,53,36.8,53,38.2z M52.9,50.2c0,1.5,1,2.1,2.1,1.5c1.2-0.6,2.1-2.3,2.1-3.8s-1-2.1-2.1-1.5
		C53.9,47,52.9,48.7,52.9,50.2z M48.5,46.5c0,1.5,1,2.1,2.1,1.5c1.2-0.6,2.1-2.3,2.1-3.8s-1-2.1-2.1-1.5
		C49.4,43.3,48.5,45,48.5,46.5z M43.8,43c0,1.5,1,2.1,2.1,1.5c1.2-0.6,2.1-2.3,2.1-3.8c0-1.5-1-2.1-2.1-1.5
		C44.8,39.8,43.8,41.5,43.8,43z M43.8,55c0,1.5,1,2.1,2.1,1.5c1.2-0.6,2.1-2.3,2.1-3.8s-1-2.1-2.1-1.5C44.7,51.8,43.7,53.5,43.8,55z
		 M31.5,41.3c0,1.5,1,3.2,2.2,4c1.2,0.8,2.1,0.2,2.1-1.3c0-1.5-1-3.2-2.2-4C32.4,39.3,31.5,39.9,31.5,41.3z M26.8,44.1
		c0,1.5,1,3.2,2.2,4c1.2,0.8,2.1,0.2,2.1-1.3c0-1.5-1-3.2-2.2-4C27.7,42.1,26.8,42.6,26.8,44.1z M22.1,46.9c0,1.5,1,3.2,2.2,4
		c1.2,0.8,2.1,0.2,2.1-1.3c0-1.5-1-3.2-2.2-4C23,44.9,22.1,45.4,22.1,46.9z M22.1,46.9c0,1.5,1,3.2,2.2,4c1.2,0.8,2.1,0.2,2.1-1.3
		c0-1.5-1-3.2-2.2-4C23,44.9,22.1,45.4,22.1,46.9z M26.8,44.1c0,1.5,1,3.2,2.2,4c1.2,0.8,2.1,0.2,2.1-1.3c0-1.5-1-3.2-2.2-4
		C27.7,42.1,26.8,42.6,26.8,44.1z M31.5,41.3c0,1.5,1,3.2,2.2,4c1.2,0.8,2.1,0.2,2.1-1.3c0-1.5-1-3.2-2.2-4
		C32.4,39.3,31.5,39.9,31.5,41.3z M43.8,55c0,1.5,1,2.1,2.1,1.5c1.2-0.6,2.1-2.3,2.1-3.8s-1-2.1-2.1-1.5
		C44.7,51.8,43.7,53.5,43.8,55z M43.8,43c0,1.5,1,2.1,2.1,1.5c1.2-0.6,2.1-2.3,2.1-3.8c0-1.5-1-2.1-2.1-1.5
		C44.8,39.8,43.8,41.5,43.8,43z M48.5,46.5c0,1.5,1,2.1,2.1,1.5c1.2-0.6,2.1-2.3,2.1-3.8s-1-2.1-2.1-1.5
		C49.4,43.3,48.5,45,48.5,46.5z M52.9,50.2c0,1.5,1,2.1,2.1,1.5c1.2-0.6,2.1-2.3,2.1-3.8s-1-2.1-2.1-1.5
		C53.9,47,52.9,48.7,52.9,50.2z M53,38.2c0,1.5,1,2.1,2.1,1.5c1.2-0.6,2.1-2.3,2.1-3.8c0-1.5-1-2.1-2.1-1.5
		C53.9,35.1,53,36.8,53,38.2z"/>
	<g>
		
			<linearGradient id="SVGID_2_" gradientUnits="userSpaceOnUse" x1="-1099.9255" y1="-998.4607" x2="-1134.1429" y2="-1060.8571" gradientTransform="matrix(-0.7071 -0.7071 0.7071 -0.7071 -23.3792 -1485.4313)">
			<stop  offset="1.143010e-02" style="stop-color:#91550F"/>
			<stop  offset="6.858070e-02" style="stop-color:#C69C3A"/>
			<stop  offset="0.148" style="stop-color:#C69C3A"/>
			<stop  offset="0.2188" style="stop-color:#E2C975"/>
			<stop  offset="0.3068" style="stop-color:#E2C975"/>
			<stop  offset="0.4075" style="stop-color:#FDEC9E"/>
			<stop  offset="0.5278" style="stop-color:#BF922F"/>
			<stop  offset="0.6764" style="stop-color:#FDEC9E"/>
			<stop  offset="0.7451" style="stop-color:#E2C975"/>
			<stop  offset="0.836" style="stop-color:#C69C3A"/>
			<stop  offset="0.9165" style="stop-color:#C69C3A"/>
			<stop  offset="1" style="stop-color:#91550F"/>
		</linearGradient>
		<path class="st1" d="M37.2,28.8c1.5,0.7,3.9,0.7,5.5,0c1.8-0.8,1.8-2.1,0-3c-1.5-0.7-3.9-0.7-5.5,0C35.4,26.7,35.4,28,37.2,28.8z"
			/>
		
			<linearGradient id="SVGID_3_" gradientUnits="userSpaceOnUse" x1="-1103.8534" y1="-997.9749" x2="-1138.0707" y2="-1060.3712" gradientTransform="matrix(-0.7071 -0.7071 0.7071 -0.7071 -23.3792 -1485.4313)">
			<stop  offset="1.143010e-02" style="stop-color:#91550F"/>
			<stop  offset="6.858070e-02" style="stop-color:#C69C3A"/>
			<stop  offset="0.148" style="stop-color:#C69C3A"/>
			<stop  offset="0.2188" style="stop-color:#E2C975"/>
			<stop  offset="0.3068" style="stop-color:#E2C975"/>
			<stop  offset="0.4075" style="stop-color:#FDEC9E"/>
			<stop  offset="0.5278" style="stop-color:#BF922F"/>
			<stop  offset="0.6764" style="stop-color:#FDEC9E"/>
			<stop  offset="0.7451" style="stop-color:#E2C975"/>
			<stop  offset="0.836" style="stop-color:#C69C3A"/>
			<stop  offset="0.9165" style="stop-color:#C69C3A"/>
			<stop  offset="1" style="stop-color:#91550F"/>
		</linearGradient>
		<path class="st2" d="M12.1,40.5c0,3.7,0.7,7.4,2.2,10.8c1.4,3.3,3.4,6.3,6,8.9s5.5,4.6,8.9,6c3.4,1.5,7.1,2.2,10.8,2.2
			s7.4-0.7,10.8-2.2c3.3-1.4,6.3-3.4,8.9-6c2.6-2.6,4.6-5.5,6-8.9c1.5-3.4,2.2-7.1,2.2-10.8s-0.7-7.4-2.2-10.8
			c-1.4-3.3-3.4-6.3-6-8.9c-2.6-2.6-5.5-4.6-8.9-6c-3.4-1.5-7.1-2.2-10.8-2.2s-7.4,0.7-10.8,2.2c-3.3,1.4-6.3,3.4-8.9,6
			s-4.6,5.5-6,8.9C12.8,33.1,12.1,36.8,12.1,40.5z M60.1,51.2L40.8,62.3V40l19.2-11V51.2z M39.9,38.5L20.6,27.4l19.3-8.1l19.4,8.1
			L39.9,38.5z M39.1,62.3L19.8,51.2V28.9l19.3,11.2V62.3z"/>
	</g>
</g>
</svg>
