<svg width="80" height="80" viewBox="0 0 80 80" fill="none" xmlns="http://www.w3.org/2000/svg">
<path fill-rule="evenodd" clip-rule="evenodd" d="M29.3813 67.2163C30.5039 68.355 32.0239 68.9899 33.6134 69C34.4082 69 35.203 68.8287 35.9183 68.4861C36.4051 68.2744 36.8621 68.0023 37.2694 67.6698L37.3588 67.5992L37.627 67.3876L38.3423 66.8535L38.4337 66.784C38.9209 66.4132 39.4165 66.036 39.912 65.6946C40.4385 65.3318 40.9949 64.969 41.591 64.5861L42.1572 64.2233C42.6341 63.9109 43.0414 63.6489 43.4487 63.407C43.9455 63.1047 44.472 62.8024 45.0879 62.4598C45.5251 62.2179 45.9821 61.9761 46.4391 61.7342L46.6676 61.6133C46.9557 61.452 47.2636 61.2908 47.5815 61.1396L48.0385 60.9179C48.1549 60.8614 48.27 60.8049 48.3842 60.7488C48.7383 60.5749 49.0839 60.4052 49.4294 60.2528L49.6281 60.1621C49.9991 60.0008 50.379 59.8395 50.7588 59.6782C50.9486 59.5977 51.1383 59.5171 51.3269 59.4366L52.6184 58.8924C53.3434 58.5801 54.0586 58.2778 54.7737 57.9756L54.7742 57.9753C54.7968 57.9667 54.8202 57.9582 54.8448 57.9491C54.9069 57.9263 54.977 57.9006 55.0623 57.8645L57.9136 56.756C58.0129 56.7157 58.1123 56.6753 58.2017 56.6451L59.5627 56.2017C59.631 56.1786 59.7013 56.1534 59.7775 56.1261C59.8678 56.0938 59.9663 56.0585 60.0793 56.0203C60.1544 55.9899 60.2294 55.9652 60.3001 55.9419C60.323 55.9343 60.3455 55.9269 60.3674 55.9195L61.0827 55.7079L62.1259 55.3955C62.2172 55.369 62.3066 55.3406 62.3942 55.3129C62.5066 55.2772 62.6158 55.2425 62.722 55.2141C63.0801 55.1115 63.4321 55.0212 63.8114 54.9239C63.9162 54.897 64.023 54.8696 64.1327 54.8413C64.3366 54.7915 64.5419 54.7402 64.7509 54.6881C65.0917 54.603 65.4421 54.5155 65.8116 54.4281C65.8638 54.4155 65.9153 54.4029 65.9668 54.3903C66.1214 54.3525 66.2761 54.3147 66.4475 54.2769L69.2292 53.642C70.6101 53.3296 71.5638 52.0397 71.4744 50.5987L71.1565 45.6708C71.1325 45.2181 71.1062 44.7584 71.0798 44.2973C71.0515 43.8038 71.0232 43.3086 70.9975 42.8189C70.928 41.4786 70.8684 40.1383 70.8286 38.8384C70.779 37.3771 70.7392 35.926 70.7094 34.5353C70.6873 33.5942 70.6816 32.6365 70.6761 31.7114C70.6742 31.3884 70.6723 31.0693 70.6697 30.7563C70.6697 29.5974 70.6697 28.3982 70.6796 27.1889C71.9811 25.899 72.7659 24.3067 72.9447 22.5734C73.1832 20.2959 72.6467 18.1495 71.4048 16.3859C70.5604 15.1464 69.4179 14.1387 68.0867 13.4534L64.9374 12.5767C64.7685 12.5565 64.5996 12.5464 64.4307 12.5464C62.8412 12.5162 61.2715 12.9697 59.9403 13.8565C58.7084 14.6728 57.9633 15.6402 57.4467 16.396C57.4218 16.3658 57.397 16.333 57.3721 16.3003C57.3473 16.2675 57.3225 16.2348 57.2976 16.2045C55.9962 14.5317 54.1484 13.4232 51.9528 13.01C51.5355 12.9294 51.1183 12.879 50.6911 12.8689L49.0519 12.9798C47.8995 13.1813 46.7967 13.6247 45.8231 14.2797C43.9455 15.5394 42.6639 17.5146 42.2665 19.7618C42.1771 20.2758 42.1175 20.7897 42.1175 21.3037L42.0082 21.1727C42.1374 19.7115 41.8194 17.5347 41.2035 16.2045L39.4252 14.2999C38.1238 13.0301 36.4349 12.234 34.6367 12.0325C33.4843 11.9015 31.1496 12.1836 30.0568 12.5767L28.4077 13.927C28.1295 14.1487 27.8613 14.3906 27.6129 14.6526C26.4903 15.8518 25.7352 17.3533 25.4173 18.9758C25.3559 19.2944 25.3836 20.5124 25.4037 21.397C25.4129 21.7995 25.4204 22.133 25.4173 22.2812L26.381 24.8912C26.7386 25.5261 27.1658 26.1106 27.6725 26.6346C27.5135 26.5339 27.3447 26.4331 27.1658 26.3323C26.4207 25.9292 25.626 25.6168 24.8014 25.4052C22.6456 24.8509 20.3606 25.2742 18.5326 26.5439C18.2246 26.7556 17.9465 26.9773 17.6683 27.2191L16.9729 27.9044C15.5423 29.4664 14.7574 31.4516 14.7177 33.6586C14.7078 34.4748 14.8071 35.2911 15.0157 36.0771C13.913 35.9663 12.7904 36.0872 11.7373 36.4399C9.83979 37.0446 8.22044 38.3345 7.18724 40.0577L6.49181 41.5189C6.02488 42.8088 5.8858 44.1995 6.09443 45.56C6.28318 46.8398 6.76005 48.0289 7.54489 49.1979C8.77678 51.0522 10.6743 52.3521 12.8401 52.8258C13.4163 52.9568 14.0024 53.0173 14.5886 53.0072L18.1352 56.3327C18.3737 56.5645 18.6121 56.7963 18.8704 57.0281C19.1287 57.2598 19.3671 57.4916 19.6155 57.7335L21.0461 59.104L21.97 59.9807C22.1439 60.147 22.3177 60.3158 22.4916 60.4846C22.6654 60.6534 22.8393 60.8222 23.0131 60.9885L29.3813 67.2163ZM29.0037 50.4878L28.2288 49.7522C28.6064 49.5103 28.964 49.2382 29.3216 48.9661C30.9211 47.5755 31.9444 45.6305 32.2027 43.5143C32.2027 43.4991 32.2052 43.484 32.2077 43.4689C32.2102 43.4538 32.2126 43.4387 32.2126 43.4236C33.3849 43.4236 34.5473 43.1918 35.6302 42.7484C37.4581 41.9926 38.9483 40.6019 39.9219 38.7376C40.3392 37.9213 40.6472 37.0446 40.8359 36.1376C41.2035 36.3291 41.591 36.5004 41.9784 36.6516C43.4686 37.236 45.0979 37.3973 46.6775 37.1151C47.3133 36.9942 47.9392 36.8027 48.5353 36.5407C49.5188 36.1074 50.4129 35.4927 51.1779 34.7268C51.3368 34.5655 51.4958 34.4043 51.6448 34.233C52.9959 35.2508 54.6054 35.8454 56.2843 35.9461C57.238 35.9965 58.1918 35.8756 59.1057 35.5934C59.1336 36.7126 59.17 37.8581 59.2071 39.0217L59.215 39.2717C59.2647 40.6422 59.3243 42.043 59.3939 43.4538C59.3939 43.6061 59.4027 43.7493 59.4121 43.9006L59.4137 43.9274C59.3044 43.9627 59.1952 43.9955 59.0859 44.0282C58.9766 44.061 58.8673 44.0937 58.758 44.129L57.8937 44.391C57.5758 44.4817 57.248 44.5825 56.9201 44.6832C56.729 44.7375 56.5437 44.8037 56.3508 44.8727C56.293 44.8934 56.2345 44.9143 56.175 44.9352L56.175 44.9352C56.0955 44.9654 56.016 44.9956 55.9366 45.0158L54.5557 45.4693C54.2576 45.5701 53.9695 45.6708 53.7212 45.7716L50.9792 46.8499C50.7606 46.9305 50.5421 47.0111 50.3136 47.1119L50.3104 47.1132C49.5763 47.4252 48.8422 47.7371 48.118 48.0491L46.9259 48.553C46.29 48.815 45.6443 49.0871 44.9886 49.3793L44.7601 49.4801C44.1243 49.7622 43.5481 50.0444 42.9222 50.3568L42.5347 50.5483C42.1777 50.7212 41.8338 50.9008 41.5087 51.0706C41.4358 51.1087 41.3639 51.1463 41.2929 51.1832L41.0843 51.294L41.0457 51.3143C40.541 51.5802 40.0181 51.8555 39.5047 52.1405C38.7894 52.5335 38.1536 52.9064 37.5575 53.2591C37.021 53.5816 36.5143 53.9041 35.9083 54.2971L35.3421 54.6599C35.2575 54.7149 35.172 54.7703 35.0857 54.8263C34.7768 55.0267 34.4584 55.2332 34.14 55.4459L34.1002 55.4157C33.832 55.1537 33.5637 54.8916 33.2856 54.6196L31.0701 52.4731C30.8864 52.2967 30.7051 52.1204 30.5239 51.9441C30.3425 51.7677 30.1612 51.5913 29.9773 51.4149C29.6495 51.1025 29.3216 50.7901 29.0037 50.4878ZM29.0137 27.8036L28.9044 27.6827L29.0037 27.7532C29.0037 27.7633 29.0062 27.7709 29.0087 27.7784C29.0112 27.786 29.0137 27.7935 29.0137 27.8036ZM64.6374 16.5529C66.0567 16.5831 67.2847 17.2572 68.1806 18.5148C68.8046 19.3901 69.0663 20.4465 68.9858 21.674C68.9053 22.4085 68.5329 23.0826 67.8886 23.6661C67.5263 23.9881 67.1337 24.2798 66.7009 24.5113C66.7009 24.6018 66.6984 24.6949 66.6959 24.7879C66.6933 24.881 66.6908 24.9741 66.6908 25.0646C66.6808 25.5677 66.6707 26.0707 66.6707 26.5738C66.6606 27.8314 66.6506 29.0891 66.6606 30.3165C66.6632 30.6347 66.6652 30.959 66.6671 31.2874C66.6727 32.226 66.6785 33.1985 66.7009 34.1599C66.7311 35.5685 66.7714 37.0374 66.8217 38.5265C66.872 39.8545 66.9324 41.2128 67.0029 42.5811C67.0388 43.3205 67.0849 44.07 67.1304 44.8079C67.1486 45.1043 67.1667 45.3988 67.184 45.69C67.1938 45.8852 67.2059 46.0803 67.2181 46.2767C67.2311 46.4852 67.2441 46.695 67.2545 46.9074C67.2646 47.1288 67.2746 47.34 67.2948 47.5614L67.3954 49.1007L65.8654 49.4428C65.7319 49.4706 65.6014 49.5015 65.4723 49.5321C65.3678 49.5568 65.2643 49.5813 65.1608 49.6038C64.5368 49.7547 63.963 49.8956 63.3993 50.0364C62.856 50.1672 62.3629 50.2979 61.8699 50.4287L61.8693 50.4288L61.8692 50.4289C61.6277 50.4993 61.3861 50.5697 61.1345 50.6502C61.059 50.6703 60.986 50.6929 60.9131 50.7156C60.8401 50.7382 60.7671 50.7608 60.6916 50.781L60.1883 50.9319C60.1373 50.9464 60.0859 50.961 60.0343 50.9757C59.8011 51.0418 59.5635 51.1093 59.3327 51.1834C59.2759 51.2037 59.2159 51.224 59.1539 51.2449C59.062 51.2759 58.9659 51.3083 58.8697 51.3444C58.7992 51.3695 58.7313 51.3922 58.6634 51.4148C58.5954 51.4375 58.5275 51.4601 58.457 51.4852L57.7625 51.7066C57.531 51.777 57.2994 51.8474 57.0679 51.9279C56.8969 51.9782 56.7157 52.0486 56.5346 52.119L56.5345 52.1191L55.9909 52.3304L55.3668 52.5718C55.0202 52.7136 54.6675 52.8491 54.3182 52.9833C54.2212 53.0206 54.1244 53.0578 54.0281 53.095C53.9777 53.1151 53.9299 53.1328 53.8821 53.1504C53.8343 53.168 53.7865 53.1856 53.7362 53.2057C53.6848 53.2249 53.6345 53.2432 53.5852 53.261C53.4798 53.2992 53.3792 53.3356 53.2832 53.3767C52.9158 53.5327 52.5484 53.6861 52.181 53.8396C51.8136 53.993 51.4462 54.1464 51.0788 54.3024L50.7064 54.4533L49.8709 54.8054C49.2569 55.057 48.6227 55.3185 48.0087 55.5902L47.7873 55.6908C47.2437 55.9222 46.7203 56.1737 46.1667 56.4454L45.7641 56.6366C45.4017 56.8076 45.0393 56.9887 44.7072 57.1698L44.4857 57.2805C44.0025 57.532 43.5093 57.7936 43.0262 58.0552C42.3719 58.4174 41.7881 58.7494 41.2546 59.0613C40.7916 59.333 40.3386 59.6147 39.8051 59.9567L39.2414 60.3189C39.172 60.3634 39.103 60.4075 39.0344 60.4514C38.4671 60.8142 37.9293 61.1582 37.3994 61.5263C36.8256 61.9187 36.2418 62.3513 35.6782 62.7739L34.9836 63.287C34.8427 63.3876 34.7018 63.4982 34.5609 63.6089L34.5608 63.6089L34.4904 63.6593C34.3797 63.7498 34.2589 63.8202 34.1381 63.8705C33.9066 63.9711 33.1114 64.2327 32.3766 63.5083L31.9337 63.0757C31.7525 62.9147 31.5814 62.7437 31.4103 62.5726L30.3835 61.5766L29.5078 60.7315C29.4072 60.6359 29.309 60.5403 29.2109 60.4447C29.1127 60.3491 29.0146 60.2535 28.9139 60.158L28.1288 59.4034C27.9778 59.2625 27.8294 59.1217 27.6809 58.9808C27.5324 58.84 27.3839 58.6991 27.233 58.5582C27.0216 58.357 26.8102 58.1558 26.5887 57.9445L25.8741 57.2603C25.6929 57.0893 25.5142 56.9183 25.3356 56.7472C25.1569 56.5762 24.9782 56.4051 24.797 56.2341C24.636 56.0832 24.4774 55.9348 24.3189 55.7864C24.1604 55.638 24.0018 55.4896 23.8408 55.3387L23.1664 54.7048L22.5423 54.1112C22.3913 53.9703 22.2403 53.827 22.0893 53.6836C21.9384 53.5402 21.7874 53.3969 21.6364 53.256C21.4458 53.0723 21.2505 52.8931 21.0569 52.7155C20.9643 52.6305 20.872 52.5458 20.7808 52.4612C20.5795 52.2801 20.3782 52.099 20.1768 51.9078L19.3917 51.1733L18.4455 50.288L17.6503 49.5535L17.147 49.0907L15.6573 47.7224C14.9527 48.0242 14.1676 48.1047 13.4126 47.9437C12.3356 47.7123 11.3995 47.0784 10.7855 46.1629C10.3728 45.5492 10.1312 44.9857 10.0406 44.372C9.91981 43.557 10.0708 42.732 10.4634 42.0076C10.9465 41.1222 11.7618 40.4683 12.7181 40.1664C13.9159 39.774 15.1339 39.9954 16.1606 40.7802C16.8853 41.3335 17.3987 41.9976 17.6705 42.7421C17.7016 42.8277 17.7267 42.9132 17.7505 42.9942C17.7574 43.0179 17.7643 43.0412 17.7711 43.064C18.6267 43.2653 19.5024 43.386 20.3782 43.4464C21.1834 43.4967 22.0491 43.5168 23.0859 43.5067C23.2066 43.4765 23.3274 43.4363 23.4382 43.386C23.4935 43.3608 23.5489 43.3382 23.6042 43.3156C23.6596 43.2929 23.715 43.2703 23.7703 43.2451C24.0018 43.1546 24.2032 43.0339 24.3944 42.8829C24.6259 42.6918 24.787 42.4201 24.8172 42.1183C24.8574 41.7963 24.8071 41.4241 24.6662 40.9009C24.6113 40.6734 24.5624 40.4521 24.515 40.2369C24.5016 40.176 24.4882 40.1156 24.4749 40.0558C24.4598 39.9853 24.4447 39.9174 24.4296 39.8495C24.4145 39.7816 24.3994 39.7137 24.3843 39.6432C24.3743 39.5728 24.3541 39.5125 24.334 39.4521L24.183 39.0597C24.0723 38.7579 23.9515 38.456 23.8106 38.1643C23.718 37.9707 23.6043 37.7772 23.4871 37.5778C23.4642 37.5388 23.4411 37.4995 23.418 37.46C22.955 37.5002 22.502 37.47 22.0491 37.3795C21.1432 37.1883 20.3882 36.7456 19.8648 36.0917C19.1703 35.2365 18.818 34.2505 18.8381 33.2443C18.8582 31.7955 19.5326 30.5781 20.7607 29.733C21.576 29.1796 22.5926 28.9985 23.5489 29.2501C24.022 29.3708 24.485 29.5519 24.9178 29.7833C25.3003 30.0046 25.6325 30.3165 25.864 30.6989C26.1157 31.041 26.327 31.4132 26.4982 31.8056C26.7599 32.4193 26.8907 33.0834 26.8706 33.7575C27.2632 34.0995 27.706 34.3813 28.1791 34.6026C28.7328 34.8642 29.377 35.0654 30.2527 35.2465C30.4741 35.2968 30.6755 35.3471 30.8768 35.3974C30.9503 35.4141 31.0227 35.4319 31.0936 35.4494C31.2363 35.4845 31.3731 35.5181 31.5008 35.5383C32.0343 35.6288 32.4672 35.5987 32.8195 35.4578L32.8396 35.4477C32.9906 35.3874 33.2221 35.2465 33.4435 34.8239C33.6247 34.4517 33.7355 34.0492 33.7656 33.6367C33.9166 32.3187 33.8864 30.89 33.6851 29.1495C33.5845 28.2741 33.4335 27.3988 33.2322 26.3524C33.1565 25.9574 33.0527 25.5623 32.9443 25.1496C32.9229 25.0684 32.9014 24.9864 32.8799 24.9036C32.8396 24.7728 32.7993 24.632 32.7691 24.5012C32.7528 24.4197 32.7299 24.3448 32.7057 24.2658C32.7001 24.2473 32.6943 24.2285 32.6886 24.2094C32.1451 24.0585 31.6216 23.807 31.1687 23.4649C30.4641 22.9417 29.9608 22.1972 29.7293 21.352C29.5884 20.849 29.4474 20.1648 29.5984 19.4102C29.7393 18.6154 30.1218 17.8809 30.6755 17.2873C30.9472 17.0056 31.2693 16.7742 31.6216 16.6032L31.6518 16.5931C31.7622 16.5343 31.878 16.4808 31.9991 16.4249C32.0437 16.4043 32.089 16.3834 32.135 16.3617C32.5779 16.1705 33.2523 15.9291 34.0676 16.0196C35.2453 16.1504 36.2922 16.7943 36.9364 17.7803C37.5604 18.6959 37.7718 19.8227 37.5303 20.8993C37.4497 21.2414 37.3491 21.5633 37.2182 21.8853C37.2534 21.9255 37.2862 21.9658 37.3189 22.006C37.3516 22.0463 37.3843 22.0865 37.4195 22.1268C37.7416 22.5292 38.0839 22.9417 38.416 23.3341C39.1609 24.2195 39.9863 25.1854 41.013 26.3625C41.5968 27.0567 42.241 27.6906 42.9356 28.2741C43.5798 28.8074 44.0831 29.1193 44.5864 29.3104C44.8682 29.4312 45.1802 29.4714 45.4822 29.4211C45.4902 29.4191 45.4983 29.4171 45.5064 29.4151C45.5806 29.3968 45.6613 29.3769 45.7339 29.3406C45.915 29.2601 46.0761 29.1495 46.207 29.0086C46.5593 28.6665 46.8512 28.254 47.0424 27.7912L47.1431 27.5598C47.445 26.8454 47.7269 26.1713 47.9785 25.4872C48.1295 25.0847 48.2402 24.6622 48.3107 24.2295C47.8678 23.8975 47.5054 23.4649 47.2538 22.9719L47.2035 22.8713C46.982 22.4688 46.8109 22.0362 46.68 21.5935C46.5391 21.0502 46.6096 20.527 46.68 20.1246C46.8612 19.0682 47.4752 18.1425 48.3711 17.559C49.2267 16.9855 50.2836 16.7642 51.3002 16.9553C52.4679 17.1666 53.3839 17.6998 54.0381 18.5249C54.5817 19.1889 54.8736 20.024 54.8535 20.8792C54.8333 21.4828 54.6622 22.0664 54.3602 22.5896C54.1388 22.982 53.8771 23.3341 53.5751 23.6661C53.7261 24.0585 53.8771 24.4408 54.0381 24.8231C54.1891 25.1451 54.3602 25.4671 54.5515 25.7689C54.632 25.8997 54.7025 26.0204 54.7729 26.1412C54.7879 26.1661 54.8028 26.1909 54.8177 26.2157C55.103 26.6917 55.3742 27.1441 55.7091 27.4692C56.162 27.922 56.5244 28.1232 56.927 28.1433C57.0679 28.1433 57.2089 28.1131 57.3397 28.0628C57.38 28.0427 57.4303 28.0226 57.4806 28.0025C57.9034 27.8214 58.306 27.4994 58.7691 26.9561C59.6548 25.9198 60.2789 25.0948 60.7822 24.2597C60.9131 24.0384 61.0339 23.807 61.1647 23.5554L61.4063 23.1027C61.205 22.8411 61.0439 22.5594 60.9131 22.2676C60.3695 21.02 60.5205 19.5813 61.3157 18.4846C61.6378 18.0117 62.0203 17.5288 62.6041 17.1465C63.2081 16.744 63.9127 16.5428 64.6374 16.5529ZM34.1884 21.3923C34.1582 21.4049 34.128 21.4174 34.0978 21.4325L34.0978 21.4326C34.0273 21.4627 33.9569 21.4929 33.8965 21.5231C33.9972 21.5432 34.0978 21.5734 34.1884 21.6036L34.2488 21.4225L34.279 21.352C34.2488 21.3671 34.2186 21.3797 34.1884 21.3923ZM63.7416 26.5235C63.7416 26.0003 63.7516 25.4872 63.7617 24.9741C63.7649 24.9512 63.7672 24.9273 63.7693 24.9038C63.7739 24.8546 63.7783 24.8068 63.7919 24.7728C63.769 24.8033 63.7519 24.8396 63.7362 24.8729C63.7312 24.8835 63.7263 24.8939 63.7214 24.9036C63.5805 25.1854 63.4295 25.4771 63.2483 25.7689C62.6645 26.7247 61.9398 27.7107 60.9533 28.8476C60.4802 29.401 59.7253 30.1858 58.6281 30.6586C58.5275 30.7089 58.4168 30.7492 58.306 30.7894C57.8128 30.9705 57.2793 31.051 56.7559 31.0309C55.6386 30.9705 54.632 30.4775 53.6758 29.5318C53.0618 28.9281 52.6491 28.2339 52.2867 27.6202C52.2263 27.4994 52.1558 27.3887 52.0854 27.2781C51.8237 26.8656 51.5922 26.4329 51.3908 25.9802C51.2971 25.7693 51.2094 25.5523 51.123 25.3387C51.0981 25.2772 51.0734 25.2159 51.0486 25.1552C50.9479 25.5979 50.8272 26.0405 50.6661 26.4732C50.4021 27.216 50.1001 27.9303 49.8062 28.6254L49.7803 28.6866L49.6797 28.908C49.3374 29.7229 48.8341 30.4574 48.2 31.0711C47.8175 31.4535 47.3645 31.7654 46.8713 31.9867C46.5895 32.1074 46.2875 32.198 45.9754 32.2584C45.1601 32.3992 44.3247 32.3087 43.5597 32.0068C42.5229 31.6144 41.6975 30.9906 41.0935 30.4976C40.2681 29.8135 39.5132 29.0589 38.8187 28.2439C37.792 27.0567 36.9565 26.0808 36.2016 25.1854L35.7788 24.6722C35.7947 24.7358 35.8109 24.7997 35.8272 24.8639C35.9038 25.1657 35.9824 25.4756 36.0405 25.7991C36.2318 26.7549 36.413 27.7912 36.5337 28.8174C36.7552 30.7794 36.7854 32.4093 36.6143 33.9486C36.5136 34.8239 36.3123 35.5282 35.9801 36.1721C35.4768 37.1078 34.7823 37.7719 33.8864 38.1341C33.0208 38.4862 32.0746 38.5667 30.9976 38.3856C30.6855 38.3353 30.4137 38.2649 30.142 38.1944C29.9708 38.1441 29.7997 38.1039 29.6487 38.0737C28.9039 37.9228 27.9074 37.6813 26.9209 37.2084L26.9208 37.2084C26.7396 37.1178 26.5585 37.0273 26.3774 36.9267C26.5585 37.299 26.7196 37.6813 26.8605 38.0636C26.8711 38.0926 26.8816 38.1223 26.8924 38.1525C26.9226 38.2376 26.9542 38.3267 26.9914 38.4158C27.0719 38.617 27.1323 38.8182 27.1726 39.0195C27.1877 39.0949 27.2053 39.1729 27.2229 39.2509C27.2405 39.3288 27.2581 39.4068 27.2732 39.4823C27.2839 39.5335 27.2941 39.5839 27.3042 39.6334C27.3416 39.8173 27.3766 39.9899 27.4242 40.1564C27.5853 40.76 27.7664 41.5649 27.6557 42.4704C27.5349 43.4866 27.0316 44.4223 26.2465 45.0763C25.8439 45.4083 25.3909 45.69 24.8977 45.8912C24.8222 45.9214 24.7492 45.9516 24.6762 45.9818C24.6033 46.012 24.5303 46.0421 24.4548 46.0723C24.4409 46.0776 24.4266 46.0829 24.4121 46.0884C24.0907 46.2093 23.6256 46.3842 23.0959 46.3842C21.9786 46.3943 21.0526 46.3742 20.1768 46.3239C19.4823 46.2836 18.7878 46.1931 18.0932 46.0723L19.0696 46.9678L19.5729 47.4306C19.7088 47.5564 19.8422 47.6796 19.9755 47.8028C20.1089 47.9261 20.2423 48.0493 20.3782 48.1751L21.3344 49.0605L22.1195 49.7849L22.7134 50.3383C23.0053 50.5998 23.2971 50.8714 23.589 51.143L23.5891 51.1432L23.5893 51.1433C23.9013 51.435 24.2133 51.7268 24.5152 52.0185L25.1292 52.602L25.7936 53.2258L26.7599 54.1313C26.941 54.3024 27.1222 54.4759 27.3034 54.6495C27.4846 54.823 27.6658 54.9966 27.847 55.1676L28.5516 55.8417C28.694 55.9841 28.8411 56.1219 28.9865 56.2583C29.0569 56.3242 29.1269 56.3898 29.1958 56.4555C29.3468 56.6013 29.4978 56.7447 29.6487 56.8881C29.7997 57.0315 29.9507 57.1748 30.1017 57.3207C30.3735 57.5722 30.6352 57.8238 30.8969 58.0854L31.4807 58.6488L32.3564 59.4939C32.7087 59.8259 33.051 60.158 33.3932 60.49L33.6147 60.7013L33.9468 60.4497C34.0175 60.3974 34.0884 60.3447 34.1596 60.2919C34.677 59.908 35.2089 59.5132 35.7486 59.1418C36.3828 58.6991 37.0471 58.2765 37.6812 57.8741C37.7718 57.8137 37.8649 57.7559 37.958 57.698C38.0512 57.6402 38.1443 57.5823 38.2349 57.5219C38.7985 57.1597 39.2716 56.8579 39.7749 56.5661C40.3386 56.2341 40.9426 55.892 41.627 55.5198C41.9826 55.3207 42.3433 55.1317 42.6983 54.9457C42.8457 54.8684 42.9922 54.7916 43.1369 54.7149L43.3583 54.6042C43.5008 54.533 43.6463 54.4587 43.7944 54.3831C44.023 54.2665 44.2575 54.1467 44.4958 54.0307L44.8883 53.8396C45.442 53.5679 46.0157 53.2962 46.5995 53.0347L46.831 52.934C47.3028 52.7245 47.7801 52.526 48.2506 52.3305C48.4125 52.2631 48.5737 52.1961 48.7335 52.1292L49.5689 51.777L49.9414 51.6261C50.3088 51.4701 50.6787 51.3167 51.0486 51.1633C51.4185 51.0098 51.7884 50.8564 52.1558 50.7005C52.2766 50.6468 52.3974 50.6021 52.5182 50.5574C52.5786 50.535 52.639 50.5127 52.6994 50.4892L52.9611 50.3886L54.2998 49.8755L54.9239 49.634L55.4876 49.4126C55.6789 49.3321 55.9003 49.2517 56.1419 49.1712C56.2734 49.1254 56.4082 49.083 56.5443 49.0401C56.6479 49.0074 56.7522 48.9745 56.8566 48.9398L57.5209 48.7285C57.5813 48.7084 57.6392 48.6882 57.697 48.6681C57.7549 48.648 57.8128 48.6279 57.8732 48.6077C57.9325 48.588 57.9929 48.5672 58.0544 48.5459C58.1807 48.5023 58.3115 48.4572 58.4469 48.4166L59.3529 48.1449C59.5139 48.1047 59.6749 48.0544 59.8358 48.0041L59.836 48.0041C59.9065 47.984 59.9744 47.9638 60.0424 47.9437C60.1103 47.9236 60.1783 47.9035 60.2487 47.8833C60.5104 47.8029 60.7822 47.7224 61.0641 47.6419C61.5875 47.501 62.0908 47.3702 62.6544 47.2294C63.1204 47.1151 63.5941 47.0009 64.0956 46.8799L64.3153 46.8269C64.3052 46.6659 64.2952 46.5024 64.2851 46.339C64.275 46.1755 64.265 46.012 64.2549 45.851C64.2376 45.5564 64.2194 45.2585 64.2011 44.9587C64.1557 44.2141 64.1096 43.4579 64.0737 42.7119C64.0033 41.3235 63.9429 39.9451 63.8925 38.6069C63.8422 37.1078 63.8019 35.6288 63.7717 34.2002C63.7416 32.8821 63.7315 31.5541 63.7315 30.3065C63.7315 29.069 63.7315 27.8013 63.7416 26.5235Z" fill="white"/>
</svg>
