<svg width="183" height="30" viewBox="0 0 183 30" fill="none" xmlns="http://www.w3.org/2000/svg">
<g clip-path="url(#clip0_921_636)">
<path d="M87.4186 15.8036C85.8689 14.3508 83.8836 13.5757 81.4621 13.5757C78.9922 13.5757 77.0064 14.3508 75.4569 15.9005C73.9072 17.4502 73.1323 19.3389 73.1323 21.6633C73.1323 24.1332 73.9072 26.0705 75.4569 27.5231C77.0064 28.9762 79.0406 29.751 81.4621 29.751C83.8836 29.751 85.8689 28.9762 87.4186 27.475C88.1934 26.6998 88.8231 25.8284 89.2106 24.8596C89.5979 23.8912 89.7919 22.8257 89.7919 21.6148C89.7919 19.1934 88.9686 17.2565 87.4186 15.8036ZM84.9005 25.1987C84.0772 26.119 82.9148 26.5547 81.4136 26.5547C80.1061 26.5547 78.8952 26.119 78.0237 25.1502C77.1034 24.1818 76.7158 22.9708 76.7158 21.6148C76.7158 20.1622 77.152 18.9998 78.0237 18.0798C78.8952 17.1596 80.0575 16.7238 81.4136 16.7238C82.7212 16.7238 83.835 17.1596 84.755 18.0798C85.6753 18.9998 86.1111 20.1622 86.1111 21.6148C86.1595 23.0679 85.7238 24.2784 84.9005 25.1987Z" fill="#D3D9DD"/>
<path d="M100.114 20.6066H95.6588V17.0231H100.793C101.034 17.0231 101.228 16.8292 101.228 16.5871V14.3111C101.228 14.069 101.034 13.875 100.793 13.875H92.7044C92.4623 13.875 92.2687 14.069 92.2687 14.3111V29.0815C92.2687 29.324 92.4623 29.5177 92.7044 29.5177H95.2228C95.4647 29.5177 95.6588 29.324 95.6588 29.0815V23.8029H100.114C100.357 23.8029 100.55 23.6093 100.55 23.3672V21.0909C100.55 20.8003 100.357 20.6066 100.114 20.6066Z" fill="#D3D9DD"/>
<path d="M107.623 17.0231V29.0815C107.623 29.324 107.817 29.5177 108.059 29.5177H110.577C110.819 29.5177 111.013 29.324 111.013 29.0815V17.0231H115.323C115.566 17.0231 115.759 16.8292 115.759 16.5871V14.3111C115.759 14.069 115.566 13.875 115.323 13.875H103.265C103.022 13.875 102.829 14.069 102.829 14.3111V16.5871C102.829 16.8292 103.022 17.0231 103.265 17.0231H107.623Z" fill="#D3D9DD"/>
<path d="M121.757 23.0194C122.532 23.407 123.113 23.7457 123.549 24.1332C123.937 24.4723 124.178 24.8596 124.178 25.2472C124.178 25.6345 124.033 25.9736 123.743 26.2641C123.453 26.5062 123.065 26.6032 122.581 26.6032C121.951 26.6032 121.322 26.4578 120.692 26.1671C120.256 25.9736 119.869 25.6829 119.529 25.3438C119.336 25.1502 119.046 25.1987 118.9 25.3923L117.496 27.0874C117.351 27.2325 117.351 27.4265 117.447 27.6202C117.834 28.2498 118.464 28.734 119.288 29.1213C120.305 29.6058 121.37 29.7995 122.483 29.7995C124.033 29.7995 125.292 29.3634 126.309 28.492C127.133 27.8622 127.714 26.8938 127.81 25.8284C127.908 24.763 127.763 23.8427 127.375 23.1163C127.085 22.4866 126.649 22.051 126.164 21.7119C125.68 21.3728 125.147 21.034 124.614 20.7433C124.033 20.4528 123.501 20.2107 123.016 20.0167C122.532 19.8231 122.096 19.5325 121.757 19.1934C121.418 18.8547 121.224 18.4671 121.224 18.0313C121.224 17.6438 121.37 17.305 121.66 17.0625C121.951 16.8205 122.387 16.7238 122.919 16.7238C123.453 16.7238 123.888 16.8205 124.227 16.9659C124.469 17.0625 124.712 17.208 124.954 17.4502C125.147 17.5953 125.438 17.5953 125.583 17.3532L126.842 15.5129C126.988 15.3193 126.939 15.0772 126.745 14.9317C125.728 14.0117 124.324 13.5757 122.532 13.5757C121.031 13.5757 119.82 14.0117 118.9 14.8836C117.98 15.755 117.544 16.8205 117.544 18.0313C117.544 18.6125 117.593 19.0968 117.787 19.581C117.98 20.0652 118.222 20.4528 118.464 20.7919C118.706 21.1306 119.046 21.4212 119.482 21.7603C119.918 22.051 120.256 22.293 120.595 22.4866C120.886 22.6803 121.273 22.8257 121.757 23.0194Z" fill="#D3D9DD"/>
<path d="M137.198 29.1753L140.443 19.0053L143.736 29.1753C143.784 29.3692 143.978 29.4659 144.172 29.4659H146.835C147.029 29.4659 147.223 29.3208 147.271 29.1268L151.436 14.3563C151.533 14.0658 151.291 13.7751 151 13.7751H148.675C148.482 13.7751 148.288 13.9203 148.239 14.1142L145.528 24.0903L142.477 14.0658C142.429 13.8721 142.235 13.7751 142.041 13.7751H139.232C139.038 13.7751 138.845 13.9203 138.796 14.1142L135.842 24.1387L133.178 14.1624C133.131 13.9687 132.937 13.8236 132.743 13.8236H129.788C129.498 13.8236 129.256 14.1142 129.353 14.4049L133.711 29.1753C133.76 29.3692 133.953 29.5144 134.147 29.5144H136.81C136.956 29.5144 137.101 29.3692 137.198 29.1753Z" fill="#D3D9DD"/>
<path d="M154.291 29.5177H156.809C157.051 29.5177 157.245 29.324 157.245 29.0815V14.3111C157.245 14.069 157.051 13.875 156.809 13.875H154.291C154.049 13.875 153.855 14.069 153.855 14.3111V29.0815C153.806 29.324 154.049 29.5177 154.291 29.5177Z" fill="#D3D9DD"/>
<path d="M164.603 23.0207C165.377 23.4083 165.958 23.7474 166.394 24.1346C166.781 24.4737 167.024 24.861 167.024 25.2485C167.024 25.6361 166.879 25.9749 166.588 26.2654C166.298 26.5076 165.91 26.6045 165.426 26.6045C164.796 26.6045 164.167 26.4591 163.537 26.1688C163.101 25.9749 162.713 25.6843 162.375 25.3455C162.181 25.1516 161.89 25.2001 161.745 25.3936L160.341 27.0887C160.195 27.2339 160.195 27.4278 160.292 27.6215C160.679 28.2511 161.309 28.7354 162.132 29.1229C163.149 29.6072 164.214 29.8008 165.329 29.8008C166.879 29.8008 168.138 29.3651 169.155 28.4933L169.299 28.3478C170.123 27.5245 170.656 26.4591 170.656 25.297C170.656 24.4737 170.511 23.7474 170.171 23.1661C169.881 22.5365 169.445 22.1008 169.009 21.7617C168.525 21.4226 167.993 21.0838 167.411 20.7932C166.83 20.5026 166.298 20.2605 165.813 20.0666C165.329 19.8729 164.892 19.5824 164.554 19.2433C164.214 18.9045 164.021 18.5169 164.021 18.0811C164.021 17.6936 164.167 17.3549 164.457 17.1124C164.748 16.8703 165.183 16.7736 165.716 16.7736C166.249 16.7736 166.685 16.8703 167.024 17.0158C167.266 17.1124 167.508 17.2578 167.751 17.5C167.944 17.6451 168.234 17.6451 168.38 17.403L169.688 15.5627C169.833 15.3691 169.784 15.127 169.59 14.9816C168.574 14.0616 167.169 13.6255 165.377 13.6255C163.876 13.6255 162.666 14.0616 161.745 14.9334C160.825 15.8049 160.388 16.8703 160.388 18.0811C160.388 18.6624 160.437 19.1466 160.631 19.6308C160.825 20.1151 161.067 20.5026 161.309 20.8413C161.551 21.1804 161.89 21.4711 162.326 21.8101C162.762 22.1008 163.101 22.3428 163.44 22.5365C163.731 22.6819 164.118 22.8271 164.603 23.0207Z" fill="#D3D9DD"/>
<path d="M176.759 23.0207C177.533 23.4083 178.115 23.7474 178.551 24.1346C178.938 24.4737 179.181 24.861 179.181 25.2485C179.181 25.6361 179.034 25.9749 178.744 26.2654C178.453 26.5076 178.066 26.6045 177.582 26.6045C176.952 26.6045 176.323 26.4591 175.693 26.1688C175.257 25.9749 174.87 25.6843 174.531 25.3455C174.338 25.1516 174.047 25.2001 173.902 25.3936L172.497 27.0887C172.352 27.2339 172.352 27.4278 172.448 27.6215C172.836 28.2511 173.466 28.7354 174.289 29.1229C175.306 29.6072 176.371 29.8008 177.485 29.8008C179.034 29.8008 180.294 29.3651 181.311 28.4933L181.456 28.3478C182.279 27.5245 182.813 26.4591 182.813 25.297C182.813 24.4737 182.667 23.7474 182.328 23.1661C182.037 22.5365 181.601 22.1008 181.165 21.7617C180.682 21.4226 180.149 21.0838 179.568 20.7932C178.987 20.5026 178.453 20.2605 177.969 20.0666C177.485 19.8729 177.05 19.5824 176.71 19.2433C176.371 18.9045 176.178 18.5169 176.178 18.0811C176.178 17.6936 176.323 17.3549 176.614 17.1124C176.903 16.8703 177.34 16.7736 177.873 16.7736C178.405 16.7736 178.841 16.8703 179.181 17.0158C179.423 17.1124 179.664 17.2578 179.906 17.5C180.1 17.6451 180.391 17.6451 180.536 17.403L181.844 15.5627C181.988 15.3691 181.941 15.127 181.747 14.9816C180.729 14.0616 179.325 13.6255 177.533 13.6255C176.033 13.6255 174.821 14.0616 173.902 14.9334C172.981 15.8049 172.546 16.8703 172.546 18.0811C172.546 18.6624 172.594 19.1466 172.788 19.6308C172.981 20.1151 173.224 20.5026 173.466 20.8413C173.708 21.1804 174.047 21.4711 174.483 21.8101C174.919 22.1008 175.257 22.3428 175.597 22.5365C175.935 22.6819 176.323 22.8271 176.759 23.0207Z" fill="#D3D9DD"/>
<path d="M64.9543 23.0194C65.7292 23.407 66.3103 23.7457 66.7464 24.1332C67.1336 24.4723 67.3758 24.8596 67.3758 25.2472C67.3758 25.6345 67.2307 25.9736 66.94 26.2641C66.6494 26.5062 66.2619 26.6032 65.7776 26.6032C65.1483 26.6032 64.5186 26.4578 63.8889 26.1671C63.4532 25.9736 63.0655 25.6829 62.7268 25.3438C62.5328 25.1502 62.2422 25.1987 62.0971 25.3923L60.6926 27.0874C60.5475 27.2325 60.5475 27.4265 60.6442 27.6202C61.0317 28.2498 61.6613 28.734 62.4847 29.1213C63.5017 29.6058 64.567 29.7995 65.681 29.7995C67.2307 29.7995 68.4896 29.3634 69.5066 28.492L69.652 28.3465C70.4754 27.5231 71.0081 26.4578 71.0562 25.2472C71.0562 24.4239 70.9111 23.6975 70.572 23.1163C70.2814 22.4866 69.8457 22.051 69.3615 21.7119C68.8773 21.3728 68.3445 21.034 67.8118 20.7433C67.2307 20.4528 66.6979 20.2107 66.2137 20.0167C65.7292 19.8231 65.2934 19.5325 64.9543 19.1934C64.6156 18.8547 64.4216 18.4671 64.4216 18.0313C64.4216 17.6438 64.567 17.305 64.8577 17.0625C65.1483 16.8205 65.584 16.7238 66.1167 16.7238C66.6494 16.7238 67.0852 16.8205 67.4243 16.9659C67.6663 17.0625 67.9085 17.208 68.1505 17.4502C68.3445 17.5953 68.6351 17.5953 68.7803 17.3532L70.0878 15.5129C70.2333 15.3193 70.1848 15.0772 69.9909 14.9317C68.9739 14.0117 67.5694 13.5757 65.7776 13.5757C64.2765 13.5757 63.0655 14.0117 62.1457 14.8836C61.2253 15.755 60.7896 16.8205 60.7896 18.0313C60.7896 18.6125 60.8381 19.0968 61.0317 19.581C61.2253 20.0652 61.4675 20.4528 61.7095 20.7919C61.952 21.1306 62.2908 21.4212 62.7268 21.7603C63.1626 22.051 63.5017 22.293 63.8404 22.4866C64.0828 22.6803 64.5186 22.8257 64.9543 23.0194Z" fill="#D3D9DD"/>
<path d="M21.3932 18.9702C20.4247 18.0018 19.8921 16.7427 19.8436 15.3867L14.7586 20.4717L9.47962 15.1927L14.7586 9.91413L16.3082 11.4638C16.6958 11.8514 17.2282 12.045 17.7609 12.045C18.2936 12.045 18.8263 11.8514 19.2139 11.4638L21.4417 9.23628C22.2651 8.41298 22.2651 7.10543 21.4417 6.33061L16.2112 1.05166C15.824 0.664412 15.2913 0.470459 14.7586 0.470459C14.2259 0.470459 13.6931 0.664412 13.3056 1.05166L0.617484 13.7401C-0.205828 14.5634 -0.205828 15.8709 0.617484 16.6458L13.2571 29.2857C13.6447 29.673 14.1773 29.8668 14.7101 29.8668C15.2428 29.8668 15.7755 29.673 16.1628 29.2857L24.9286 20.5199C23.6211 20.4717 22.3617 19.939 21.3932 18.9702Z" fill="#D3D9DD"/>
<path d="M49.7038 16.6458L37.0639 29.2857C36.6766 29.673 36.1439 29.8668 35.6111 29.8668C35.0784 29.8668 34.5457 29.673 34.1582 29.2857L28.8795 24.0552C28.0562 23.2319 28.0562 21.9243 28.8795 21.1496L31.1074 18.9217C31.4946 18.5344 32.0273 18.3408 32.56 18.3408C33.0927 18.3408 33.6254 18.5344 34.0131 18.9217L35.4657 20.4232L35.5626 20.5199L40.8412 15.2413L35.5626 9.91413L27.7171 17.7597C27.669 17.8082 27.669 17.8082 27.6205 17.8563C26.9423 18.486 26.0705 18.8251 25.1506 18.8251C24.1821 18.8251 23.2618 18.4375 22.584 17.7597C21.9058 17.0815 21.5185 16.1615 21.5185 15.1927C21.5185 14.2728 21.8573 13.401 22.487 12.7232C22.5355 12.6747 22.5355 12.6747 22.584 12.6261L22.6321 12.5777L22.6806 12.5292L34.1097 1.05166C34.4973 0.664412 35.03 0.470459 35.5626 0.470459C36.0953 0.470459 36.6281 0.664412 37.0157 1.05166L49.6552 13.6916C50.527 14.5149 50.527 15.8224 49.7038 16.6458Z" fill="#D3D9DD"/>
<path d="M61.2482 9.42963C61.1646 9.42963 61.0961 9.40301 61.043 9.34977C60.9897 9.29657 60.9631 9.22815 60.9631 9.14455V1.73329C60.9631 1.64967 60.9897 1.58126 61.043 1.52805C61.0961 1.47484 61.1646 1.44824 61.2482 1.44824H64.3609C64.9766 1.44824 65.5088 1.54326 65.9572 1.73329C66.4133 1.92332 66.7667 2.21216 67.0176 2.59983C67.2761 2.9799 67.4052 3.45498 67.4052 4.02507C67.4052 4.60277 67.2761 5.08165 67.0176 5.46172C66.7667 5.83418 66.4133 6.11163 65.9572 6.29406C65.5088 6.47649 64.9766 6.56771 64.3609 6.56771H62.833V9.14455C62.833 9.22815 62.8064 9.29657 62.7533 9.34977C62.7 9.40301 62.6317 9.42963 62.548 9.42963H61.2482ZM62.7988 5.15387H64.3039C64.6915 5.15387 64.9918 5.05885 65.2046 4.86881C65.4251 4.67878 65.5353 4.39374 65.5353 4.01367C65.5353 3.67922 65.4365 3.40557 65.2389 3.19273C65.0488 2.9799 64.7372 2.87348 64.3039 2.87348H62.7988V5.15387Z" fill="#D3D9DD"/>
<path d="M71.7379 9.54363C71.0462 9.54363 70.4495 9.42964 69.9477 9.20156C69.4461 8.97351 69.0547 8.63146 68.7734 8.17538C68.4922 7.7117 68.3401 7.13021 68.3173 6.43089C68.3097 6.10403 68.3059 5.78098 68.3059 5.46172C68.3059 5.13487 68.3097 4.80422 68.3173 4.46975C68.3401 3.78564 68.4922 3.21174 68.7734 2.74806C69.0623 2.27678 69.4575 1.92333 69.9592 1.68768C70.4684 1.45204 71.0614 1.33423 71.7379 1.33423C72.4068 1.33423 72.9921 1.45204 73.4937 1.68768C74.0031 1.92333 74.4022 2.27678 74.691 2.74806C74.9798 3.21174 75.1318 3.78564 75.147 4.46975C75.1623 4.80422 75.1699 5.13487 75.1699 5.46172C75.1699 5.78098 75.1623 6.10403 75.147 6.43089C75.1242 7.13021 74.9723 7.7117 74.691 8.17538C74.4098 8.63146 74.0183 8.97351 73.5166 9.20156C73.0148 9.42964 72.422 9.54363 71.7379 9.54363ZM71.7379 8.07276C72.1788 8.07276 72.5398 7.93974 72.8211 7.6737C73.1099 7.40005 73.262 6.96677 73.2772 6.37388C73.2923 6.03942 73.2999 5.72777 73.2999 5.43892C73.2999 5.14247 73.2923 4.83081 73.2772 4.50396C73.2696 4.10869 73.1973 3.78564 73.0605 3.53479C72.9236 3.28396 72.7413 3.10152 72.5132 2.9875C72.2928 2.86589 72.0343 2.80507 71.7379 2.80507C71.4414 2.80507 71.1792 2.86589 70.9511 2.9875C70.7231 3.10152 70.5407 3.28396 70.4038 3.53479C70.2746 3.78564 70.2024 4.10869 70.1873 4.50396C70.1796 4.83081 70.1758 5.14247 70.1758 5.43892C70.1758 5.72777 70.1796 6.03942 70.1873 6.37388C70.21 6.96677 70.362 7.40005 70.6433 7.6737C70.9245 7.93974 71.2894 8.07276 71.7379 8.07276Z" fill="#D3D9DD"/>
<path d="M77.7958 9.42963C77.6742 9.42963 77.5754 9.39541 77.4994 9.32697C77.431 9.25857 77.3892 9.17495 77.3739 9.07613L76.0742 1.76749C76.0666 1.75229 76.0627 1.73709 76.0627 1.72189C76.0627 1.70668 76.0627 1.69528 76.0627 1.68768C76.0627 1.62687 76.0855 1.57366 76.1312 1.52805C76.1767 1.47484 76.2337 1.44824 76.3022 1.44824H77.4994C77.697 1.44824 77.8072 1.52805 77.83 1.68768L78.6852 6.5107L79.6087 3.51199C79.6315 3.45117 79.6696 3.38657 79.7227 3.31815C79.776 3.24974 79.8634 3.21554 79.9851 3.21554H80.7034C80.825 3.21554 80.9123 3.24974 80.9656 3.31815C81.0188 3.38657 81.053 3.45117 81.0682 3.51199L82.0031 6.4993L82.8469 1.68768C82.8697 1.52805 82.9837 1.44824 83.189 1.44824H84.3861C84.4546 1.44824 84.5116 1.47484 84.5571 1.52805C84.6028 1.57366 84.6256 1.62687 84.6256 1.68768C84.6256 1.69528 84.6256 1.70668 84.6256 1.72189C84.6256 1.73709 84.6218 1.75229 84.6142 1.76749L83.3144 9.07613C83.2992 9.17495 83.2536 9.25857 83.1775 9.32697C83.1092 9.39541 83.0141 9.42963 82.8925 9.42963H81.969C81.8473 9.42963 81.7523 9.39916 81.6839 9.33838C81.6231 9.26997 81.5812 9.20156 81.5585 9.13314L80.3385 5.59855L79.1299 9.13314C79.1071 9.20156 79.0614 9.26997 78.9931 9.33838C78.9322 9.39916 78.8372 9.42963 78.708 9.42963H77.7958Z" fill="#D3D9DD"/>
<path d="M86.1676 9.42963C86.0841 9.42963 86.0156 9.40301 85.9624 9.34977C85.9092 9.29657 85.8826 9.22815 85.8826 9.14455V1.73329C85.8826 1.64967 85.9092 1.58126 85.9624 1.52805C86.0156 1.47484 86.0841 1.44824 86.1676 1.44824H91.3327C91.4163 1.44824 91.4847 1.47484 91.538 1.52805C91.5911 1.58126 91.6177 1.64967 91.6177 1.73329V2.64544C91.6177 2.72145 91.5911 2.78606 91.538 2.83928C91.4847 2.89248 91.4163 2.91909 91.3327 2.91909H87.6384V4.70919H91.0819C91.1655 4.70919 91.2338 4.73579 91.2871 4.78901C91.3403 4.84222 91.3669 4.91063 91.3669 4.99424V5.83798C91.3669 5.914 91.3403 5.97861 91.2871 6.03181C91.2338 6.08502 91.1655 6.11163 91.0819 6.11163H87.6384V7.95874H91.4239C91.5075 7.95874 91.5759 7.98535 91.6292 8.03856C91.6823 8.09176 91.709 8.16017 91.709 8.24379V9.14455C91.709 9.22815 91.6823 9.29657 91.6292 9.34977C91.5759 9.40301 91.5075 9.42963 91.4239 9.42963H86.1676Z" fill="#D3D9DD"/>
<path d="M93.3495 9.42963C93.2659 9.42963 93.1975 9.40301 93.1443 9.34977C93.091 9.29657 93.0645 9.22815 93.0645 9.14455V1.73329C93.0645 1.64967 93.091 1.58126 93.1443 1.52805C93.1975 1.47484 93.2659 1.44824 93.3495 1.44824H96.3713C97.321 1.44824 98.07 1.66868 98.6175 2.10955C99.1641 2.54282 99.4378 3.16993 99.4378 3.99087C99.4378 4.54576 99.3047 5.00944 99.0394 5.38191C98.7731 5.75437 98.416 6.03181 97.9669 6.21425L99.5747 9.06473C99.5981 9.11034 99.6094 9.15214 99.6094 9.19015C99.6094 9.25096 99.586 9.30797 99.541 9.36117C99.495 9.40676 99.4378 9.42963 99.3694 9.42963H98.1038C97.9669 9.42963 97.8647 9.39541 97.7963 9.32697C97.7278 9.25096 97.6781 9.18255 97.6481 9.12174L96.2569 6.5107H94.8778V9.14455C94.8778 9.22815 94.8506 9.29657 94.7972 9.34977C94.7447 9.40301 94.6763 9.42963 94.5919 9.42963H93.3495ZM94.8778 5.06265H96.3366C96.7547 5.06265 97.0631 4.96764 97.26 4.7776C97.4653 4.58757 97.5685 4.32152 97.5685 3.97946C97.5685 3.63741 97.4691 3.36757 97.2722 3.16993C97.0744 2.9723 96.7622 2.87348 96.3366 2.87348H94.8778V5.06265Z" fill="#D3D9DD"/>
<path d="M101.122 9.42963C101.038 9.42963 100.97 9.40301 100.916 9.34977C100.863 9.29657 100.837 9.22815 100.837 9.14455V1.73329C100.837 1.64967 100.863 1.58126 100.916 1.52805C100.97 1.47484 101.038 1.44824 101.122 1.44824H106.286C106.371 1.44824 106.439 1.47484 106.492 1.52805C106.545 1.58126 106.571 1.64967 106.571 1.73329V2.64544C106.571 2.72145 106.545 2.78606 106.492 2.83928C106.439 2.89248 106.371 2.91909 106.286 2.91909H102.593V4.70919H106.036C106.119 4.70919 106.188 4.73579 106.241 4.78901C106.294 4.84222 106.321 4.91063 106.321 4.99424V5.83798C106.321 5.914 106.294 5.97861 106.241 6.03181C106.188 6.08502 106.119 6.11163 106.036 6.11163H102.593V7.95874H106.378C106.462 7.95874 106.53 7.98535 106.583 8.03856C106.636 8.09176 106.663 8.16017 106.663 8.24379V9.14455C106.663 9.22815 106.636 9.29657 106.583 9.34977C106.53 9.40301 106.462 9.42963 106.378 9.42963H101.122Z" fill="#D3D9DD"/>
<path d="M108.304 9.42963C108.219 9.42963 108.151 9.40301 108.098 9.34977C108.045 9.29657 108.019 9.22815 108.019 9.14455V1.73329C108.019 1.64967 108.045 1.58126 108.098 1.52805C108.151 1.47484 108.219 1.44824 108.304 1.44824H111.165C111.925 1.44824 112.56 1.56985 113.069 1.8131C113.579 2.04874 113.966 2.3984 114.233 2.86208C114.506 3.31815 114.651 3.88445 114.666 4.56097C114.673 4.89542 114.677 5.18807 114.677 5.43892C114.677 5.68975 114.673 5.97861 114.666 6.30546C114.643 7.01238 114.503 7.59768 114.244 8.06136C113.985 8.52504 113.605 8.8709 113.104 9.09894C112.602 9.31937 111.975 9.42963 111.222 9.42963H108.304ZM109.831 7.95874H111.165C111.546 7.95874 111.857 7.90173 112.101 7.78771C112.343 7.67369 112.523 7.49506 112.636 7.25182C112.758 7.00098 112.823 6.67793 112.83 6.28266C112.838 6.06222 112.841 5.86459 112.841 5.68975C112.849 5.51493 112.849 5.3401 112.841 5.16527C112.841 4.99044 112.838 4.79661 112.83 4.58377C112.815 4.01367 112.667 3.59561 112.386 3.32956C112.112 3.05591 111.686 2.91909 111.108 2.91909H109.831V7.95874Z" fill="#D3D9DD"/>
<path d="M118.904 9.42963C118.82 9.42963 118.751 9.40301 118.699 9.34977C118.645 9.29657 118.618 9.22815 118.618 9.14455V1.73329C118.618 1.64967 118.645 1.58126 118.699 1.52805C118.751 1.47484 118.82 1.44824 118.904 1.44824H122.29C122.921 1.44824 123.438 1.53945 123.841 1.72189C124.243 1.90432 124.54 2.16276 124.73 2.49722C124.928 2.83167 125.027 3.22314 125.027 3.67162C125.027 3.95287 124.973 4.19991 124.867 4.41274C124.768 4.62558 124.643 4.80041 124.491 4.93723C124.346 5.07405 124.206 5.17667 124.069 5.24508C124.365 5.38191 124.624 5.60995 124.844 5.9292C125.072 6.24085 125.186 6.61331 125.186 7.04659C125.186 7.52547 125.079 7.94354 124.867 8.3008C124.654 8.65806 124.339 8.9355 123.921 9.13314C123.503 9.33077 122.993 9.42963 122.393 9.42963H118.904ZM120.431 8.09557H122.176C122.548 8.09557 122.829 7.99295 123.02 7.78771C123.21 7.57488 123.305 7.32403 123.305 7.03518C123.305 6.73873 123.206 6.49169 123.008 6.29406C122.818 6.08882 122.541 5.98621 122.176 5.98621H120.431V8.09557ZM120.431 4.67499H122.074C122.431 4.67499 122.696 4.58757 122.872 4.41274C123.054 4.23031 123.145 3.99847 123.145 3.71723C123.145 3.43598 123.054 3.21174 122.872 3.0445C122.696 2.86968 122.431 2.78227 122.074 2.78227H120.431V4.67499Z" fill="#D3D9DD"/>
<path d="M128.639 9.42963C128.556 9.42963 128.487 9.40301 128.434 9.34977C128.381 9.29657 128.354 9.22815 128.354 9.14455V6.63611L125.686 1.8131C125.678 1.7903 125.671 1.7713 125.663 1.75609C125.656 1.73329 125.652 1.71048 125.652 1.68768C125.652 1.62687 125.675 1.57366 125.721 1.52805C125.774 1.47484 125.83 1.44824 125.891 1.44824H127.101C127.207 1.44824 127.29 1.47484 127.351 1.52805C127.412 1.58126 127.454 1.63067 127.477 1.67628L129.266 4.81181L131.057 1.67628C131.079 1.63067 131.122 1.58126 131.182 1.52805C131.243 1.47484 131.327 1.44824 131.433 1.44824H132.641C132.702 1.44824 132.756 1.47484 132.802 1.52805C132.854 1.57366 132.881 1.62687 132.881 1.68768C132.881 1.71048 132.878 1.73329 132.87 1.75609C132.862 1.7713 132.854 1.7903 132.847 1.8131L130.178 6.63611V9.14455C130.178 9.22815 130.152 9.29657 130.099 9.34977C130.045 9.40301 129.977 9.42963 129.893 9.42963H128.639Z" fill="#D3D9DD"/>
</g>
<defs>
<clipPath id="clip0_921_636">
<rect width="182.813" height="30" fill="white"/>
</clipPath>
</defs>
</svg>
