<svg width="80" height="33" viewBox="0 0 80 33" fill="none" xmlns="http://www.w3.org/2000/svg">
<g clip-path="url(#clip0_1172_10763)">
<path fill-rule="evenodd" clip-rule="evenodd" d="M53.8672 4.3661H61.2909L66.9316 0L72.5757 4.3661H79.9994V25.7729L66.9316 32.2034L53.8672 25.7729V4.3661Z" fill="#3E314B"/>
<path fill-rule="evenodd" clip-rule="evenodd" d="M57.1758 8.16948H58.4436L58.5283 20.661L58.6131 8.16948H60.8605L60.9453 26.0203L57.1758 24.1288V8.16948ZM61.03 8.16948H62.7182L64.0978 7.06779L64.1521 12.0949L64.2063 6.97965L64.3826 6.83728L64.4436 12.4542L64.5046 6.73898L65.308 6.0983L65.3521 10.2813L65.3995 6.02711L65.5893 5.87457L65.6402 10.6305L65.691 5.78982L66.3046 5.30169L66.3588 10.2813L66.4131 5.21355L66.6436 5.02711L66.8131 20.7729L66.986 4.83728L68.891 6.3627L68.9893 15.5763L69.0876 6.52203L70.4876 7.64067L70.5961 17.5525L70.6978 7.81016L71.1487 8.16948H73.1724L73.2368 14.2542L73.3012 8.16948H74.3656L74.4334 14.4542L74.5012 8.16948H75.2266L75.2673 12.0949L75.3114 8.16948H75.9622L76.0334 12.6508L76.108 8.16948H76.691V24.1288L72.0131 26.4746L71.9588 24.0373L71.908 26.5288L70.6775 27.1424L70.5826 18.2814L70.4876 27.2407L69.6029 27.6847L69.5419 22.1966L69.4843 27.7424L68.6436 28.1627L68.569 21.1288L68.491 28.2407L67.0097 28.983L66.8707 16.061L66.7317 28.922L65.5995 28.3525L65.5622 21.4L65.5283 28.3153L64.8232 27.9627L64.7554 21.7356L64.691 27.8983L63.2198 27.1593L63.1385 19.7152L63.0605 27.0814L60.9453 26.0203L61.03 8.16948Z" fill="#6A5C80"/>
<path fill-rule="evenodd" clip-rule="evenodd" d="M62.3994 6.9322L66.9316 3.42034L71.4672 6.9322H77.4333V24.0983L66.9316 29.2644L56.4333 24.0983V6.9322H62.3994ZM79.9994 25.7729V4.3661H72.5757L66.9316 0L61.2909 4.3661H53.8672V25.7729L66.9316 32.2034L79.9994 25.7729Z" fill="#FCCD4B"/>
<path fill-rule="evenodd" clip-rule="evenodd" d="M55.1452 5.64406H61.8401L61.2909 4.36609H53.8672L55.1452 5.64406Z" fill="#FCCD4B"/>
<path fill-rule="evenodd" clip-rule="evenodd" d="M66.9317 0L61.291 4.3661L61.8402 5.64407L66.9317 1.70508V0Z" fill="#FFE46F"/>
<path fill-rule="evenodd" clip-rule="evenodd" d="M72.0266 5.64407L72.5757 4.3661L66.9316 0V1.70508L72.0266 5.64407Z" fill="#FCCD4B"/>
<path fill-rule="evenodd" clip-rule="evenodd" d="M80.0002 4.36609H72.5765L72.0273 5.64406H78.7223L80.0002 4.36609Z" fill="url(#paint0_linear_1172_10763)"/>
<path fill-rule="evenodd" clip-rule="evenodd" d="M78.7207 5.64406V24.9356L79.9987 25.7729V4.36609L78.7207 5.64406Z" fill="#FF9934"/>
<path fill-rule="evenodd" clip-rule="evenodd" d="M71.4672 6.9322H77.4333L78.7215 5.64406H72.0266L66.9316 1.70508V3.42033L71.4672 6.9322Z" fill="#FBB03D"/>
<path fill-rule="evenodd" clip-rule="evenodd" d="M62.3992 6.9322L66.9314 3.42033V1.70508L61.8398 5.64406L62.3992 6.9322Z" fill="#FF953A"/>
<path fill-rule="evenodd" clip-rule="evenodd" d="M55.1452 24.9356V5.64406L53.8672 4.36609V25.7729L55.1452 24.9356Z" fill="url(#paint1_linear_1172_10763)"/>
<path fill-rule="evenodd" clip-rule="evenodd" d="M66.931 29.2644L56.4327 24.0983V6.93218H62.3988L61.8394 5.64404H55.1445V24.9356L66.931 30.7186V29.2644Z" fill="#FECC47"/>
<path fill-rule="evenodd" clip-rule="evenodd" d="M66.9316 30.7186L55.1452 24.9355L53.8672 25.7728L66.9316 32.2033V30.7186Z" fill="#FFB63F"/>
<path fill-rule="evenodd" clip-rule="evenodd" d="M78.7215 24.9355L66.9316 30.7186V32.2033L79.9994 25.7728L78.7215 24.9355Z" fill="#FF9934"/>
<path fill-rule="evenodd" clip-rule="evenodd" d="M66.9316 30.7186L78.7215 24.9356L77.4333 24.0983L66.9316 29.2644V30.7186Z" fill="url(#paint2_linear_1172_10763)"/>
<path fill-rule="evenodd" clip-rule="evenodd" d="M77.4336 6.93218V24.0983L78.7217 24.9356V5.64404L77.4336 6.93218Z" fill="#FACD50"/>
<path d="M61.8063 5.55927L66.9317 1.59656L72.0605 5.55927H78.8063V24.9932L66.9317 30.8101L55.0605 24.9932V5.55927H61.8063ZM55.23 5.72876V24.8813L66.9317 30.6237L78.6368 24.8813V5.72876H71.986L66.9317 1.81012L61.8775 5.72876H55.23Z" fill="#FFFD99"/>
<path fill-rule="evenodd" clip-rule="evenodd" d="M17.7356 18.3288L18.6983 16.6882C18.7932 16.5288 18.8 16.3729 18.5864 16.3119C16.9593 15.8305 15.1288 15.556 13.4949 16.1661C11.8373 16.7865 10.7797 18.3221 11.7492 20.0983C12.339 21.1831 13.6068 21.6983 14.7017 22.1492C14.9661 22.2576 15.2509 22.4034 15.3797 22.6204C15.539 22.8848 15.417 23.2102 15.1831 23.3831C15.0339 23.4949 14.8373 23.556 14.6441 23.5627C13.9797 23.5865 13.3661 23.4543 12.7898 23.217L12.4 23.0678C12.2509 23.0136 12.1017 23.0271 12.0373 23.2204L11.4814 24.9017C11.4102 25.1153 11.4305 25.2136 11.661 25.278C12.9864 25.6373 14.8203 25.8475 16.1593 25.5356C17.2068 25.2915 18.1898 24.6407 18.5559 23.5865C18.9153 22.5458 18.6407 21.4373 17.7966 20.6848C17.0847 20.0475 16.5085 19.9458 15.6475 19.5424C15.4542 19.4509 15.2271 19.3288 15.0441 19.1797C14.3729 18.6271 14.8068 17.9458 15.5797 17.9153C16.2678 17.8848 16.7898 18.1051 17.3966 18.3729C17.5051 18.4204 17.661 18.4543 17.7356 18.3288ZM30.8678 15.9356C28.078 15.9356 25.817 18.0915 25.817 20.7492C25.817 23.4102 28.078 25.5661 30.8678 25.5661C33.6576 25.5661 35.922 23.4102 35.922 20.7492C35.922 18.0915 33.6576 15.9356 30.8678 15.9356ZM30.8678 18.2712C29.8237 18.2712 28.9729 19.3831 28.9729 20.7492C28.9729 22.1187 29.8237 23.2305 30.8678 23.2305C31.9153 23.2305 32.7627 22.1187 32.7627 20.7492C32.7627 19.3831 31.9153 18.2712 30.8678 18.2712ZM38.8576 25.5526H41.2475C41.4237 25.5526 41.5661 25.4102 41.5661 25.2339V18.6034C41.5661 18.4305 41.7085 18.2882 41.8847 18.2882H44.0915C44.2644 18.2882 44.4102 18.1424 44.4102 17.9695V16.2644C44.4102 16.0915 44.2644 15.9492 44.0915 15.9492H35.922C35.7458 15.9492 35.6034 16.0915 35.6034 16.2644V17.9695C35.6034 18.1424 35.7458 18.2882 35.922 18.2882H38.1254C38.3017 18.2882 38.4441 18.4305 38.4441 18.6034H38.539V25.2339C38.539 25.4102 38.6814 25.5526 38.8576 25.5526ZM51.0881 18.3288L52.0509 16.6882C52.1458 16.5288 52.1559 16.3729 51.9424 16.3119C50.3119 15.8305 48.4814 15.556 46.8475 16.1661C45.1898 16.7865 44.1356 18.3221 45.1017 20.0983C45.6949 21.1831 46.9627 21.6983 48.0542 22.1492C48.3186 22.2576 48.6034 22.4034 48.7322 22.6204C48.8915 22.8848 48.7695 23.2102 48.539 23.3831C48.3864 23.4949 48.1932 23.556 47.9966 23.5627C47.3322 23.5865 46.722 23.4543 46.1458 23.217L45.7525 23.0678C45.6034 23.0136 45.4542 23.0271 45.3898 23.2204L44.8339 24.9017C44.7627 25.1153 44.7831 25.2136 45.0136 25.278C46.339 25.6373 48.1729 25.8475 49.5119 25.5356C50.5593 25.2915 51.5458 24.6407 51.9085 23.5865C52.2678 22.5458 51.9966 21.4373 51.1492 20.6848C50.4373 20.0475 49.861 19.9458 49 19.5424C48.8068 19.4509 48.5797 19.3288 48.3966 19.1797C47.7254 18.6271 48.1593 17.9458 48.9322 17.9153C49.6237 17.8848 50.1424 18.1051 50.7525 18.3729C50.861 18.4204 51.017 18.4543 51.0881 18.3288ZM19.7729 15.9492H22.1627C22.339 15.9492 22.4814 16.0915 22.4814 16.2644V22.8983C22.4814 23.0712 22.6237 23.2136 22.8 23.2136H25.5831C25.7559 23.2136 25.9017 23.3593 25.9017 23.5322V25.2339C25.9017 25.4102 25.7559 25.5526 25.5831 25.5526H19.7729C19.5966 25.5526 19.4542 25.4102 19.4542 25.2339V16.2644C19.4542 16.0915 19.5966 15.9492 19.7729 15.9492Z" fill="white"/>
<path fill-rule="evenodd" clip-rule="evenodd" d="M6.88814 21.6712H8.27458C8.37627 21.6712 8.46102 21.5865 8.46102 21.4848V20.0543C8.46102 19.9526 8.54237 19.8678 8.64407 19.8678H10.261C10.3627 19.8678 10.4475 19.7865 10.4475 19.6848V18.7797C10.4475 18.678 10.3627 18.5932 10.261 18.5932H8.64407C8.54237 18.5932 8.46102 18.5119 8.46102 18.4102V17.6339C8.46102 17.5322 8.54237 17.4475 8.64407 17.4475H10.261C10.3627 17.4475 10.4475 17.3661 10.4475 17.2644V16.2746C10.4475 16.1729 10.3627 16.0916 10.261 16.0916H6.88814C6.78305 16.0916 6.7017 16.1729 6.7017 16.2746V21.4848C6.7017 21.5865 6.78305 21.6712 6.88814 21.6712ZM2.98983 16.1288C1.33898 16.1288 0 17.4068 0 18.9797C0 20.556 1.33898 21.8305 2.98983 21.8305C4.64068 21.8305 5.97966 20.556 5.97966 18.9797C5.97966 17.4068 4.64068 16.1288 2.98983 16.1288ZM2.98983 17.5119C2.37288 17.5119 1.8678 18.1695 1.8678 18.9797C1.8678 19.7899 2.37288 20.4475 2.98983 20.4475C3.61017 20.4475 4.11186 19.7899 4.11186 18.9797C4.11186 18.1695 3.61017 17.5119 2.98983 17.5119Z" fill="white"/>
<path fill-rule="evenodd" clip-rule="evenodd" d="M42.3162 4.41361H44.8654C45.0518 4.41361 45.2044 4.56616 45.2044 4.7526V7.83056C45.2044 8.017 45.3569 8.16955 45.5433 8.16955H48.3027C48.4891 8.16955 48.6416 8.017 48.6416 7.83056V4.7526C48.6416 4.56616 48.7942 4.41361 48.9806 4.41361H51.5298C51.7162 4.41361 51.8721 4.56616 51.8721 4.7526V14.3187C51.8721 14.5051 51.7162 14.6577 51.5298 14.6577H48.6416V11.2611C48.6416 11.0746 48.4891 10.9221 48.3027 10.9221H45.5433C45.3569 10.9221 45.2044 11.0746 45.2044 11.2611V14.6577H42.3162C42.1298 14.6577 41.9772 14.5051 41.9772 14.3187V4.7526C41.9772 4.56616 42.1298 4.41361 42.3162 4.41361ZM6.3569 5.28819C4.97385 6.21361 4.05859 7.817 4.05859 9.64073C4.05859 12.2034 5.86537 14.3289 8.23825 14.7526C9.49249 14.9763 11.3705 14.7255 12.5467 14.4306C12.7501 14.3763 12.7637 14.2373 12.6789 14.0679L11.7705 12.234C11.6349 11.9594 11.5637 11.9695 11.2823 12.017C10.6789 12.1153 10.0688 12.2746 9.46198 12.1221C8.3908 11.8543 7.5908 10.834 7.5908 9.61361C7.5908 8.15938 8.63147 7.09497 10.0586 7.02039C10.5433 6.99327 11.0383 7.05429 11.4993 7.09497C11.8044 7.12209 11.8383 7.12548 11.9908 6.85429L12.9874 5.06446C13.1162 4.83056 13.123 4.70514 12.8484 4.63056C12.1942 4.45429 11.5637 4.33226 10.9569 4.27124C9.38741 4.11531 7.68571 4.39666 6.3569 5.28819ZM14.2484 4.41361H16.7976C16.984 4.41361 17.1366 4.56616 17.1366 4.7526V11.8238C17.1366 12.0102 17.2891 12.1628 17.4789 12.1628H20.445C20.6315 12.1628 20.784 12.3153 20.784 12.5017V14.3187C20.784 14.5051 20.6315 14.6577 20.445 14.6577H14.2484C14.062 14.6577 13.9094 14.5051 13.9094 14.3187V4.7526C13.9094 4.56616 14.062 4.41361 14.2484 4.41361ZM25.4959 4.41361H28.8823C29.0688 4.41361 29.2755 4.56616 29.3433 4.7526L32.801 14.3187C32.8688 14.5051 32.7671 14.6577 32.5806 14.6577H29.5806C29.3942 14.6577 29.1738 14.5085 29.123 14.3187L28.7772 13.0068C28.7366 12.8916 28.6044 12.7967 28.4891 12.7967C27.6654 12.7967 26.7772 12.7967 25.9569 12.7967C25.8383 12.7967 25.7094 12.8916 25.6688 13.0102L25.2552 14.3187C25.1976 14.5085 24.984 14.6577 24.7942 14.6577H21.862C21.6755 14.6577 21.5772 14.5051 21.645 14.3187L25.0349 4.7526C25.1027 4.56616 25.3094 4.41361 25.4959 4.41361ZM27.4755 7.03734L26.5467 10.4746C26.506 10.5933 26.5671 10.6882 26.6857 10.6882H26.7908H28.201H28.306C28.4247 10.6882 28.4857 10.5933 28.445 10.4746L27.4755 7.03734ZM40.2349 6.95599L41.262 5.21022C41.3637 5.04073 41.3705 4.87463 41.1433 4.80683C39.4111 4.29836 37.4586 4.00344 35.723 4.65429C33.9569 5.31192 32.8315 6.94921 33.862 8.84073C34.4925 9.99666 35.8416 10.5424 37.0044 11.0238C37.2857 11.1424 37.5908 11.295 37.7298 11.5255C37.8959 11.8068 37.7671 12.1526 37.5196 12.339C37.3603 12.4577 37.1501 12.5221 36.9467 12.5289C36.2383 12.5526 35.584 12.4136 34.9705 12.1594L34.5569 12.0034C34.3942 11.9424 34.2383 11.9594 34.1705 12.1662L33.5772 13.956C33.5027 14.1831 33.523 14.2882 33.7671 14.3526C35.1806 14.7356 37.1298 14.9628 38.5569 14.6272C39.6722 14.3695 40.723 13.6746 41.1094 12.556C41.4925 11.4441 41.201 10.2679 40.3027 9.46446C39.5433 8.78649 38.9298 8.67802 38.0111 8.24751C37.8077 8.14921 37.5637 8.02378 37.3705 7.86107C36.6552 7.27463 37.1162 6.54921 37.9399 6.51531C38.6755 6.4848 39.2281 6.71531 39.8755 7.00344C39.9908 7.05429 40.1569 7.09158 40.2349 6.95599Z" fill="white"/>
<path fill-rule="evenodd" clip-rule="evenodd" d="M66.3593 10.2407V10.2813V10.2373L66.6915 9.41015L66.8136 20.7729L66.9424 8.78642L67.1424 8.2915C67.1424 8.2915 68.1153 9.13557 68.9288 9.83388L68.9898 15.5763L69.0509 9.93896C69.5831 10.3966 70.017 10.7661 70 10.7424C69.9898 10.7288 70.1966 10.722 70.522 10.7186L70.5966 17.5525L70.6678 10.7152C71.3695 10.7085 72.4644 10.7186 73.2 10.7254L73.2373 14.2542L73.2746 10.7254C73.6848 10.7288 73.9627 10.7322 73.9627 10.7322L74.4 11.1322L74.4339 14.4542L74.4712 11.1966L75.2678 11.922V12.0949L75.2712 11.9254L76.0339 12.6237V12.6508V12.6237L76.6915 13.2237V24.1288L72.0136 26.4746L71.9593 24.0373L71.9085 26.5288L70.678 27.1424L70.5831 18.2813L70.4881 27.2407L69.6034 27.6847L69.5424 22.1966L69.4848 27.7424L68.6441 28.1627L68.5695 21.1288L68.4915 28.2407L67.0102 28.983L66.8712 16.061L66.7356 28.8135L65.6 27.9152L65.5627 21.4L65.5288 27.861L64.817 27.2983L64.7559 21.7356L64.6983 27.2034L63.2068 26.0271L63.1763 23.2339L63.3661 22.8339L63.1729 22.7559L63.139 19.7152L63.1085 22.7288L61.5898 22.1085L66.3593 10.2407ZM63.1017 23.3966L63.0746 25.9186L62.2237 25.2474L63.1017 23.3966Z" fill="#473A56"/>
<path fill-rule="evenodd" clip-rule="evenodd" d="M66.6939 17.1085C66.0499 18.0644 65.677 19.1797 65.0973 20.1865C64.5889 21.0644 64.0973 21.9119 63.0363 22.1865C62.0194 22.4475 60.6872 21.939 60.155 21.0238C59.86 20.5187 59.8058 19.8983 59.9583 19.1831C59.5651 19.1899 59.216 19.1526 58.9143 19.0509C57.9211 18.7187 57.4126 17.695 57.4668 16.695C57.5041 16.0441 57.7922 15.4339 58.2668 14.9695C59.2905 13.9729 60.9007 13.8611 62.2431 14.0577C60.9482 13.3221 59.5583 12.1661 59.9516 10.5017C60.2736 9.15258 61.7821 8.74919 62.9448 9.26105C62.877 8.26105 63.5177 7.60004 64.46 7.40343C65.3346 7.22377 66.2905 7.55258 66.9617 8.12546C68.1109 9.10851 68.3617 10.8712 68.277 12.2916C69.0668 10.9119 69.9855 10.0407 71.06 9.78648C71.938 9.57631 72.999 9.84749 73.6906 10.4509C74.3651 11.0407 74.6126 11.9458 74.0906 12.7289C74.7312 12.8204 75.2939 13.0441 75.6736 13.4983C76.4058 14.3763 76.2228 15.478 75.4634 16.217C74.3922 17.2543 72.4872 17.0475 71.1211 16.9763C73.2024 17.8407 74.8126 18.9221 75.0533 20.6475C75.2363 21.9695 74.6092 23.1933 73.2634 23.5695C72.5075 23.7831 71.7143 23.5966 71.1346 23.0712C70.7617 23.9763 69.9651 24.5017 69.0363 24.5628C68.3685 24.6068 67.7516 24.4373 67.2736 24.095C65.8024 23.0339 66.3651 21.0644 66.6906 19.5966C66.8533 18.8577 67.0058 18 67.0295 17.3221C66.7719 18.7526 66.3922 20.0712 65.8973 21.2034C65.199 22.8034 64.3211 24.1119 62.8939 25.1424C62.6431 25.3255 62.3278 25.3424 62.0702 25.1661C61.7516 24.9526 61.5821 24.4102 61.6228 24.0373C61.6499 23.7899 61.7922 23.6339 62.0194 23.556C62.416 23.417 62.8126 23.217 63.2092 22.9458C65.0905 21.6678 65.9583 19.1729 66.6939 17.1085Z" fill="#2F213D"/>
<path fill-rule="evenodd" clip-rule="evenodd" d="M67.0736 16.6204C66.8125 18.0475 66.4329 19.4271 65.8973 20.739C65.1787 22.5153 64.2261 23.8271 62.7007 24.9661C62.1481 25.3763 61.8566 24.5695 61.8634 24.078C61.8634 23.9051 61.8803 23.7322 62.0532 23.6678C63.2803 23.2238 64.2058 22.3966 64.9346 21.3187C65.7922 20.0543 66.4939 18.0543 67.0736 16.6204Z" fill="url(#paint3_linear_1172_10763)"/>
<path fill-rule="evenodd" clip-rule="evenodd" d="M62.7931 24.017C64.8236 22.9187 65.8473 20.478 66.6371 17.7255C66.1524 18.9661 65.5897 20.356 64.9354 21.3187C64.2066 22.3967 63.2812 23.2238 62.0541 23.6678C61.9931 23.6916 61.9524 23.7289 61.9219 23.7729C62.4236 23.8746 62.6914 24.2441 62.5897 24.9831C62.749 24.8 62.8236 24.5458 62.7253 24.2068C62.6981 24.1085 62.6812 24.078 62.7931 24.017Z" fill="url(#paint4_linear_1172_10763)"/>
<path fill-rule="evenodd" clip-rule="evenodd" d="M66.7643 18.0542C65.9745 20.5762 65.0254 22.9762 62.9542 24.5084C62.8186 24.6101 62.7338 24.7627 62.7406 24.9322C64.2423 23.8034 65.1847 22.5017 65.8965 20.7389C66.2491 19.8711 66.5372 18.9728 66.7643 18.0542Z" fill="url(#paint5_linear_1172_10763)"/>
<path fill-rule="evenodd" clip-rule="evenodd" d="M66.7995 16.2069C64.6436 16.0984 62.7453 16.5967 61.23 17.9628C60.8809 18.2781 60.5182 18.6069 60.1487 19.0272C59.43 18.9899 58.9419 18.8001 58.5928 18.5153C57.9555 17.9967 57.7623 17.0475 58.0063 16.2781C58.108 15.956 58.2504 15.6509 58.4538 15.4035C59.4504 14.2001 61.3656 14.1221 62.7792 14.3899C64.1216 14.6442 65.4606 15.3187 66.7995 16.2069Z" fill="url(#paint6_linear_1172_10763)"/>
<path fill-rule="evenodd" clip-rule="evenodd" d="M64.5386 15.3323C63.2471 15.0306 61.4437 14.79 60.1725 15.2408C59.4539 15.495 58.8742 15.9222 58.4233 16.5391C58.3793 16.6001 58.3047 16.6713 58.22 16.6374C58.1488 16.6069 58.142 16.5255 58.1623 16.4544C58.4539 15.5323 59.0708 14.9696 59.9827 14.6815C61.3657 14.2476 62.8979 14.4577 64.5488 15.1798C64.7149 15.251 64.7149 15.3764 64.5386 15.3323Z" fill="url(#paint7_linear_1172_10763)"/>
<path fill-rule="evenodd" clip-rule="evenodd" d="M66.7999 16.5153C66.105 17.417 65.6745 18.139 65.1762 19.0983C64.9084 19.6204 64.6474 20.0509 64.3287 20.5288C63.6576 21.5255 62.8338 22.0407 61.6847 21.7017C60.5118 21.356 59.9898 20.1593 60.1491 19.0271C61.9491 16.8916 64.0948 16.3356 66.7999 16.5153Z" fill="url(#paint8_linear_1172_10763)"/>
<path fill-rule="evenodd" clip-rule="evenodd" d="M64.2879 18.9221C64.7896 18.2305 65.2337 17.4983 65.6981 16.7831C63.9964 16.7865 62.5354 17.2712 61.1964 17.9899C60.8337 18.2848 60.4845 18.6271 60.1489 19.0271C60.1184 19.2509 60.1116 19.4814 60.1354 19.7017C60.2879 20.539 61.3523 20.9797 62.115 20.7899C63.0574 20.556 63.7354 19.678 64.2879 18.9221Z" fill="url(#paint9_linear_1172_10763)"/>
<path fill-rule="evenodd" clip-rule="evenodd" d="M63.7122 17.3119C62.7766 17.4407 61.6478 17.7797 60.9902 18.556C60.9054 18.6543 60.841 18.7661 60.8343 18.8983C60.8275 19.0916 60.9495 19.1932 61.1122 19.1797C61.2037 19.1695 61.2953 19.1187 61.3732 19.0509C62.1224 18.3831 62.8037 17.8136 63.7122 17.3119Z" fill="url(#paint10_linear_1172_10763)"/>
<path fill-rule="evenodd" clip-rule="evenodd" d="M66.9609 16.034C66.0931 15.4442 65.1981 14.9967 64.2863 14.5662C63.0083 13.9628 60.9371 13.0916 60.4795 11.6272C60.2693 10.9492 60.4354 10.1967 60.9405 9.73907C61.527 9.21365 62.4422 9.27467 63.1575 9.44077C64.3371 10.4408 65.3914 11.8882 66.0625 13.2882C66.4863 14.1662 66.8083 15.0747 66.9609 16.034Z" fill="url(#paint11_linear_1172_10763)"/>
<path fill-rule="evenodd" clip-rule="evenodd" d="M60.9411 9.73907C60.5444 10.0984 60.358 10.6374 60.3953 11.1764C60.5173 12.217 64.4326 14.2814 65.619 14.8408C66.3377 15.1798 66.2766 14.912 66.1411 14.3492C65.8699 13.1899 65.4699 12.1662 64.8868 11.3289C64.358 10.6035 63.7953 10.0814 63.158 9.44077C62.4428 9.27467 61.5275 9.21365 60.9411 9.73907Z" fill="url(#paint12_linear_1172_10763)"/>
<path fill-rule="evenodd" clip-rule="evenodd" d="M60.6423 10.556C60.8288 10.1492 61.0898 9.85769 61.4186 9.67464C61.8084 9.46108 62.3237 9.46447 62.7644 9.6204C63.3949 9.84752 64.022 10.6272 64.3881 11.1594C64.5339 11.3662 64.3508 11.3696 64.2288 11.2441C63.7983 10.8035 63.3 10.4814 62.7542 10.2509C62.3576 10.0848 61.9711 10.0204 61.5915 10.156C61.3135 10.2543 61.0084 10.4712 60.8084 10.6882C60.6864 10.8136 60.5678 10.7153 60.6423 10.556Z" fill="url(#paint13_linear_1172_10763)"/>
<path fill-rule="evenodd" clip-rule="evenodd" d="M67.2388 15.8034C66.7439 13.8 65.9439 12.4136 65.0083 11.2915L63.1574 9.44069C63.1337 9.00679 63.2456 8.62374 63.4795 8.29492C64.1981 7.29492 65.8184 7.58306 66.6727 8.26441C68.2286 9.51187 68.2523 11.8576 67.7337 13.6102C67.51 14.3661 67.4218 15.0576 67.2388 15.8034Z" fill="url(#paint14_linear_1172_10763)"/>
<path fill-rule="evenodd" clip-rule="evenodd" d="M65.8184 12.4C66.3066 13.0881 67.4964 14.3458 67.9134 12.8576C68.2184 11.2339 68.015 9.34238 66.6727 8.26441C65.8184 7.58306 64.1981 7.29492 63.4795 8.29492C63.2456 8.62374 63.1337 9.00679 63.1574 9.44069C63.5506 9.77289 63.9303 10.1559 64.2862 10.5695C64.91 11.1932 65.3337 11.6373 65.8184 12.4Z" fill="url(#paint15_linear_1172_10763)"/>
<path fill-rule="evenodd" clip-rule="evenodd" d="M63.439 9.01362C63.5543 8.67463 63.7373 8.39328 64.0017 8.17972C64.8356 7.50514 66.0187 7.89158 66.6933 8.60345C67.178 9.11531 67.4356 9.81023 67.5712 10.556C67.595 10.6882 67.5034 10.7628 67.4424 10.6611C67.1238 10.1323 66.7645 9.66785 66.3373 9.24752C65.8695 8.7865 65.2797 8.57972 64.639 8.65768C64.2356 8.70514 63.9441 8.89158 63.6628 9.17294C63.439 9.40345 63.3577 9.2509 63.439 9.01362Z" fill="url(#paint16_linear_1172_10763)"/>
<path fill-rule="evenodd" clip-rule="evenodd" d="M67.3555 16.0678C67.6775 14.0916 68.2809 12.6712 69.0131 11.6577C69.6809 10.7322 70.6504 10.0305 71.7826 10.0272C72.8606 10.0204 74.1555 10.6848 74.1148 11.9187C74.1046 12.2305 74.0131 12.5051 73.8741 12.7526C69.7555 14.1865 68.4165 15.1492 67.3555 16.0678Z" fill="url(#paint17_linear_1172_10763)"/>
<path fill-rule="evenodd" clip-rule="evenodd" d="M67.7903 14.1899C67.675 14.7153 67.553 15.2373 67.4648 15.8034C69.6547 14.0102 71.2581 13.6238 72.6954 13.1729C72.7428 13.1526 72.7937 13.1322 72.8411 13.1153C73.1801 12.9831 73.5293 12.8712 73.875 12.7526C74.014 12.5051 74.1055 12.2305 74.1157 11.9187C74.1564 10.6848 72.8615 10.0204 71.7835 10.0272C70.6513 10.0305 69.6818 10.7322 69.014 11.6577C68.5394 12.3153 68.1157 13.1458 67.7903 14.1899Z" fill="url(#paint18_linear_1172_10763)"/>
<path fill-rule="evenodd" clip-rule="evenodd" d="M68.5655 12.9323C69.1655 11.7153 69.8028 11.0713 70.457 10.6916C71.3655 10.1628 73.0062 10.2103 73.5553 11.2103C73.7147 11.4984 73.7689 11.8408 73.7858 12.1967C73.7926 12.3458 73.7079 12.5662 73.5587 12.3865C73.257 12.0204 72.8909 11.7357 72.4536 11.5458C71.6638 11.1967 70.7926 11.417 70.0841 11.8577C69.5757 12.173 69.1113 12.6069 68.7045 13.0442C68.5858 13.173 68.4909 13.0848 68.5655 12.9323Z" fill="url(#paint19_linear_1172_10763)"/>
<path fill-rule="evenodd" clip-rule="evenodd" d="M67.4902 16.3831C68.9818 15.0949 70.9411 13.8475 72.8394 13.1153C73.1784 12.9831 73.5275 12.8712 73.8733 12.7526C75.836 13.2949 76.4699 15.4204 74.5377 16.2746C73.7207 16.6373 72.5851 16.6441 71.758 16.5966C70.3106 16.5085 68.8665 16.4204 67.4902 16.3831Z" fill="url(#paint20_linear_1172_10763)"/>
<path fill-rule="evenodd" clip-rule="evenodd" d="M69.4397 15.339C69.2702 15.4949 69.1821 15.6848 69.4872 15.7119C70.5956 15.8068 73.6533 16.0136 74.6295 15.6746C75.277 15.4475 75.6804 15.0746 75.6804 14.4576C75.5414 13.7288 74.8838 13.0339 73.8736 12.7526C73.5719 12.8576 73.2872 12.9593 73.016 13.061C71.9143 13.4644 70.277 14.5763 69.4397 15.339Z" fill="url(#paint21_linear_1172_10763)"/>
<path fill-rule="evenodd" clip-rule="evenodd" d="M72.4828 13.5797C72.954 13.3152 73.6421 12.9966 74.1981 13.1186C74.6794 13.2237 75.0252 13.583 75.354 13.9966C75.4659 14.1424 75.3133 14.2102 75.2116 14.122C74.9404 13.878 74.6625 13.6847 74.3337 13.5763C73.8184 13.4034 73.1099 13.5932 72.5879 13.7356C72.432 13.7797 72.2659 13.7017 72.4828 13.5797Z" fill="url(#paint22_linear_1172_10763)"/>
<path fill-rule="evenodd" clip-rule="evenodd" d="M67.6562 16.556C69.7681 16.6815 71.5918 17.1865 73.002 18.2408C74.0495 19.0815 74.7274 20.0272 74.6664 21.1831C74.619 22.112 74.1376 22.8611 73.324 23.2001C72.5817 23.5086 71.7342 23.3594 71.124 22.8374C70.9918 21.7289 70.5885 20.095 69.9952 19.1357C69.3952 18.1594 68.5783 17.3255 67.6562 16.556Z" fill="url(#paint23_linear_1172_10763)"/>
<path fill-rule="evenodd" clip-rule="evenodd" d="M69.9952 19.1357C70.4461 19.8611 70.7851 20.9764 70.9817 21.956C70.9885 21.9899 70.9952 22.0204 71.002 22.0543C72.7647 22.3696 74.9207 21.4001 74.0088 19.2442C73.741 18.8882 73.3952 18.556 73.002 18.2408C71.5918 17.1865 69.7681 16.6815 67.6562 16.556C68.5783 17.3255 69.3952 18.1594 69.9952 19.1357Z" fill="url(#paint24_linear_1172_10763)"/>
<path fill-rule="evenodd" clip-rule="evenodd" d="M69.6215 17.0883C71.0622 17.356 72.3673 17.9289 73.4147 19.0747C73.5741 19.251 73.3978 19.4984 73.191 19.3357C72.1266 18.4916 70.9097 17.7832 69.5571 17.2035C69.4622 17.1628 69.4554 17.0713 69.6215 17.0883Z" fill="url(#paint25_linear_1172_10763)"/>
<path fill-rule="evenodd" clip-rule="evenodd" d="M67.3551 16.7186C67.3348 17.1966 67.3246 17.8847 67.2399 18.6237C67.1111 19.7186 66.8467 20.8068 66.8399 21.9152C66.8365 22.6 67.0026 23.2576 67.5416 23.7118C68.145 24.2169 69.0602 24.3457 69.7857 24.0542C70.3179 23.8407 70.7789 23.4135 71.1246 22.8373C71.0636 22.2847 70.9551 21.7457 70.7857 21.2237C70.1958 19.383 68.8229 17.9254 67.3551 16.7186Z" fill="url(#paint26_linear_1172_10763)"/>
<path fill-rule="evenodd" clip-rule="evenodd" d="M70.7852 21.2237C70.1954 19.383 68.8225 17.9254 67.3547 16.7186C67.4361 16.8576 67.4598 17.1017 67.5073 17.5457C67.6361 18.7559 67.1344 20.7695 67.4496 21.9322C67.8835 23.5288 70.1174 22.9118 71.0022 22.0542C70.9954 22.0237 70.9886 21.9898 70.9818 21.9559C70.9276 21.7085 70.8632 21.4644 70.7852 21.2237Z" fill="url(#paint27_linear_1172_10763)"/>
<path fill-rule="evenodd" clip-rule="evenodd" d="M68.3957 17.8475C68.7822 18.2644 69.9076 19.4611 69.8228 20.078C69.7957 20.2983 69.6398 20.4611 69.3957 20.4475C68.9042 20.4272 68.8873 19.6238 68.8228 19.295C68.7076 18.7594 68.5313 18.3051 68.3178 17.8983C68.2839 17.8373 68.3517 17.7966 68.3957 17.8475Z" fill="url(#paint28_linear_1172_10763)"/>
</g>
<defs>
<linearGradient id="paint0_linear_1172_10763" x1="72.0256" y1="5.00524" x2="80.0002" y2="5.00524" gradientUnits="userSpaceOnUse">
<stop stop-color="#FEED9D"/>
<stop offset="1" stop-color="#FFDC84"/>
</linearGradient>
<linearGradient id="paint1_linear_1172_10763" x1="54.5065" y1="25.7714" x2="54.5065" y2="4.36649" gradientUnits="userSpaceOnUse">
<stop stop-color="#FFD068"/>
<stop offset="1" stop-color="#FFF9AC"/>
</linearGradient>
<linearGradient id="paint2_linear_1172_10763" x1="66.9333" y1="27.4072" x2="78.7208" y2="27.4072" gradientUnits="userSpaceOnUse">
<stop stop-color="#FECC47"/>
<stop offset="1" stop-color="#FFDD88"/>
</linearGradient>
<linearGradient id="paint3_linear_1172_10763" x1="61.8624" y1="20.8485" x2="67.0725" y2="20.8485" gradientUnits="userSpaceOnUse">
<stop stop-color="#4B6E00"/>
<stop offset="1" stop-color="#6EA303"/>
</linearGradient>
<linearGradient id="paint4_linear_1172_10763" x1="61.9236" y1="21.3544" x2="66.6371" y2="21.3544" gradientUnits="userSpaceOnUse">
<stop stop-color="#F6FF64"/>
<stop offset="1" stop-color="#8FCA10"/>
</linearGradient>
<linearGradient id="paint5_linear_1172_10763" x1="62.7413" y1="21.4934" x2="66.765" y2="21.4934" gradientUnits="userSpaceOnUse">
<stop stop-color="#2D5900"/>
<stop offset="1" stop-color="#628E05"/>
</linearGradient>
<linearGradient id="paint6_linear_1172_10763" x1="57.9046" y1="16.646" x2="66.8009" y2="16.646" gradientUnits="userSpaceOnUse">
<stop stop-color="#D4E300"/>
<stop offset="1" stop-color="#BFC200"/>
</linearGradient>
<linearGradient id="paint7_linear_1172_10763" x1="58.1518" y1="15.5516" x2="64.6722" y2="15.5516" gradientUnits="userSpaceOnUse">
<stop stop-color="#F7F86C"/>
<stop offset="1" stop-color="#DFE300"/>
</linearGradient>
<linearGradient id="paint8_linear_1172_10763" x1="61.4457" y1="21.3069" x2="65.4762" y2="16.9813" gradientUnits="userSpaceOnUse">
<stop stop-color="#305C00"/>
<stop offset="1" stop-color="#6B9F03"/>
</linearGradient>
<linearGradient id="paint9_linear_1172_10763" x1="62.216" y1="20.9309" x2="63.6011" y2="16.6868" gradientUnits="userSpaceOnUse">
<stop stop-color="#77A600"/>
<stop offset="1" stop-color="#8EB500"/>
</linearGradient>
<linearGradient id="paint10_linear_1172_10763" x1="60.8349" y1="18.2464" x2="63.7115" y2="18.2464" gradientUnits="userSpaceOnUse">
<stop stop-color="#F8F96F"/>
<stop offset="1" stop-color="#C7E200"/>
</linearGradient>
<linearGradient id="paint11_linear_1172_10763" x1="61.4734" y1="10.2425" x2="65.8778" y2="15.1145" gradientUnits="userSpaceOnUse">
<stop stop-color="#A8C900"/>
<stop offset="1" stop-color="#2A4D00"/>
</linearGradient>
<linearGradient id="paint12_linear_1172_10763" x1="60.9363" y1="10.5079" x2="65.6811" y2="13.8059" gradientUnits="userSpaceOnUse">
<stop stop-color="#CDE800"/>
<stop offset="1" stop-color="#446E00"/>
</linearGradient>
<linearGradient id="paint13_linear_1172_10763" x1="61.2559" y1="9.60454" x2="63.8064" y2="11.2312" gradientUnits="userSpaceOnUse">
<stop stop-color="#F7FF33"/>
<stop offset="1" stop-color="#C4DE00"/>
</linearGradient>
<linearGradient id="paint14_linear_1172_10763" x1="63.3917" y1="9.32221" x2="67.7988" y2="14.1262" gradientUnits="userSpaceOnUse">
<stop stop-color="#DDDE0E"/>
<stop offset="1" stop-color="#95AB00"/>
</linearGradient>
<linearGradient id="paint15_linear_1172_10763" x1="63.7839" y1="8.62536" x2="67.4062" y2="12.5738" gradientUnits="userSpaceOnUse">
<stop stop-color="#EFEC13"/>
<stop offset="1" stop-color="#B5C002"/>
</linearGradient>
<linearGradient id="paint16_linear_1172_10763" x1="64.3238" y1="7.99511" x2="66.6601" y2="10.5417" gradientUnits="userSpaceOnUse">
<stop stop-color="#FFFA91"/>
<stop offset="1" stop-color="#ECF90B"/>
</linearGradient>
<linearGradient id="paint17_linear_1172_10763" x1="72.2463" y1="10.2725" x2="69.2267" y2="15.8206" gradientUnits="userSpaceOnUse">
<stop stop-color="#CAD606"/>
<stop offset="1" stop-color="#1E3C00"/>
</linearGradient>
<linearGradient id="paint18_linear_1172_10763" x1="72.2503" y1="10.2323" x2="69.3309" y2="15.596" gradientUnits="userSpaceOnUse">
<stop stop-color="#C9DB00"/>
<stop offset="1" stop-color="#406500"/>
</linearGradient>
<linearGradient id="paint19_linear_1172_10763" x1="72.0333" y1="10.1322" x2="70.2919" y2="13.3312" gradientUnits="userSpaceOnUse">
<stop stop-color="#FFF956"/>
<stop offset="1" stop-color="#D7EB00"/>
</linearGradient>
<linearGradient id="paint20_linear_1172_10763" x1="68.1553" y1="15.6975" x2="75.0418" y2="13.6737" gradientUnits="userSpaceOnUse">
<stop stop-color="#7C9E00"/>
<stop offset="1" stop-color="#7EAB03"/>
</linearGradient>
<linearGradient id="paint21_linear_1172_10763" x1="69.7912" y1="15.0988" x2="75.1736" y2="13.5171" gradientUnits="userSpaceOnUse">
<stop stop-color="#A1B600"/>
<stop offset="1" stop-color="#D9E800"/>
</linearGradient>
<linearGradient id="paint22_linear_1172_10763" x1="72.6604" y1="13.9868" x2="75.111" y2="13.2666" gradientUnits="userSpaceOnUse">
<stop stop-color="#FFF920"/>
<stop offset="1" stop-color="#FCF762"/>
</linearGradient>
<linearGradient id="paint23_linear_1172_10763" x1="69" y1="17.2242" x2="73.3274" y2="22.693" gradientUnits="userSpaceOnUse">
<stop stop-color="#406500"/>
<stop offset="1" stop-color="#7EA903"/>
</linearGradient>
<linearGradient id="paint24_linear_1172_10763" x1="69.0576" y1="16.9549" x2="72.8247" y2="21.7157" gradientUnits="userSpaceOnUse">
<stop stop-color="#7C9E00"/>
<stop offset="1" stop-color="#C3D700"/>
</linearGradient>
<linearGradient id="paint25_linear_1172_10763" x1="70.5283" y1="17.029" x2="72.4395" y2="19.4443" gradientUnits="userSpaceOnUse">
<stop stop-color="#C8E600"/>
<stop offset="1" stop-color="#FEFE44"/>
</linearGradient>
<linearGradient id="paint26_linear_1172_10763" x1="66.6582" y1="21.8456" x2="71.306" y2="19.0814" gradientUnits="userSpaceOnUse">
<stop stop-color="#537D00"/>
<stop offset="1" stop-color="#B5D100"/>
</linearGradient>
<linearGradient id="paint27_linear_1172_10763" x1="69.3473" y1="22.8274" x2="68.9974" y2="16.8164" gradientUnits="userSpaceOnUse">
<stop stop-color="#C5CF00"/>
<stop offset="1" stop-color="#96BF00"/>
</linearGradient>
<linearGradient id="paint28_linear_1172_10763" x1="69.1425" y1="20.4076" x2="68.9947" y2="17.8656" gradientUnits="userSpaceOnUse">
<stop stop-color="#FCEC61"/>
<stop offset="1" stop-color="#C8E600"/>
</linearGradient>
<clipPath id="clip0_1172_10763">
<rect width="80" height="32.2034" fill="white"/>
</clipPath>
</defs>
</svg>
