<svg width="32" height="32" viewBox="0 0 32 32" fill="none" xmlns="http://www.w3.org/2000/svg">
<path fill-rule="evenodd" clip-rule="evenodd" d="M8.31164 11.188C7.69694 11.188 7.19863 11.6819 7.19863 12.2911V20.7089C7.19863 21.3181 7.69694 21.812 8.31164 21.812H23.6884C24.3031 21.812 24.8014 21.3181 24.8014 20.7089V12.2911C24.8014 11.6819 24.3031 11.188 23.6884 11.188H8.31164ZM6 12.2911C6 11.0258 7.03496 10 8.31164 10H23.6884C24.965 10 26 11.0258 26 12.2911V20.7089C26 21.9742 24.965 23 23.6884 23H8.31164C7.03496 23 6 21.9742 6 20.7089V12.2911Z" fill="#FACD0D"/>
<path fill-rule="evenodd" clip-rule="evenodd" d="M12.7295 10C13.0604 10 13.3288 10.2659 13.3288 10.594V22.406C13.3288 22.7341 13.0604 23 12.7295 23C12.3985 23 12.1301 22.7341 12.1301 22.406V10.594C12.1301 10.2659 12.3985 10 12.7295 10Z" fill="#FACD0D"/>
<path fill-rule="evenodd" clip-rule="evenodd" d="M18.6798 22.406V10.594H19.8784V22.406H18.6798Z" fill="#FACD0D"/>
<path d="M11.0257 15.5157L9.69863 18.7317H8.58562L9.92979 15.6514H8.35445V14.7265H11.0257V15.5157Z" fill="#FACD0D"/>
<path d="M17.3185 15.5157L15.9914 18.7317H14.8784L16.2226 15.6514H14.6473V14.7265H17.3185V15.5157Z" fill="#FACD0D"/>
<path d="M23.6969 15.5157L22.3699 18.7317H21.2568L22.5925 15.6514H21.0171V14.7265H23.6969V15.5157Z" fill="#FACD0D"/>
<rect x="0.5" y="0.5" width="31" height="31" rx="15.5" stroke="#711EDB"/>
</svg>
