<?xml version="1.0" encoding="UTF-8"?>
<svg width="80px" height="80px" viewBox="0 0 80 80" version="1.1" xmlns="http://www.w3.org/2000/svg" xmlns:xlink="http://www.w3.org/1999/xlink">
    <!-- Generator: Sketch 48.2 (47327) - http://www.bohemiancoding.com/sketch -->
    <title>microgaming color</title>
    <desc>Created with Sketch.</desc>
    <defs>
        <linearGradient x1="76.9456376%" y1="8.15624161%" x2="23.110604%" y2="91.9%" id="linearGradient-1">
            <stop stop-color="#31B7E6" offset="0%"></stop>
            <stop stop-color="#21E31B" offset="100%"></stop>
        </linearGradient>
    </defs>
    <g id="Page-1" stroke="none" stroke-width="1" fill="none" fill-rule="evenodd">
        <g id="microgaming-color" fill="url(#linearGradient-1)" fill-rule="nonzero">
            <g id="microgaming" transform="translate(7.500000, 7.500000)">
                <path d="M32.2744237,0 C49.9177753,0 64.1185218,14.2007464 64.1185218,32.2744237 C64.1185218,49.9177753 49.9177753,64.1185218 32.2744237,64.1185218 C20.6556312,64.1185218 11.1884669,58.5242883 5.16390779,49.4874497 C10.7581412,41.741588 15.922049,33.135075 20.6556312,24.0982364 C20.6556312,24.0982364 19.3646542,52.4997292 29.2621442,52.9300549 C37.0080058,54.6513575 46.9054958,30.5531211 46.9054958,30.5531211 C46.0448445,30.5531211 54.2210318,44.7538675 56.3726601,43.4628906 C57.2333114,43.0325649 55.0816831,40.0202854 53.3603805,36.1473545 C51.6390779,32.2744237 50.7784266,27.1105159 50.348101,24.9588877 C49.9177753,21.5162825 50.348101,20.2253055 47.7661471,19.7949799 C45.6145188,19.3646542 44.7538675,21.0859568 43.4628906,24.0982364 C39.5899597,32.7047494 32.2744237,47.7661471 29.6924698,47.3358214 C25.819539,46.4751701 26.6801903,14.2007464 26.6801903,11.6187925 C27.1105159,9.03683864 26.6801903,7.74586169 24.9588877,6.88521039 C21.9466081,6.88521039 20.6556312,10.3278156 19.7949799,12.4794438 C13.3400951,23.6679107 7.31553604,33.9957263 1.29097695,41.741588 C0.430325649,38.7293084 0,35.2867032 0,32.2744237 C0,14.2007464 14.2007464,0 32.2744237,0 Z" id="Shape"></path>
            </g>
        </g>
    </g>
</svg>