<svg width="35" height="35" viewBox="0 0 35 35" fill="none" xmlns="http://www.w3.org/2000/svg">
<path fill-rule="evenodd" clip-rule="evenodd" d="M17.5 35C27.165 35 35 27.165 35 17.5C35 7.83502 27.165 0 17.5 0C7.83502 0 0 7.83502 0 17.5C0 27.165 7.83502 35 17.5 35ZM12.0943 8.29827C15.658 7.90066 19.3421 7.90066 22.9057 8.29827C24.8677 8.51718 26.4502 10.0605 26.6804 12.026C27.1065 15.663 27.1065 19.3371 26.6804 22.974C26.4502 24.9396 24.8677 26.4829 22.9057 26.7018C19.3421 27.0994 15.658 27.0994 12.0943 26.7018C10.1323 26.4829 8.54984 24.9396 8.31956 22.974C7.89347 19.3371 7.89347 15.663 8.31956 12.026C8.54984 10.0605 10.1323 8.51718 12.0943 8.29827ZM22.6675 11.3095C22.0967 11.3095 21.634 11.7714 21.634 12.3413C21.634 12.9111 22.0967 13.373 22.6675 13.373C23.2383 13.373 23.701 12.9111 23.701 12.3413C23.701 11.7714 23.2383 11.3095 22.6675 11.3095ZM12.5909 17.5C12.5909 14.7934 14.7888 12.5992 17.5 12.5992C20.2113 12.5992 22.4091 14.7934 22.4091 17.5C22.4091 20.2068 20.2113 22.4009 17.5 22.4009C14.7888 22.4009 12.5909 20.2068 12.5909 17.5ZM17.4995 14.1465C15.6445 14.1465 14.1406 15.6478 14.1406 17.4997C14.1406 19.3516 15.6445 20.8529 17.4995 20.8529C19.3545 20.8529 20.8584 19.3516 20.8584 17.4997C20.8584 15.6478 19.3545 14.1465 17.4995 14.1465Z" fill="#9795A6"/>
</svg>
