<?xml version="1.0" encoding="UTF-8"?>
<svg width="80px" height="80px" viewBox="0 0 80 80" version="1.1" xmlns="http://www.w3.org/2000/svg" xmlns:xlink="http://www.w3.org/1999/xlink">
    <!-- Generator: Sketch 52.4 (67378) - http://www.bohemiancoding.com/sketch -->
    <title>irondogstudio color</title>
    <desc>Created with Sketch.</desc>
    <defs>
        <linearGradient x1="8.82809612%" y1="56.8293669%" x2="104.064695%" y2="10.6843287%" id="linearGradient-1">
            <stop stop-color="#000000" stop-opacity="0" offset="0%"></stop>
            <stop stop-color="#000000" stop-opacity="0.5" offset="100%"></stop>
        </linearGradient>
        <linearGradient x1="50.6766699%" y1="61.4794521%" x2="8.10164569%" y2="-19.4285714%" id="linearGradient-2">
            <stop stop-color="#000000" stop-opacity="0" offset="0%"></stop>
            <stop stop-color="#000000" stop-opacity="0.5" offset="100%"></stop>
        </linearGradient>
        <linearGradient x1="49.8098284%" y1="35.2632594%" x2="-22.056121%" y2="136.756027%" id="linearGradient-3">
            <stop stop-color="#000000" stop-opacity="0" offset="0%"></stop>
            <stop stop-color="#000000" stop-opacity="0.5" offset="100%"></stop>
        </linearGradient>
        <linearGradient x1="54.2575642%" y1="46.4547804%" x2="91.9221968%" y2="-8.79881875%" id="linearGradient-4">
            <stop stop-color="#000000" stop-opacity="0" offset="0%"></stop>
            <stop stop-color="#000000" stop-opacity="0.5" offset="100%"></stop>
        </linearGradient>
        <linearGradient x1="24.7111235%" y1="49.242212%" x2="-21.43951%" y2="49.242212%" id="linearGradient-5">
            <stop stop-color="#000000" stop-opacity="0" offset="0%"></stop>
            <stop stop-color="#000000" stop-opacity="0.5" offset="100%"></stop>
        </linearGradient>
        <linearGradient x1="37.3517311%" y1="79.9511418%" x2="116.04867%" y2="16.0955921%" id="linearGradient-6">
            <stop stop-color="#000000" stop-opacity="0" offset="0%"></stop>
            <stop stop-color="#000000" stop-opacity="0.5" offset="100%"></stop>
        </linearGradient>
        <linearGradient x1="54.2988506%" y1="98.2831595%" x2="54.2988506%" y2="-41.466468%" id="linearGradient-7">
            <stop stop-color="#000000" stop-opacity="0" offset="0%"></stop>
            <stop stop-color="#000000" stop-opacity="0.5" offset="100%"></stop>
        </linearGradient>
    </defs>
    <g id="irondogstudio-color" stroke="none" stroke-width="1" fill="none" fill-rule="evenodd">
        <g id="irondogstudio_color" transform="translate(5.000000, 10.291262)">
            <path d="M14.0574757,0.573203883 L14.0574757,26.7378641 L7.97592233,26.7378641 L7.97592233,0.573203883 L14.0574757,0.573203883 Z M6.13048544,0.524271845 L6.13048544,26.7378641 L0.027961165,26.7378641 L0.027961165,0.524271845 L6.13048544,0.524271845 Z M63.6186408,0.524271845 L63.6186408,16.3293204 C63.6186408,16.3293204 53.5246602,5.06796117 52.1405825,3.80271845 C49.3542505,1.2660378 45.6944848,-0.0941626202 41.927767,0.00699029126 C36.671068,0.00699029126 33.3856311,2.10407767 31.6100971,3.85165049 C29.034399,6.51605255 27.5761958,10.0652643 27.5347573,13.7708738 C27.5027193,17.4372468 28.9877526,20.9537652 31.6380583,23.4873786 C34.4280576,26.0599375 38.1133067,27.4397108 41.9067961,27.3320388 C46.3316505,27.3320388 49.6520388,25.8431068 52.1056311,23.4873786 C53.9371969,21.726835 55.2254071,19.4779256 55.8174757,17.0073786 L64.3805825,26.7448544 L69.5533981,26.7448544 L69.5533981,0.517281553 L63.6186408,0.524271845 Z M47.6807767,19.5238835 C46.114913,21.0327035 44.002958,21.8401415 41.8299029,21.7607767 C39.6757404,21.8291631 37.5889622,21.0049064 36.0629879,19.4829026 C34.5370137,17.9608988 33.7073232,15.8762752 33.7700971,13.7219417 C33.6946424,11.5115014 34.5372197,9.36836929 36.0978641,7.80116505 C37.6580723,6.33644298 39.7325089,5.54534428 41.8718447,5.5992233 C44.0190576,5.58461865 46.0921077,6.38386687 47.6737864,7.8361165 C49.1916714,9.41141779 50.0171424,11.5279456 49.9666019,13.7149515 C50.0463524,15.8850087 49.217993,17.9901056 47.6807767,19.5238835 Z" id="Shape" fill="#6C2186" fill-rule="nonzero"></path>
            <path d="M21.4532039,16.0147573 C22.825972,15.6772818 24.0894216,14.9938158 25.1231068,14.0295146 C26.5219735,12.6160441 27.2669735,10.6825918 27.1782524,8.69592233 C27.2601708,6.4993697 26.4303676,4.36667425 24.8854369,2.8031068 C23.6201942,1.62873786 21.5300971,0.49631068 18.167767,0.49631068 L7.97592233,0.49631068 L7.97592233,5.13087379 L16.4341748,5.13087379 C17.2240777,5.13087379 18.8038835,5.13087379 19.7895146,5.89281553 C20.6183847,6.5775479 21.0724748,7.6154681 21.0128155,8.68893204 C21.0476089,9.62405184 20.6903172,10.531218 20.0271845,11.1914563 C18.9996117,12.2120388 17.496699,12.2679612 16.392233,12.2679612 L14.9941748,12.2679612 L14.9941748,16.4621359 L22.1242718,26.7029126 L29.5479612,26.7029126 L21.4532039,16.0147573 Z M57.4671845,43.2139806 L57.4671845,48.3937864 L64.3386408,48.3937864 C64.0189084,49.6652129 63.3190412,50.8088983 62.3324272,51.672233 C61.703301,52.2104854 60.2353398,53.161165 57.4392233,53.161165 C55.3350539,53.2554149 53.286453,52.4704133 51.7840777,50.9941748 C50.0510344,49.2262746 48.9417582,46.9414601 48.624466,44.4862136 C48.9417582,42.0309671 50.0510344,39.7461525 51.7840777,37.9782524 C53.2871659,36.5038411 55.3359488,35.7213023 57.4392233,35.8182524 C60.2353398,35.8182524 61.6753398,36.7829126 62.3324272,37.321165 C63.1612353,38.0540592 63.7871881,38.9881734 64.1499029,40.0333981 L69.5883495,37.4120388 C68.9745403,36.0744929 68.1456939,34.8465723 67.1347573,33.7770874 C64.031068,30.575534 60.4869903,29.9883495 57.1735922,29.9883495 C53.8601942,29.9883495 50.2182524,30.5335922 46.9467961,33.8609709 C46.4360876,34.3888741 45.9685676,34.956911 45.5487379,35.5596117 L45.5487379,35.6015534 C45.1751253,35.0243728 44.7365296,34.4919599 44.2415534,34.0147573 C41.4454369,31.3095146 37.7895146,29.9743689 33.4275728,29.9743689 C27.8353398,29.9743689 24.3821359,32.183301 22.4947573,34.0497087 C21.9919617,34.573003 21.557439,35.157847 21.2015534,35.7902913 L21.1456311,35.6924272 C20.7863297,35.2550493 20.3986999,34.8417332 19.9852427,34.4551456 C16.5460194,31.1697087 12.6524272,30.6524272 8.9615534,30.6524272 L0.027961165,30.6524272 L0.027961165,58.3479612 L9.11533981,58.3479612 C11.4570874,58.3479612 16.2803883,58.0543689 20.1390291,54.1537864 C20.4407376,53.8655326 20.7277046,53.5622341 20.998835,53.2450485 C21.4239033,53.8305788 21.8911654,54.3842844 22.3968932,54.9017476 C24.2842718,56.7751456 27.7654369,58.9770874 33.336699,58.9770874 C37.6986408,58.9770874 41.3405825,57.648932 44.1506796,54.9436893 C44.6444861,54.4635185 45.0850899,53.9315129 45.4648544,53.3568932 L45.4648544,53.3918447 C45.8865878,53.9952908 46.3539776,54.5655063 46.8629126,55.0974757 C50.1343689,58.4248544 53.7343689,58.9631068 57.0897087,58.9631068 C60.4450485,58.9631068 63.912233,58.3829126 67.0159223,55.1813592 C70.1196117,51.9798058 71.28,46.8629126 71.28,43.4935922 L71.28,43.2 L57.4671845,43.2139806 Z M17.2869903,46.3526214 C17.0213592,47.0516505 16.2594175,49.6590291 14.5887379,51.0500971 C12.4916505,52.7976699 9.56271845,52.9025243 8.22058252,52.9025243 L6.45902913,52.9025243 L6.45902913,35.9790291 L8.22058252,35.9790291 C10.1918447,35.9790291 12.911068,36.2935922 15.0081553,38.3697087 C16.0986408,39.4532039 17.1052427,41.4314563 17.5176699,44.3394175 C17.5176699,44.6260194 17.6015534,44.9126214 17.6504854,45.192233 C17.5036893,45.6745631 17.3918447,46.0660194 17.2869903,46.3526214 Z M40.8163107,48.9390291 C40.4587968,49.5961004 40.009202,50.1986986 39.481165,50.7285437 C37.7993203,52.2691862 35.5964893,53.1158525 33.3157282,53.0982524 C31.0443891,53.1446126 28.8464584,52.2930714 27.1992233,50.7285437 C26.8742991,50.4167008 26.5794096,50.0750035 26.3184466,49.7079612 C25.3376387,48.1042642 24.6290334,46.3492851 24.2213592,44.5141748 C24.6271736,42.6784872 25.3358995,40.9232093 26.3184466,39.3203883 C26.5794096,38.9533461 26.8742991,38.6116487 27.1992233,38.2998058 C28.845631,36.7339724 31.0441208,35.8822146 33.3157282,35.9300971 C35.5964893,35.912497 37.7993203,36.7591633 39.481165,38.2998058 C40.0059916,38.8324155 40.4552323,39.4345392 40.8163107,40.0893204 C41.4818316,41.1714405 41.9747305,42.3506245 42.2772816,43.584466 C42.3471845,43.8850485 42.4170874,44.1856311 42.48,44.4862136 C42.4170874,44.7798058 42.3471845,45.0803883 42.2772816,45.3809709 C41.9809598,46.6366093 41.4878759,47.8374691 40.8163107,48.9390291 Z" id="Shape" fill="#6C2186" fill-rule="nonzero"></path>
            <path d="M55.824466,17.0842718 L48.2609709,8.39533981 C48.2609709,8.39533981 51.8819417,13.1697087 48.5685437,18.4473786 L51.5114563,23.9627184 C53.6641147,22.2045486 55.17949,19.7878076 55.824466,17.0842718 Z" id="Path" fill="url(#linearGradient-1)"></path>
            <path d="M15.1060194,16.6229126 C17.2430394,16.8965084 19.4135505,16.7251523 21.481165,16.1196117 L29.5479612,26.8357282 L22.1382524,26.8357282 L15.1060194,16.6229126 Z" id="Path" fill="url(#linearGradient-2)"></path>
            <path d="M48.4986408,43.5215534 C48.5405825,43.8221359 48.5825243,44.1506796 48.6384466,44.4862136 C48.9630867,42.0331679 50.0712891,39.7505652 51.7980583,37.9782524 C53.3042274,36.5041999 55.3549411,35.7218906 57.4601942,35.8182524 C60.2563107,35.8182524 61.6543689,36.7829126 62.3533981,37.321165 C63.1857211,38.0523839 63.8143145,38.9868445 64.1778641,40.0333981 L69.6163107,37.4120388 C69.0007533,36.0754762 68.1720894,34.8478259 67.1627184,33.7770874 C64.0590291,30.575534 60.5149515,29.9883495 57.2015534,29.9883495 C53.8881553,29.9883495 50.2462136,30.5335922 46.9747573,33.8609709 C46.4640488,34.3888741 45.9965287,34.956911 45.576699,35.5596117 L45.576699,35.6015534 C47.0691629,38.0202487 48.0626401,40.713095 48.4986408,43.5215534 Z" id="Path" fill="url(#linearGradient-3)"></path>
            <path d="M43.0601942,47.3382524 C42.8504854,46.3945631 42.6827184,45.4368932 42.48,44.4862136 C42.4170874,44.7798058 42.3471845,45.0803883 42.2772816,45.3809709 C41.9715355,46.6137577 41.4788364,47.7924636 40.8163107,48.8761165 C40.4587968,49.5331877 40.009202,50.135786 39.481165,50.6656311 C37.7993203,52.2062736 35.5964893,53.0529399 33.3157282,53.0353398 C31.0443891,53.0816999 28.8464584,52.2301588 27.1992233,50.6656311 C26.8742991,50.3537882 26.5794096,50.0120908 26.3184466,49.6450485 C25.3376387,48.0413516 24.6290334,46.2863725 24.2213592,44.4512621 C23.9487379,43.3467961 23.8368932,41.4943689 23.424466,40.0403883 L17.9720388,46.3316505 C18.9017476,49.6380583 20.495534,52.9933981 22.3968932,54.9017476 C24.2982524,56.8100971 27.7584466,58.9770874 33.3297087,58.9770874 C37.6916505,58.9770874 41.3405825,57.648932 44.1436893,54.9436893 C44.6402601,54.4641791 45.083249,53.9321235 45.4648544,53.3568932 C44.2753525,51.5283103 43.4582043,49.4830643 43.0601942,47.3382524 Z" id="Path" fill="url(#linearGradient-4)"></path>
            <path d="M57.4671845,43.2139806 L57.4671845,48.3937864 L64.3386408,48.3937864 C64.0189084,49.6652129 63.3190412,50.8088983 62.3324272,51.672233 C61.703301,52.2104854 60.2353398,53.161165 57.4392233,53.161165 C55.3350539,53.2554149 53.286453,52.4704133 51.7840777,50.9941748 C49.3374757,48.624466 48.743301,45.5836893 48.4776699,43.5215534 C48.1351456,41.0959223 46.5902913,36.3634951 44.1506796,34.0217476 C41.3545631,31.3234951 37.6986408,29.9883495 33.3436893,29.9883495 C27.7514563,29.9883495 24.2912621,32.1972816 22.4038835,34.0636893 C21.9204349,34.5947762 21.4853133,35.1679202 21.1036893,35.7763107 C21.684075,36.7056281 22.1733372,37.6888344 22.5646602,38.712233 C23.2162191,40.6028068 23.7531169,42.5309701 24.1724272,44.4862136 C24.5892522,42.647286 25.3123441,40.8915433 26.3114563,39.2924272 C26.5746034,38.9271031 26.869328,38.5855968 27.192233,38.2718447 C28.8416139,36.7062489 31.0421196,35.8546833 33.3157282,35.9021359 C35.5940816,35.8863053 37.7941021,36.7328512 39.4741748,38.2718447 C40.001066,38.8026781 40.4505327,39.4051047 40.8093204,40.0613592 C41.4748413,41.1434794 41.9677402,42.3226633 42.2702913,43.5565049 C42.5708738,44.8147573 42.7805825,46.0660194 43.0532039,47.3102913 C43.3977626,49.4901097 44.2344739,51.5627631 45.4998058,53.3708738 C45.9214329,53.97221 46.3888402,54.5401099 46.8978641,55.0695146 C50.1693204,58.3968932 53.7693204,58.9351456 57.1246602,58.9351456 C60.48,58.9351456 63.9471845,58.3549515 67.0508738,55.1533981 C70.1545631,51.9518447 71.3149515,46.8349515 71.3149515,43.4656311 L71.3149515,43.1720388 L57.4671845,43.2139806 Z" id="Path" fill="url(#linearGradient-5)"></path>
            <path d="M17.2869903,46.3526214 C17.0213592,47.0516505 16.2594175,49.6590291 14.5887379,51.0500971 C12.4916505,52.7976699 9.56271845,52.9025243 8.22058252,52.9025243 L8.05281553,52.9025243 C7.47270092,54.6654195 7.14096986,56.5005275 7.06718447,58.3549515 L9.11533981,58.3549515 C11.4570874,58.3549515 16.2803883,58.0613592 20.1390291,54.1607767 C20.4409165,53.8702547 20.7278865,53.56462 20.998835,53.2450485 C19.2808478,50.8540503 18.1396074,48.0978471 17.664466,45.192233 C17.5036893,45.6745631 17.3918447,46.0660194 17.2869903,46.3526214 Z" id="Path" fill="url(#linearGradient-6)"></path>
            <path d="M57.4671845,43.2139806 L57.4671845,48.3937864 L64.3386408,48.3937864 C64.0189084,49.6652129 63.3190412,50.8088983 62.3324272,51.672233 C61.703301,52.2104854 60.2353398,53.161165 57.4392233,53.161165 C55.3350539,53.2554149 53.286453,52.4704133 51.7840777,50.9941748 C50.0510344,49.2262746 48.9417582,46.9414601 48.624466,44.4862136 C48.5615534,44.8217476 48.5196117,45.143301 48.4776699,45.4438835 C48.0110601,48.2560541 46.9866966,50.9464939 45.4648544,53.3568932 L45.4648544,53.3918447 C45.8865878,53.9952908 46.3539776,54.5655063 46.8629126,55.0974757 C50.1343689,58.4248544 53.7343689,58.9631068 57.0897087,58.9631068 C60.4450485,58.9631068 63.912233,58.3829126 67.0159223,55.1813592 C70.1196117,51.9798058 71.28,46.8629126 71.28,43.4935922 L71.28,43.2 L57.4671845,43.2139806 Z" id="Path" fill="#6C2186"></path>
            <polygon id="Path" fill="url(#linearGradient-7)" points="7.97592233 5.16582524 14.0574757 5.16582524 14.0574757 9.85631068 7.97592233 9.85631068"></polygon>
        </g>
    </g>
</svg>