<svg width="101" height="21" viewBox="0 0 101 21" fill="none" xmlns="http://www.w3.org/2000/svg">
<path d="M96.6451 7.67555C97.7011 7.67555 98.4931 7.93954 99.1267 8.46752C99.7602 8.99551 100.13 9.68188 100.288 10.5267H97.9651C97.9123 10.2099 97.7539 9.94588 97.4899 9.73468C97.2259 9.52349 96.9619 9.47069 96.5923 9.47069C96.3283 9.47069 96.1172 9.52349 95.9588 9.62909C95.8004 9.73468 95.7476 9.94588 95.7476 10.1571C95.7476 10.4211 95.906 10.5795 96.17 10.7379C96.4339 10.8434 96.8563 11.0018 97.4371 11.1074C98.0707 11.2658 98.5987 11.4242 98.9683 11.5826C99.3906 11.741 99.7074 12.005 100.024 12.3218C100.341 12.6914 100.447 13.1138 100.447 13.6946C100.447 14.1697 100.341 14.5921 100.077 14.9617C99.813 15.3313 99.4434 15.5953 98.9683 15.8065C98.4931 16.0177 97.9123 16.1233 97.2787 16.1233C96.17 16.1233 95.2724 15.8593 94.6388 15.3841C93.9524 14.9089 93.5828 14.1697 93.4244 13.2722H95.8532C95.906 13.6418 96.0644 13.9057 96.3283 14.0641C96.5923 14.2753 96.9091 14.3281 97.3315 14.3281C97.5955 14.3281 97.8067 14.2753 97.9651 14.1169C98.1235 13.9585 98.1763 13.8002 98.1763 13.589C98.1763 13.325 98.0179 13.1138 97.7539 12.9554C97.4899 12.8498 97.0675 12.6914 96.4339 12.5858C95.8004 12.4802 95.3252 12.3218 94.9556 12.1634C94.586 12.005 94.2164 11.7938 93.9524 11.4242C93.6884 11.1074 93.53 10.6323 93.53 10.0515C93.53 9.3123 93.794 8.73151 94.3748 8.25633C94.85 7.88674 95.642 7.67555 96.6451 7.67555ZM92.3685 11.6354C92.3685 11.8466 92.3685 12.0578 92.3157 12.3218H86.6135C86.6663 12.9554 86.8246 13.3778 87.0886 13.6418C87.3526 13.9057 87.7222 14.0641 88.1974 14.0641C88.567 14.0641 88.8838 13.9585 89.1478 13.8002C89.4118 13.589 89.5702 13.3778 89.623 13.061H92.2629C92.1573 13.6418 91.8933 14.1697 91.5765 14.5921C91.2069 15.0673 90.7317 15.3841 90.2037 15.6481C89.6758 15.9121 89.0422 16.0177 88.3558 16.0177C87.5638 16.0177 86.8247 15.8593 86.1911 15.4897C85.5575 15.1729 85.0823 14.6449 84.7127 14.0113C84.3431 13.3778 84.1847 12.6386 84.1847 11.7938C84.1847 10.949 84.3431 10.1571 84.7127 9.52349C85.0823 8.88991 85.5575 8.41473 86.1911 8.04514C86.8247 7.72835 87.511 7.51715 88.3558 7.51715C89.1478 7.51715 89.887 7.67555 90.5205 7.99234C91.1541 8.30913 91.6293 8.78431 91.9461 9.41789C92.2101 10.1571 92.3685 10.8434 92.3685 11.6354ZM89.8342 11.2658C89.8342 10.7379 89.6758 10.3155 89.4118 10.0515C89.095 9.78748 88.7254 9.62909 88.303 9.62909C87.8278 9.62909 87.4582 9.78748 87.1414 10.0515C86.8247 10.3155 86.6663 10.7379 86.6135 11.2658H89.8342ZM80.0665 5.45802C80.0665 5.08843 80.2249 4.77164 80.4889 4.50765C80.7528 4.24366 81.1224 4.13806 81.5976 4.13806C82.0728 4.13806 82.3896 4.24366 82.7064 4.50765C83.0232 4.77164 83.1288 5.08843 83.1288 5.45802C83.1288 5.82761 82.9704 6.1444 82.7064 6.40839C82.4424 6.67238 82.0728 6.77798 81.5976 6.77798C81.1224 6.77798 80.8056 6.67238 80.4889 6.40839C80.2249 6.1444 80.0665 5.82761 80.0665 5.45802ZM82.812 7.78115V16.0177H80.2777V7.78115H82.812ZM76.3706 15.9649L73.8891 12.4802V15.9649H71.3547V5.08843H73.8891V11.0546L76.3706 7.78115H79.3273L76.001 11.8994L79.3801 16.0177H76.3706V15.9649ZM65.8109 7.67555C66.6029 7.67555 67.3421 7.83394 67.9757 8.20353C68.6092 8.52032 69.1372 9.0483 69.5068 9.68188C69.8764 10.3155 70.0348 11.0546 70.0348 11.8994C70.0348 12.7442 69.8764 13.4834 69.5068 14.1169C69.1372 14.7505 68.6092 15.2257 67.9757 15.5953C67.3421 15.9121 66.6029 16.1233 65.8109 16.1233C65.019 16.1233 64.2798 15.9649 63.5934 15.5953C62.9598 15.2785 62.4318 14.7505 62.0622 14.1169C61.6927 13.4834 61.5343 12.7442 61.5343 11.8994C61.5343 11.0546 61.6927 10.3155 62.0622 9.68188C62.4318 9.0483 62.9598 8.57312 63.5934 8.20353C64.2798 7.83394 65.019 7.67555 65.8109 7.67555ZM65.8109 9.84028C65.3357 9.84028 64.9134 9.99867 64.5966 10.3683C64.2798 10.7379 64.1214 11.213 64.1214 11.8994C64.1214 12.533 64.2798 13.061 64.5966 13.3778C64.9134 13.7474 65.3357 13.9057 65.8109 13.9057C66.2861 13.9057 66.7085 13.7474 67.0253 13.3778C67.3421 13.0082 67.5005 12.533 67.5005 11.8994C67.5005 11.2658 67.3421 10.7379 67.0253 10.3683C66.7085 9.99867 66.2861 9.84028 65.8109 9.84028ZM57.0992 7.67555C57.7856 7.67555 58.3664 7.83394 58.8943 8.20353C59.4223 8.52032 59.8447 9.0483 60.1615 9.68188C60.4783 10.3155 60.6367 11.0546 60.6367 11.9522C60.6367 12.797 60.4783 13.5362 60.1615 14.1697C59.8447 14.8033 59.4223 15.2785 58.8943 15.6481C58.3664 15.9649 57.7328 16.1761 57.0992 16.1761C56.4656 16.1761 55.9376 16.0177 55.4625 15.7537C54.9873 15.4897 54.6705 15.0673 54.4593 14.5921V19.9776H51.925V7.83394H54.4593V9.3123C54.6705 8.83711 54.9873 8.41472 55.4625 8.15073C55.9376 7.78114 56.5184 7.67555 57.0992 7.67555ZM56.3072 9.84028C55.7792 9.84028 55.3569 9.99867 54.9873 10.3683C54.6705 10.7379 54.4593 11.213 54.4593 11.8466C54.4593 12.4802 54.6177 12.9554 54.9873 13.325C55.3041 13.6946 55.7792 13.853 56.3072 13.853C56.8352 13.853 57.2576 13.6946 57.6272 13.325C57.9968 12.9554 58.1024 12.4802 58.1024 11.8466C58.1024 11.213 57.944 10.7379 57.6272 10.3683C57.3104 9.99867 56.8352 9.84028 56.3072 9.84028ZM50.605 13.8002V15.9649H49.4962C48.5459 15.9649 47.8067 15.7009 47.2259 15.2257C46.6979 14.7505 46.4339 13.9585 46.4339 12.8498V9.84028H45.3252V7.72835H46.4339V5.72201H48.9683V7.72835H50.605V9.84028H48.9683V12.9026C48.9683 13.2194 49.0211 13.4306 49.1795 13.589C49.3378 13.6946 49.549 13.8002 49.8658 13.8002H50.605ZM44.6388 11.6354C44.6388 11.8466 44.6388 12.0578 44.586 12.3218H38.8838C38.9366 12.9554 39.095 13.3778 39.359 13.6418C39.623 13.9057 39.9925 14.0641 40.4677 14.0641C40.8373 14.0641 41.1541 13.9585 41.4181 13.8002C41.6821 13.589 41.8405 13.3778 41.8933 13.061H44.5332C44.4276 13.6418 44.1636 14.1697 43.8468 14.5921C43.4772 15.0673 43.0021 15.3841 42.4741 15.6481C41.8933 15.9121 41.3125 16.0177 40.6261 16.0177C39.8342 16.0177 39.095 15.8593 38.4614 15.4897C37.8278 15.1729 37.3526 14.6449 36.983 14.0113C36.6135 13.3778 36.4551 12.6386 36.4551 11.7938C36.4551 10.949 36.6135 10.1571 36.983 9.52349C37.3526 8.88991 37.8278 8.41473 38.4614 8.04514C39.095 7.72835 39.7814 7.51715 40.6261 7.51715C41.4181 7.51715 42.1573 7.67555 42.7909 7.99234C43.4244 8.30913 43.8996 8.78431 44.2164 9.41789C44.4804 10.1571 44.6388 10.8434 44.6388 11.6354ZM42.1045 11.2658C42.1045 10.7379 41.9461 10.3155 41.6821 10.0515C41.3653 9.78748 40.9957 9.62909 40.5733 9.62909C40.0981 9.62909 39.7286 9.78748 39.4118 10.0515C39.095 10.3155 38.9366 10.7379 38.8838 11.2658H42.1045ZM31.9672 7.67555C32.6536 7.67555 33.2344 7.83394 33.7623 8.20353C34.2903 8.52032 34.7127 9.0483 35.0295 9.68188C35.3463 10.3155 35.5047 11.0546 35.5047 11.9522C35.5047 12.797 35.3463 13.5362 35.0295 14.1697C34.7127 14.8033 34.2903 15.2785 33.7623 15.6481C33.2344 15.9649 32.6008 16.1761 31.9672 16.1761C31.3336 16.1761 30.8056 16.0177 30.3305 15.7537C29.8553 15.4897 29.5385 15.0673 29.3273 14.5921V16.0705H26.793V5.08843H29.3273V9.2595C29.5385 8.78431 29.8553 8.36193 30.3305 8.09793C30.8056 7.78115 31.3336 7.67555 31.9672 7.67555ZM31.1752 9.84028C30.6472 9.84028 30.2249 9.99867 29.8553 10.3683C29.5385 10.7379 29.3273 11.213 29.3273 11.8466C29.3273 12.4802 29.4857 12.9554 29.8553 13.325C30.1721 13.6946 30.6472 13.853 31.1752 13.853C31.7032 13.853 32.1256 13.6946 32.4952 13.325C32.812 12.9554 32.9704 12.4802 32.9704 11.8466C32.9704 11.213 32.812 10.7379 32.4952 10.3683C32.1256 10.0515 31.7032 9.84028 31.1752 9.84028Z" fill="#464654"/>
<path d="M0.445312 15.0673C0.445312 13.7473 1.50128 12.6385 2.82124 12.6385C3.45482 12.6385 4.0884 12.9025 4.51078 13.3249C4.66918 13.4833 4.93317 13.4833 5.09156 13.3249C5.51395 12.9025 6.09473 12.6385 6.78111 12.6385C8.10107 12.6385 9.15704 13.6945 9.15704 15.0673C9.15704 17.5488 5.93634 19.8191 5.03877 20.4527C4.88037 20.5583 4.72198 20.5583 4.56358 20.4527C3.66601 19.8191 0.445312 17.5488 0.445312 15.0673Z" fill="#FF6464"/>
<path d="M3.82434 12.8497C3.50755 12.6913 3.19076 12.6385 2.87397 12.6385C1.55401 12.6385 0.498047 13.6945 0.498047 15.0673C0.498047 17.5488 3.71874 19.8191 4.61632 20.4527C4.66911 20.5055 4.77471 20.5055 4.88031 20.5055C1.55401 16.0176 2.71558 13.5361 3.82434 12.8497Z" fill="#D2555A"/>
<path d="M17.6572 15.4898C16.918 15.437 16.2844 15.8594 15.9676 16.4402C15.9148 16.5986 15.8092 16.6514 15.6508 16.7042C15.5452 16.757 15.3868 16.6514 15.4396 16.493C15.4924 16.229 15.5452 15.965 15.6508 15.701C15.7036 15.5426 15.8092 15.437 15.9148 15.3842C16.4956 15.0674 16.918 14.4338 16.8652 13.6947C16.8124 12.7971 16.0732 12.0579 15.1756 12.0579C14.1725 12.0051 13.3277 12.7971 13.3277 13.8003C13.3277 14.4866 13.6973 15.0674 14.2781 15.3842C14.3837 15.437 14.4893 15.5426 14.5421 15.701C14.6477 15.965 14.7005 16.229 14.7533 16.493C14.7533 16.5986 14.6477 16.7042 14.5421 16.7042C14.3837 16.6514 14.2781 16.5458 14.2253 16.4402C13.9085 15.8594 13.2749 15.437 12.5357 15.4898C11.6382 15.5426 10.899 16.2818 10.899 17.1794C10.8462 18.1825 11.6382 19.0273 12.6413 19.0273C13.3277 19.0273 13.9085 18.6577 14.2253 18.0769C14.2781 17.9185 14.3837 17.8657 14.5421 17.8129C14.6477 17.7601 14.8061 17.8657 14.7533 18.0241C14.6477 18.8689 14.2781 19.6081 13.8029 20.2417C13.6973 20.3472 13.8029 20.5584 13.9613 20.5584H16.2316C16.39 20.5584 16.4956 20.3472 16.39 20.2417C15.862 19.6081 15.5452 18.8161 15.4396 18.0241C15.4396 17.9185 15.5452 17.8129 15.6508 17.8129C15.8092 17.8657 15.9148 17.9713 15.9676 18.0769C16.2844 18.6577 16.8652 19.0273 17.5516 19.0273C18.5547 19.0273 19.3467 18.1825 19.2939 17.1794C19.2939 16.2818 18.5547 15.5426 17.6572 15.4898Z" fill="#515262"/>
<path d="M12.0605 17.1793C12.1133 16.4401 12.5885 15.8065 13.222 15.5953C13.0636 15.4897 12.7997 15.4897 12.5885 15.4897C11.6909 15.5425 10.9517 16.2817 10.9517 17.1793C10.8989 18.1825 11.6909 19.0272 12.6941 19.0272C12.9053 19.0272 13.1164 18.9744 13.2748 18.9216C12.5357 18.6576 12.0605 17.9713 12.0605 17.1793Z" fill="#464655"/>
<path d="M14.7009 15.0146C14.5953 14.7506 14.4898 14.1698 14.4898 13.8531C14.4898 12.9555 14.9649 12.4275 15.6513 12.1635C15.4929 12.1107 15.3345 12.0579 15.1233 12.0579C14.1202 12.0051 13.2754 12.7971 13.2754 13.8003C13.2754 14.4338 13.645 15.0146 14.173 15.3314L14.2258 15.3842C14.3314 15.437 14.437 15.5426 14.4898 15.701C14.5953 15.965 14.6481 16.229 14.7009 16.493C14.7009 16.5986 14.6481 16.7042 14.5425 16.7042C14.5953 16.7042 14.8593 16.757 14.9121 16.5986C15.0177 16.4402 14.9649 15.7538 14.7009 15.0146Z" fill="#464655"/>
<path d="M17.6568 15.4897C16.9176 15.4369 16.284 15.8593 15.9672 16.4401C15.9144 16.5984 15.8088 16.6512 15.6505 16.704H15.5977C15.5977 16.704 16.2312 16.8096 16.7592 16.1233C17.076 15.7009 17.3928 15.5425 17.8152 15.4897C17.8152 15.4897 17.7096 15.4897 17.6568 15.4897Z" fill="#464655"/>
<path d="M17.6568 19.0272C16.9176 19.08 16.284 18.6576 15.9672 18.0768C15.9144 17.9184 15.8088 17.8656 15.6505 17.8128H15.5977C15.5977 17.8128 16.2312 17.7072 16.7592 18.4464C17.076 18.8688 17.3928 19.0272 17.8152 19.08C17.8152 18.9744 17.7096 19.0272 17.6568 19.0272Z" fill="#464655"/>
<path d="M14.6998 20.1888C14.911 19.608 15.175 18.0241 14.7526 17.8129C14.7526 17.8129 14.8054 17.9185 14.8054 17.9713C14.6998 18.816 14.3302 19.5552 13.855 20.1888C13.7494 20.2944 13.855 20.5056 14.0134 20.5056H14.8582C14.647 20.5056 14.5942 20.3472 14.6998 20.1888Z" fill="#464655"/>
<path d="M15.3862 1.07583C16.495 2.50138 18.1317 4.13813 19.5573 5.24689C19.7157 5.35249 19.7157 5.61648 19.5573 5.77488C18.1317 6.88364 16.495 8.52039 15.3862 9.94594C15.2806 10.1043 15.0166 10.1043 14.8582 9.94594C13.7495 8.52039 12.1127 6.88364 10.6872 5.77488C10.5288 5.66928 10.5288 5.40529 10.6872 5.24689C12.1127 4.13813 13.7495 2.50138 14.8582 1.07583C14.9638 0.917433 15.2278 0.917433 15.3862 1.07583Z" fill="#FF6464"/>
<path d="M15.0694 9.94589C14.5414 8.52033 13.8023 6.88359 13.1687 5.77482C13.1159 5.66923 13.1159 5.40523 13.1687 5.24684C13.8023 4.13807 14.5942 2.50133 15.0694 1.07577C15.0694 1.02297 15.1222 0.970176 15.175 0.970176C15.0694 0.917378 14.911 0.970176 14.8582 1.07577C13.7495 2.50133 12.1127 4.13807 10.6872 5.24684C10.5288 5.35244 10.5288 5.61643 10.6872 5.77482C12.1127 6.88359 13.7495 8.52033 14.8582 9.94589C14.9638 10.0515 15.0694 10.1043 15.175 10.0515C15.175 10.0515 15.1222 9.99869 15.0694 9.94589Z" fill="#D2555A"/>
<path d="M5.0387 1.023C4.93311 0.970199 4.82751 0.970199 4.72191 1.023C3.92994 1.49818 0.498047 3.76851 0.498047 6.30283C0.498047 7.62279 1.55401 8.73155 2.92677 8.73155C3.34916 8.73155 3.77154 8.62595 4.14113 8.41476C4.24673 8.36196 4.35232 8.46756 4.29953 8.57316C4.08833 9.10114 3.82434 9.57632 3.50755 9.99871C3.40195 10.1571 3.50755 10.4211 3.71874 10.4211H6.14747C6.35866 10.4211 6.46426 10.1571 6.35866 9.99871C6.04187 9.57632 5.77788 9.10114 5.56669 8.57316C5.51389 8.46756 5.61948 8.36196 5.72508 8.41476C6.09467 8.62595 6.46426 8.73155 6.88664 8.73155C8.2066 8.73155 9.31537 7.67558 9.31537 6.30283C9.26257 3.76851 5.83068 1.49818 5.0387 1.023Z" fill="#515262"/>
<path d="M3.8772 8.52037C1.18449 7.04202 3.71881 2.55416 4.88037 0.970215C4.82757 0.970215 4.72198 0.970215 4.66918 1.02301C3.8772 1.4982 0.445312 3.76853 0.445312 6.30284C0.445312 7.6228 1.50128 8.73157 2.87403 8.73157C3.24362 8.73157 3.56041 8.62597 3.8772 8.52037Z" fill="#464655"/>
<path d="M4.40586 10.0515C4.56425 8.73159 4.56425 8.41479 4.14187 8.41479C4.19467 8.41479 4.24746 8.52039 4.24746 8.57319C4.03627 9.10117 3.77228 9.57636 3.45549 9.99874C3.34989 10.1571 3.45549 10.4211 3.66668 10.4211H4.56425C4.40586 10.4211 4.35306 10.1571 4.40586 10.0515Z" fill="#464655"/>
</svg>
