<svg width="80" height="48" viewBox="0 0 80 48" fill="none" xmlns="http://www.w3.org/2000/svg">
<path d="M72.8763 26.2827L76.2805 5.15592L79.4327 19.6177L76.9111 0H45.264L39.0229 26.2827L46.7139 47.9753L77.7934 47.6607L80 26.7857L76.9741 45.2717L72.8763 26.2827ZM54.0266 13.7072C52.6401 13.2671 50.3075 12.1353 50.3075 9.99747C50.3075 7.85965 52.0094 6.03623 53.018 5.40746C54.0266 4.77865 56.6116 3.33249 61.2137 3.33249C65.8155 3.33249 69.0308 4.84153 69.0308 4.84153L66.1939 8.92858C66.1939 8.92858 65.6896 8.73992 65.1222 8.48842C64.5549 8.29981 62.7897 7.671 60.3941 7.60815C57.9355 7.54527 57.4942 8.55131 57.4942 8.73992C57.4312 8.92858 57.3049 9.55735 60.2047 9.93458C63.0416 10.3118 65.1222 10.9406 66.0679 11.3179C67.0135 11.758 68.2741 13.0785 68.2741 14.4617C68.2741 15.8451 67.9591 16.914 66.5092 18.3601C65.0593 19.8063 62.5373 21.1268 56.8635 21.1896C51.1897 21.2525 47.9119 19.5548 47.9119 19.5548C47.9119 19.5548 51.1901 15.2163 51.2531 15.2163C51.2531 15.2163 51.9464 15.5936 53.1444 16.0966C54.342 16.5996 56.9899 16.9768 57.8092 16.9768C58.6288 16.9768 60.6461 16.914 61.0244 15.7822C61.3397 14.6504 55.4136 14.1474 54.0266 13.7072ZM47.5966 46.8436L40.2839 26.4084L71.6153 26.2827L76.0285 46.529L47.5966 46.8436Z" fill="url(#paint0_linear)"/>
<path d="M70.4177 38.0391H67.7698L67.1395 35.8386H60.394L60.8354 38.0391L58.1875 37.9765L64.0506 29.8652H56.4855L49.9291 38.794L50.9377 41.8118L61.781 41.8748L62.4743 44.2642H69.2831L68.7154 41.8118H71.4263L70.4177 38.0391Z" fill="url(#paint1_linear)"/>
<path d="M44.2553 42.2526L43.625 45.2078L33.5382 34.9588L38.0142 3.20581L42.4271 10.1852L42.8054 8.61323L38.0772 1.13086L5.23247 1.44524L0 34.8959L13.9322 45.9623L44.5707 46.2769L45.012 44.3273L44.2553 42.2526ZM15.0039 6.2868L15.067 6.22391H25.9102L23.0102 28.4825H15.5713L17.8408 11.9457H14.1844L15.0039 6.2868ZM14.3735 44.7049L1.9543 34.8959H31.8361L41.8598 45.0822L14.3735 44.7049Z" fill="url(#paint2_linear)"/>
<path d="M25.658 38.9843L18.6604 36.4062L17.4626 38.9843L10.4019 39.4871L18.1561 41.6249L20.1104 44.2029L25.8471 43.0082L34.0426 44.2659L30.3862 41.5619L33.9795 39.4871L25.658 38.9843Z" fill="url(#paint3_linear)"/>
<defs>
<linearGradient id="paint0_linear" x1="59.3982" y1="49.2297" x2="59.6906" y2="-0.680025" gradientUnits="userSpaceOnUse">
<stop stop-color="white"/>
<stop offset="0.5045" stop-color="#D6DADD"/>
<stop offset="1" stop-color="white"/>
</linearGradient>
<linearGradient id="paint1_linear" x1="62.8959" y1="48.5055" x2="58.7544" y2="33.1288" gradientUnits="userSpaceOnUse">
<stop stop-color="#FEFE00"/>
<stop offset="1" stop-color="#F8AD00"/>
</linearGradient>
<linearGradient id="paint2_linear" x1="22.3541" y1="47.0914" x2="23.2058" y2="2.16008" gradientUnits="userSpaceOnUse">
<stop stop-color="#FEFE00"/>
<stop offset="0.2698" stop-color="#F8AD00"/>
<stop offset="0.799" stop-color="#F9BE00"/>
<stop offset="1" stop-color="#FDF400"/>
</linearGradient>
<linearGradient id="paint3_linear" x1="22.7945" y1="46.1462" x2="18.4724" y2="0.535861" gradientUnits="userSpaceOnUse">
<stop stop-color="#FEFE00"/>
<stop offset="0.3763" stop-color="#F8AD00"/>
<stop offset="0.799" stop-color="#F9BE00"/>
<stop offset="1" stop-color="#FDF400"/>
</linearGradient>
</defs>
</svg>
