<svg width="50" height="56" viewBox="0 0 50 56" fill="none" xmlns="http://www.w3.org/2000/svg">
<path d="M24.9912 36.1112V42.7778M35.2551 2.77783H43.8023C45.694 2.77783 47.2218 4.2695 47.2218 6.11117V14.4445C47.2218 26.4112 37.2718 36.1112 24.9996 36.1112C12.7273 36.1112 2.77734 26.4112 2.77734 14.4445V6.11117C2.77734 4.2695 4.3079 2.77783 6.19401 2.77783H14.744M39.4996 52.7778C37.3246 46.7834 31.5107 42.7778 24.9912 42.7778C18.469 42.7778 12.6579 46.7834 10.4829 52.7778H39.4996Z" stroke="url(#paint0_linear_1384_10447)" stroke-width="3" stroke-linecap="round" stroke-linejoin="round"/>
<path opacity="0.5" fill-rule="evenodd" clip-rule="evenodd" d="M26.2074 6.82784L29.0546 12.2917H33.9018C34.1662 12.2837 34.4269 12.3547 34.6506 12.4957C34.8743 12.6368 35.0507 12.8414 35.1574 13.0834C35.2609 13.3237 35.2877 13.5901 35.234 13.8462C35.1803 14.1023 35.0487 14.3355 34.8574 14.5139L30.4046 18.7751L32.8713 24.2973C33.0935 24.8167 32.9546 25.4167 32.5185 25.7862C32.3052 25.9674 32.0415 26.079 31.7629 26.1058C31.4843 26.1326 31.2041 26.0734 30.9602 25.9362L24.9991 22.6667L19.038 25.9362C18.794 26.0734 18.5139 26.1326 18.2352 26.1058C17.9566 26.079 17.6929 25.9674 17.4796 25.7862C17.2691 25.6085 17.1212 25.3679 17.0577 25.0999C16.9942 24.8319 17.0184 24.5505 17.1268 24.2973L19.5935 18.7751L15.138 14.5056C14.9466 14.3272 14.8151 14.0939 14.7614 13.8378C14.7077 13.5818 14.7344 13.3154 14.838 13.0751C14.9446 12.8331 15.1211 12.6284 15.3448 12.4874C15.5685 12.3464 15.8292 12.2753 16.0935 12.2834H20.9435L23.7907 6.82784C23.9069 6.60856 24.081 6.42531 24.294 6.29798C24.5071 6.17066 24.7509 6.10413 24.9991 6.10562C25.5102 6.10562 25.9768 6.38339 26.2074 6.82784Z" stroke="url(#paint1_linear_1384_10447)" stroke-width="2" stroke-linecap="round" stroke-linejoin="round"/>
<defs>
<linearGradient id="paint0_linear_1384_10447" x1="2.77734" y1="52.7778" x2="47.2218" y2="52.7778" gradientUnits="userSpaceOnUse">
<stop stop-color="#241A42"/>
<stop offset="1" stop-color="#312654"/>
</linearGradient>
<linearGradient id="paint1_linear_1384_10447" x1="14.7344" y1="26.1121" x2="35.261" y2="26.1121" gradientUnits="userSpaceOnUse">
<stop stop-color="#241A42"/>
<stop offset="1" stop-color="#312654"/>
</linearGradient>
</defs>
</svg>
