<?xml version="1.0" encoding="UTF-8"?>
<svg width="120px" height="120px" viewBox="0 0 120 120" version="1.1" xmlns="http://www.w3.org/2000/svg" xmlns:xlink="http://www.w3.org/1999/xlink">
    <!-- Generator: Sketch 52.4 (67378) - http://www.bohemiancoding.com/sketch -->
    <title>yggdrasil color</title>
    <desc>Created with Sketch.</desc>
    <g id="yggdrasil-color" stroke="none" stroke-width="1" fill="none" fill-rule="evenodd">
        <g id="yggdrasil" transform="translate(25.000000, 25.000000)" fill="#E6642B">
            <g id="Group-3" transform="translate(0.850350, 0.235284)">
                <path d="M24.9780101,13.9035525 C24.3645433,12.1613136 23.7666258,10.4484559 23.2865425,8.69820387 C22.7935825,6.90060178 22.4247735,5.07774633 22.1470735,3.23692215 C21.9925528,2.21197572 22.0158767,2.18186594 23.0005819,1.83924585 C24.9921016,1.14696386 27.0234662,0.602559717 29.110225,0.2842217 C30.0762226,0.136829499 30.1240852,0.168153377 30.255039,1.15740516 C30.8063088,5.32153838 31.9742037,9.30452731 33.7507063,13.1083145 C33.9518748,13.5385929 34.0604767,14.2408306 34.5228241,14.2631701 C35.1105374,14.2915801 35.1870689,13.5470916 35.3984416,13.0973876 C37.1671695,9.33512273 38.3285047,5.3919564 38.8625244,1.2666745 C39.006841,0.152612848 39.0384254,0.126145385 40.1608874,0.292477606 C42.2508047,0.602559717 44.2712362,1.19261417 46.2644565,1.87251229 C47.1721444,2.18186594 47.1548944,2.21950316 47.0122786,3.20511263 C46.5351108,6.50140445 45.6786869,9.69935387 44.5482073,12.8290707 C44.4211407,13.1811608 44.0333812,13.600755 44.4131232,13.9331766 C44.7124463,14.1946946 45.0953468,13.8552312 45.417508,13.7214369 C48.6738624,12.369411 51.5225349,10.4071764 54.0313102,7.9406031 C54.1469578,7.8272058 54.2606618,7.71210876 54.3758235,7.59822583 C55.2942014,6.68861926 55.2915289,6.69201875 56.317051,7.54674783 C57.8425788,8.81767169 59.3071244,10.1522146 60.5862937,11.675672 C61.2325597,12.4454138 61.225514,12.4580405 60.5576248,13.1571215 C55.6734575,18.2682557 49.7771308,21.6240386 42.9179649,23.3077578 C42.6033355,23.3847319 42.2833609,23.4430089 41.9738335,23.5362521 C41.2323283,23.7603756 41.1803355,23.9199089 41.7478834,24.4990364 C43.6244843,26.4122212 45.6971516,28.0930265 47.9277411,29.57569 C48.6233274,30.0380208 48.6493238,30.0198092 49.4610436,29.26148 C52.8928131,26.0550318 56.764821,23.5071136 61.0357644,21.5691611 C62.2872367,21.0012033 63.577339,20.5141049 64.8669555,20.0367193 C65.7413582,19.7130392 65.8868896,19.7883136 66.247195,20.6571263 C67.0540556,22.6030919 67.7445398,24.5891229 68.1864789,26.6538278 C68.3849748,27.5818888 68.372827,27.6265678 67.4274808,27.9604463 C65.3604015,28.6908512 63.373741,29.5890452 61.4779464,30.6912086 C60.2517418,31.4038875 59.0709701,32.1845563 57.9327159,33.0281156 C57.6176005,33.2617092 57.1137074,33.4528091 57.1654573,33.8869726 C57.2303268,34.4277345 57.8396633,34.3886403 58.2342257,34.513693 C61.1387783,35.4330124 64.1123307,36.0089833 67.1517244,36.2425768 C69.4391658,36.4186219 68.9947972,36.3460185 68.8137942,38.2856707 C68.6444531,40.099299 68.2916793,41.8881595 67.7770961,43.6388972 C67.5027975,44.5715717 67.4768011,44.6072664 66.5086169,44.5368484 C63.1878788,44.2949989 59.9283658,43.7010593 56.7327506,42.764014 C48.6408203,40.3914124 41.6419541,36.1835714 35.6775994,30.236891 C34.5114051,29.0742652 34.7256933,28.9455702 33.4730063,30.2072668 C27.1398427,36.5847113 19.6181327,40.9129913 10.9200243,43.1821514 C8.29292879,43.8673915 5.61942847,44.3197666 2.91069937,44.5273784 C1.66189969,44.6230497 1.67939261,44.5883264 1.3285625,43.4220583 C0.766116735,41.5530669 0.485744201,39.6338116 0.266839822,37.7033865 C0.121065541,36.4174078 0.145847168,36.3746713 1.50786487,36.2792428 C4.46732574,36.0723595 7.37333603,35.5804046 10.2166634,34.7310176 C10.7205565,34.5804687 11.2205623,34.4160791 11.7164378,34.2410053 C12.1447712,34.0894852 12.1936056,33.8068418 11.8612402,33.5246841 C11.3991358,33.1330142 10.9139504,32.7648979 10.4144305,32.4222778 C7.73169781,30.5826677 4.88351131,29.0621241 1.8035437,27.9900705 C0.732831608,27.6173406 0.723356279,27.6010716 0.976760572,26.5270754 C1.44202349,24.5548852 2.0365396,22.6242173 2.86332273,20.7688239 C3.32348354,19.7365928 3.33976167,19.7103682 4.39152311,20.073628 C7.89132065,21.2826326 11.1741575,22.9262863 14.2589842,24.9744795 C16.2198912,26.2764844 18.0430416,27.7479782 19.786502,29.3233993 C20.5603205,30.0229659 20.5595916,30.0115533 21.4191739,29.4382535 C23.4111795,28.1090526 25.2583826,26.6040496 26.9551952,24.9145027 C27.1556349,24.7146612 27.3626343,24.5191905 27.5426656,24.3018659 C27.8286261,23.9560892 27.69913,23.7064694 27.3152577,23.567576 C27.0880928,23.4852597 26.8478082,23.4383953 26.6114109,23.3837606 C19.639027,21.7789582 13.6668977,18.4015643 8.67898768,13.2792603 C8.56601261,13.163192 8.45522416,13.0451811 8.3410343,12.9305697 C8.03976746,12.6270438 7.98242957,12.3181758 8.28782669,11.9745844 C9.87725227,10.1859667 11.578924,8.51633112 13.4642714,7.03730987 C13.8530028,6.732327 14.1180691,6.90958615 14.3994134,7.19927132 C15.3586082,8.18658053 16.3525458,9.13503842 17.4346769,9.99122442 C19.480133,11.6098676 21.7034338,12.9177002 24.1274171,13.8821843 C24.3429201,13.9681428 24.5649829,14.1058222 24.9780101,13.9035525" id="Fill-1"></path>
            </g>
            <path d="M35.3115358,68.9221869 C34.3005912,68.9221869 33.2874599,68.963952 32.2794308,68.9095602 C31.3865633,68.8617245 31.2597397,68.694421 31.2568242,67.7816578 C31.2461341,64.7082754 31.2194088,61.6341646 31.2701868,58.5617535 C31.286465,57.569345 31.0014763,56.7964466 30.3950552,56.0174776 C27.0429756,51.7117798 23.7321988,47.3735441 20.4153479,43.0404077 C19.5674275,41.9324165 19.582005,41.9244034 20.8752658,41.3027823 C22.5533707,40.4963745 24.1974617,39.6292616 25.7766831,38.6387957 C26.9717892,37.8894509 26.9795638,37.9042629 27.8053751,38.9816586 C30.0434963,41.9013355 32.2818604,44.8207695 34.5219251,47.7387465 C35.4179511,48.9062288 35.4417609,48.9035577 36.3115474,47.767885 C38.598017,44.7826466 40.8844866,41.7974082 43.1741147,38.814598 C43.8738312,37.9030488 43.8886516,37.8911506 44.8201492,38.4770771 C46.6032117,39.5986662 48.4620767,40.5755341 50.364674,41.4763991 C51.1919431,41.868069 51.2169677,41.9936074 50.6625395,42.7196414 C47.2263967,47.217896 43.7965708,51.7207642 40.3259282,56.1918229 C39.7943379,56.8768202 39.5596413,57.5518619 39.5683878,58.4058626 C39.6007011,61.4790021 39.5832082,64.5526273 39.578835,67.6257668 C39.5773772,68.7340008 39.5399618,68.8265155 38.4636617,68.8991189 C37.4174883,68.9697797 36.3625684,68.9146594 35.3117788,68.9146594 C35.3117788,68.9170876 35.3115358,68.9195158 35.3115358,68.9221869" id="Fill-4"></path>
        </g>
    </g>
</svg>