<svg width="36" height="36" viewBox="0 0 36 36" fill="none" xmlns="http://www.w3.org/2000/svg">
<path fill-rule="evenodd" clip-rule="evenodd" d="M18.0364 35.9167C27.7014 35.9167 35.5364 28.0817 35.5364 18.4167C35.5364 8.75176 27.7014 0.916748 18.0364 0.916748C8.37139 0.916748 0.536377 8.75176 0.536377 18.4167C0.536377 28.0817 8.37139 35.9167 18.0364 35.9167ZM14.4292 26.3369L14.7766 21.4508L23.7254 13.4154C24.1148 13.0707 23.6414 12.8799 23.1208 13.2247L12.0579 20.147L7.29518 18.6656C6.25915 18.3444 6.2399 17.6357 7.51131 17.1422L26.1405 10.0099C27.0033 9.68872 27.7575 10.2006 27.4767 11.5096L27.4758 11.5105L24.3065 26.3614C24.0676 27.4096 23.4437 27.6695 22.5582 27.176L17.7298 23.6401L15.3996 25.867C15.1415 26.1234 14.9262 26.3369 14.4292 26.3369Z" fill="white" fill-opacity="0.5"/>
</svg>
