<svg width="87" height="20" viewBox="0 0 87 20" fill="none" xmlns="http://www.w3.org/2000/svg">
<g clip-path="url(#clip0_1342_10064)">
<path d="M25.586 4.49C26.6627 4.42667 27.7393 4.74333 28.5627 5.31333C28.9427 5.56667 29.196 5.94667 29.386 6.32667C29.576 6.70667 29.6393 7.15 29.6393 7.59333C29.6393 8.03667 29.576 8.48 29.386 8.92334C29.196 9.36667 28.9427 9.68333 28.5627 10C27.676 10.6333 26.6627 10.8867 25.586 10.8233H24.3827V14.4967H22.166V4.61667C23.2427 4.55333 24.3827 4.49 25.586 4.49ZM25.586 9.17667C26.0294 9.17667 26.536 9.05 26.916 8.79667C27.0427 8.67 27.1693 8.48 27.296 8.29C27.3593 8.1 27.4227 7.91 27.4227 7.65667C27.4227 7.46667 27.4227 7.27667 27.296 7.08667C27.2327 6.89667 27.106 6.70667 26.916 6.58C26.536 6.32667 26.0927 6.13667 25.6493 6.2H24.446V9.11334L25.586 9.17667Z" fill="#E0E0E4"/>
<path d="M33.1874 12.7233H37.0507V14.4967H30.9707V4.74333C31.2874 4.55333 31.6674 4.49 31.984 4.42667C32.1107 4.42667 32.3007 4.42667 32.4274 4.49C32.554 4.55333 32.6807 4.61667 32.8074 4.74333C32.934 4.87 32.9974 4.99667 33.0607 5.12333C33.124 5.25 33.124 5.44 33.124 5.56667L33.1874 12.7233Z" fill="#E0E0E4"/>
<path d="M44.4594 14.4967L43.7627 12.4067H40.1527L39.4561 14.4967H37.3027L40.8494 4.74333C41.2294 4.55333 41.6094 4.42667 42.0527 4.42667C42.4327 4.42667 42.7494 4.55333 43.0661 4.74333C43.3194 4.93333 43.5727 5.25 43.6361 5.63L46.8661 14.4333L44.4594 14.4967ZM40.7227 10.6967H43.1927L41.9261 6.70667L40.7227 10.6967Z" fill="#E0E0E4"/>
<path d="M54.5305 4.80667L51.3638 10.6333V14.4967H49.1471V10.6333L45.9805 4.80667C46.2971 4.55333 46.7405 4.42667 47.1838 4.42667C47.5005 4.42667 47.8171 4.49 48.1338 4.61667C48.3871 4.74333 48.5771 4.93333 48.7038 5.25L49.9071 7.65667L50.4138 8.92333L50.9205 7.65667L52.4405 4.49L54.5305 4.80667Z" fill="#E0E0E4"/>
<path d="M61.7491 6.32667H57.9491V9.05H61.0524V10.76H57.9491V14.4967H55.7324V4.61667H61.7491V6.32667Z" fill="#E0E0E4"/>
<path d="M65.3592 14.4967H63.1426V4.74333C63.4592 4.55333 63.8392 4.49 64.1559 4.42667C64.2826 4.42667 64.4726 4.42667 64.5992 4.49C64.7259 4.55333 64.8526 4.61667 64.9792 4.74333C65.1059 4.87 65.1692 4.99667 65.2326 5.12333C65.2959 5.25 65.2959 5.44 65.2959 5.56667V14.4967H65.3592Z" fill="#E0E0E4"/>
<path d="M73.7201 4.61667H75.81V14.4967H74.1001L69.4134 8.29L69.4767 14.4333H67.3867V4.74333C67.6401 4.55333 67.9567 4.42667 68.2734 4.42667C68.5267 4.42667 68.7801 4.55333 69.0334 4.68C69.2867 4.80667 69.4767 4.99667 69.6034 5.25L73.7834 10.76L73.7201 4.61667Z" fill="#E0E0E4"/>
<path d="M83.9809 14.4967L83.2842 12.4067H79.6742L78.9775 14.4967H76.8242L80.4342 4.74333C80.8142 4.55333 81.1942 4.42667 81.5742 4.42667C81.9542 4.42667 82.2709 4.55333 82.5875 4.74333C82.8409 4.93333 83.0942 5.25 83.1576 5.63L86.3875 14.4333L83.9809 14.4967ZM80.2442 10.6967H82.7142L81.4476 6.70667L80.2442 10.6967Z" fill="#E0E0E4"/>
<path d="M25.586 4.49C26.6627 4.42667 27.7393 4.74333 28.5627 5.31333C28.9427 5.56667 29.196 5.94667 29.386 6.32667C29.576 6.70667 29.6393 7.15 29.6393 7.59333C29.6393 8.03667 29.576 8.48 29.386 8.92334C29.196 9.36667 28.9427 9.68333 28.5627 10C27.676 10.6333 26.6627 10.8867 25.586 10.8233H24.3827V14.4967H22.166V4.61667C23.2427 4.55333 24.3827 4.49 25.586 4.49ZM25.586 9.17667C26.0294 9.17667 26.536 9.05 26.916 8.79667C27.0427 8.67 27.1693 8.48 27.296 8.29C27.3593 8.1 27.4227 7.91 27.4227 7.65667C27.4227 7.46667 27.4227 7.27667 27.296 7.08667C27.2327 6.89667 27.106 6.70667 26.916 6.58C26.536 6.32667 26.0927 6.13667 25.6493 6.2H24.446V9.11334L25.586 9.17667Z" fill="#E0E0E4"/>
<path d="M33.1874 12.7233H37.0507V14.4967H30.9707V4.74333C31.2874 4.55333 31.6674 4.49 31.984 4.42667C32.1107 4.42667 32.3007 4.42667 32.4274 4.49C32.554 4.55333 32.6807 4.61667 32.8074 4.74333C32.934 4.87 32.9974 4.99667 33.0607 5.12333C33.124 5.25 33.124 5.44 33.124 5.56667L33.1874 12.7233Z" fill="#E0E0E4"/>
<path d="M44.4594 14.4967L43.7627 12.4067H40.1527L39.4561 14.4967H37.3027L40.8494 4.74333C41.2294 4.55333 41.6094 4.42667 42.0527 4.42667C42.4327 4.42667 42.7494 4.55333 43.0661 4.74333C43.3194 4.93333 43.5727 5.25 43.6361 5.63L46.8661 14.4333L44.4594 14.4967ZM40.7227 10.6967H43.1927L41.9261 6.70667L40.7227 10.6967Z" fill="#E0E0E4"/>
<path d="M54.5305 4.80667L51.3638 10.6333V14.4967H49.1471V10.6333L45.9805 4.80667C46.2971 4.55333 46.7405 4.42667 47.1838 4.42667C47.5005 4.42667 47.8171 4.49 48.1338 4.61667C48.3871 4.74333 48.5771 4.93333 48.7038 5.25L49.9071 7.65667L50.4138 8.92333L50.9205 7.65667L52.4405 4.49L54.5305 4.80667Z" fill="#E0E0E4"/>
<path d="M61.7491 6.32667H57.9491V9.05H61.0524V10.76H57.9491V14.4967H55.7324V4.61667H61.7491V6.32667Z" fill="#E0E0E4"/>
<path d="M65.3592 14.4967H63.1426V4.74333C63.4592 4.55333 63.8392 4.49 64.1559 4.42667C64.2826 4.42667 64.4726 4.42667 64.5992 4.49C64.7259 4.55333 64.8526 4.61667 64.9792 4.74333C65.1059 4.87 65.1692 4.99667 65.2326 5.12333C65.2959 5.25 65.2959 5.44 65.2959 5.56667V14.4967H65.3592Z" fill="#E0E0E4"/>
<path d="M73.7201 4.61667H75.81V14.4967H74.1001L69.4134 8.29L69.4767 14.4333H67.3867V4.74333C67.6401 4.55333 67.9567 4.42667 68.2734 4.42667C68.5267 4.42667 68.7801 4.55333 69.0334 4.68C69.2867 4.80667 69.4767 4.99667 69.6034 5.25L73.7834 10.76L73.7201 4.61667Z" fill="#E0E0E4"/>
<path d="M83.9809 14.4967L83.2842 12.4067H79.6742L78.9775 14.4967H76.8242L80.4342 4.74333C80.8142 4.55333 81.1942 4.42667 81.5742 4.42667C81.9542 4.42667 82.2709 4.55333 82.5875 4.74333C82.8409 4.93333 83.0942 5.25 83.1576 5.63L86.3875 14.4333L83.9809 14.4967ZM80.2442 10.6967H82.7142L81.4476 6.70667L80.2442 10.6967Z" fill="#E0E0E4"/>
<path d="M9.5 19.5C14.7567 19.5 19 15.2567 19 10C19 4.74333 14.7567 0.5 9.5 0.5C4.24333 0.5 0 4.74333 0 10C0 15.2567 4.24333 19.5 9.5 19.5Z" fill="url(#paint0_linear_1342_10064)"/>
<path d="M9.50091 18.2333C14.0609 18.2333 17.7342 14.56 17.7342 10C17.7342 5.44 14.0609 1.76666 9.50091 1.76666C4.94091 1.76666 1.26758 5.44 1.26758 10C1.26758 14.56 4.94091 18.2333 9.50091 18.2333Z" fill="#333333"/>
<path d="M9.50093 1.76667C11.1476 1.76667 12.7309 2.27334 14.0609 3.16001C15.3909 4.04667 16.4676 5.37667 17.1009 6.83334C17.7343 8.35334 17.8609 10 17.5443 11.5833C17.2276 13.1667 16.4676 14.6233 15.2643 15.7633C14.1243 16.9033 12.6676 17.7267 11.0843 18.0433C9.50093 18.36 7.85427 18.2333 6.33427 17.6C4.81427 16.9667 3.5476 15.9533 2.66093 14.56C1.77427 13.1667 1.2676 11.6467 1.2676 10C1.2676 8.92334 1.4576 7.84667 1.90093 6.83334C2.34427 5.82001 2.91427 4.93334 3.67427 4.17334C4.43427 3.41334 5.32093 2.78001 6.33427 2.40001C7.3476 1.95667 8.42427 1.76667 9.50093 1.76667ZM9.50093 1.38667C7.3476 1.38667 5.32093 2.21001 3.7376 3.60334C2.15427 5.06001 1.20427 7.02334 1.01427 9.11334C0.824265 11.2033 1.39427 13.3567 2.66093 15.0667C3.9276 16.7767 5.76427 17.9167 7.85427 18.36C9.94427 18.8033 12.0976 18.4233 13.9343 17.2833C15.7709 16.2067 17.1009 14.4333 17.7343 12.4067C18.3676 10.38 18.1776 8.16334 17.2909 6.26334C16.4043 4.36334 14.8209 2.84334 12.8576 2.02001C11.7809 1.64001 10.6409 1.38667 9.50093 1.38667Z" fill="#212121"/>
<path d="M17.3532 7.53C16.9732 6.39 16.4032 5.31334 15.5798 4.42667L10.7665 7.91L11.3365 2.02C10.1332 1.76667 8.92982 1.76667 7.78982 2.02L8.35982 7.91L3.41982 4.42667C2.59648 5.31334 1.96315 6.39 1.64648 7.53L7.09315 10L1.64648 12.47C2.02648 13.61 2.59648 14.6867 3.41982 15.5733L8.23315 12.1533L7.66315 18.0433C8.86648 18.2967 10.0698 18.2967 11.2098 18.0433L10.6398 12.1533L15.4532 15.6367C16.2765 14.75 16.9098 13.6733 17.2265 12.5333L11.9065 10L17.3532 7.53Z" fill="url(#paint1_linear_1342_10064)"/>
<path d="M17.354 7.65667V7.53L11.9707 10L17.4174 12.47V12.3433L12.1607 10L17.354 7.65667Z" fill="url(#paint2_linear_1342_10064)"/>
<path d="M17.4174 7.72V7.65667V7.53L11.9707 10L17.4174 12.47V12.3433V12.28L12.414 10L17.4174 7.72Z" fill="url(#paint3_linear_1342_10064)"/>
<path d="M15.5801 4.42666L15.5167 4.36333L10.8934 7.65666L11.4634 1.95667H11.4001L10.8301 7.84667L15.5801 4.42666Z" fill="url(#paint4_linear_1342_10064)"/>
<path d="M15.5176 4.36334L15.3909 4.3L10.9576 7.46667L11.4642 2.02H11.4009H11.3376L10.7676 7.91L15.5809 4.42667L15.5176 4.36334Z" fill="url(#paint5_linear_1342_10064)"/>
<path d="M7.72659 1.95667H7.59992L8.16992 7.65667L3.48326 4.36333L3.41992 4.42667L8.23326 7.91L7.72659 1.95667Z" fill="url(#paint6_linear_1342_10064)"/>
<path d="M7.72659 1.95667H7.59992H7.47326L7.97992 7.40333L3.54659 4.23667L3.48326 4.36333L3.41992 4.42667L8.23326 7.91L7.72659 1.95667Z" fill="url(#paint7_linear_1342_10064)"/>
<path d="M1.64648 7.53V7.65667L6.83982 10L1.64648 12.3433V12.47L7.09315 10L1.64648 7.53Z" fill="url(#paint8_linear_1342_10064)"/>
<path d="M1.64732 7.53V7.65667L1.58398 7.72L6.52398 10L1.58398 12.28V12.4067V12.5333L7.09398 10.0633L1.64732 7.53Z" fill="url(#paint9_linear_1342_10064)"/>
<path d="M3.41992 15.5733L3.48326 15.6367L8.10659 12.28L7.53659 17.98H7.59992L8.16992 12.09L3.41992 15.5733Z" fill="url(#paint10_linear_1342_10064)"/>
<path d="M3.41992 15.5733L3.48326 15.6367L3.60992 15.7L8.04326 12.5333L7.53659 17.9167H7.59992H7.66326L8.23326 12.0267L3.41992 15.5733Z" fill="url(#paint11_linear_1342_10064)"/>
<path d="M11.2731 18.0433H11.3998L10.8298 12.28L15.4531 15.5733L15.5165 15.51L10.7031 12.0267L11.2731 18.0433Z" fill="url(#paint12_linear_1342_10064)"/>
<path d="M10.7031 12.09L11.2731 17.98H11.3998H11.5265L11.0198 12.5333L15.4531 15.7L15.5165 15.6367L15.5798 15.5733L10.7031 12.09Z" fill="url(#paint13_linear_1342_10064)"/>
<path d="M9.49938 15.89C12.7294 15.89 15.3894 13.23 15.3894 10C15.3894 6.77 12.7294 4.11 9.49938 4.11C6.26938 4.11 3.60938 6.77 3.60938 10C3.60938 13.23 6.26938 15.89 9.49938 15.89Z" fill="#333333"/>
<path d="M9.49958 16.0167C8.29625 16.0167 7.15625 15.6367 6.14292 15.0033C5.12958 14.37 4.36958 13.42 3.92625 12.28C3.48292 11.2033 3.35625 9.93666 3.60958 8.79666C3.79958 7.65666 4.36958 6.58 5.25625 5.75666C6.14292 4.93333 7.15625 4.36333 8.35958 4.11C9.49958 3.85666 10.7663 3.98333 11.8429 4.42666C12.9196 4.87 13.8696 5.63 14.5663 6.64333C15.1996 7.65666 15.5796 8.79666 15.5796 10C15.5796 11.5833 14.9463 13.1033 13.8063 14.2433C12.6029 15.3833 11.0829 16.0167 9.49958 16.0167ZM9.49958 4.23666C8.35958 4.23666 7.28292 4.55333 6.33292 5.18666C5.38292 5.82 4.68625 6.70666 4.24292 7.78333C3.79958 8.86 3.67292 10 3.86292 11.0767C4.05292 12.2167 4.62292 13.23 5.44625 13.99C6.26958 14.8133 7.28292 15.32 8.35958 15.5733C9.49958 15.7633 10.6396 15.7 11.6529 15.2567C12.7296 14.8133 13.6163 14.1167 14.2496 13.1667C14.8829 12.2167 15.1996 11.14 15.1996 10C15.1996 8.48 14.5663 7.02333 13.4896 5.94666C12.4763 4.87 11.0196 4.23666 9.49958 4.23666Z" fill="url(#paint14_linear_1342_10064)"/>
<path opacity="0.5" d="M9.49979 2.21C11.6531 2.21 13.6798 3.03333 15.2631 4.55333C16.7831 6.07333 17.6698 8.1 17.7331 10.2533V10C17.7331 7.78333 16.8465 5.69333 15.3265 4.17333C13.8065 2.65333 11.6531 1.76666 9.49979 1.76666C7.34646 1.76666 5.19313 2.59 3.60979 4.17333C2.02646 5.75666 1.20312 7.78333 1.20312 10V10.19C1.26646 8.03666 2.15313 6.01 3.67313 4.49C5.25646 2.97 7.34646 2.14666 9.49979 2.21Z" fill="white"/>
<path opacity="0.2" d="M9.50091 17.7267C7.34758 17.7267 5.32091 16.9033 3.80091 15.3833C2.21758 13.9267 1.33091 11.9 1.26758 9.74667V10C1.26758 12.2167 2.15424 14.3067 3.67424 15.8267C5.19424 17.3467 7.34758 18.2333 9.50091 18.2333C11.6542 18.2333 13.8076 17.3467 15.3276 15.8267C16.8476 14.3067 17.7342 12.1533 17.7342 10V9.74667C17.6709 11.9 16.7842 13.9267 15.2009 15.4467C13.7442 16.9033 11.6542 17.7267 9.50091 17.7267Z" fill="black"/>
<path d="M10.4497 7.91C10.7664 7.78334 10.8297 7.59334 10.5764 7.53C10.323 7.46667 10.0697 7.53 9.81638 7.59334L9.37305 7.78334L10.0697 8.1L10.4497 7.91Z" fill="url(#paint15_radial_1342_10064)"/>
<path d="M9.49966 7.21333C9.373 7.14999 9.24633 7.14999 9.11966 7.14999C8.99299 7.14999 8.86633 7.21333 8.73966 7.27666L8.48633 7.40333L9.11966 7.65666L9.49966 7.46666C9.68966 7.40333 9.68966 7.27666 9.49966 7.21333Z" fill="url(#paint16_radial_1342_10064)"/>
<path d="M12.7925 8.35333C12.4758 8.54333 10.6392 9.30333 10.0058 9.55666C9.87917 9.61999 9.81583 9.68333 9.7525 9.74666C9.68917 9.81 9.62583 9.93666 9.62583 10.0633C9.62583 10.0633 9.62583 10.0633 9.62583 10.1267C9.62583 11.6467 9.62583 13.1033 9.5625 13.7367C9.5625 13.8 9.5625 13.8633 9.62583 13.9267C9.62583 13.99 9.68917 13.99 9.7525 14.0533C9.81583 14.0533 9.87917 14.1167 9.9425 14.0533C10.0058 14.0533 10.0692 14.0533 10.0692 13.99L10.1325 13.9267C10.4492 13.61 12.6658 12.1533 12.6658 12.1533C12.6658 12.1533 12.9192 12.09 12.9825 11.5833L13.3625 8.28999C13.3625 8.35333 13.2358 8.16333 12.7925 8.35333ZM12.2858 11.5833C12.1592 11.7733 12.0325 11.9633 11.8425 12.09V12.47L11.3358 12.7233V12.4067C11.1458 12.5333 10.8925 12.5333 10.7025 12.5333V11.9C10.8292 11.9633 10.9558 11.9633 11.0825 11.9C11.2092 11.9 11.3992 11.8367 11.5258 11.7733C11.7158 11.6467 11.8425 11.52 11.8425 11.3933V11.33H11.7792H11.6525L11.3992 11.2033H10.9558C10.8925 11.2033 10.8292 11.14 10.7658 11.0767C10.7025 11.0133 10.7025 10.8867 10.7025 10.76C10.7025 10.57 10.7658 10.38 10.8925 10.19C11.0192 9.99999 11.1458 9.80999 11.3358 9.68333V9.36666L11.7792 9.11333V9.43C11.9058 9.36666 12.0958 9.36666 12.2858 9.36666V9.99999C12.1592 9.99999 12.0325 9.99999 11.9692 9.99999C11.8425 9.99999 11.7158 10.0633 11.5892 10.1267C11.3992 10.2533 11.3358 10.3167 11.3358 10.4433C11.3358 10.57 11.3358 10.57 11.3992 10.5067H11.8425C12.0325 10.4433 12.1592 10.4433 12.3492 10.5067C12.4758 10.57 12.5392 10.6967 12.5392 10.8867C12.4758 11.14 12.4125 11.33 12.2858 11.5833Z" fill="url(#paint17_radial_1342_10064)"/>
<path d="M9.12034 9.55667L6.39701 8.16334C6.27034 8.10001 6.20701 8.10001 6.08034 8.10001C5.95367 8.10001 5.89034 8.10001 5.76367 8.16334L6.017 11.4567C6.017 11.9633 6.27034 12.0267 6.27034 12.0267C6.27034 12.0267 8.23367 13.42 8.74034 13.9267L8.867 13.99C8.93034 13.99 8.93034 14.0533 8.99367 14.0533C9.057 14.0533 9.057 14.0533 9.12034 14.0533C9.18367 14.0533 9.18367 13.99 9.24701 13.99C9.24701 13.9267 9.31034 13.9267 9.31034 13.8633L9.437 10.1267C9.437 10.1267 9.437 10.1267 9.437 10.0633C9.437 9.93667 9.37367 9.87334 9.31034 9.74667C9.247 9.68334 9.18367 9.62001 9.12034 9.55667ZM8.42367 12.7233C8.23367 12.7233 8.04367 12.66 7.917 12.5333C7.66367 12.3433 7.41034 12.1533 7.22034 11.9C7.03034 11.6467 6.90367 11.33 6.84034 10.95L6.587 10.8233V10.4433L6.777 10.57V10.38L6.587 10.2533V9.87334L6.84034 10C6.84034 9.87334 6.90367 9.81001 6.967 9.74667C7.03034 9.68334 7.09367 9.62001 7.22034 9.55667C7.347 9.55667 7.47367 9.49334 7.537 9.55667C7.66367 9.55667 7.727 9.62001 7.85367 9.68334C8.04367 9.81001 8.17034 9.93667 8.36034 10.0633V10.6967C8.23367 10.57 8.10701 10.4433 7.98034 10.3167C7.79034 10.19 7.60034 10.19 7.47367 10.3167L7.98034 10.57V10.95L7.41034 10.57V10.6333V10.6967L7.98034 11.0133V11.3933L7.47367 11.0767C7.53701 11.33 7.72701 11.5833 7.98034 11.71C8.04367 11.7733 8.107 11.7733 8.17034 11.7733C8.23367 11.7733 8.36034 11.7733 8.42367 11.7733V12.7233Z" fill="url(#paint18_radial_1342_10064)"/>
<path d="M12.8571 7.91C12.9204 7.84666 12.9838 7.78333 12.9838 7.72C12.9838 7.65666 12.9838 7.59333 12.9204 7.53L12.8571 7.46666L10.1338 6.26333C9.94378 6.2 9.75378 6.2 9.50044 6.2C9.31044 6.2 9.12044 6.26333 8.93044 6.32666L6.20711 7.40333C6.20711 7.40333 5.89045 7.59333 6.39711 7.97333L9.24711 9.36666C9.37378 9.43 9.50044 9.43 9.62711 9.43C9.75378 9.43 9.88044 9.36666 10.0071 9.30333C10.3871 8.98666 12.8571 7.91 12.8571 7.91ZM9.56378 8.73333L9.24711 8.60666L9.50044 8.48C9.56378 8.48 9.56378 8.41666 9.50044 8.35333L8.10711 7.78333C8.04378 7.78333 8.04378 7.78333 7.98045 7.78333C7.91711 7.78333 7.91711 7.78333 7.85378 7.78333L7.60044 7.84666L7.28378 7.72L7.91711 7.40333L7.60044 7.27666L7.91711 7.15L8.23378 7.27666L8.42378 7.15L8.10711 7.02333L8.42378 6.89666L8.74044 7.02333C9.12044 6.83333 9.56378 6.77 10.0071 6.89666C10.2604 6.96 10.3871 7.08666 10.2604 7.27666C10.5771 7.15 10.8938 7.15 11.2104 7.27666C11.6538 7.46666 11.7171 7.72 11.0838 7.97333H11.0204L11.3371 8.1L11.0204 8.29L10.7038 8.16333L10.5138 8.29L10.8304 8.41666L10.5138 8.54333L10.1338 8.41666L9.56378 8.73333Z" fill="url(#paint19_radial_1342_10064)"/>
<path d="M10.4497 7.91C10.7664 7.78334 10.8297 7.59334 10.5764 7.53C10.323 7.46667 10.0697 7.53 9.81638 7.59334L9.37305 7.78334L10.0697 8.1L10.4497 7.91Z" fill="url(#paint20_linear_1342_10064)"/>
<path d="M9.49966 7.21333C9.373 7.14999 9.24633 7.14999 9.11966 7.14999C8.99299 7.14999 8.86633 7.21333 8.73966 7.27666L8.48633 7.40333L9.11966 7.65666L9.49966 7.46666C9.68966 7.40333 9.68966 7.27666 9.49966 7.21333Z" fill="url(#paint21_linear_1342_10064)"/>
<path d="M12.7925 8.35333C12.4758 8.54333 10.6392 9.30333 10.0058 9.55666C9.87917 9.61999 9.81583 9.68333 9.7525 9.74666C9.68917 9.81 9.62583 9.93666 9.62583 10.0633C9.62583 10.0633 9.62583 10.0633 9.62583 10.1267C9.62583 11.6467 9.62583 13.1033 9.5625 13.7367C9.5625 13.8 9.5625 13.8633 9.62583 13.9267C9.62583 13.99 9.68917 13.99 9.7525 14.0533C9.81583 14.0533 9.87917 14.1167 9.9425 14.0533C10.0058 14.0533 10.0692 14.0533 10.0692 13.99L10.1325 13.9267C10.4492 13.61 12.6658 12.1533 12.6658 12.1533C12.6658 12.1533 12.9192 12.09 12.9825 11.5833L13.3625 8.28999C13.3625 8.35333 13.2358 8.16333 12.7925 8.35333ZM12.2858 11.5833C12.1592 11.7733 12.0325 11.9633 11.8425 12.09V12.47L11.3358 12.7233V12.4067C11.1458 12.5333 10.8925 12.5333 10.7025 12.5333V11.9C10.8292 11.9633 10.9558 11.9633 11.0825 11.9C11.2092 11.9 11.3992 11.8367 11.5258 11.7733C11.7158 11.6467 11.8425 11.52 11.8425 11.3933V11.33H11.7792H11.6525L11.3992 11.2033H10.9558C10.8925 11.2033 10.8292 11.14 10.7658 11.0767C10.7025 11.0133 10.7025 10.8867 10.7025 10.76C10.7025 10.57 10.7658 10.38 10.8925 10.19C11.0192 9.99999 11.1458 9.80999 11.3358 9.68333V9.36666L11.7792 9.11333V9.43C11.9058 9.36666 12.0958 9.36666 12.2858 9.36666V9.99999C12.1592 9.99999 12.0325 9.99999 11.9692 9.99999C11.8425 9.99999 11.7158 10.0633 11.5892 10.1267C11.3992 10.2533 11.3358 10.3167 11.3358 10.4433C11.3358 10.57 11.3358 10.57 11.3992 10.5067H11.8425C12.0325 10.4433 12.1592 10.4433 12.3492 10.5067C12.4758 10.57 12.5392 10.6967 12.5392 10.8867C12.4758 11.14 12.4125 11.33 12.2858 11.5833Z" fill="url(#paint22_linear_1342_10064)"/>
<path d="M9.12034 9.55667L6.39701 8.16334C6.27034 8.10001 6.20701 8.10001 6.08034 8.10001C5.95367 8.10001 5.89034 8.10001 5.76367 8.16334L6.017 11.4567C6.017 11.9633 6.27034 12.0267 6.27034 12.0267C6.27034 12.0267 8.23367 13.42 8.74034 13.9267L8.867 13.99C8.93034 13.99 8.93034 14.0533 8.99367 14.0533C9.057 14.0533 9.057 14.0533 9.12034 14.0533C9.18367 14.0533 9.18367 13.99 9.24701 13.99C9.24701 13.9267 9.31034 13.9267 9.31034 13.8633L9.437 10.1267C9.437 10.1267 9.437 10.1267 9.437 10.0633C9.437 9.93667 9.37367 9.87334 9.31034 9.74667C9.247 9.68334 9.18367 9.62001 9.12034 9.55667ZM8.42367 12.7233C8.23367 12.7233 8.04367 12.66 7.917 12.5333C7.66367 12.3433 7.41034 12.1533 7.22034 11.9C7.03034 11.6467 6.90367 11.33 6.84034 10.95L6.587 10.8233V10.4433L6.777 10.57V10.38L6.587 10.2533V9.87334L6.84034 10C6.84034 9.87334 6.90367 9.81001 6.967 9.74667C7.03034 9.68334 7.09367 9.62001 7.22034 9.55667C7.347 9.55667 7.47367 9.49334 7.537 9.55667C7.66367 9.55667 7.727 9.62001 7.85367 9.68334C8.04367 9.81001 8.17034 9.93667 8.36034 10.0633V10.6967C8.23367 10.57 8.10701 10.4433 7.98034 10.3167C7.79034 10.19 7.60034 10.19 7.47367 10.3167L7.98034 10.57V10.95L7.41034 10.57V10.6333V10.6967L7.98034 11.0133V11.3933L7.47367 11.0767C7.53701 11.33 7.72701 11.5833 7.98034 11.71C8.04367 11.7733 8.107 11.7733 8.17034 11.7733C8.23367 11.7733 8.36034 11.7733 8.42367 11.7733V12.7233Z" fill="url(#paint23_linear_1342_10064)"/>
<path d="M12.8571 7.91C12.9204 7.84666 12.9838 7.78333 12.9838 7.72C12.9838 7.65666 12.9838 7.59333 12.9204 7.53L12.8571 7.46666L10.1338 6.26333C9.94378 6.2 9.75378 6.2 9.50044 6.2C9.31044 6.2 9.12044 6.26333 8.93044 6.32666L6.20711 7.40333C6.20711 7.40333 5.89045 7.59333 6.39711 7.97333L9.24711 9.36666C9.37378 9.43 9.50044 9.43 9.62711 9.43C9.75378 9.43 9.88044 9.36666 10.0071 9.30333C10.3871 8.98666 12.8571 7.91 12.8571 7.91ZM9.56378 8.73333L9.24711 8.60666L9.50044 8.48C9.56378 8.48 9.56378 8.41666 9.50044 8.35333L8.10711 7.78333C8.04378 7.78333 8.04378 7.78333 7.98045 7.78333C7.91711 7.78333 7.91711 7.78333 7.85378 7.78333L7.60044 7.84666L7.28378 7.72L7.91711 7.40333L7.60044 7.27666L7.91711 7.15L8.23378 7.27666L8.42378 7.15L8.10711 7.02333L8.42378 6.89666L8.74044 7.02333C9.12044 6.83333 9.56378 6.77 10.0071 6.89666C10.2604 6.96 10.3871 7.08666 10.2604 7.27666C10.5771 7.15 10.8938 7.15 11.2104 7.27666C11.6538 7.46666 11.7171 7.72 11.0838 7.97333H11.0204L11.3371 8.1L11.0204 8.29L10.7038 8.16333L10.5138 8.29L10.8304 8.41666L10.5138 8.54333L10.1338 8.41666L9.56378 8.73333Z" fill="url(#paint24_linear_1342_10064)"/>
</g>
<defs>
<linearGradient id="paint0_linear_1342_10064" x1="18.9994" y1="10" x2="0" y2="10" gradientUnits="userSpaceOnUse">
<stop stop-color="#BE6D00"/>
<stop offset="0.19" stop-color="#D09222"/>
<stop offset="0.44" stop-color="#E4BD4A"/>
<stop offset="0.67" stop-color="#F3DB67"/>
<stop offset="0.86" stop-color="#FCEE79"/>
<stop offset="1" stop-color="#FFF57F"/>
</linearGradient>
<linearGradient id="paint1_linear_1342_10064" x1="9.49494" y1="18.7441" x2="9.49494" y2="1.24803" gradientUnits="userSpaceOnUse">
<stop offset="0.15" stop-color="#5C19B1"/>
<stop offset="1" stop-color="#731EDF"/>
</linearGradient>
<linearGradient id="paint2_linear_1342_10064" x1="14.6623" y1="18.7442" x2="14.6623" y2="1.24809" gradientUnits="userSpaceOnUse">
<stop offset="0.15" stop-color="#5C19B1"/>
<stop offset="1" stop-color="#731EDF"/>
</linearGradient>
<linearGradient id="paint3_linear_1342_10064" x1="14.6929" y1="1.15379" x2="14.6929" y2="18.8463" gradientUnits="userSpaceOnUse">
<stop stop-color="#BE6D00"/>
<stop offset="0.19" stop-color="#D09222"/>
<stop offset="0.44" stop-color="#E4BD4A"/>
<stop offset="0.67" stop-color="#F3DB67"/>
<stop offset="0.86" stop-color="#FCEE79"/>
<stop offset="1" stop-color="#FFF57F"/>
</linearGradient>
<linearGradient id="paint4_linear_1342_10064" x1="13.133" y1="18.7442" x2="13.133" y2="1.24815" gradientUnits="userSpaceOnUse">
<stop offset="0.15" stop-color="#5C19B1"/>
<stop offset="1" stop-color="#731EDF"/>
</linearGradient>
<linearGradient id="paint5_linear_1342_10064" x1="13.1354" y1="-8.98872" x2="13.1354" y2="8.70376" gradientUnits="userSpaceOnUse">
<stop stop-color="#BE6D00"/>
<stop offset="0.19" stop-color="#D09222"/>
<stop offset="0.44" stop-color="#E4BD4A"/>
<stop offset="0.67" stop-color="#F3DB67"/>
<stop offset="0.86" stop-color="#FCEE79"/>
<stop offset="1" stop-color="#FFF57F"/>
</linearGradient>
<linearGradient id="paint6_linear_1342_10064" x1="5.8618" y1="18.7441" x2="5.8618" y2="1.24803" gradientUnits="userSpaceOnUse">
<stop offset="0.15" stop-color="#5C19B1"/>
<stop offset="1" stop-color="#731EDF"/>
</linearGradient>
<linearGradient id="paint7_linear_1342_10064" x1="5.8618" y1="-8.98094" x2="5.8618" y2="8.71155" gradientUnits="userSpaceOnUse">
<stop stop-color="#BE6D00"/>
<stop offset="0.19" stop-color="#D09222"/>
<stop offset="0.44" stop-color="#E4BD4A"/>
<stop offset="0.67" stop-color="#F3DB67"/>
<stop offset="0.86" stop-color="#FCEE79"/>
<stop offset="1" stop-color="#FFF57F"/>
</linearGradient>
<linearGradient id="paint8_linear_1342_10064" x1="4.36216" y1="18.7441" x2="4.36216" y2="1.24809" gradientUnits="userSpaceOnUse">
<stop offset="0.15" stop-color="#5C19B1"/>
<stop offset="1" stop-color="#731EDF"/>
</linearGradient>
<linearGradient id="paint9_linear_1342_10064" x1="4.32163" y1="1.16164" x2="4.32163" y2="18.8541" gradientUnits="userSpaceOnUse">
<stop stop-color="#BE6D00"/>
<stop offset="0.19" stop-color="#D09222"/>
<stop offset="0.44" stop-color="#E4BD4A"/>
<stop offset="0.67" stop-color="#F3DB67"/>
<stop offset="0.86" stop-color="#FCEE79"/>
<stop offset="1" stop-color="#FFF57F"/>
</linearGradient>
<linearGradient id="paint10_linear_1342_10064" x1="5.86946" y1="18.7441" x2="5.86946" y2="1.24809" gradientUnits="userSpaceOnUse">
<stop offset="0.15" stop-color="#5C19B1"/>
<stop offset="1" stop-color="#731EDF"/>
</linearGradient>
<linearGradient id="paint11_linear_1342_10064" x1="5.86947" y1="11.2885" x2="5.86947" y2="28.9809" gradientUnits="userSpaceOnUse">
<stop stop-color="#BE6D00"/>
<stop offset="0.19" stop-color="#D09222"/>
<stop offset="0.44" stop-color="#E4BD4A"/>
<stop offset="0.67" stop-color="#F3DB67"/>
<stop offset="0.86" stop-color="#FCEE79"/>
<stop offset="1" stop-color="#FFF57F"/>
</linearGradient>
<linearGradient id="paint12_linear_1342_10064" x1="13.1297" y1="18.7442" x2="13.1297" y2="1.2481" gradientUnits="userSpaceOnUse">
<stop offset="0.15" stop-color="#5C19B1"/>
<stop offset="1" stop-color="#731EDF"/>
</linearGradient>
<linearGradient id="paint13_linear_1342_10064" x1="13.145" y1="11.2964" x2="13.145" y2="28.9889" gradientUnits="userSpaceOnUse">
<stop stop-color="#BE6D00"/>
<stop offset="0.19" stop-color="#D09222"/>
<stop offset="0.44" stop-color="#E4BD4A"/>
<stop offset="0.67" stop-color="#F3DB67"/>
<stop offset="0.86" stop-color="#FCEE79"/>
<stop offset="1" stop-color="#FFF57F"/>
</linearGradient>
<linearGradient id="paint14_linear_1342_10064" x1="9.498" y1="16.0258" x2="9.498" y2="3.97465" gradientUnits="userSpaceOnUse">
<stop stop-color="#BE6D00"/>
<stop offset="0.19" stop-color="#D09222"/>
<stop offset="0.44" stop-color="#E4BD4A"/>
<stop offset="0.67" stop-color="#F3DB67"/>
<stop offset="0.86" stop-color="#FCEE79"/>
<stop offset="1" stop-color="#FFF57F"/>
</linearGradient>
<radialGradient id="paint15_radial_1342_10064" cx="0" cy="0" r="1" gradientUnits="userSpaceOnUse" gradientTransform="translate(10.1043 7.80019) scale(0.510666)">
<stop stop-color="#BE6D00"/>
<stop offset="0.19" stop-color="#D09222"/>
<stop offset="0.44" stop-color="#E4BD4A"/>
<stop offset="0.67" stop-color="#F3DB67"/>
<stop offset="0.86" stop-color="#FCEE79"/>
<stop offset="1" stop-color="#FFF57F"/>
</radialGradient>
<radialGradient id="paint16_radial_1342_10064" cx="0" cy="0" r="1" gradientUnits="userSpaceOnUse" gradientTransform="translate(9.08254 7.42333) scale(0.439882)">
<stop stop-color="#BE6D00"/>
<stop offset="0.19" stop-color="#D09222"/>
<stop offset="0.44" stop-color="#E4BD4A"/>
<stop offset="0.67" stop-color="#F3DB67"/>
<stop offset="0.86" stop-color="#FCEE79"/>
<stop offset="1" stop-color="#FFF57F"/>
</radialGradient>
<radialGradient id="paint17_radial_1342_10064" cx="0" cy="0" r="1" gradientUnits="userSpaceOnUse" gradientTransform="translate(11.4813 11.1641) scale(2.46012)">
<stop stop-color="#BE6D00"/>
<stop offset="0.19" stop-color="#D09222"/>
<stop offset="0.44" stop-color="#E4BD4A"/>
<stop offset="0.67" stop-color="#F3DB67"/>
<stop offset="0.86" stop-color="#FCEE79"/>
<stop offset="1" stop-color="#FFF57F"/>
</radialGradient>
<radialGradient id="paint18_radial_1342_10064" cx="0" cy="0" r="1" gradientUnits="userSpaceOnUse" gradientTransform="translate(7.62303 11.0693) scale(2.46689)">
<stop stop-color="#BE6D00"/>
<stop offset="0.19" stop-color="#D09222"/>
<stop offset="0.44" stop-color="#E4BD4A"/>
<stop offset="0.67" stop-color="#F3DB67"/>
<stop offset="0.86" stop-color="#FCEE79"/>
<stop offset="1" stop-color="#FFF57F"/>
</radialGradient>
<radialGradient id="paint19_radial_1342_10064" cx="0" cy="0" r="1" gradientUnits="userSpaceOnUse" gradientTransform="translate(9.58764 7.79953) scale(2.66564)">
<stop stop-color="#BE6D00"/>
<stop offset="0.19" stop-color="#D09222"/>
<stop offset="0.44" stop-color="#E4BD4A"/>
<stop offset="0.67" stop-color="#F3DB67"/>
<stop offset="0.86" stop-color="#FCEE79"/>
<stop offset="1" stop-color="#FFF57F"/>
</radialGradient>
<linearGradient id="paint20_linear_1342_10064" x1="10.0869" y1="14.0695" x2="10.0869" y2="6.19747" gradientUnits="userSpaceOnUse">
<stop stop-color="#BE6D00"/>
<stop offset="0.19" stop-color="#D09222"/>
<stop offset="0.44" stop-color="#E4BD4A"/>
<stop offset="0.67" stop-color="#F3DB67"/>
<stop offset="0.86" stop-color="#FCEE79"/>
<stop offset="1" stop-color="#FFF57F"/>
</linearGradient>
<linearGradient id="paint21_linear_1342_10064" x1="9.05848" y1="14.0697" x2="9.05848" y2="6.19759" gradientUnits="userSpaceOnUse">
<stop stop-color="#BE6D00"/>
<stop offset="0.19" stop-color="#D09222"/>
<stop offset="0.44" stop-color="#E4BD4A"/>
<stop offset="0.67" stop-color="#F3DB67"/>
<stop offset="0.86" stop-color="#FCEE79"/>
<stop offset="1" stop-color="#FFF57F"/>
</linearGradient>
<linearGradient id="paint22_linear_1342_10064" x1="11.47" y1="14.0696" x2="11.47" y2="6.19759" gradientUnits="userSpaceOnUse">
<stop stop-color="#BE6D00"/>
<stop offset="0.19" stop-color="#D09222"/>
<stop offset="0.44" stop-color="#E4BD4A"/>
<stop offset="0.67" stop-color="#F3DB67"/>
<stop offset="0.86" stop-color="#FCEE79"/>
<stop offset="1" stop-color="#FFF57F"/>
</linearGradient>
<linearGradient id="paint23_linear_1342_10064" x1="7.61605" y1="14.0618" x2="7.61605" y2="6.18962" gradientUnits="userSpaceOnUse">
<stop stop-color="#BE6D00"/>
<stop offset="0.19" stop-color="#D09222"/>
<stop offset="0.44" stop-color="#E4BD4A"/>
<stop offset="0.67" stop-color="#F3DB67"/>
<stop offset="0.86" stop-color="#FCEE79"/>
<stop offset="1" stop-color="#FFF57F"/>
</linearGradient>
<linearGradient id="paint24_linear_1342_10064" x1="9.58632" y1="14.0697" x2="9.58632" y2="6.19765" gradientUnits="userSpaceOnUse">
<stop stop-color="#BE6D00"/>
<stop offset="0.19" stop-color="#D09222"/>
<stop offset="0.44" stop-color="#E4BD4A"/>
<stop offset="0.67" stop-color="#F3DB67"/>
<stop offset="0.86" stop-color="#FCEE79"/>
<stop offset="1" stop-color="#FFF57F"/>
</linearGradient>
<clipPath id="clip0_1342_10064">
<rect width="86.7667" height="19" fill="white" transform="translate(0 0.5)"/>
</clipPath>
</defs>
</svg>
