<?xml version="1.0"?>
<svg xmlns="http://www.w3.org/2000/svg" xmlns:xlink="http://www.w3.org/1999/xlink" width="72" height="80" viewBox="0 0 72 80" fill="none">
<path d="M34.1175 36.2922C32.5794 35.6882 31.2548 34.642 30.3108 33.2857C29.3668 31.9293 28.8458 30.3238 28.8137 28.6716C28.8137 26.5182 29.6692 24.4529 31.1919 22.9302C32.7146 21.4075 34.7799 20.552 36.9333 20.552C38.0145 20.537 39.0864 20.7533 40.0771 21.1864C46.5785 24.1306 65.7405 33.6617 65.7405 33.6617C67.3602 34.596 68.7052 35.9406 69.64 37.56C70.5748 39.1793 71.0666 41.0164 71.0657 42.8863V56.1386C71.066 57.5916 70.6841 59.0191 69.9584 60.2779C69.2327 61.5366 68.1887 62.5823 66.9311 63.3101L38.7369 78.8935C37.4769 79.6184 36.0487 80 34.5951 80C33.1414 80 31.7133 79.6184 30.4533 78.8935L2.40182 62.3976C2.14034 62.2521 1.91229 62.0533 1.73245 61.8141C1.55262 61.575 1.42502 61.3007 1.35783 61.0091C1.29064 60.7175 1.28539 60.4151 1.34243 60.1213C1.39946 59.8275 1.51751 59.549 1.68894 59.3037L1.63186 59.3893C2.70437 57.7627 4.20091 56.4601 5.95983 55.6221C7.71875 54.7841 9.6732 54.4426 11.6121 54.6344C13.1519 54.7693 14.64 55.2571 15.9607 56.0602C18.6482 57.7212 26.3543 63.2317 34.4169 63.2317C38.8786 63.2384 43.2155 61.7585 46.7425 59.0257C49.4728 56.8871 51.2336 52.838 51.2336 49.1168C51.2349 47.456 50.7412 45.8325 49.8156 44.4535C48.8899 43.0746 47.5743 42.0028 46.0367 41.375L34.1175 36.2922Z" fill="#E4032F"/>
<path d="M30.4463 28.3582C30.4453 28.3771 30.4453 28.3962 30.4463 28.4152V28.3724V28.3582Z" fill="url(#paint0_linear_1611_693)"/>
<path d="M30.3108 28.2867C30.3126 28.3033 30.3126 28.32 30.3108 28.3366V28.2867Z" fill="url(#paint1_linear_1611_693)"/>
<path d="M38.7223 78.8935C37.4623 79.6185 36.0342 80 34.5805 80C33.1269 80 31.6987 79.6185 30.4387 78.8935L2.38717 62.3976C2.12569 62.2521 1.89764 62.0533 1.71781 61.8142C1.53797 61.575 1.41037 61.3007 1.34318 61.0091C1.27599 60.7175 1.27074 60.4151 1.32778 60.1213C1.38482 59.8276 1.50287 59.549 1.6743 59.3038L1.6173 59.3893C2.68981 57.7627 4.18634 56.4601 5.94527 55.6221C7.70419 54.7841 9.65864 54.4426 11.5975 54.6345C13.1373 54.7693 14.6253 55.2572 15.946 56.0602C18.6335 57.7212 26.3397 63.2317 34.4023 63.2317C38.8641 63.2384 43.2009 61.7585 46.7278 59.0258C49.4581 56.8872 51.2189 52.838 51.2189 49.1168C51.2203 47.456 50.7266 45.8325 49.8009 44.4535C48.8753 43.0746 47.5597 42.0028 46.0221 41.375L34.1243 36.278C32.5862 35.674 31.2615 34.6278 30.3176 33.2714C29.3736 31.9151 28.8526 30.3095 28.8205 28.6574C28.8191 27.5849 29.0308 26.5228 29.4432 25.5328C29.8556 24.5428 30.4605 23.6446 31.2228 22.8903C30.4199 23.6962 29.8321 24.6906 29.513 25.7825C29.1939 26.8744 29.1538 28.0289 29.3964 29.1403C29.6389 30.2517 30.1563 31.2845 30.9014 32.1442C31.6464 33.0039 32.5952 33.6629 33.6609 34.061L50.5346 40.4768C53.5624 41.6122 56.2016 43.5912 58.1397 46.1797C60.0778 48.7681 61.2337 51.8577 61.4707 55.0827C61.7077 58.3076 61.0158 61.533 59.4769 64.377C57.938 67.221 55.6165 69.5646 52.7872 71.1303L38.7223 78.8935Z" fill="url(#paint2_linear_1611_693)"/>
<path d="M66.8026 16.4175C67.1185 16.6278 67.3775 16.9129 67.5566 17.2475C67.7357 17.5821 67.8293 17.9557 67.8291 18.3351C67.8286 18.641 67.768 18.9437 67.6509 19.2262C66.8059 21.3538 65.2658 23.1327 63.2811 24.2734C62.2239 24.7966 61.0734 25.105 59.8963 25.1809C58.7192 25.2567 57.5387 25.0985 56.4231 24.7154C55.6762 24.4566 54.9704 24.0917 54.3273 23.6318C52.1174 22.0207 44.2189 16.6456 36.3701 16.6456C32.0042 16.6323 27.7517 18.0356 24.2513 20.6449C21.685 22.5625 19.974 26.1768 19.8528 29.5772V30.29C19.8681 31.8886 20.3645 33.4455 21.2775 34.7578C22.1905 36.07 23.4777 37.0768 24.9712 37.6469L36.8192 42.5087C38.3133 43.0569 39.6093 44.0396 40.5405 45.3303C41.4717 46.6209 41.9955 48.1607 42.0446 49.7514C42.0279 50.7868 41.8064 51.8085 41.3928 52.7578C40.9792 53.7071 40.3816 54.565 39.6347 55.2821C38.8878 55.9993 38.0062 56.5613 37.0409 56.9359C36.0756 57.3106 35.0456 57.4903 34.0105 57.4647C32.9489 57.4812 31.8954 57.2773 30.9166 56.8659C24.5008 54.0715 5.65952 45.0108 5.65952 45.0108C4.08378 44.1491 2.7671 42.8818 1.84584 41.3401C0.92459 39.7984 0.432291 38.0384 0.419924 36.2425V23.867C0.418879 22.4131 0.801232 20.9845 1.52839 19.7255C2.25555 18.4664 3.30177 17.4213 4.56167 16.6955L32.7558 1.11216C34.0133 0.383645 35.4408 0 36.8941 0C38.3473 0 39.7748 0.383645 41.0323 1.11216L66.8026 16.4175Z" fill="#E10725"/>
<path d="M66.8026 16.4175C67.1185 16.6278 67.3775 16.9129 67.5566 17.2475C67.7357 17.5821 67.8293 17.9557 67.8291 18.3351C67.8286 18.641 67.768 18.9437 67.6509 19.2262C66.8059 21.3538 65.2658 23.1327 63.2811 24.2734C62.2239 24.7966 61.0734 25.105 59.8963 25.1809C58.7192 25.2567 57.5387 25.0985 56.4231 24.7154C55.6762 24.4566 54.9704 24.0917 54.3273 23.6318C52.1174 22.0207 44.2189 16.6456 36.3701 16.6456C32.0042 16.6323 27.7517 18.0356 24.2513 20.6449C21.685 22.5625 19.974 26.1768 19.8528 29.5772V30.29C19.8681 31.8886 20.3645 33.4455 21.2775 34.7578C22.1905 36.07 23.4777 37.0768 24.9712 37.6469L36.8192 42.5087C38.3133 43.0569 39.6093 44.0396 40.5405 45.3303C41.4717 46.6209 41.9955 48.1607 42.0446 49.7514C42.0279 50.7868 41.8064 51.8085 41.3928 52.7578C40.9792 53.7071 40.3816 54.565 39.6347 55.2821C38.8878 55.9993 38.0062 56.5613 37.0409 56.9359C36.0756 57.3106 35.0456 57.4903 34.0105 57.4647C32.9489 57.4812 31.8954 57.2773 30.9166 56.8659C24.5008 54.0715 5.65952 45.0108 5.65952 45.0108C4.08378 44.1491 2.7671 42.8818 1.84584 41.3401C0.92459 39.7984 0.432291 38.0384 0.419924 36.2425V23.867C0.418879 22.4131 0.801232 20.9845 1.52839 19.7255C2.25555 18.4664 3.30177 17.4213 4.56167 16.6955L32.7558 1.11216C34.0133 0.383645 35.4408 0 36.8941 0C38.3473 0 39.7748 0.383645 41.0323 1.11216L66.8026 16.4175Z" fill="url(#paint3_linear_1611_693)"/>
<path d="M67.5582 19.3901C66.9262 20.434 66.0801 21.3321 65.0758 22.0253C64.0715 22.7185 62.9318 23.1912 61.7316 23.4121C60.5315 23.633 59.2982 23.5971 58.1129 23.3069C56.9276 23.0167 55.8171 22.4787 54.8548 21.7283V21.7283C49.2516 17.4511 41.7237 14.1149 34.039 14.1149C22.8112 14.1149 13.4155 24.6226 13.4155 35.8503C13.4155 42.4587 17.5217 49.9296 22.6401 53.0876C25.9479 54.6345 28.9847 56.0389 30.8952 56.873C31.876 57.2867 32.9317 57.4931 33.9962 57.4789C35.0283 57.4987 36.0543 57.3146 37.0152 56.9369C37.976 56.5593 38.8528 55.9957 39.5952 55.2784C40.3377 54.5611 40.9312 53.7042 41.3417 52.757C41.7523 51.8097 41.9717 50.7907 41.9874 49.7585C41.9795 48.4759 41.6488 47.2159 41.0259 46.0946C40.403 44.9734 39.5079 44.027 38.4231 43.3426L37.9241 43.0432C37.572 42.8446 37.2077 42.6685 36.8334 42.5157L33.7538 41.261L24.9356 37.6254C23.4432 37.0579 22.1564 36.0537 21.2434 34.7439C20.3303 33.434 19.8332 31.8794 19.8171 30.2828V29.5699C19.9668 26.1695 21.6492 22.5553 24.2156 20.6376C27.7167 18.0304 31.9692 16.6296 36.3344 16.6456V16.6456C37.5617 16.6536 38.7857 16.7729 39.9914 17.002C46.5213 18.2281 52.4453 22.2772 54.313 23.6388C54.9546 24.0992 55.6609 24.462 56.4089 24.7153C56.8236 24.8561 57.2476 24.9681 57.6778 25.0503C59.5656 25.4052 61.5178 25.1349 63.2382 24.2804C65.1765 23.1693 66.6948 21.4507 67.5582 19.3901V19.3901Z" fill="url(#paint4_linear_1611_693)"/>
<path d="M67.5582 19.3901C66.9262 20.434 66.0801 21.3321 65.0758 22.0253C64.0715 22.7185 62.9318 23.1912 61.7316 23.4121C60.5315 23.633 59.2982 23.5971 58.1129 23.3069C56.9276 23.0167 55.8171 22.4787 54.8548 21.7283V21.7283C49.2516 17.4511 41.7237 14.1149 34.039 14.1149C22.8112 14.1149 13.4155 24.6226 13.4155 35.8503C13.4155 42.4587 17.5217 49.9296 22.6401 53.0876C25.9479 54.6345 28.9847 56.0389 30.8952 56.873C31.876 57.2867 32.9317 57.4931 33.9962 57.4789C35.0283 57.4987 36.0543 57.3146 37.0152 56.9369C37.976 56.5593 38.8528 55.9957 39.5952 55.2784C40.3377 54.5611 40.9312 53.7042 41.3417 52.757C41.7523 51.8097 41.9717 50.7907 41.9874 49.7585C41.9795 48.4759 41.6488 47.2159 41.0259 46.0946C40.403 44.9734 39.5079 44.027 38.4231 43.3426L37.9241 43.0432C37.572 42.8446 37.2077 42.6685 36.8334 42.5157L33.7538 41.261L24.9356 37.6254C23.4432 37.0579 22.1564 36.0537 21.2434 34.7439C20.3303 33.434 19.8332 31.8794 19.8171 30.2828V29.5699C19.9668 26.1695 21.6492 22.5553 24.2156 20.6376C27.7167 18.0304 31.9692 16.6296 36.3344 16.6456V16.6456C37.5617 16.6536 38.7857 16.7729 39.9914 17.002C46.5213 18.2281 52.4453 22.2772 54.313 23.6388C54.9546 24.0992 55.6609 24.462 56.4089 24.7153C56.8236 24.8561 57.2476 24.9681 57.6778 25.0503C59.5656 25.4052 61.5178 25.1349 63.2382 24.2804C65.1765 23.1693 66.6948 21.4507 67.5582 19.3901V19.3901Z" fill="url(#paint5_linear_1611_693)"/>
<path d="M67.5582 19.3901C66.9262 20.434 66.0801 21.3321 65.0758 22.0253C64.0715 22.7185 62.9318 23.1912 61.7316 23.4121C60.5315 23.633 59.2982 23.5971 58.1129 23.3069C56.9276 23.0167 55.8171 22.4787 54.8548 21.7283V21.7283C49.2516 17.4511 41.7237 14.1149 34.039 14.1149C22.8112 14.1149 13.4155 24.6226 13.4155 35.8503C13.4155 42.4587 17.5217 49.9296 22.6401 53.0876C25.9479 54.6345 28.9847 56.0389 30.8952 56.873C31.876 57.2867 32.9317 57.4931 33.9962 57.4789C35.0283 57.4987 36.0543 57.3146 37.0152 56.9369C37.976 56.5593 38.8528 55.9957 39.5952 55.2784C40.3377 54.5611 40.9312 53.7042 41.3417 52.757C41.7523 51.8097 41.9717 50.7907 41.9874 49.7585C41.9795 48.4759 41.6488 47.2159 41.0259 46.0946C40.403 44.9734 39.5079 44.027 38.4231 43.3426L37.9241 43.0432C37.572 42.8446 37.2077 42.6685 36.8334 42.5157L33.7538 41.261L24.9356 37.6254C23.4432 37.0579 22.1564 36.0537 21.2434 34.7439C20.3303 33.434 19.8332 31.8794 19.8171 30.2828V29.5699C19.9668 26.1695 21.6492 22.5553 24.2156 20.6376C27.7167 18.0304 31.9692 16.6296 36.3344 16.6456V16.6456C37.5617 16.6536 38.7857 16.7729 39.9914 17.002C46.5213 18.2281 52.4453 22.2772 54.313 23.6388C54.9546 24.0992 55.6609 24.462 56.4089 24.7153C56.8236 24.8561 57.2476 24.9681 57.6778 25.0503C59.5656 25.4052 61.5178 25.1349 63.2382 24.2804C65.1765 23.1693 66.6948 21.4507 67.5582 19.3901V19.3901Z" fill="url(#paint6_linear_1611_693)"/>
<rect x="3.51367" y="2.03174" width="0.171089" height="0.171089" fill="url(#pattern0)"/>
<defs>
<pattern id="pattern0" patternContentUnits="objectBoundingBox" width="1" height="1">
<use xlink:href="#image0_1611_693" transform="scale(0.00203666 0.00180505)"/>
</pattern>
<linearGradient id="paint0_linear_1611_693" x1="31.3926" y1="47.2967" x2="30.9305" y2="47.2225" gradientUnits="userSpaceOnUse">
<stop stop-color="#007694" stop-opacity="0"/>
<stop offset="0.32" stop-color="#07667A" stop-opacity="0.21"/>
<stop offset="0.85" stop-color="#1C3C34" stop-opacity="0.77"/>
<stop offset="1" stop-color="#222F1D" stop-opacity="0.95"/>
</linearGradient>
<linearGradient id="paint1_linear_1611_693" x1="31.9683" y1="44.8439" x2="31.2163" y2="44.6024" gradientUnits="userSpaceOnUse">
<stop stop-color="#007694" stop-opacity="0"/>
<stop offset="0.32" stop-color="#07667A" stop-opacity="0.21"/>
<stop offset="0.85" stop-color="#1C3C34" stop-opacity="0.77"/>
<stop offset="1" stop-color="#222F1D" stop-opacity="0.95"/>
</linearGradient>
<linearGradient id="paint2_linear_1611_693" x1="71124.8" y1="21126.1" x2="73236.5" y2="17631.4" gradientUnits="userSpaceOnUse">
<stop stop-color="#E40425" stop-opacity="0"/>
<stop offset="0.46" stop-color="#E10722" stop-opacity="0.9"/>
<stop offset="0.61" stop-color="#D30A1F" stop-opacity="0.92"/>
<stop offset="0.87" stop-color="#AD1318" stop-opacity="0.97"/>
<stop offset="1" stop-color="#961914"/>
</linearGradient>
<linearGradient id="paint3_linear_1611_693" x1="81709.8" y1="13156.5" x2="81709.8" y2="18991.2" gradientUnits="userSpaceOnUse">
<stop stop-color="#E10725" stop-opacity="0"/>
<stop offset="0.51" stop-color="#DF0A1F" stop-opacity="0"/>
<stop offset="0.64" stop-color="#CE0E1C" stop-opacity="0.24"/>
<stop offset="0.92" stop-color="#A21616" stop-opacity="0.83"/>
<stop offset="1" stop-color="#961914"/>
</linearGradient>
<linearGradient id="paint4_linear_1611_693" x1="64411.3" y1="14686" x2="65764.5" y2="11399.8" gradientUnits="userSpaceOnUse">
<stop stop-color="#E40425" stop-opacity="0"/>
<stop offset="0.31" stop-color="#E10722" stop-opacity="0.9"/>
<stop offset="0.51" stop-color="#DF0A1F" stop-opacity="0.94"/>
<stop offset="0.81" stop-color="#B41319" stop-opacity="0.98"/>
<stop offset="1" stop-color="#961914"/>
</linearGradient>
<linearGradient id="paint5_linear_1611_693" x1="66148.7" y1="15947.5" x2="66135.2" y2="12436.6" gradientUnits="userSpaceOnUse">
<stop stop-color="#E40425" stop-opacity="0"/>
<stop offset="0.46" stop-color="#E10722" stop-opacity="0.9"/>
<stop offset="0.61" stop-color="#D30A1F" stop-opacity="0.92"/>
<stop offset="0.87" stop-color="#AD1318" stop-opacity="0.97"/>
<stop offset="1" stop-color="#961914"/>
</linearGradient>
<linearGradient id="paint6_linear_1611_693" x1="65858.5" y1="12422.7" x2="62502.6" y2="10141.9" gradientUnits="userSpaceOnUse">
<stop stop-color="#E40425" stop-opacity="0"/>
<stop offset="0.51" stop-color="#DF0A1F" stop-opacity="0"/>
<stop offset="0.66" stop-color="#C40E1B" stop-opacity="0.28"/>
<stop offset="0.99" stop-color="#811712" stop-opacity="0.98"/>
<stop offset="1" stop-color="#7F1712"/>
</linearGradient>
<image id="image0_1611_693" width="491" height="554"/>
</defs>
</svg>
