<svg width="80" height="80" viewBox="0 0 80 80" fill="none" xmlns="http://www.w3.org/2000/svg">
<path d="M55.4528 55.2999C55.8985 55.197 56.1385 54.717 56.0357 54.2713C55.9328 53.9285 55.9328 53.6885 55.9328 53.38C55.9328 52.9343 55.9328 52.5914 56.0357 52.2486C56.1385 51.9058 55.9328 51.4601 55.59 51.3572C51.2702 49.3002 48.8018 45.4604 48.8018 41.1407C48.8018 37.9523 50.036 35.141 52.4359 32.8783C54.9386 30.6156 58.2298 29.3813 62.3096 29.3813C65.1551 29.3813 67.7607 30.067 69.8863 31.3012C69.9891 31.4041 70.2291 31.4041 70.4691 31.4041L78.8686 29.6899C79.3143 29.587 79.76 29.9299 79.76 30.4784L80 37.0609C80 37.4037 79.76 37.7466 79.3143 37.8494L76.1259 38.4323C75.6802 38.5351 75.4403 38.8779 75.4403 39.3236C75.5431 40.0093 75.6802 40.5578 75.6802 41.1407C75.6802 44.1919 74.5489 46.7975 72.1833 49.0602C70.0234 51.1172 67.315 52.3515 63.7838 52.5572C63.3381 52.5572 63.0981 52.9 63.0981 53.3457C63.0981 53.4485 63.0981 53.6885 63.0981 53.9285C63.201 54.2713 63.441 54.6142 63.8866 54.6142C68.0693 54.8542 71.4634 55.7455 74.2061 57.3226C77.0516 59.0368 78.3887 61.5052 78.3887 64.7965C78.3887 68.0877 76.9145 70.6933 73.8632 72.3732C70.812 74.0874 66.9379 74.9787 62.1725 74.9787C57.3042 74.9787 53.4301 74.1902 50.3788 72.476C47.4304 70.7618 45.8534 68.2934 45.8534 64.7622C46.1619 59.9624 49.6932 56.7741 55.4528 55.2999ZM62.3782 66.8535C66.9036 66.8535 69.1663 66.1678 69.1663 64.7965C69.1663 63.3223 66.9036 62.6366 62.3782 62.6366C57.8527 62.6366 55.59 63.3223 55.59 64.7965C55.6928 66.2021 57.9556 66.8535 62.3782 66.8535ZM66.3551 41.1407C66.3551 38.9808 64.9837 37.5066 62.3782 37.5066C57.167 37.2666 56.927 44.9804 62.3782 44.4319C64.7437 44.5348 66.3551 43.3005 66.3551 41.1407Z" fill="white"/>
<path d="M6.08425 10.7654L5.74142 13.371C5.29573 16.7651 7.86701 19.7135 11.2268 19.7135H44.1392L5.84427 32.5013C3.82153 33.187 2.51875 34.8669 2.17591 36.9239L0.63314 47.2433L0.0503172 50.9803C-0.395371 54.3744 2.17591 57.3228 5.53572 57.3228H41.8079C44.482 57.3228 46.8476 55.2657 47.2933 52.5573L47.6361 49.9518C48.0818 46.5577 45.5106 43.6093 42.1507 43.6093H11.5011L47.3276 31.61C49.3503 30.9243 50.6531 29.2444 50.996 27.1873L52.5387 16.8679L53.2244 12.3425C53.6701 8.9484 51.0988 6 47.739 6H11.4668C8.75839 6 6.42709 8.02274 6.08425 10.7654Z" fill="white"/>
</svg>
