<svg width="30" height="30" viewBox="0 0 30 30" fill="none" xmlns="http://www.w3.org/2000/svg">
<path d="M15 30C23.3 30 30 23.3 30 15C30 6.7 23.3 0 15 0C6.7 0 0 6.7 0 15C0 23.3 6.7 30 15 30Z" fill="url(#paint0_linear_3214_22823)"/>
<path d="M15 28C22.2 28 28 22.2 28 15C28 7.8 22.2 2 15 2C7.8 2 2 7.8 2 15C2 22.2 7.8 28 15 28Z" fill="#333333"/>
<path d="M15 2.00002C17.6 2.00002 20.1 2.80002 22.2 4.20002C24.3 5.60002 26 7.70002 27 10C28 12.4 28.2 15 27.7 17.5C27.2 20 26 22.3 24.1 24.1C22.3 25.9 20 27.2 17.5 27.7C15 28.2 12.4 28 10 27C7.60003 26 5.60003 24.4 4.20003 22.2C2.80003 20 2.00003 17.6 2.00003 15C2.00003 13.3 2.30003 11.6 3.00003 10C3.70003 8.40002 4.60003 7.00002 5.80003 5.80002C7.00003 4.60002 8.40003 3.60002 10 3.00002C11.6 2.30002 13.3 2.00002 15 2.00002ZM15 1.40002C11.6 1.40002 8.40003 2.70002 5.90003 4.90002C3.40003 7.20002 1.90003 10.3 1.60003 13.6C1.30003 16.9 2.20003 20.3 4.20003 23C6.20003 25.7 9.10003 27.5 12.4 28.2C15.7 28.9 19.1 28.3 22 26.5C24.9 24.8 27 22 28 18.8C29 15.6 28.7 12.1 27.3 9.10002C25.9 6.10002 23.4 3.70002 20.3 2.40002C18.6 1.80002 16.8 1.40002 15 1.40002Z" fill="#212121"/>
<path d="M27.4 11.1C26.8 9.29998 25.9 7.59998 24.6 6.19998L17 11.7L17.9 2.39998C16 1.99998 14.1 1.99998 12.3 2.39998L13.2 11.7L5.39998 6.19998C4.09998 7.59998 3.09998 9.29998 2.59998 11.1L11.2 15L2.59998 18.9C3.19998 20.7 4.09998 22.4 5.39998 23.8L13 18.4L12.1 27.7C14 28.1 15.9 28.1 17.7 27.7L16.8 18.4L24.4 23.9C25.7 22.5 26.7 20.8 27.2 19L18.8 15L27.4 11.1Z" fill="url(#paint1_linear_3214_22823)"/>
<path d="M27.4 11.3V11.1L18.9 15L27.5 18.9V18.7L19.2 15L27.4 11.3Z" fill="url(#paint2_linear_3214_22823)"/>
<path d="M27.5 11.4V11.3V11.1L18.9 15L27.5 18.9V18.7V18.6L19.6 15L27.5 11.4Z" fill="url(#paint3_linear_3214_22823)"/>
<path d="M24.6 6.19999L24.5 6.09999L17.2 11.3L18.1 2.29999H18L17.1 11.6L24.6 6.19999Z" fill="url(#paint4_linear_3214_22823)"/>
<path d="M24.5 6.10002L24.3 6.00002L17.3 11L18.1 2.40002H18H17.9L17 11.7L24.6 6.20002L24.5 6.10002Z" fill="url(#paint5_linear_3214_22823)"/>
<path d="M12.2 2.29999H12L12.9 11.3L5.50002 6.09999L5.40002 6.19999L13 11.7L12.2 2.29999Z" fill="url(#paint6_linear_3214_22823)"/>
<path d="M12.2 2.29999H12H11.8L12.6 10.9L5.60002 5.89999L5.50002 6.09999L5.40002 6.19999L13 11.7L12.2 2.29999Z" fill="url(#paint7_linear_3214_22823)"/>
<path d="M2.59998 11.1V11.3L10.8 15L2.59998 18.7V18.9L11.2 15L2.59998 11.1Z" fill="url(#paint8_linear_3214_22823)"/>
<path d="M2.6 11.1V11.3L2.5 11.4L10.3 15L2.5 18.6V18.8V19L11.2 15.1L2.6 11.1Z" fill="url(#paint9_linear_3214_22823)"/>
<path d="M5.40002 23.8L5.50002 23.9L12.8 18.6L11.9 27.6H12L12.9 18.3L5.40002 23.8Z" fill="url(#paint10_linear_3214_22823)"/>
<path d="M5.40002 23.8L5.50002 23.9L5.70002 24L12.7 19L11.9 27.5H12H12.1L13 18.2L5.40002 23.8Z" fill="url(#paint11_linear_3214_22823)"/>
<path d="M17.8 27.7H18L17.1 18.6L24.4 23.8L24.5 23.7L16.9 18.2L17.8 27.7Z" fill="url(#paint12_linear_3214_22823)"/>
<path d="M16.9 18.3L17.8 27.6H18H18.2L17.4 19L24.4 24L24.5 23.9L24.6 23.8L16.9 18.3Z" fill="url(#paint13_linear_3214_22823)"/>
<path d="M15 24.3C20.1 24.3 24.2999 20.1 24.2999 15C24.2999 9.90001 20.1 5.70001 15 5.70001C9.89995 5.70001 5.69995 9.90001 5.69995 15C5.69995 20.1 9.89995 24.3 15 24.3Z" fill="#333333"/>
<path d="M15 24.5C13.1 24.5 11.3 23.9 9.69996 22.9C8.09996 21.9 6.89996 20.4 6.19996 18.6C5.49996 16.9 5.29996 14.9 5.69996 13.1C5.99996 11.3 6.89996 9.60002 8.29996 8.30002C9.69996 7.00002 11.3 6.10002 13.2 5.70002C15 5.30002 17 5.50002 18.7 6.20002C20.4 6.90002 21.9 8.10002 23 9.70002C24 11.3 24.6 13.1 24.6 15C24.6 17.5 23.6 19.9 21.8 21.7C19.9 23.5 17.5 24.5 15 24.5ZM15 5.90002C13.2 5.90002 11.5 6.40002 9.99996 7.40002C8.49996 8.40002 7.39996 9.80002 6.69996 11.5C5.99996 13.2 5.79996 15 6.09996 16.7C6.39996 18.5 7.29996 20.1 8.59996 21.3C9.89996 22.6 11.5 23.4 13.2 23.8C15 24.1 16.8 24 18.4 23.3C20.1 22.6 21.5 21.5 22.5 20C23.5 18.5 24 16.8 24 15C24 12.6 23 10.3 21.3 8.60002C19.7 6.90002 17.4 5.90002 15 5.90002Z" fill="url(#paint14_linear_3214_22823)"/>
<path opacity="0.5" d="M15 2.7C18.4 2.7 21.6 4 24.1 6.4C26.5 8.8 27.9 12 28 15.4V15C28 11.5 26.6 8.2 24.2 5.8C21.8 3.4 18.4 2 15 2C11.6 2 8.20002 3.3 5.70002 5.8C3.20002 8.3 1.90002 11.5 1.90002 15V15.3C2.00002 11.9 3.40002 8.7 5.80002 6.3C8.30002 3.9 11.6 2.6 15 2.7Z" fill="white"/>
<path opacity="0.2" d="M15 27.2C11.6 27.2 8.4 25.9 6 23.5C3.5 21.2 2.1 18 2 14.6V15C2 18.5 3.4 21.8 5.8 24.2C8.2 26.6 11.6 28 15 28C18.4 28 21.8 26.6 24.2 24.2C26.6 21.8 28 18.4 28 15V14.6C27.9 18 26.5 21.2 24 23.6C21.7 25.9 18.4 27.2 15 27.2Z" fill="black"/>
<path d="M16.5 11.7C17 11.5 17.1 11.2 16.7 11.1C16.3 11 15.9 11.1 15.5 11.2L14.8 11.5L15.9 12L16.5 11.7Z" fill="url(#paint15_radial_3214_22823)"/>
<path d="M15 10.6C14.8 10.5 14.6 10.5 14.4 10.5C14.2 10.5 14 10.6 13.8 10.7L13.4 10.9L14.4 11.3L15 11C15.3 10.9 15.3 10.7 15 10.6Z" fill="url(#paint16_radial_3214_22823)"/>
<path d="M20.2 12.4C19.7 12.7 16.8 13.9 15.8 14.3C15.6 14.4 15.5 14.5 15.4 14.6C15.3 14.7 15.2 14.9 15.2 15.1C15.2 15.1 15.2 15.1 15.2 15.2C15.2 17.6 15.2 19.9 15.1 20.9C15.1 21 15.1 21.1 15.2 21.2C15.2 21.3 15.3 21.3 15.4 21.4C15.5 21.4 15.6 21.5 15.7 21.4C15.8 21.4 15.9 21.4 15.9 21.3L16 21.2C16.5 20.7 20 18.4 20 18.4C20 18.4 20.4 18.3 20.5 17.5L21.1 12.3C21.1 12.4 20.9 12.1 20.2 12.4ZM19.4 17.5C19.2 17.8 19 18.1 18.7 18.3V18.9L17.9 19.3V18.8C17.6 19 17.2 19 16.9 19V18C17.1 18.1 17.3 18.1 17.5 18C17.7 18 18 17.9 18.2 17.8C18.5 17.6 18.7 17.4 18.7 17.2V17.1H18.6H18.4L18 16.9H17.3C17.2 16.9 17.1 16.8 17 16.7C16.9 16.6 16.9 16.4 16.9 16.2C16.9 15.9 17 15.6 17.2 15.3C17.4 15 17.6 14.7 17.9 14.5V14L18.6 13.6V14.1C18.8 14 19.1 14 19.4 14V15C19.2 15 19 15 18.9 15C18.7 15 18.5 15.1 18.3 15.2C18 15.4 17.9 15.5 17.9 15.7C17.9 15.9 17.9 15.9 18 15.8H18.7C19 15.7 19.2 15.7 19.5 15.8C19.7 15.9 19.8 16.1 19.8 16.4C19.7 16.8 19.6 17.1 19.4 17.5Z" fill="url(#paint17_radial_3214_22823)"/>
<path d="M14.4 14.3L10.1 12.1C9.89998 12 9.79998 12 9.59998 12C9.39998 12 9.29998 12 9.09998 12.1L9.49998 17.3C9.49998 18.1 9.89997 18.2 9.89997 18.2C9.89997 18.2 13 20.4 13.8 21.2L14 21.3C14.1 21.3 14.1 21.4 14.2 21.4C14.3 21.4 14.3 21.4 14.4 21.4C14.5 21.4 14.5 21.3 14.6 21.3C14.6 21.2 14.7 21.2 14.7 21.1L14.9 15.2C14.9 15.2 14.9 15.2 14.9 15.1C14.9 14.9 14.8 14.8 14.7 14.6C14.6 14.5 14.5 14.4 14.4 14.3ZM13.3 19.3C13 19.3 12.7 19.2 12.5 19C12.1 18.7 11.7 18.4 11.4 18C11.1 17.6 10.9 17.1 10.8 16.5L10.4 16.3V15.7L10.7 15.9V15.6L10.4 15.4V14.8L10.8 15C10.8 14.8 10.9 14.7 11 14.6C11.1 14.5 11.2 14.4 11.4 14.3C11.6 14.3 11.8 14.2 11.9 14.3C12.1 14.3 12.2 14.4 12.4 14.5C12.7 14.7 12.9 14.9 13.2 15.1V16.1C13 15.9 12.8 15.7 12.6 15.5C12.3 15.3 12 15.3 11.8 15.5L12.6 15.9V16.5L11.7 15.9V16V16.1L12.6 16.6V17.2L11.8 16.7C11.9 17.1 12.2 17.5 12.6 17.7C12.7 17.8 12.8 17.8 12.9 17.8C13 17.8 13.2 17.8 13.3 17.8V19.3Z" fill="url(#paint18_radial_3214_22823)"/>
<path d="M20.2999 11.7C20.3999 11.6 20.5 11.5 20.5 11.4C20.5 11.3 20.5 11.2 20.4 11.1L20.2999 11L16 9.1C15.7 9 15.4 9 15 9C14.7 9 14.4 9.1 14.1 9.2L9.79995 10.9C9.79995 10.9 9.29995 11.2 10.1 11.8L14.6 14C14.8 14.1 15 14.1 15.2 14.1C15.4 14.1 15.6 14 15.8 13.9C16.4 13.4 20.2999 11.7 20.2999 11.7ZM15.1 13L14.6 12.8L15 12.6C15.1 12.6 15.1 12.5 15 12.4L12.8 11.5C12.7 11.5 12.7 11.5 12.6 11.5C12.5 11.5 12.5 11.5 12.4 11.5L12 11.6L11.5 11.4L12.5 10.9L12 10.7L12.5 10.5L13 10.7L13.3 10.5L12.8 10.3L13.3 10.1L13.8 10.3C14.4 10 15.1 9.9 15.8 10.1C16.2 10.2 16.4 10.4 16.2 10.7C16.7 10.5 17.2 10.5 17.7 10.7C18.4 11 18.5 11.4 17.5 11.8H17.4L17.9 12L17.4 12.3L16.9 12.1L16.6 12.3L17.1 12.5L16.6 12.7L16 12.5L15.1 13Z" fill="url(#paint19_radial_3214_22823)"/>
<path d="M16.5 11.7C17 11.5 17.1 11.2 16.7 11.1C16.3 11 15.9 11.1 15.5 11.2L14.8 11.5L15.9 12L16.5 11.7Z" fill="url(#paint20_linear_3214_22823)"/>
<path d="M15 10.6C14.8 10.5 14.6 10.5 14.4 10.5C14.2 10.5 14 10.6 13.8 10.7L13.4 10.9L14.4 11.3L15 11C15.3 10.9 15.3 10.7 15 10.6Z" fill="url(#paint21_linear_3214_22823)"/>
<path d="M20.2 12.4C19.7 12.7 16.8 13.9 15.8 14.3C15.6 14.4 15.5 14.5 15.4 14.6C15.3 14.7 15.2 14.9 15.2 15.1C15.2 15.1 15.2 15.1 15.2 15.2C15.2 17.6 15.2 19.9 15.1 20.9C15.1 21 15.1 21.1 15.2 21.2C15.2 21.3 15.3 21.3 15.4 21.4C15.5 21.4 15.6 21.5 15.7 21.4C15.8 21.4 15.9 21.4 15.9 21.3L16 21.2C16.5 20.7 20 18.4 20 18.4C20 18.4 20.4 18.3 20.5 17.5L21.1 12.3C21.1 12.4 20.9 12.1 20.2 12.4ZM19.4 17.5C19.2 17.8 19 18.1 18.7 18.3V18.9L17.9 19.3V18.8C17.6 19 17.2 19 16.9 19V18C17.1 18.1 17.3 18.1 17.5 18C17.7 18 18 17.9 18.2 17.8C18.5 17.6 18.7 17.4 18.7 17.2V17.1H18.6H18.4L18 16.9H17.3C17.2 16.9 17.1 16.8 17 16.7C16.9 16.6 16.9 16.4 16.9 16.2C16.9 15.9 17 15.6 17.2 15.3C17.4 15 17.6 14.7 17.9 14.5V14L18.6 13.6V14.1C18.8 14 19.1 14 19.4 14V15C19.2 15 19 15 18.9 15C18.7 15 18.5 15.1 18.3 15.2C18 15.4 17.9 15.5 17.9 15.7C17.9 15.9 17.9 15.9 18 15.8H18.7C19 15.7 19.2 15.7 19.5 15.8C19.7 15.9 19.8 16.1 19.8 16.4C19.7 16.8 19.6 17.1 19.4 17.5Z" fill="url(#paint22_linear_3214_22823)"/>
<path d="M14.4 14.3L10.1 12.1C9.89998 12 9.79998 12 9.59998 12C9.39998 12 9.29998 12 9.09998 12.1L9.49998 17.3C9.49998 18.1 9.89997 18.2 9.89997 18.2C9.89997 18.2 13 20.4 13.8 21.2L14 21.3C14.1 21.3 14.1 21.4 14.2 21.4C14.3 21.4 14.3 21.4 14.4 21.4C14.5 21.4 14.5 21.3 14.6 21.3C14.6 21.2 14.7 21.2 14.7 21.1L14.9 15.2C14.9 15.2 14.9 15.2 14.9 15.1C14.9 14.9 14.8 14.8 14.7 14.6C14.6 14.5 14.5 14.4 14.4 14.3ZM13.3 19.3C13 19.3 12.7 19.2 12.5 19C12.1 18.7 11.7 18.4 11.4 18C11.1 17.6 10.9 17.1 10.8 16.5L10.4 16.3V15.7L10.7 15.9V15.6L10.4 15.4V14.8L10.8 15C10.8 14.8 10.9 14.7 11 14.6C11.1 14.5 11.2 14.4 11.4 14.3C11.6 14.3 11.8 14.2 11.9 14.3C12.1 14.3 12.2 14.4 12.4 14.5C12.7 14.7 12.9 14.9 13.2 15.1V16.1C13 15.9 12.8 15.7 12.6 15.5C12.3 15.3 12 15.3 11.8 15.5L12.6 15.9V16.5L11.7 15.9V16V16.1L12.6 16.6V17.2L11.8 16.7C11.9 17.1 12.2 17.5 12.6 17.7C12.7 17.8 12.8 17.8 12.9 17.8C13 17.8 13.2 17.8 13.3 17.8V19.3Z" fill="url(#paint23_linear_3214_22823)"/>
<path d="M20.2999 11.7C20.3999 11.6 20.5 11.5 20.5 11.4C20.5 11.3 20.5 11.2 20.4 11.1L20.2999 11L16 9.1C15.7 9 15.4 9 15 9C14.7 9 14.4 9.1 14.1 9.2L9.79995 10.9C9.79995 10.9 9.29995 11.2 10.1 11.8L14.6 14C14.8 14.1 15 14.1 15.2 14.1C15.4 14.1 15.6 14 15.8 13.9C16.4 13.4 20.2999 11.7 20.2999 11.7ZM15.1 13L14.6 12.8L15 12.6C15.1 12.6 15.1 12.5 15 12.4L12.8 11.5C12.7 11.5 12.7 11.5 12.6 11.5C12.5 11.5 12.5 11.5 12.4 11.5L12 11.6L11.5 11.4L12.5 10.9L12 10.7L12.5 10.5L13 10.7L13.3 10.5L12.8 10.3L13.3 10.1L13.8 10.3C14.4 10 15.1 9.9 15.8 10.1C16.2 10.2 16.4 10.4 16.2 10.7C16.7 10.5 17.2 10.5 17.7 10.7C18.4 11 18.5 11.4 17.5 11.8H17.4L17.9 12L17.4 12.3L16.9 12.1L16.6 12.3L17.1 12.5L16.6 12.7L16 12.5L15.1 13Z" fill="url(#paint24_linear_3214_22823)"/>
<defs>
<linearGradient id="paint0_linear_3214_22823" x1="29.9991" y1="15" x2="0" y2="15" gradientUnits="userSpaceOnUse">
<stop stop-color="#BE6D00"/>
<stop offset="0.19" stop-color="#D09222"/>
<stop offset="0.44" stop-color="#E4BD4A"/>
<stop offset="0.67" stop-color="#F3DB67"/>
<stop offset="0.86" stop-color="#FCEE79"/>
<stop offset="1" stop-color="#FFF57F"/>
</linearGradient>
<linearGradient id="paint1_linear_3214_22823" x1="14.9923" y1="28.8065" x2="14.9923" y2="1.18108" gradientUnits="userSpaceOnUse">
<stop offset="0.15" stop-color="#5C19B1"/>
<stop offset="1" stop-color="#731EDF"/>
</linearGradient>
<linearGradient id="paint2_linear_3214_22823" x1="23.1499" y1="28.8066" x2="23.1499" y2="1.18118" gradientUnits="userSpaceOnUse">
<stop offset="0.15" stop-color="#5C19B1"/>
<stop offset="1" stop-color="#731EDF"/>
</linearGradient>
<linearGradient id="paint3_linear_3214_22823" x1="23.1982" y1="1.03228" x2="23.1982" y2="28.9678" gradientUnits="userSpaceOnUse">
<stop stop-color="#BE6D00"/>
<stop offset="0.19" stop-color="#D09222"/>
<stop offset="0.44" stop-color="#E4BD4A"/>
<stop offset="0.67" stop-color="#F3DB67"/>
<stop offset="0.86" stop-color="#FCEE79"/>
<stop offset="1" stop-color="#FFF57F"/>
</linearGradient>
<linearGradient id="paint4_linear_3214_22823" x1="20.7362" y1="28.8066" x2="20.7362" y2="1.18129" gradientUnits="userSpaceOnUse">
<stop offset="0.15" stop-color="#5C19B1"/>
<stop offset="1" stop-color="#731EDF"/>
</linearGradient>
<linearGradient id="paint5_linear_3214_22823" x1="20.7386" y1="-14.9822" x2="20.7386" y2="12.9533" gradientUnits="userSpaceOnUse">
<stop stop-color="#BE6D00"/>
<stop offset="0.19" stop-color="#D09222"/>
<stop offset="0.44" stop-color="#E4BD4A"/>
<stop offset="0.67" stop-color="#F3DB67"/>
<stop offset="0.86" stop-color="#FCEE79"/>
<stop offset="1" stop-color="#FFF57F"/>
</linearGradient>
<linearGradient id="paint6_linear_3214_22823" x1="9.25562" y1="28.8065" x2="9.25562" y2="1.18109" gradientUnits="userSpaceOnUse">
<stop offset="0.15" stop-color="#5C19B1"/>
<stop offset="1" stop-color="#731EDF"/>
</linearGradient>
<linearGradient id="paint7_linear_3214_22823" x1="9.25562" y1="-14.9699" x2="9.25562" y2="12.9656" gradientUnits="userSpaceOnUse">
<stop stop-color="#BE6D00"/>
<stop offset="0.19" stop-color="#D09222"/>
<stop offset="0.44" stop-color="#E4BD4A"/>
<stop offset="0.67" stop-color="#F3DB67"/>
<stop offset="0.86" stop-color="#FCEE79"/>
<stop offset="1" stop-color="#FFF57F"/>
</linearGradient>
<linearGradient id="paint8_linear_3214_22823" x1="6.88788" y1="28.8065" x2="6.88788" y2="1.18118" gradientUnits="userSpaceOnUse">
<stop offset="0.15" stop-color="#5C19B1"/>
<stop offset="1" stop-color="#731EDF"/>
</linearGradient>
<linearGradient id="paint9_linear_3214_22823" x1="6.8226" y1="1.04468" x2="6.8226" y2="28.9802" gradientUnits="userSpaceOnUse">
<stop stop-color="#BE6D00"/>
<stop offset="0.19" stop-color="#D09222"/>
<stop offset="0.44" stop-color="#E4BD4A"/>
<stop offset="0.67" stop-color="#F3DB67"/>
<stop offset="0.86" stop-color="#FCEE79"/>
<stop offset="1" stop-color="#FFF57F"/>
</linearGradient>
<linearGradient id="paint10_linear_3214_22823" x1="9.26772" y1="28.8065" x2="9.26772" y2="1.18119" gradientUnits="userSpaceOnUse">
<stop offset="0.15" stop-color="#5C19B1"/>
<stop offset="1" stop-color="#731EDF"/>
</linearGradient>
<linearGradient id="paint11_linear_3214_22823" x1="9.26772" y1="17.0344" x2="9.26772" y2="44.9698" gradientUnits="userSpaceOnUse">
<stop stop-color="#BE6D00"/>
<stop offset="0.19" stop-color="#D09222"/>
<stop offset="0.44" stop-color="#E4BD4A"/>
<stop offset="0.67" stop-color="#F3DB67"/>
<stop offset="0.86" stop-color="#FCEE79"/>
<stop offset="1" stop-color="#FFF57F"/>
</linearGradient>
<linearGradient id="paint12_linear_3214_22823" x1="20.7314" y1="28.8066" x2="20.7314" y2="1.18121" gradientUnits="userSpaceOnUse">
<stop offset="0.15" stop-color="#5C19B1"/>
<stop offset="1" stop-color="#731EDF"/>
</linearGradient>
<linearGradient id="paint13_linear_3214_22823" x1="20.7556" y1="17.0469" x2="20.7556" y2="44.9824" gradientUnits="userSpaceOnUse">
<stop stop-color="#BE6D00"/>
<stop offset="0.19" stop-color="#D09222"/>
<stop offset="0.44" stop-color="#E4BD4A"/>
<stop offset="0.67" stop-color="#F3DB67"/>
<stop offset="0.86" stop-color="#FCEE79"/>
<stop offset="1" stop-color="#FFF57F"/>
</linearGradient>
<linearGradient id="paint14_linear_3214_22823" x1="14.9975" y1="24.5144" x2="14.9975" y2="5.48632" gradientUnits="userSpaceOnUse">
<stop stop-color="#BE6D00"/>
<stop offset="0.19" stop-color="#D09222"/>
<stop offset="0.44" stop-color="#E4BD4A"/>
<stop offset="0.67" stop-color="#F3DB67"/>
<stop offset="0.86" stop-color="#FCEE79"/>
<stop offset="1" stop-color="#FFF57F"/>
</linearGradient>
<radialGradient id="paint15_radial_3214_22823" cx="0" cy="0" r="1" gradientUnits="userSpaceOnUse" gradientTransform="translate(15.9547 11.5266) scale(0.806315)">
<stop stop-color="#BE6D00"/>
<stop offset="0.19" stop-color="#D09222"/>
<stop offset="0.44" stop-color="#E4BD4A"/>
<stop offset="0.67" stop-color="#F3DB67"/>
<stop offset="0.86" stop-color="#FCEE79"/>
<stop offset="1" stop-color="#FFF57F"/>
</radialGradient>
<radialGradient id="paint16_radial_3214_22823" cx="0" cy="0" r="1" gradientUnits="userSpaceOnUse" gradientTransform="translate(14.3414 10.9316) scale(0.694551)">
<stop stop-color="#BE6D00"/>
<stop offset="0.19" stop-color="#D09222"/>
<stop offset="0.44" stop-color="#E4BD4A"/>
<stop offset="0.67" stop-color="#F3DB67"/>
<stop offset="0.86" stop-color="#FCEE79"/>
<stop offset="1" stop-color="#FFF57F"/>
</radialGradient>
<radialGradient id="paint17_radial_3214_22823" cx="0" cy="0" r="1" gradientUnits="userSpaceOnUse" gradientTransform="translate(18.1297 16.838) scale(3.8844)">
<stop stop-color="#BE6D00"/>
<stop offset="0.19" stop-color="#D09222"/>
<stop offset="0.44" stop-color="#E4BD4A"/>
<stop offset="0.67" stop-color="#F3DB67"/>
<stop offset="0.86" stop-color="#FCEE79"/>
<stop offset="1" stop-color="#FFF57F"/>
</radialGradient>
<radialGradient id="paint18_radial_3214_22823" cx="0" cy="0" r="1" gradientUnits="userSpaceOnUse" gradientTransform="translate(12.0358 16.6884) scale(3.8951)">
<stop stop-color="#BE6D00"/>
<stop offset="0.19" stop-color="#D09222"/>
<stop offset="0.44" stop-color="#E4BD4A"/>
<stop offset="0.67" stop-color="#F3DB67"/>
<stop offset="0.86" stop-color="#FCEE79"/>
<stop offset="1" stop-color="#FFF57F"/>
</radialGradient>
<radialGradient id="paint19_radial_3214_22823" cx="0" cy="0" r="1" gradientUnits="userSpaceOnUse" gradientTransform="translate(15.1376 11.5256) scale(4.2089)">
<stop stop-color="#BE6D00"/>
<stop offset="0.19" stop-color="#D09222"/>
<stop offset="0.44" stop-color="#E4BD4A"/>
<stop offset="0.67" stop-color="#F3DB67"/>
<stop offset="0.86" stop-color="#FCEE79"/>
<stop offset="1" stop-color="#FFF57F"/>
</radialGradient>
<linearGradient id="paint20_linear_3214_22823" x1="15.9271" y1="21.4256" x2="15.9271" y2="8.99602" gradientUnits="userSpaceOnUse">
<stop stop-color="#BE6D00"/>
<stop offset="0.19" stop-color="#D09222"/>
<stop offset="0.44" stop-color="#E4BD4A"/>
<stop offset="0.67" stop-color="#F3DB67"/>
<stop offset="0.86" stop-color="#FCEE79"/>
<stop offset="1" stop-color="#FFF57F"/>
</linearGradient>
<linearGradient id="paint21_linear_3214_22823" x1="14.3034" y1="21.4258" x2="14.3034" y2="8.9962" gradientUnits="userSpaceOnUse">
<stop stop-color="#BE6D00"/>
<stop offset="0.19" stop-color="#D09222"/>
<stop offset="0.44" stop-color="#E4BD4A"/>
<stop offset="0.67" stop-color="#F3DB67"/>
<stop offset="0.86" stop-color="#FCEE79"/>
<stop offset="1" stop-color="#FFF57F"/>
</linearGradient>
<linearGradient id="paint22_linear_3214_22823" x1="18.1118" y1="21.4257" x2="18.1118" y2="8.99623" gradientUnits="userSpaceOnUse">
<stop stop-color="#BE6D00"/>
<stop offset="0.19" stop-color="#D09222"/>
<stop offset="0.44" stop-color="#E4BD4A"/>
<stop offset="0.67" stop-color="#F3DB67"/>
<stop offset="0.86" stop-color="#FCEE79"/>
<stop offset="1" stop-color="#FFF57F"/>
</linearGradient>
<linearGradient id="paint23_linear_3214_22823" x1="12.0248" y1="21.4133" x2="12.0248" y2="8.9836" gradientUnits="userSpaceOnUse">
<stop stop-color="#BE6D00"/>
<stop offset="0.19" stop-color="#D09222"/>
<stop offset="0.44" stop-color="#E4BD4A"/>
<stop offset="0.67" stop-color="#F3DB67"/>
<stop offset="0.86" stop-color="#FCEE79"/>
<stop offset="1" stop-color="#FFF57F"/>
</linearGradient>
<linearGradient id="paint24_linear_3214_22823" x1="15.1356" y1="21.4258" x2="15.1356" y2="8.9963" gradientUnits="userSpaceOnUse">
<stop stop-color="#BE6D00"/>
<stop offset="0.19" stop-color="#D09222"/>
<stop offset="0.44" stop-color="#E4BD4A"/>
<stop offset="0.67" stop-color="#F3DB67"/>
<stop offset="0.86" stop-color="#FCEE79"/>
<stop offset="1" stop-color="#FFF57F"/>
</linearGradient>
</defs>
</svg>
