<?xml version="1.0" encoding="utf-8"?>
<!-- Generator: Adobe Illustrator 23.0.2, SVG Export Plug-In . SVG Version: 6.00 Build 0)  -->
<svg version="1.1" id="Layer_1" xmlns="http://www.w3.org/2000/svg" xmlns:xlink="http://www.w3.org/1999/xlink" x="0px" y="0px"
	 viewBox="0 0 80 80" style="enable-background:new 0 0 80 80;" xml:space="preserve">
<style type="text/css">
	.st0{fill:#810F26;}
</style>
<title>habanero color</title>
<desc>Created with Sketch.</desc>
<g>
	<path class="st0" d="M27.2,8.3c6.4,4.6,13.5,7.9,21.1,10c-3.6,5.3-7,10.9-8.5,17.1c3.4-3.7,5.2-8.6,8.1-12.6c2-2.9,5.4-5,8.9-5
		c3,0,6,2,6.9,4.9c0.5,1.5,0.2,3.1,0.2,4.7c2-1.8,2.8-4.4,3.4-6.9c1.4,3.9,2.9,7.7,4.5,11.4c-2-1.5-4.3-2.7-6.8-2.8
		c1.1,1.6,2.7,2.8,3.1,4.8c0.7,2.9-0.5,6.1-3,7.8c-2.6,1.8-5.8,2.5-8.9,1.9c-4.9-0.8-9.4-2.9-14.3-3.6c2.4,2.5,5.7,3.8,8.5,5.6
		c3.5,1.9,7.2,4.6,8.3,8.7c1.3,3.7-0.7,8.2-4.4,9.4c-2,0.8-4.2,0.1-6.1-0.7c-0.7,1.5-1.4,3.1-2.8,4c-2.7,2-6.8,1.6-9.1-0.8
		c-2.4-2.4-3.4-6-3-9.3c0.3-3.1,1.6-6,2.2-9c-1.3,0.9-1.6,2.4-2.1,3.8c-2.1,5.9-4.8,11.7-5,18.1c-0.2,1.1,0.2,2.6-0.8,3.4
		c-0.9,0.1-1.8,0-2.7,0c-0.4-4.8,0.8-9.5,2.9-13.8c2.6-5.2,5.5-10.2,8.1-15.4c1.3-2.4,0.8-5.4-1-7.4c-1.6-1.7-3.8-2.4-5.9-3.2
		c-3.9-1.4-7.8-2.8-11.8-4C21.8,23,25.2,15.8,27.2,8.3z"/>
	<path class="st0" d="M12,40.4c-0.5-2.7,1.3-5.7,4.1-6.3c1.5-0.2,3.2-0.2,4.5,0.7c1.2,0.7,1.7,2,2.4,3.1c2.1-1.4,5-1.9,7.1-0.3
		c2.5,1.7,3,5.4,1.2,7.8c-1.1,1.7-3.2,2.2-5.1,2.3c0.7,2.2,0.3,4.9-1.6,6.4c-2.4,2.2-6.6,1.6-8.3-1.2c-1.4-2-0.6-4.4-0.2-6.5
		c-2.1,1.3-2.9,3.7-3.6,6c-1-3.3-2.2-6.6-3.4-9.8c1.8,1.5,3.9,2.6,6.3,2.7C14.2,43.7,12.3,42.5,12,40.4z"/>
</g>
</svg>
