<?xml version="1.0" encoding="UTF-8"?>
<svg width="80px" height="80px" viewBox="0 0 80 80" version="1.1" xmlns="http://www.w3.org/2000/svg" xmlns:xlink="http://www.w3.org/1999/xlink">
    <!-- Generator: Sketch 48.2 (47327) - http://www.bohemiancoding.com/sketch -->
    <title>isoftbet color</title>
    <desc>Created with Sketch.</desc>
    <defs></defs>
    <g id="Page-1" stroke="none" stroke-width="1" fill="none" fill-rule="evenodd">
        <g id="isoftbet-color" fill-rule="nonzero">
            <g id="isoftbet_b" transform="translate(13.000000, 12.500000)">
                <path d="M9.78397958,4.56952392 C10.9994143,4.55290335 12.1764473,4.99506918 13.0803155,5.80783002 C14.0502954,6.69882014 14.5635132,7.98186486 14.47559,9.29601621 C14.5660964,10.6105748 14.0524467,11.8946988 13.0803155,12.7842024 C12.1790863,13.6032943 11.0017584,14.0518001 9.78397958,14.0399494 C8.56589095,14.0535345 7.38795024,13.6047952 6.48764362,12.7842024 C5.51334161,11.8962019 4.99925421,10.6109835 5.09236915,9.29601621 C4.99925421,7.98104897 5.51334161,6.69583048 6.48764362,5.80783002 C7.39060028,4.9935697 8.56824364,4.55117458 9.78397958,4.56952392 M9.78397958,0 C7.46676082,0.0184543956 5.23998013,0.901702602 3.54012629,2.4766122 C1.6267617,4.1833729 0.56146244,6.64568136 0.627490816,9.20881156 C0.551879115,11.7751919 1.61105673,14.2444795 3.52268536,15.9584518 C5.24447095,17.4964805 7.47531048,18.3415896 9.78397958,18.3304185 C12.0932496,18.3449242 14.3252476,17.4993762 16.0452738,15.9584518 C17.9521777,14.2484591 19.0109032,11.7866034 18.9404683,9.22625249 C19.0153169,6.66867471 17.9631616,4.20726889 16.0627147,2.49405313 C14.3557286,0.90615373 12.1152805,0.0161979464 9.78397958,0" id="Shape" fill="#FCAF1C"></path>
                <path d="M12.4175602,22.6732103 L12.4175602,54.4157047 L6.85390317,54.4157047 L6.85390317,22.4639191 C7.74848047,22.7290381 8.6765345,22.8641346 9.60957027,22.8650605 C10.5495127,22.8629048 11.4839766,22.7218537 12.3826783,22.4464782 L12.4175602,22.6732103 Z" id="Shape" fill="#FCAF1C"></path>
                <path d="M47.2296584,14.5631774 C46.7936351,9.08672504 44.5611959,4.93578347 38.997539,4.93578347 C35.2218902,4.67641375 31.9505276,7.52616878 31.6897889,11.3017233 C31.6897889,11.4993872 31.6897889,11.7028647 31.6897889,11.9121559 C31.6897889,23.9812801 53.1595749,24.1208075 53.1595749,41.3175655 C53.1595749,49.8287398 48.2761142,54.9389326 39.4510032,54.9389326 C31.0793563,54.9389326 26.0389273,48.7822839 25.8993998,39.8350864 L31.2363247,39.8350864 C31.3758521,46.1312624 34.3408104,50.0554719 40.0439948,50.0554719 C44.8576918,50.0554719 47.9621775,46.9509862 47.9621775,41.2478018 C47.9621775,29.0391501 26.4923915,27.6961984 26.4923915,12.4353838 C26.4923915,4.88346067 31.7246707,-3.55271368e-15 39.3812394,-3.55271368e-15 C47.0378081,-3.55271368e-15 52.1131191,5.23227929 52.5665833,14.5108546 L47.2296584,14.5631774 Z" id="Shape" fill="#898989"></path>
            </g>
        </g>
    </g>
</svg>