<svg width="15" height="18" viewBox="0 0 15 18" fill="none" xmlns="http://www.w3.org/2000/svg">
<path d="M10.2484 8.85005C9.3868 8.85186 8.54407 8.59804 7.82683 8.1207C7.10958 7.64336 6.55007 6.96397 6.21911 6.16851C5.88815 5.37305 5.80061 4.49729 5.96758 3.65206C6.13455 2.80683 6.54852 2.03014 7.15709 1.42028C7.76567 0.810419 8.54149 0.394814 9.38636 0.226063C10.2312 0.057312 11.1072 0.143002 11.9033 0.472288C12.6995 0.801573 13.3801 1.35965 13.8589 2.07589C14.3378 2.79212 14.5934 3.63432 14.5934 4.49588C14.5934 5.64909 14.1359 6.75521 13.3213 7.57151C12.5067 8.38781 11.4016 8.84762 10.2484 8.85005ZM10.2484 1.51672C9.65836 1.5149 9.08111 1.68832 8.58979 2.01497C8.09846 2.34163 7.7152 2.80682 7.48858 3.35156C7.26195 3.89631 7.20218 4.49608 7.31684 5.07483C7.4315 5.65359 7.71543 6.18526 8.13262 6.60246C8.54982 7.01965 9.08149 7.30358 9.66025 7.41824C10.239 7.5329 10.8388 7.47313 11.3835 7.2465C11.9283 7.01988 12.3934 6.63662 12.7201 6.14529C13.0468 5.65397 13.2202 5.07672 13.2184 4.48672C13.2135 3.70136 12.8988 2.94968 12.3426 2.39519C11.7864 1.84071 11.0337 1.52828 10.2484 1.52588V1.51672Z" fill="#FACD0D"/>
<path d="M12.5034 17.8517H0.760864C0.578528 17.8517 0.40366 17.7793 0.274728 17.6504C0.145797 17.5214 0.0733643 17.3466 0.0733643 17.1642C0.0733643 16.9819 0.145797 16.807 0.274728 16.6781C0.40366 16.5491 0.578528 16.4767 0.760864 16.4767H12.5034C12.6857 16.4767 12.8606 16.5491 12.9895 16.6781C13.1184 16.807 13.1909 16.9819 13.1909 17.1642C13.1909 17.3466 13.1184 17.5214 12.9895 17.6504C12.8606 17.7793 12.6857 17.8517 12.5034 17.8517Z" fill="#FACD0D"/>
<path d="M6.5817 17.8517C6.51784 17.8606 6.45306 17.8606 6.3892 17.8517C6.21416 17.8007 6.06656 17.6822 5.97889 17.5223C5.89122 17.3624 5.87064 17.1743 5.9217 16.9992L8.58003 7.83255C8.60422 7.7452 8.64567 7.66359 8.70193 7.59253C8.75819 7.52148 8.82812 7.46241 8.90759 7.41883C8.98706 7.37525 9.07445 7.34804 9.16462 7.3388C9.25478 7.32957 9.34588 7.33849 9.43253 7.36505C9.6062 7.41818 9.75226 7.53702 9.83958 7.69626C9.92691 7.8555 9.9486 8.04255 9.90003 8.21755L7.2417 17.3842C7.19401 17.5211 7.10479 17.6397 6.98649 17.7235C6.86818 17.8073 6.72668 17.8522 6.5817 17.8517Z" fill="#FACD0D"/>
</svg>
